<svg width="364" height="505" viewBox="0 0 364 505" fill="none" xmlns="http://www.w3.org/2000/svg">
<g clip-path="url(#clip0_61_1649)">
<path fill-rule="evenodd" clip-rule="evenodd" d="M257.326 19.1399C255.691 19.6307 254.055 20.1215 252.255 20.6122C250.619 21.103 248.82 21.4302 247.02 21.2666C245.384 21.2666 243.749 21.103 242.113 20.7758C240.477 20.4486 238.677 19.7943 237.041 19.1399C235.406 18.4856 233.77 17.8312 232.461 16.3589C233.442 15.8681 234.424 15.541 235.406 15.541C238.841 15.541 242.44 15.3774 245.875 15.8681C248.656 16.3589 251.601 16.3589 254.545 16.3589C256.181 16.3589 257.654 15.7046 259.29 15.3774C259.617 15.2138 259.944 15.2138 260.271 15.0502C260.925 15.7046 260.762 16.3589 260.271 16.8497C259.78 17.3405 259.29 17.8312 258.635 18.1584C258.799 18.9763 258.962 19.7943 259.126 20.6122C260.108 23.5568 260.598 26.5014 261.089 29.4461C261.58 33.2086 262.071 36.9712 262.398 40.7337C263.052 49.2404 262.725 57.9106 262.725 66.5808C262.725 68.7075 262.725 70.9977 262.725 73.1244C262.725 74.5967 262.398 76.2326 262.398 77.7049C262.398 79.0136 262.234 80.4859 262.398 81.7946C262.398 85.23 261.907 88.5018 261.58 91.9371C261.253 94.391 261.089 96.6812 260.925 99.1351C260.598 102.57 260.598 106.169 260.108 109.605C260.108 109.768 260.108 110.096 260.108 110.259C259.944 114.84 259.78 119.584 259.617 124.164C259.453 127.763 259.453 131.362 259.453 134.961C259.453 136.761 259.29 138.56 259.126 140.196C259.126 141.014 259.29 141.832 259.29 142.486C259.29 142.977 259.453 143.468 259.29 143.959C259.126 146.085 258.635 148.048 259.29 150.175V150.339C258.799 152.138 259.29 153.774 259.29 155.573C259.29 157.209 259.29 159.009 259.29 160.645C259.126 162.771 259.29 164.898 259.453 167.188C259.453 168.824 259.617 170.624 259.78 172.423C259.944 174.223 259.617 176.022 259.944 177.658C260.435 180.439 260.271 183.22 260.271 186.001C260.271 186.655 260.435 187.31 260.435 187.964C260.435 188.618 260.598 189.273 260.598 189.927C260.762 192.217 260.271 194.508 260.925 196.798C260.598 198.597 260.925 200.397 261.089 202.033C261.416 204.487 261.253 206.94 261.58 209.394C261.907 211.684 261.907 213.811 261.907 216.101C261.907 216.756 261.907 217.41 262.071 218.064C262.234 220.028 262.234 221.991 262.398 223.79C262.725 226.571 262.561 229.352 262.889 232.133C263.216 234.423 263.052 236.55 263.379 238.84C263.706 241.785 263.543 244.893 263.87 247.838C264.197 250.455 264.034 253.073 264.361 255.69C264.852 259.453 264.524 263.051 264.852 266.65C265.342 271.067 265.015 275.648 265.179 280.065C265.179 280.556 265.179 281.046 265.342 281.537C265.67 282.191 265.506 282.846 265.342 283.664C265.015 285.136 265.179 286.608 265.342 287.917C265.506 288.571 265.506 289.389 265.506 290.044C265.67 292.007 265.179 293.806 265.342 295.769C265.506 297.569 265.506 299.532 265.342 301.331C265.342 303.294 265.342 305.258 265.179 307.057C265.179 307.875 265.015 308.856 265.015 309.674C265.015 309.838 264.852 310.165 264.852 310.329C265.179 313.273 264.524 316.218 264.852 319.163C264.852 319.653 264.688 320.308 264.688 320.798C264.688 321.126 264.361 321.616 264.524 321.944C265.015 324.234 264.197 326.524 264.361 328.814C264.524 329.96 264.524 331.268 264.034 332.413C263.87 332.904 263.87 333.395 263.87 333.886C263.87 335.031 264.034 336.176 263.543 337.157C263.543 337.321 263.543 337.485 263.543 337.648C263.706 340.102 263.379 342.392 263.052 344.846C262.889 345.664 262.889 346.482 262.725 347.136C262.725 347.791 262.561 348.609 262.561 349.263C262.561 350.245 262.725 351.226 262.234 352.044C262.234 352.208 262.234 352.371 262.071 352.535C261.907 354.498 261.907 356.625 261.58 358.424C261.089 360.878 261.416 363.495 260.762 366.113C260.598 366.603 260.598 367.258 260.598 367.749C260.598 368.076 260.598 368.567 260.598 368.894C260.271 371.511 260.108 374.129 260.108 376.746C259.29 379.854 260.108 383.126 259.29 386.234C259.617 387.707 259.126 389.179 259.126 390.815C259.29 392.287 259.126 393.923 259.126 395.395C259.126 396.867 259.126 398.503 259.126 399.976C259.126 400.794 258.962 401.775 258.799 402.593C258.799 402.92 258.635 403.247 258.635 403.575C258.635 407.174 258.635 410.773 258.635 414.372C258.635 425.496 258.635 436.62 258.635 447.744C258.635 452.815 258.635 457.886 258.308 462.958C258.144 465.575 258.308 468.029 258.308 470.646C258.308 472.119 258.144 473.754 257.981 475.227C257.817 477.517 257.817 479.807 257.817 482.261C257.817 484.061 257.981 486.024 257.326 487.823C257.163 488.314 257.326 488.805 257.326 489.295C257.326 490.931 257.327 492.567 256.999 494.039C256.836 495.021 256.836 496.003 256.836 496.984C256.836 497.475 256.672 497.802 256.509 498.293C255.854 498.293 255.691 497.638 255.527 497.311C254.709 495.185 253.891 493.222 253.073 491.095C252.092 488.314 251.437 485.369 250.783 482.588C250.292 479.971 249.638 477.353 249.638 474.572C249.638 472.282 249.147 469.992 248.82 467.702C248.656 466.884 248.656 466.066 248.656 465.248C248.656 463.775 248.656 462.303 248.656 460.831C248.656 460.013 248.493 459.195 248.493 458.377C248.493 457.886 248.329 457.395 248.329 456.905C248.82 452.815 248.656 448.725 248.656 444.635C248.656 443.327 248.82 441.854 248.983 440.546C248.983 439.237 249.147 437.765 249.147 436.456C249.311 434.984 249.474 433.675 249.638 432.203C249.801 430.73 249.638 429.422 249.965 427.949C250.292 426.477 250.129 425.005 250.292 423.369C250.619 420.915 250.783 418.461 250.947 416.007C251.11 414.208 251.274 412.572 251.601 410.773C251.928 408.155 252.092 405.701 252.419 403.084C253.073 398.994 252.746 394.904 252.91 390.815C252.91 389.015 253.237 387.216 253.237 385.253C253.4 381.654 253.4 378.218 253.4 374.619C253.4 372.166 253.564 369.875 253.564 367.421C253.564 364.64 254.055 361.859 253.891 359.078C253.728 356.297 253.891 353.516 253.891 350.572C253.891 348.445 253.728 346.318 253.891 344.355C254.218 340.92 254.218 337.485 254.218 334.049C254.382 330.614 254.218 327.342 254.218 323.907C254.218 320.471 254.218 317.036 254.218 313.601C254.218 305.912 254.218 298.223 254.218 290.371C254.218 284.645 254.218 278.92 254.218 273.358C254.218 270.413 254.055 267.632 254.055 264.687C254.055 263.869 254.055 262.888 254.218 262.07C254.382 259.943 254.382 257.98 254.055 255.854C253.891 255.036 254.055 254.218 254.055 253.4C254.055 252.909 254.055 252.255 254.055 251.764C254.055 250.619 253.728 249.31 253.891 248.165C254.055 246.856 254.055 245.547 253.891 244.402C253.728 243.584 253.891 242.766 253.891 241.948C253.891 238.677 253.891 235.405 253.891 232.133C253.891 231.642 253.728 231.152 253.728 230.661C253.4 230.824 253.073 230.824 252.746 230.988C252.419 231.152 252.255 231.315 252.092 231.642C250.292 234.096 247.838 234.26 245.057 233.769C242.767 233.442 240.64 232.46 238.677 231.315C236.878 230.17 235.078 229.025 233.279 227.88C232.952 227.716 232.788 227.553 232.625 227.225C232.461 227.062 232.461 226.735 232.625 226.571C232.788 226.408 232.952 226.244 233.115 226.08C233.279 226.08 233.442 225.917 233.606 226.08C235.078 226.735 236.714 226.408 238.35 226.898C239.822 227.225 241.458 227.389 243.094 226.735C243.258 226.735 243.585 226.571 243.749 226.571C246.202 226.735 248.493 226.08 250.947 226.08C251.928 226.08 252.746 225.753 253.564 225.262C253.728 223.79 253.891 222.318 253.728 220.845C253.564 219.864 253.728 218.882 253.728 217.901C253.728 216.592 254.055 215.12 253.564 213.811C253.4 213.484 253.564 213.157 253.564 212.83C253.728 207.758 253.4 202.687 253.4 197.616C253.4 191.563 253.237 185.347 253.237 179.294C253.237 173.732 253.237 168.17 253.237 162.608C253.237 159.99 253.073 157.373 253.073 154.592C253.073 151.156 253.073 147.721 253.073 144.286C253.073 141.341 252.91 138.396 252.91 135.452C252.91 130.053 253.073 124.491 253.073 119.093C253.073 113.858 253.073 108.623 253.073 103.388C253.073 100.771 253.237 98.1535 253.237 95.3725C253.237 92.7551 253.4 90.1377 253.4 87.3566C253.4 83.5941 253.564 79.9951 253.728 76.2326C253.891 73.7787 253.728 71.3249 253.891 68.7075C253.891 66.5808 254.055 64.6177 254.055 62.4911C254.218 58.2378 254.382 54.148 254.545 49.8947C254.709 46.4593 254.709 43.024 254.873 39.5886C255.036 34.8445 255.363 29.9368 255.691 25.1927C255.854 23.0661 256.018 21.103 256.018 18.9763C257.654 19.7943 257.49 19.4671 257.326 19.1399Z" fill="black" fill-opacity="0.8"/>
<path fill-rule="evenodd" clip-rule="evenodd" d="M222.645 493.876C222.645 493.222 222.482 492.731 222.482 492.076C222.482 485.696 222.482 479.153 222.482 472.773C222.482 469.992 222.155 467.374 222.482 464.593C222.482 464.103 222.318 463.612 222.318 463.121C222.155 462.467 222.155 461.649 222.155 460.995C222.155 456.905 222.155 452.815 222.155 448.725C222.155 447.253 221.991 445.781 221.827 444.472C221.827 443.981 221.827 443.49 221.827 443C221.827 442.672 221.991 442.182 221.827 441.855C221.337 438.256 221.664 434.657 221.5 431.058C221.337 428.767 221.173 426.641 221.173 424.351C221.173 423.533 221.173 422.551 221.01 421.733C221.01 417.971 221.01 414.372 220.682 410.609C220.519 407.992 220.519 405.538 220.519 402.92C220.519 399.976 220.519 397.031 220.028 394.086C219.864 393.269 220.028 392.287 220.028 391.469C220.028 388.034 220.192 384.762 219.864 381.327C219.374 376.582 219.701 371.675 219.374 366.931C219.046 362.514 219.21 357.933 219.537 353.516C219.701 351.553 219.537 349.59 219.537 347.791C219.537 345.664 219.537 343.537 219.864 341.247C220.028 338.63 220.028 336.176 220.028 333.558C220.028 331.105 220.028 328.814 220.028 326.361C220.028 326.197 220.028 325.87 220.028 325.706C220.846 320.144 220.355 314.419 220.519 308.857C220.519 307.711 220.682 306.566 220.846 305.421C220.846 304.603 221.01 303.785 221.01 302.967C221.01 301.331 221.01 299.696 221.01 298.223C221.01 296.914 221.173 295.442 221.337 294.133C221.664 292.007 221.5 290.044 221.5 287.917C221.5 284.482 221.5 281.046 221.5 277.611C221.5 277.12 221.664 276.629 221.664 276.139C221.827 275.321 221.991 274.339 221.991 273.521C222.155 268.777 221.991 263.869 222.318 259.125C222.482 255.69 222.482 252.418 222.482 248.983C222.482 247.674 222.645 246.365 222.809 245.22C222.809 244.239 222.809 243.257 222.809 242.276C222.973 237.532 222.973 232.787 223.136 228.043C223.3 223.136 223.463 218.064 223.463 213.157C223.463 211.357 223.627 209.558 223.791 207.922C223.791 207.268 223.954 206.613 223.791 205.959C223.627 202.196 223.954 198.597 224.118 194.835C224.281 189.436 224.445 184.038 224.609 178.639C224.772 173.241 224.936 167.679 225.099 162.281C225.263 156.882 225.59 151.484 225.754 146.085C225.917 142.159 225.917 138.233 226.081 134.307C226.408 124.819 226.735 115.33 227.062 105.842C227.226 103.388 227.226 101.098 227.226 98.6443C227.226 95.6997 227.062 92.7551 226.899 89.8105C226.899 87.6838 226.899 85.5572 226.899 83.2669C226.899 80.9767 226.735 78.6864 226.899 76.5598C227.226 70.9977 226.735 65.4357 226.899 59.8737C227.062 55.9475 227.062 52.0214 227.062 48.0952C227.062 45.1506 226.899 42.3696 227.062 39.425C227.226 33.863 227.39 28.1373 227.553 22.5753C227.553 20.6122 227.553 18.6492 227.553 16.8497C227.553 16.1953 227.717 15.541 227.88 15.0502C228.862 12.76 229.516 10.3061 229.353 7.85228C229.353 7.36151 229.516 6.87074 229.68 6.54356C229.68 6.54356 229.843 6.54356 229.843 6.37997C230.334 6.54356 230.171 7.19792 230.171 7.5251C230.171 10.7969 230.171 14.0687 230.171 17.3405C230.171 21.921 230.498 26.5015 230.988 31.082C231.316 34.6809 231.643 38.4435 232.134 42.0424C232.461 45.3142 232.952 48.586 233.442 51.8578C233.442 52.3486 233.606 52.8393 233.606 53.3301C233.606 56.2747 234.097 59.2193 234.424 62.1639C234.751 66.7444 235.242 71.3249 235.405 75.9054C235.569 81.631 235.569 87.3567 235.569 93.0823C235.569 98.1535 235.569 103.388 235.569 108.46C235.569 111.895 235.569 115.33 235.405 118.766C235.242 122.201 235.405 125.473 235.078 128.908C234.587 134.307 234.587 139.705 234.26 145.104C233.933 149.521 233.933 153.937 233.606 158.354C233.442 162.444 233.115 166.697 232.788 170.787C232.788 171.932 232.624 173.241 232.624 174.386C232.461 176.676 232.297 178.967 232.297 181.257C232.297 182.075 232.134 182.893 232.134 183.711C231.97 184.692 231.97 185.674 231.97 186.655C231.97 187.964 231.806 189.436 231.643 190.745C231.316 192.708 231.479 194.835 231.479 196.798C231.479 197.616 231.316 198.597 231.152 199.415C231.152 199.906 230.988 200.397 230.988 200.888C230.825 205.305 230.661 209.885 230.498 214.302C230.498 214.956 230.334 215.611 230.334 216.265C230.334 216.592 230.171 216.919 230.171 217.247C230.334 220.518 230.007 223.627 229.843 226.898C229.68 229.679 229.843 232.297 229.516 235.078C229.189 237.859 229.353 240.476 229.189 243.257C229.025 246.038 229.025 248.819 229.025 251.764C229.025 254.545 229.025 257.162 228.862 259.943C228.862 262.724 228.535 265.505 228.535 268.286C228.535 269.595 228.371 271.067 228.862 272.376C229.025 272.867 228.862 273.521 228.862 274.012C228.698 275.484 228.535 276.793 228.862 278.265C229.025 278.92 228.862 279.574 228.862 280.228C228.862 283.664 228.862 286.936 228.862 290.371C228.862 291.352 229.025 292.334 229.189 293.479C229.516 294.788 229.353 296.26 229.353 297.569C229.353 300.023 229.189 302.64 229.516 304.93C229.68 306.403 229.353 307.875 229.68 309.347C230.007 310.82 229.843 312.455 229.843 313.928C229.843 315.4 229.843 317.036 229.843 318.508C229.843 319.981 229.843 321.616 229.843 323.089C230.007 324.725 230.007 326.361 229.843 328.16C229.843 328.324 229.843 328.487 229.843 328.651C230.498 330.941 230.007 333.231 230.171 335.522C230.334 337.812 230.334 339.938 230.334 342.229C230.334 344.355 230.334 346.482 230.334 348.772C230.498 353.353 230.334 358.097 230.334 362.841C230.334 363.332 230.334 363.822 230.334 364.313C229.843 368.076 230.007 372.002 229.843 375.764C229.843 380.181 229.843 384.598 229.843 389.015C229.843 390.651 230.007 392.451 229.516 394.086C229.353 394.414 229.516 394.904 229.516 395.232C229.516 399.812 229.516 404.393 229.516 408.973C229.516 409.955 229.353 410.936 229.189 411.754C229.189 412.245 229.189 412.899 229.025 413.39C228.698 414.535 229.68 415.517 229.189 416.662C228.862 417.643 229.025 418.952 229.025 419.934C229.025 421.079 229.025 422.224 229.025 423.369C229.025 424.514 228.862 425.659 228.698 426.641C228.698 427.295 228.535 427.949 228.535 428.604C228.535 430.076 228.535 431.712 228.535 433.184C228.535 434.657 228.698 436.293 228.207 437.765C228.207 437.928 228.207 438.256 228.207 438.419C228.044 443 227.88 447.58 227.717 452.161C227.717 453.306 227.717 454.615 227.39 455.76C227.226 456.414 227.226 457.232 227.226 457.886C227.226 460.177 227.226 462.467 226.899 464.921C226.735 465.902 226.899 467.047 226.735 468.029C226.735 469.174 226.735 470.319 226.408 471.301C226.244 471.955 226.244 472.773 226.244 473.427C226.081 475.554 226.408 477.681 225.917 479.807C225.754 480.462 225.917 481.28 225.917 481.934C225.917 485.697 225.099 489.132 224.281 492.731C224.118 493.385 223.791 493.876 223.627 494.367C222.973 493.876 222.809 493.876 222.645 493.876Z" fill="black" fill-opacity="0.8"/>
<path fill-rule="evenodd" clip-rule="evenodd" d="M113.04 2.12665C113.04 2.61742 113.04 3.27177 112.876 3.76254C112.058 8.67022 111.404 13.5779 110.586 18.4856C110.259 20.2851 109.768 21.9209 109.441 23.7204C109.277 24.702 108.95 25.6835 108.95 26.8286C108.95 32.7178 108.95 38.6071 109.114 44.4963C109.114 47.2773 109.114 50.0583 109.277 53.0029C109.277 54.3116 109.441 55.6203 109.441 56.7655C109.604 59.7101 109.604 62.6547 109.768 65.5993C110.095 70.3434 110.422 75.0875 110.749 79.8316C111.077 83.5941 111.24 87.1931 111.567 90.9556C111.731 93.9002 112.058 96.6812 112.222 99.6259C112.713 106.497 113.367 113.204 113.858 120.075C114.021 123.019 114.348 125.964 114.676 128.908C115.003 132.344 115.166 135.615 115.33 139.051C115.657 144.122 115.984 149.357 116.148 154.428C116.312 156.391 116.312 158.354 116.312 160.154C116.312 163.098 116.475 165.879 116.475 168.824C116.639 173.732 116.639 178.803 116.475 183.711C116.312 188.128 116.148 192.545 115.984 196.961C115.821 199.579 115.984 202.033 115.33 204.65C115.33 204.814 115.33 204.977 115.33 205.141C115.166 209.885 114.676 214.629 114.839 219.373C115.003 223.627 115.003 227.716 114.839 231.97C114.185 240.149 114.676 248.328 114.348 256.508C114.185 259.78 114.348 263.052 114.348 266.323C114.348 268.614 114.185 270.904 114.185 273.358C114.021 278.429 114.021 283.5 114.021 288.571C114.021 290.044 114.021 291.68 114.021 293.152C114.021 295.115 113.858 297.078 113.694 299.205C113.367 301.822 113.53 304.276 113.53 306.893C113.53 312.292 113.53 317.69 113.53 323.089C113.53 324.561 113.367 326.197 113.367 327.669C113.367 327.996 113.367 328.487 113.367 328.814C113.367 330.123 113.53 331.595 113.53 332.904C113.367 335.031 113.367 336.994 113.53 339.121C113.53 339.448 113.694 339.938 113.53 340.266C113.04 341.574 113.203 342.719 113.203 344.028C113.203 349.263 113.203 354.661 113.203 359.896C113.203 360.878 113.04 361.859 112.876 362.841C112.876 363.168 112.713 363.495 112.713 363.822C113.04 367.094 112.713 370.202 112.713 373.474C112.876 375.928 112.549 378.382 112.549 380.836C112.549 383.29 112.549 385.743 112.549 388.034C112.549 390.488 112.549 392.941 112.549 395.559C112.549 398.013 112.549 400.466 112.549 402.757C112.549 403.084 112.549 403.411 112.549 403.738C111.895 406.029 112.222 408.482 112.058 410.936C112.058 415.517 112.058 419.934 112.058 424.514C112.058 427.295 111.731 429.913 111.24 432.53C111.077 433.184 111.24 433.839 111.077 434.493C111.077 435.147 110.913 435.965 110.749 436.62C110.749 436.947 110.586 437.274 110.586 437.601C110.422 439.728 110.259 441.855 110.095 443.981C109.932 446.272 109.604 448.398 109.277 450.688C109.114 452.979 108.786 455.105 108.623 457.396C108.459 458.868 108.459 460.504 108.132 461.976C107.641 464.103 107.968 466.393 107.314 468.356C107.151 468.847 107.314 469.338 107.314 469.828C107.314 470.974 107.151 472.282 106.987 473.427C106.66 475.39 106.496 477.517 106.333 479.644C106.169 480.462 106.169 481.443 106.005 482.261C106.005 482.588 105.842 483.079 105.842 483.406C105.842 485.86 105.515 488.314 105.024 490.768C105.024 490.931 105.024 491.259 105.024 491.422C105.024 494.53 104.533 497.475 104.206 500.42C104.042 501.237 104.206 502.055 104.042 502.873C104.042 503.364 103.879 503.855 103.715 504.182C103.552 504.346 103.224 504.346 102.734 504.509C102.57 501.892 102.734 499.438 102.734 497.148C102.734 492.731 103.061 488.314 102.734 483.897C102.57 481.607 102.734 479.317 102.734 477.19C102.734 473.755 102.57 470.483 102.897 467.047C103.061 465.084 102.734 463.285 102.734 461.322C102.734 458.214 102.897 455.105 102.897 451.997C102.897 450.525 102.734 448.889 102.897 447.417C102.897 445.617 102.897 443.654 103.061 441.855C103.061 440.71 103.224 439.401 103.061 438.256C102.897 437.601 102.897 436.783 102.897 436.129C102.897 429.095 102.897 421.897 102.897 414.862C102.897 411.263 103.061 407.664 102.897 404.065C102.734 401.284 102.57 398.503 102.897 395.722C102.079 389.67 102.734 383.453 102.57 377.4C102.57 375.928 102.57 374.456 102.57 373.147C102.57 372.166 102.734 371.02 102.243 370.039C102.079 369.712 102.079 369.221 102.079 368.894C102.243 364.313 101.916 359.569 102.079 354.989C102.079 354.825 102.079 354.498 102.079 354.334C102.079 353.026 102.079 351.553 101.752 350.245C101.752 350.081 101.752 349.754 101.752 349.59C102.243 348.609 101.916 347.627 101.752 346.482C101.588 345.337 101.752 344.028 101.752 342.883C101.752 342.556 101.916 342.229 101.916 341.902C101.425 339.121 101.752 336.503 101.588 333.722C101.588 332.577 101.425 331.432 101.425 330.287C101.425 329.96 101.425 329.469 101.425 329.142C101.425 328.814 101.588 328.487 101.588 328.16C100.771 324.234 101.425 320.144 101.261 316.218C101.261 314.909 101.098 313.601 100.934 312.455C100.771 309.511 100.771 306.73 100.771 303.785C100.771 302.149 100.443 300.35 100.607 298.714C100.771 297.078 100.443 295.606 100.443 293.97C100.443 290.862 100.607 287.754 100.607 284.645C100.607 281.21 100.771 277.775 100.771 274.339C100.771 273.358 100.771 272.376 101.098 271.558C101.261 270.904 101.261 270.086 101.261 269.431C101.261 265.833 101.261 262.397 101.588 258.798C101.752 256.672 101.588 254.545 101.752 252.582C101.752 251.437 101.916 250.128 102.079 248.983C102.079 248.819 102.243 248.492 102.079 248.328C101.916 245.547 102.406 242.766 102.243 239.985C102.243 239.658 102.243 239.167 102.243 238.84C102.734 237.368 102.734 235.896 102.57 234.26C102.406 231.97 102.897 229.679 102.897 227.225C102.897 225.59 102.897 223.954 103.061 222.481C103.061 221.009 103.224 219.537 103.388 218.228C103.552 216.101 103.552 213.811 103.552 211.684C103.552 210.049 103.552 208.249 103.879 206.613C103.879 206.286 104.042 205.959 104.042 205.632C103.879 201.706 104.042 197.779 104.206 193.853C104.206 190.745 104.042 187.8 104.533 184.692C104.697 184.038 104.697 183.384 104.697 182.729C104.697 178.149 104.86 173.732 104.86 169.315C104.86 160.154 104.86 150.829 104.697 141.505C104.697 136.924 104.37 132.18 104.206 127.6C104.042 124.819 103.715 122.201 103.388 119.42C103.061 115.985 102.897 112.549 102.734 109.114C102.57 106.66 102.406 104.206 102.406 101.589C102.243 97.8264 102.079 93.9002 101.916 89.9741C101.752 84.2485 101.752 78.3592 101.916 72.6336C101.916 69.1982 101.916 65.9265 102.243 62.4911C102.406 61.346 102.406 60.2008 102.406 59.0557C102.243 55.4567 102.734 52.0214 103.061 48.4224C103.224 44.3327 103.552 40.0794 104.042 35.9896C104.369 32.2271 105.024 28.3009 105.515 24.5384C106.005 21.4302 106.496 18.322 106.987 15.2138C106.169 13.9051 106.333 13.0871 106.823 12.2692C108.459 9.16099 110.259 6.05279 112.058 2.94459C112.222 2.61742 112.549 2.29024 112.713 2.12665C112.713 2.12665 112.876 2.12665 113.04 2.12665Z" fill="black" fill-opacity="0.8"/>
<path fill-rule="evenodd" clip-rule="evenodd" d="M160.481 501.237C159.499 499.274 159.172 497.475 158.845 495.839C158.191 492.567 157.536 489.295 157.045 486.024C156.882 485.533 156.882 485.042 156.882 484.551C156.882 483.57 156.882 482.425 156.555 481.443V481.28C156.391 478.989 156.228 476.863 156.064 474.572C156.064 473.754 155.9 472.936 155.9 472.119C155.737 470.81 155.737 469.501 155.573 468.192C155.573 467.374 155.41 466.556 155.246 465.902C155.246 465.411 155.082 464.757 155.082 464.266C155.082 463.285 155.082 462.14 154.755 461.158C154.592 460.667 154.592 460.013 154.592 459.522C154.592 459.031 154.755 458.541 154.592 458.05C153.937 455.923 154.264 453.633 154.101 451.343C154.101 449.543 154.264 447.58 153.61 445.781C153.447 445.453 153.61 445.126 153.61 444.799C154.101 442.018 153.447 439.401 153.61 436.62C153.774 433.839 153.61 431.221 153.61 428.44C153.61 425.986 153.774 423.533 154.101 421.079C154.264 419.279 154.101 417.48 154.101 415.844C154.264 412.572 154.101 409.3 154.428 406.029C154.755 403.084 154.592 399.976 154.755 396.868C154.755 396.05 154.592 395.068 155.082 394.25C155.246 393.923 155.246 393.432 155.246 393.105C155.246 392.614 155.246 391.96 155.246 391.469C155.41 389.342 155.082 387.379 155.573 385.253C155.9 383.78 155.573 381.981 155.737 380.509C155.737 378.709 155.573 376.746 156.228 374.947C156.391 374.292 156.228 373.638 156.228 372.983C156.228 370.857 156.391 368.894 156.555 366.767C156.718 364.64 156.718 362.35 156.718 360.224C156.718 358.915 156.555 357.606 157.045 356.461C157.209 355.97 157.209 355.479 157.209 354.989C157.373 351.39 157.373 347.791 157.536 344.192C157.7 341.084 157.863 338.139 158.027 335.031C158.027 333.395 158.027 331.759 158.027 329.96C158.027 328.16 158.027 326.524 158.191 324.725C158.191 322.762 158.191 320.962 158.191 318.999C158.191 314.746 158.191 310.329 157.7 306.076C157.536 303.949 157.7 301.659 157.7 299.532C157.7 298.55 157.536 297.405 157.536 296.424C157.536 295.769 157.373 295.115 157.373 294.461C157.209 291.352 157.045 288.408 156.882 285.3C156.718 282.846 156.555 280.556 156.064 278.102C155.737 276.302 155.573 274.503 155.41 272.703C155.082 270.249 154.919 267.796 154.592 265.342C154.592 265.015 154.428 264.524 154.428 264.197C154.428 262.724 154.101 261.088 154.101 259.616C154.101 258.144 153.774 256.672 153.61 255.036C153.61 254.708 153.447 254.381 153.447 254.054C153.283 251.109 153.119 248.165 152.956 245.22C152.629 241.458 152.301 237.532 152.138 233.769C151.974 231.97 151.974 230.006 151.974 228.207C151.811 224.117 151.483 219.864 151.156 215.774C150.993 212.502 151.156 209.394 150.993 206.122C150.665 201.378 150.665 196.471 150.665 191.727C150.665 189.436 150.502 187.146 150.338 184.692C150.338 183.711 150.338 182.729 150.338 181.748C150.338 176.349 150.338 170.787 150.175 165.389C150.175 163.916 150.011 162.444 150.011 161.135C150.011 158.518 150.175 155.737 150.011 153.12C149.684 148.539 149.848 144.122 149.848 139.705C149.848 136.27 150.011 132.998 150.011 129.563C150.175 122.365 150.011 115.33 150.338 108.132C150.502 102.57 150.665 97.0084 150.665 91.4464C150.665 88.8289 150.993 86.2115 151.156 83.5941C151.32 81.7946 151.32 79.9951 151.32 78.3592C151.483 74.1059 151.483 70.0162 151.647 65.7629C151.647 64.4542 151.811 62.9818 151.974 61.6731C151.974 61.1824 152.138 60.528 152.138 60.0372C152.301 56.6019 152.465 53.1665 152.465 49.7311C152.465 48.0952 152.465 46.4593 152.629 44.987C153.119 37.1347 153.61 29.4461 153.937 21.7574C154.264 15.0502 154.755 8.50663 155.246 1.79947C155.246 1.63588 155.41 1.3087 155.41 1.14511C155.573 1.3087 155.737 1.3087 155.737 1.47229C155.9 4.08972 156.228 6.54356 156.391 9.16098C156.555 12.4328 156.718 15.541 156.882 18.8127C157.045 21.7574 157.209 24.702 157.209 27.6466C157.373 31.4091 157.536 35.0081 157.7 38.7706C157.7 40.7337 157.7 42.6968 157.7 44.8234C157.7 47.4409 157.863 50.0583 157.863 52.8393C157.863 56.6019 158.027 60.3644 158.027 64.127C158.027 66.5808 158.191 69.0346 158.191 71.6521C158.191 77.0505 158.354 82.6126 158.354 88.011C158.354 89.4833 158.518 90.9556 158.518 92.2643C158.518 94.2274 158.518 96.354 158.354 98.3171C158.354 98.6443 158.191 99.1351 158.354 99.4622C158.845 102.898 158.681 106.333 158.518 109.768C158.518 111.077 158.681 112.549 158.681 113.858C158.681 120.729 158.518 127.763 158.845 134.634C159.009 137.579 159.009 140.36 159.172 143.304C159.336 145.758 159.172 148.048 159.336 150.502C159.499 155.573 159.663 160.808 159.826 165.88C159.99 170.951 160.154 176.022 160.317 181.093C160.317 182.075 160.481 183.22 160.481 184.201C160.644 187.637 160.808 191.072 160.972 194.508C161.135 197.616 161.299 200.56 161.462 203.669C161.626 205.468 161.626 207.268 161.626 208.903C161.626 211.357 161.626 213.811 161.79 216.429C162.28 221.991 161.953 227.716 162.28 233.278C162.444 235.896 162.444 238.35 162.608 240.967C162.771 243.584 162.608 246.038 162.608 248.656C162.608 248.819 162.608 249.146 162.608 249.31C163.262 252.909 162.935 256.508 163.098 260.107C163.098 261.088 163.262 262.07 163.262 262.888C163.262 262.888 163.425 263.052 163.262 263.052C162.608 265.178 163.589 267.141 163.425 269.268C163.262 271.395 163.425 273.521 163.425 275.484C163.425 277.775 163.753 279.901 163.425 282.191C163.916 285.627 163.916 289.226 163.916 292.661C163.916 296.26 163.916 299.695 163.916 303.294C163.916 304.276 163.916 305.421 164.243 306.403C164.407 306.893 164.407 307.548 164.407 308.039C164.407 318.999 164.407 329.96 164.407 340.92C164.407 342.883 164.407 344.846 164.407 346.646C164.407 347.791 164.407 349.099 164.08 350.245C163.916 350.735 163.916 351.39 163.916 351.88C163.916 354.498 163.916 356.952 163.916 359.569C163.916 362.023 164.08 364.477 163.753 366.767C163.425 369.221 163.753 371.838 163.425 374.129C163.098 376.582 163.098 379.036 162.935 381.49C162.771 384.108 162.444 386.725 162.117 389.342C162.117 390.16 161.953 390.978 161.953 391.796C161.953 392.941 162.117 394.25 161.626 395.395V395.559C161.462 397.849 161.299 400.139 161.135 402.593C161.135 403.411 160.972 404.229 160.808 405.047C160.808 405.374 160.644 405.865 160.644 406.192C160.481 408.319 160.317 410.282 160.154 412.409C159.99 413.554 159.826 414.699 159.663 415.68C159.172 417.971 159.172 420.424 158.681 422.878C157.863 426.804 158.354 430.894 158.354 434.82C158.354 437.11 158.354 439.564 158.518 441.855C158.845 445.454 158.681 449.052 158.845 452.651C159.009 456.25 159.499 459.686 159.663 463.121C159.826 464.593 159.663 466.229 159.826 467.702C159.99 470.483 160.481 473.1 160.317 475.881C160.972 478.008 160.644 480.298 160.808 482.588C160.808 482.915 160.808 483.079 160.808 483.243C161.462 487.332 161.135 491.422 161.299 495.512C161.299 497.148 161.462 498.62 161.462 500.256C160.808 500.419 160.644 500.747 160.481 501.237Z" fill="black" fill-opacity="0.8"/>
<path fill-rule="evenodd" clip-rule="evenodd" d="M120.729 365.458C120.729 365.295 120.565 364.968 120.565 364.804C120.565 363.005 120.401 361.205 120.729 359.569C121.056 357.279 121.056 355.152 121.056 352.862C121.056 349.099 121.383 345.5 122.037 341.902C122.201 340.593 122.201 339.284 122.364 338.139C123.019 333.886 123.51 329.632 124.328 325.379C124.818 322.598 125.636 319.817 125.963 317.036C126.127 315.4 126.618 313.764 127.109 312.128C127.926 309.184 128.254 306.403 128.254 303.294C128.254 299.368 128.254 295.442 128.254 291.516C128.417 283.827 128.581 276.139 128.581 268.45C128.744 259.125 128.744 249.637 128.744 240.313C128.744 237.532 128.744 234.914 129.072 232.133C129.235 230.334 129.072 228.534 129.072 226.898C129.072 221.336 129.072 215.611 129.072 210.049C129.072 208.903 129.235 207.595 129.235 206.45C129.235 205.959 129.399 205.468 129.399 204.977C129.399 198.597 129.399 192.217 129.562 186.001C129.562 180.603 129.726 175.04 129.89 169.642C129.89 167.025 129.89 164.571 129.89 161.953C129.89 155.901 130.053 149.848 130.053 143.795C130.053 137.415 130.053 130.871 130.053 124.491C130.053 120.565 130.544 116.803 131.198 113.04C132.016 109.114 132.998 105.024 133.979 101.098C134.634 98.4807 135.615 95.8633 136.433 93.0823C137.578 88.829 138.887 84.412 139.868 80.1587C140.523 77.0505 141.014 73.9423 141.014 70.6705C141.014 67.8895 141.341 65.2721 141.504 62.4911C141.668 60.8552 141.832 59.2193 141.832 57.747C141.995 54.8024 142.159 52.0214 142.322 49.0768C142.486 45.805 142.322 42.5332 142.486 39.2614C142.486 38.6071 142.486 37.9527 142.486 37.2983C142.65 33.045 142.813 28.7917 142.813 24.5384C142.813 21.7574 142.813 18.9763 142.813 16.0317C142.813 15.2138 142.813 14.3958 143.304 13.7415C144.449 12.1056 144.613 10.3061 144.613 8.34304C144.613 6.54356 144.449 4.58049 144.449 2.78101C144.449 2.61742 144.776 2.45383 144.94 2.45383C145.103 2.45383 145.267 2.61742 145.431 2.78101C145.594 2.94459 145.594 3.10818 145.594 3.27177C145.594 3.59895 145.594 4.08972 145.594 4.4169C145.594 8.67022 145.594 12.7599 145.594 17.0133C145.594 24.0476 145.594 30.9184 145.431 37.9527C145.431 43.024 145.103 48.0952 144.94 53.1665C144.776 57.747 144.776 62.3275 144.449 66.908C144.122 72.3064 143.631 77.8685 143.14 83.2669C142.813 87.5202 142.159 91.7736 141.668 95.8633C141.177 99.1351 140.523 102.407 140.032 105.842C139.868 106.987 139.868 108.296 139.868 109.441C139.541 113.367 139.214 117.293 139.051 121.22C138.887 122.528 139.051 123.837 138.887 125.146C138.56 129.726 138.233 134.307 138.069 138.887C138.069 139.214 138.069 139.705 138.069 140.032C138.069 144.122 137.905 148.212 137.578 152.302C137.415 153.447 137.415 154.755 137.415 155.901C137.251 159.5 137.251 162.935 137.087 166.534C137.087 167.843 136.924 169.151 136.76 170.46C136.597 172.75 136.597 175.04 136.433 177.494C136.27 181.911 136.106 186.165 135.942 190.418C135.779 194.835 135.615 199.415 135.452 203.832C135.124 210.212 134.797 216.429 134.47 222.809C134.143 228.534 133.816 234.26 133.652 240.149C133.325 245.711 132.998 251.437 132.834 256.999C132.671 262.397 132.18 267.796 131.853 273.03C131.689 276.139 131.525 279.247 131.198 282.355C130.871 287.099 130.38 292.007 129.89 296.751C129.726 298.878 129.562 301.004 129.235 303.131C129.072 304.44 128.908 305.585 128.744 306.893C128.744 308.039 128.581 309.347 128.254 310.492C128.254 310.656 128.254 310.983 128.254 311.147C128.254 313.764 127.763 316.218 127.436 318.835C127.272 320.962 127.109 322.925 126.781 325.052C126.618 326.361 126.454 327.506 126.291 328.814C125.963 330.777 125.636 332.741 125.473 334.704C125.309 336.503 125.145 338.303 124.818 340.266C124.655 341.411 124.491 342.392 124.328 343.537C123.837 346.155 123.51 348.772 123.019 351.39C122.692 353.68 122.364 356.134 121.874 358.424C121.383 361.041 120.892 363.659 120.401 366.113C121.056 365.458 120.892 365.458 120.729 365.458Z" fill="black" fill-opacity="0.8"/>
<path fill-rule="evenodd" clip-rule="evenodd" d="M18.1583 0.654357C18.3219 1.30871 18.4855 1.79948 18.4855 2.45384C18.9762 7.03434 19.3034 11.7784 19.6306 16.3589C19.7942 18.8128 19.9578 21.103 20.1214 23.5569C20.2849 26.8286 20.4485 29.9368 20.6121 33.2086C20.7757 35.826 20.9393 38.4435 20.9393 41.0609C20.9393 41.2245 20.9393 41.5517 20.9393 41.7153C20.9393 49.7311 20.9393 57.5834 20.9393 65.5993C20.9393 69.689 20.9393 73.6152 20.7757 77.7049C20.7757 80.4859 20.4485 83.1033 20.4485 85.8844C20.4485 86.7023 20.4485 87.6838 20.4485 88.5018C20.2849 92.2643 20.1214 96.0269 19.9578 99.7894C19.9578 101.589 19.9578 103.552 19.7942 105.351C19.6306 110.586 19.3034 115.821 19.1398 121.056C18.9762 124.001 18.9762 126.945 18.8126 129.89C18.8126 130.053 18.8126 130.381 18.8126 130.544C18.3219 133.98 18.4855 137.579 18.3219 141.014C18.1583 145.104 17.9947 149.357 17.6675 153.447C17.6675 153.774 17.5039 154.101 17.6675 154.428C17.9947 156.555 17.6675 158.682 17.6675 160.972C17.6675 163.098 17.5039 165.225 17.5039 167.188C17.3403 171.278 17.3403 175.368 17.1768 179.457C17.1768 179.785 17.0132 180.112 17.1768 180.439C17.6675 183.056 17.1767 185.51 17.0132 188.128C16.8496 190.091 16.5224 192.054 16.3588 194.017C16.3588 194.18 16.1952 194.344 16.1952 194.508C16.0316 196.798 15.868 199.088 15.7044 201.378C15.3773 204.814 15.2137 208.249 14.8865 211.684C14.8865 212.175 14.8865 212.83 14.8865 213.32C14.5593 218.064 14.2321 222.809 14.0686 227.553C13.905 230.006 13.905 232.297 13.7414 234.751C13.5778 236.877 13.5778 239.004 13.4142 241.294C13.2506 243.748 13.4142 246.202 13.087 248.819C12.9234 250.128 13.087 251.437 13.087 252.745C13.087 255.199 13.2506 257.653 13.087 259.943C12.9234 261.743 13.087 263.542 13.087 265.342C13.087 267.141 13.087 268.941 13.087 270.577C13.087 274.83 12.9234 279.247 12.9234 283.5C12.9234 285.463 13.087 287.426 13.087 289.226C13.087 293.479 13.087 297.732 13.087 301.986C13.087 304.767 13.087 307.548 13.087 310.329C13.087 311.31 13.4142 312.292 13.4142 313.437C13.4142 314.255 13.5778 315.073 13.4142 315.727C13.4142 315.891 13.4142 316.054 13.4142 316.218C14.0686 319.653 13.5778 323.252 13.7414 326.851C13.7414 327.996 13.5778 329.142 14.0686 330.123C14.0686 330.123 14.2321 330.287 14.0686 330.287C13.2506 332.577 14.2321 334.867 14.0686 337.157C13.905 339.775 14.0686 342.392 14.0686 345.173C14.0686 346.973 14.3957 348.772 14.3957 350.408C14.3957 353.026 14.7229 355.479 14.5593 358.097C14.5593 360.714 14.5593 363.332 14.5593 366.113C14.5593 366.44 14.5593 366.931 14.5593 367.258C15.0501 370.039 14.8865 372.983 15.0501 375.928C15.0501 379.527 15.0501 382.962 15.0501 386.561C15.0501 386.725 15.0501 386.889 15.0501 387.052C15.2137 387.87 15.2137 388.852 15.3773 389.67C15.5409 390.488 15.2137 391.305 15.2137 392.287C15.3773 394.904 15.3773 397.358 15.3773 399.976C15.3773 402.43 15.5409 404.883 15.5409 407.501C15.5409 414.044 15.5409 420.752 15.3773 427.295C14.5593 432.857 15.2137 438.419 14.8865 443.818C14.3957 449.543 14.5593 455.269 14.5593 460.831C14.5593 461.158 14.5593 461.649 14.5593 461.976C14.0686 463.285 14.2321 464.593 14.2321 466.066C14.2321 469.828 14.2321 473.427 14.2321 477.19C14.2321 479.48 13.905 481.77 13.905 484.224C13.7414 487.66 13.905 491.095 13.7414 494.53C13.7414 495.512 13.5778 496.657 13.5778 497.639C13.5778 497.802 13.4142 497.966 13.087 498.293C12.7598 496.984 12.9234 496.003 12.9234 494.858C12.9234 493.549 13.087 492.076 12.5962 490.768C12.4327 490.277 12.4327 489.786 12.4327 489.295C12.4327 487.005 12.5962 484.551 12.4327 482.261C12.2691 479.807 12.5963 477.353 12.1055 474.9C11.9419 473.918 12.1055 472.937 12.1055 471.955C12.1055 468.847 12.1055 465.739 12.1055 462.467C12.1055 461.485 11.9419 460.34 11.7783 459.359C11.6147 458.377 11.9419 457.232 12.1055 456.25C12.1055 456.087 12.1055 455.923 12.1055 455.76C11.6147 453.797 11.9419 451.834 11.9419 449.707C11.4511 440.382 11.7783 431.058 11.6147 421.733C11.6147 420.097 11.2875 418.461 11.1239 416.662C10.9604 415.026 11.4511 413.226 11.1239 411.591C10.9604 411.1 11.1239 410.445 11.1239 409.955C11.1239 406.683 11.1239 403.411 11.1239 400.139C11.1239 399.812 11.1239 399.321 11.1239 398.994C10.4696 395.722 10.7968 392.451 10.6332 389.179C10.6332 387.543 10.7968 385.907 10.1424 384.435C10.1424 384.271 10.1424 384.108 10.1424 383.944C10.306 380.018 9.65164 376.255 9.65164 372.493C9.65164 370.366 9.32446 368.239 8.99729 365.949C8.8337 364.804 8.8337 363.495 8.67011 362.35C8.50652 361.532 8.50652 360.551 8.34293 359.733C8.34293 359.406 8.17934 358.915 8.17934 358.588C8.17934 355.97 7.52498 353.516 7.36139 351.063C7.1978 348.118 6.37986 345.173 6.21627 342.229C6.05268 339.938 5.56191 337.812 5.23473 335.685C4.58038 331.923 3.76243 328.16 2.94448 324.397C2.61731 322.762 2.29013 321.126 1.79936 319.49C1.145 317.2 1.145 314.909 0.981414 312.619C0.817824 310.656 1.145 308.529 0.490646 306.566C0.817824 305.094 0.327057 303.785 0.490646 302.313C0.490646 299.532 0.490646 296.751 0.490646 293.806C0.490646 293.316 0.654235 292.825 0.490646 292.334C-0.000122011 290.862 0.327057 289.553 0.490646 288.081C0.490646 287.263 0.490646 286.445 0.490646 285.627C0.490646 279.901 0.490646 274.176 0.490646 268.45C0.490646 267.468 0.490646 266.487 0.817824 265.669C1.145 265.015 0.981414 264.033 0.981414 263.215C0.981414 260.27 0.817824 257.326 1.145 254.218C1.47218 250.946 1.145 247.674 1.63577 244.402C1.96295 242.112 1.63577 239.822 2.29013 237.532C2.45372 236.714 2.45372 235.732 2.45372 234.914C2.45372 232.788 2.7809 230.824 2.94448 228.861C3.10807 226.244 3.27166 223.79 3.43525 221.173C3.59884 219.864 3.76243 218.719 3.92602 217.41C4.08961 216.265 3.92602 214.956 4.08961 213.811C4.41679 211.03 4.74397 208.086 4.90756 205.141C5.07114 203.178 5.23473 201.215 5.56191 199.252C5.7255 198.27 5.88909 197.125 5.88909 196.144C5.88909 194.998 5.88909 193.69 6.21627 192.545C6.37986 192.054 6.37986 191.563 6.37986 191.072C6.37986 189.927 6.37986 188.618 6.70704 187.473C6.87063 187.146 6.87063 186.655 6.87063 186.328C6.87063 184.856 7.03422 183.547 7.1978 182.075C7.52498 179.948 7.52498 177.985 7.85216 175.858C8.01575 174.386 8.17934 173.077 8.34293 171.605C8.50652 170.296 8.50652 168.824 8.8337 167.515C8.99729 166.37 8.8337 165.225 8.99729 164.08C9.16088 161.463 9.65164 159.009 9.81523 156.391C9.97882 153.447 10.1424 150.666 10.306 147.721C10.4696 145.104 10.7968 142.486 10.9604 139.869C10.9604 139.542 10.9604 139.051 10.9604 138.724C11.1239 133.816 11.6147 128.745 11.7783 123.837C11.9419 119.42 12.2691 115.003 12.4327 110.586C12.5962 108.296 12.5962 106.169 12.5962 103.879C12.5962 102.407 12.5963 100.935 12.7598 99.2987C12.9234 97.99 12.7598 96.6812 12.7598 95.3725C12.7598 92.2643 12.5963 89.3197 12.7598 86.2115C12.7598 83.1033 12.7598 79.9951 13.2506 76.8869C13.5778 74.9239 13.5778 73.1244 13.7414 71.1613C14.0686 67.8895 14.3957 64.6178 14.7229 61.346C14.7229 61.1824 14.7229 60.8552 14.7229 60.6916C14.8865 57.2562 15.0501 53.9845 15.2137 50.5491C15.3773 47.1137 15.868 43.8419 16.0316 40.4065C16.1952 37.1348 16.3588 33.863 16.5224 30.5912C16.8496 25.1927 17.1768 19.6307 17.3403 14.2323C17.5039 11.942 17.5039 9.65176 17.5039 7.19793C17.5039 5.23486 17.5039 3.27178 17.6675 1.4723C17.6675 0.817946 17.8311 0.327178 17.9947 -0.327179C17.9947 0.654357 17.9947 0.654357 18.1583 0.654357Z" fill="black" fill-opacity="0.8"/>
<path fill-rule="evenodd" clip-rule="evenodd" d="M40.5696 502.219C39.2609 502.383 38.1158 502.383 36.8071 502.546C33.5353 502.71 30.2635 503.364 26.9917 504.018C24.5379 504.509 22.084 504.673 19.6302 505C16.6856 505.164 13.9046 504.673 11.2871 503.528C11.1236 503.528 11.1236 503.364 10.96 503.037C11.1236 502.873 11.2871 502.546 11.6143 502.383C12.923 501.728 14.0682 501.074 15.3769 500.583C16.8492 500.092 18.1579 499.274 19.1394 498.129C19.9574 497.148 21.2661 496.657 22.4112 496.657C25.3558 496.657 28.1368 495.839 31.0814 496.003C34.844 496.33 37.9522 497.802 40.406 500.747C40.5696 500.91 40.7332 501.074 40.7332 501.401C40.5696 501.565 40.5696 501.728 40.5696 502.219Z" fill="black" fill-opacity="0.8"/>
<path fill-rule="evenodd" clip-rule="evenodd" d="M41.7156 3.27178C40.8977 3.10819 40.5705 3.10819 40.2433 2.9446C38.2802 2.61743 36.4808 2.78102 34.6813 3.76255C32.7182 5.07126 30.5915 6.37998 28.6285 7.68869C27.1562 8.67023 25.6839 9.32458 24.048 9.48817C22.7393 9.65176 21.5941 9.32458 20.6126 8.67023C19.3039 7.68869 18.1588 6.54357 17.3408 5.07126C17.3408 4.90768 17.3408 4.74409 17.3408 4.41691C17.668 4.25332 17.9952 4.25332 18.3224 4.08973C21.267 3.76255 23.8844 2.9446 26.6654 1.96307C28.9557 1.14512 31.4095 0.327177 33.8633 -1.61678e-06C35.3356 -0.163591 36.8079 -1.62423e-06 38.1167 0.327177C39.589 0.654355 40.5705 1.63589 41.7156 3.27178Z" fill="black" fill-opacity="0.8"/>
<path fill-rule="evenodd" clip-rule="evenodd" d="M291.025 0.654357C291.189 1.30871 291.353 1.79948 291.353 2.45384C291.843 7.03434 292.171 11.7784 292.498 16.3589C292.661 18.8128 292.825 21.103 292.989 23.5569C293.152 26.8286 293.316 29.9368 293.479 33.2086C293.643 35.826 293.806 38.4435 293.806 41.0609C293.806 41.2245 293.806 41.5517 293.806 41.7153C293.806 49.7311 293.806 57.5834 293.806 65.5993C293.806 69.689 293.806 73.6152 293.643 77.7049C293.643 80.4859 293.316 83.1033 293.316 85.8844C293.316 86.7023 293.316 87.6838 293.316 88.5018C293.152 92.2643 292.989 96.0269 292.825 99.7894C292.825 101.589 292.825 103.552 292.661 105.351C292.498 110.586 292.171 115.821 292.007 121.056C291.843 124.001 291.843 126.945 291.68 129.89C291.68 130.053 291.68 130.381 291.68 130.544C291.189 133.98 291.353 137.579 291.189 141.014C291.025 145.104 290.862 149.357 290.535 153.447C290.535 153.774 290.371 154.101 290.535 154.428C290.862 156.555 290.535 158.682 290.535 160.972C290.535 163.098 290.371 165.225 290.371 167.188C290.208 171.278 290.208 175.368 290.044 179.457C290.044 179.785 289.88 180.112 290.044 180.439C290.535 183.056 290.044 185.51 289.88 188.128C289.717 190.091 289.39 192.054 289.226 194.017C289.226 194.18 289.062 194.344 289.062 194.508C288.899 196.798 288.735 199.088 288.572 201.378C288.244 204.814 288.081 208.249 287.754 211.684C287.754 212.175 287.754 212.83 287.754 213.32C287.426 218.064 287.099 222.809 286.936 227.553C286.772 230.006 286.772 232.297 286.609 234.751C286.445 236.877 286.281 239.004 286.281 241.294C286.118 243.748 286.281 246.202 285.954 248.819C285.791 250.128 285.954 251.437 285.954 252.745C285.954 255.199 286.118 257.653 285.954 259.943C285.791 261.743 285.954 263.542 285.954 265.342C285.954 267.141 285.954 268.941 285.954 270.577C285.954 274.83 285.791 279.247 285.791 283.5C285.791 285.463 285.954 287.426 285.954 289.226C285.954 293.479 285.954 297.732 285.954 301.986C285.954 304.767 285.954 307.548 285.954 310.329C285.954 311.31 286.281 312.292 286.281 313.437C286.281 314.255 286.445 315.073 286.281 315.727C286.281 315.891 286.281 316.054 286.281 316.218C286.936 319.653 286.445 323.252 286.609 326.851C286.609 327.996 286.445 329.142 286.936 330.123C286.936 330.123 287.099 330.287 286.936 330.287C286.118 332.577 287.099 334.867 286.936 337.157C286.772 339.775 286.936 342.392 286.936 345.173C286.936 346.973 287.263 348.772 287.263 350.408C287.263 353.026 287.59 355.479 287.426 358.097C287.426 360.714 287.426 363.332 287.426 366.113C287.426 366.44 287.426 366.931 287.426 367.258C287.917 370.039 287.754 372.983 287.917 375.928C287.917 379.527 287.917 382.962 287.917 386.561C287.917 386.725 287.917 386.889 287.917 387.052C288.081 387.87 288.081 388.852 288.244 389.67C288.408 390.488 288.081 391.305 288.081 392.287C288.244 394.904 288.244 397.358 288.244 399.976C288.244 402.43 288.408 404.883 288.408 407.501C288.408 414.044 288.408 420.752 288.244 427.295C287.426 432.857 288.081 438.419 287.754 443.818C287.263 449.543 287.426 455.269 287.426 460.831C287.426 461.158 287.426 461.649 287.426 461.976C286.936 463.285 287.099 464.593 287.099 466.066C287.099 469.828 287.099 473.427 287.099 477.19C287.099 479.48 286.772 481.77 286.772 484.224C286.609 487.66 286.772 491.095 286.609 494.53C286.609 495.512 286.445 496.657 286.445 497.639C286.445 497.802 286.281 497.966 285.954 498.293C285.627 496.984 285.791 496.003 285.791 494.858C285.791 493.549 285.954 492.076 285.463 490.768C285.3 490.277 285.3 489.786 285.3 489.295C285.3 487.005 285.463 484.551 285.3 482.261C285.136 479.807 285.463 477.353 284.973 474.9C284.809 473.918 284.973 472.937 284.973 471.955C284.973 468.847 284.973 465.739 284.973 462.467C284.973 461.485 284.809 460.34 284.645 459.359C284.482 458.377 284.809 457.232 284.973 456.25C284.973 456.087 284.973 455.923 284.973 455.76C284.482 453.797 284.809 451.834 284.809 449.707C284.318 440.382 284.645 431.058 284.482 421.733C284.482 420.097 284.155 418.461 283.991 416.662C283.828 415.026 284.318 413.226 283.991 411.591C283.828 411.1 283.991 410.445 283.991 409.955C283.991 406.683 283.991 403.411 283.991 400.139C283.991 399.812 283.991 399.321 283.991 398.994C283.337 395.722 283.664 392.451 283.5 389.179C283.5 387.543 283.664 385.907 283.01 384.435C283.01 384.271 283.01 384.108 283.01 383.944C283.173 380.018 282.519 376.255 282.519 372.493C282.519 370.366 282.192 368.239 281.864 365.949C281.701 364.804 281.701 363.495 281.537 362.35C281.374 361.532 281.374 360.551 281.21 359.733C281.21 359.406 281.047 358.915 281.047 358.588C281.047 355.97 280.392 353.516 280.229 351.063C280.065 348.118 279.247 345.173 279.083 342.229C278.92 339.938 278.429 337.812 278.102 335.685C277.448 331.923 276.63 328.16 275.812 324.397C275.484 322.762 275.157 321.126 274.667 319.49C274.012 317.2 274.012 314.909 273.849 312.619C273.685 310.656 274.012 308.529 273.358 306.566C273.685 305.094 273.194 303.785 273.358 302.313C273.358 299.532 273.358 296.751 273.358 293.806C273.358 293.316 273.521 292.825 273.358 292.334C272.867 290.862 273.194 289.553 273.358 288.081C273.358 287.263 273.358 286.445 273.358 285.627C273.358 279.901 273.358 274.176 273.358 268.45C273.358 267.468 273.358 266.487 273.685 265.669C274.012 265.015 273.849 264.033 273.849 263.215C273.849 260.27 273.685 257.326 274.012 254.218C274.339 250.946 274.012 247.674 274.503 244.402C274.83 242.112 274.503 239.822 275.157 237.532C275.321 236.714 275.321 235.732 275.321 234.914C275.321 232.788 275.648 230.824 275.812 228.861C275.975 226.244 276.139 223.79 276.302 221.173C276.466 219.864 276.63 218.719 276.793 217.41C276.957 216.265 276.793 214.956 276.957 213.811C277.284 211.03 277.611 208.086 277.775 205.141C277.938 203.178 278.102 201.215 278.429 199.252C278.593 198.27 278.756 197.125 278.756 196.144C278.756 194.998 278.756 193.69 279.083 192.545C279.247 192.054 279.247 191.563 279.247 191.072C279.247 189.927 279.247 188.618 279.574 187.473C279.738 187.146 279.738 186.655 279.738 186.328C279.738 184.856 279.901 183.547 280.065 182.075C280.392 179.948 280.392 177.985 280.719 175.858C280.883 174.386 281.047 173.077 281.21 171.605C281.374 170.296 281.374 168.824 281.701 167.515C281.864 166.37 281.701 165.225 281.864 164.08C282.028 161.463 282.519 159.009 282.682 156.391C282.846 153.447 283.01 150.666 283.173 147.721C283.337 145.104 283.664 142.486 283.828 139.869C283.828 139.542 283.828 139.051 283.828 138.724C283.991 133.816 284.482 128.745 284.645 123.837C284.809 119.42 285.136 115.003 285.3 110.586C285.463 108.296 285.463 106.169 285.463 103.879C285.463 102.407 285.463 100.935 285.627 99.2987C285.791 97.99 285.627 96.6812 285.627 95.3725C285.627 92.2643 285.463 89.3197 285.627 86.2115C285.627 83.1033 285.627 79.9951 286.118 76.8869C286.445 74.9239 286.445 73.1244 286.609 71.1613C286.936 67.8895 287.263 64.6178 287.59 61.346C287.59 61.1824 287.59 60.8552 287.59 60.6916C287.754 57.2562 287.917 53.9845 288.081 50.5491C288.244 47.1137 288.735 43.8419 288.899 40.4065C289.062 37.1348 289.226 33.863 289.39 30.5912C289.717 25.1927 290.044 19.6307 290.208 14.2323C290.371 11.942 290.371 9.65176 290.371 7.19793C290.371 5.23486 290.371 3.27178 290.535 1.4723C290.535 0.817946 290.698 0.327178 290.862 -0.327179C290.698 0.654357 290.862 0.654357 291.025 0.654357Z" fill="black" fill-opacity="0.8"/>
<path fill-rule="evenodd" clip-rule="evenodd" d="M313.437 502.219C312.128 502.383 310.983 502.383 309.674 502.546C306.402 502.71 303.131 503.364 299.859 504.018C297.405 504.509 294.951 504.673 292.497 505C289.553 505.164 286.772 504.673 284.154 503.528C283.991 503.528 283.991 503.364 283.827 503.037C283.991 502.873 284.154 502.546 284.481 502.383C285.79 501.728 286.935 501.074 288.244 500.583C289.716 500.092 291.025 499.274 292.007 498.129C292.825 497.148 294.133 496.657 295.278 496.657C298.223 496.657 301.004 495.839 303.949 496.003C307.711 496.33 310.819 497.802 313.273 500.747C313.437 500.91 313.6 501.074 313.6 501.401C313.437 501.565 313.437 501.728 313.437 502.219Z" fill="black" fill-opacity="0.8"/>
<path fill-rule="evenodd" clip-rule="evenodd" d="M314.419 3.27178C313.601 3.10819 313.274 3.10819 312.946 2.9446C310.983 2.61743 309.184 2.78102 307.384 3.76255C305.421 5.07126 303.295 6.37998 301.332 7.68869C299.859 8.67023 298.387 9.32458 296.751 9.48817C295.442 9.65176 294.297 9.32458 293.316 8.67023C292.007 7.68869 290.862 6.54357 290.044 5.07126C290.044 4.90768 290.044 4.74409 290.044 4.41691C290.371 4.25332 290.698 4.25332 291.025 4.08973C293.97 3.76255 296.588 2.9446 299.369 1.96307C301.659 1.14512 304.113 0.327177 306.566 -1.61678e-06C308.039 -0.163591 309.511 -1.62423e-06 310.82 0.327177C312.456 0.654355 313.437 1.63589 314.419 3.27178Z" fill="black" fill-opacity="0.8"/>
<path fill-rule="evenodd" clip-rule="evenodd" d="M190.744 13.5779C190.908 14.3959 191.071 15.2138 191.235 16.0318C191.726 19.4671 192.217 22.9025 192.707 26.3379C193.198 31.2456 193.689 36.1532 194.18 41.0609C194.343 42.206 194.507 43.3512 194.67 44.4963C195.161 50.8763 195.652 57.2562 196.143 63.6362C196.47 69.0347 196.961 74.4331 197.288 79.8316C197.451 81.4675 197.288 83.1033 197.451 84.7392C197.779 88.5018 197.451 92.1008 197.942 95.8633C197.942 96.0269 197.942 96.1905 197.942 96.3541C197.942 99.1351 197.942 102.08 197.942 104.861C197.942 106.66 197.942 108.46 197.942 110.259C197.942 114.676 198.269 119.093 197.942 123.51C197.615 128.745 197.779 133.816 197.451 139.051C197.288 142.159 197.288 145.267 197.124 148.375C196.961 151.811 196.633 155.246 196.306 158.682C196.306 159.5 196.306 160.154 196.143 160.972C195.815 165.062 195.488 169.315 195.161 173.405C194.998 177.822 194.343 182.402 193.689 186.819C193.362 189.273 193.034 191.727 192.871 194.18C192.871 194.998 193.034 195.98 193.362 196.961C193.852 198.597 194.343 200.233 194.18 202.033C194.18 205.959 193.852 209.885 193.689 213.811C193.689 215.447 193.362 217.083 193.689 218.719C193.852 220.518 193.689 222.318 193.362 223.954C193.034 226.244 192.871 228.371 192.544 230.661C192.544 230.988 192.544 231.315 192.544 231.642C193.034 235.241 193.034 238.84 193.689 242.439C194.507 246.365 194.998 250.292 195.652 254.381C196.143 257.326 196.306 260.27 196.306 263.215C196.306 266.65 196.47 270.086 196.633 273.358C196.797 275.648 196.961 277.775 196.797 280.065C196.797 282.682 197.288 285.136 196.797 287.753C197.451 291.68 197.124 295.606 197.124 299.532C197.124 303.458 197.124 307.221 197.124 311.147C197.124 315.073 197.124 318.999 197.124 322.925C197.124 326.361 196.797 329.796 196.797 333.395C196.633 337.157 196.633 340.756 196.633 344.519C196.633 345.828 196.633 347.3 196.306 348.609C196.143 349.263 196.143 350.081 196.143 350.899C196.143 353.68 196.143 356.297 196.143 359.078C196.143 361.205 195.815 363.332 195.815 365.622C195.815 366.931 195.652 368.239 195.652 369.548C195.652 373.474 195.652 377.237 195.161 381.163V381.327C194.998 384.598 194.998 388.034 194.834 391.305C194.834 395.722 194.507 400.139 194.507 404.556C194.507 405.865 194.507 407.01 194.507 408.319C194.507 408.482 194.507 408.81 194.507 408.973C193.852 411.1 194.18 413.226 194.18 415.517C194.18 420.261 194.016 425.168 193.852 429.913C193.852 430.24 193.852 430.73 193.852 431.058C194.016 432.694 194.016 434.329 194.016 435.965C194.016 437.274 194.18 438.746 194.18 440.055C194.18 440.709 194.18 441.364 194.18 441.855C194.18 444.145 194.016 446.272 194.016 448.562C194.016 448.889 194.18 449.38 194.18 449.707C194.18 450.361 194.343 451.016 194.343 451.506C194.343 454.942 194.343 458.377 194.343 461.649C194.343 464.757 194.507 468.029 194.67 471.137C194.834 473.918 195.161 476.863 195.161 479.644C195.325 481.28 195.161 483.079 195.325 484.715C195.488 487.823 195.815 490.768 196.143 493.876C196.143 494.367 196.143 494.857 196.143 495.348C196.143 496.657 196.143 497.802 196.47 499.111C196.633 499.438 196.633 499.929 196.47 500.256C196.47 500.42 195.979 500.747 195.815 500.747C195.652 500.747 195.325 500.42 195.161 500.256C194.998 499.765 195.161 499.274 195.161 498.947C195.161 496.821 195.161 494.858 194.834 492.731C194.67 491.749 194.834 490.931 194.67 489.95C194.67 488.968 194.507 487.987 194.343 487.005C194.343 486.678 194.18 486.187 194.18 485.86C194.343 483.897 193.852 481.934 193.525 479.807C193.198 478.171 193.034 476.535 192.871 475.063C192.053 470.973 191.235 466.884 190.581 462.794C189.763 458.05 188.781 453.306 187.8 448.562C187.472 447.253 187.472 445.944 187.309 444.636C186.982 442.673 186.654 440.709 186.491 438.746C186.491 438.256 186.491 437.765 186.327 437.438C186.164 436.456 186 435.475 186 434.493C185.837 432.857 185.837 431.058 185.673 429.422C185.346 425.823 185.346 422.224 185.509 418.461C185.509 417.971 185.673 417.316 185.673 416.825C185.673 416.498 185.837 416.007 185.837 415.68C185.673 413.39 186 411.263 186.327 408.973C186.654 406.846 186.491 404.72 186.818 402.757C187.309 399.976 187.145 397.195 187.636 394.414C187.8 392.941 187.636 391.305 187.8 389.833C187.8 388.852 187.963 388.034 188.127 387.052C188.127 386.561 188.29 385.907 188.29 385.416C188.29 383.617 188.29 381.817 188.29 380.018C188.29 379.363 188.454 378.873 188.454 378.218C188.454 377.728 188.781 377.237 188.618 376.91C188.127 375.437 188.781 373.801 188.618 372.329C188.618 370.693 188.618 369.057 188.618 367.421C188.618 365.949 188.618 364.313 188.618 362.841C188.618 361.369 188.618 359.733 188.781 358.26C188.945 355.152 188.945 352.044 189.108 349.099C189.108 348.772 189.108 348.445 189.108 348.118C188.618 346.646 188.945 345.01 188.781 343.537C188.781 342.883 188.945 342.229 188.945 341.411C188.945 341.084 189.108 340.756 189.108 340.429C188.454 334.867 188.781 329.142 188.781 323.58C188.781 322.598 188.618 321.78 188.454 320.799C188.454 320.635 188.29 320.471 188.454 320.308C188.945 318.181 188.29 316.054 188.29 313.928C188.29 311.801 188.29 309.674 188.29 307.711C188.29 306.73 188.127 305.748 187.963 304.767C187.8 303.458 187.8 302.149 187.8 300.841C187.8 298.878 187.8 296.751 187.8 294.788C187.8 293.806 187.8 292.825 187.472 291.843C187.309 291.516 187.309 291.025 187.309 290.698C187.636 286.281 186.654 281.864 186.818 277.447C186.818 276.466 186.654 275.484 186.491 274.503C186.327 270.249 186 265.996 185.837 261.743C185.673 258.307 185.346 254.872 185.019 251.273C185.019 250.946 185.019 250.455 185.019 250.128C184.855 245.875 184.528 241.458 184.364 237.204C184.201 233.278 183.71 229.352 183.546 225.426C183.383 223.136 183.546 220.845 183.71 218.392C183.71 216.756 183.873 214.956 184.037 213.32C184.364 207.595 184.528 201.869 185.182 196.144C185.509 193.035 185.346 189.764 185.673 186.655C186 181.911 186.327 177.167 186.491 172.587C186.654 167.352 186.818 162.117 186.982 156.882C187.145 151.647 187.472 146.576 187.636 141.341C187.8 138.233 187.8 135.125 187.963 132.017C188.127 128.418 188.29 124.819 188.454 121.056C188.454 118.275 188.454 115.658 188.454 112.877C188.454 109.278 188.454 105.515 188.618 101.916C189.108 94.2274 188.781 86.5387 189.108 79.0136C189.272 74.2695 189.272 69.5254 189.435 64.9449C189.435 63.6362 189.435 62.3275 189.435 61.0188C189.599 56.7655 189.763 52.5122 189.763 48.2588C189.763 44.3327 189.763 40.4065 189.926 36.4804C189.926 31.8999 190.09 27.1558 190.09 22.5753C190.09 20.1215 190.09 17.8312 190.253 15.3774C190.253 14.8866 190.417 14.5594 190.581 14.0687C190.581 13.5779 190.581 13.5779 190.744 13.5779Z" fill="black" fill-opacity="0.8"/>
<path fill-rule="evenodd" clip-rule="evenodd" d="M212.829 5.88922C209.557 7.36153 206.122 8.17947 202.85 8.83383C198.597 9.65178 194.016 10.1425 189.436 10.3061C182.729 10.3061 176.349 9.65178 171.441 7.03435C170.46 6.54358 170.132 5.88922 170.787 5.07128C172.259 4.41692 174.059 4.25333 176.185 4.25333C181.42 4.25333 186.818 4.08974 192.053 4.41692C198.597 4.7441 205.304 5.39845 212.829 5.88922Z" fill="black" fill-opacity="0.8"/>
<path fill-rule="evenodd" clip-rule="evenodd" d="M341.41 13.5779C341.574 14.3959 341.737 15.2138 341.901 16.0318C342.392 19.4671 342.883 22.9025 343.373 26.3379C343.864 31.2456 344.355 36.1532 344.846 41.0609C345.009 42.206 345.173 43.3512 345.336 44.4963C345.827 50.8763 346.318 57.2562 346.809 63.6362C347.136 69.0347 347.627 74.4331 347.954 79.8316C348.117 81.4675 347.954 83.1033 348.117 84.7392C348.445 88.5018 348.117 92.1008 348.608 95.8633C348.608 96.0269 348.608 96.1905 348.608 96.3541C348.608 99.1351 348.608 102.08 348.608 104.861C348.608 106.66 348.608 108.46 348.608 110.259C348.608 114.676 348.935 119.093 348.608 123.51C348.281 128.745 348.445 133.816 348.117 139.051C347.954 142.159 347.954 145.267 347.79 148.375C347.627 151.811 347.299 155.246 346.972 158.682C346.972 159.5 346.972 160.154 346.809 160.972C346.481 165.062 346.154 169.315 345.827 173.405C345.664 177.822 345.009 182.402 344.355 186.819C344.028 189.273 343.7 191.727 343.537 194.18C343.537 194.998 343.7 195.98 344.028 196.961C344.518 198.597 345.009 200.233 344.846 202.033C344.846 205.959 344.518 209.885 344.355 213.811C344.355 215.447 344.028 217.083 344.355 218.719C344.518 220.518 344.355 222.318 344.028 223.954C343.7 226.244 343.537 228.371 343.21 230.661C343.21 230.988 343.21 231.315 343.21 231.642C343.7 235.241 343.7 238.84 344.355 242.439C345.173 246.365 345.664 250.292 346.318 254.381C346.809 257.326 346.972 260.27 346.972 263.215C346.972 266.65 347.136 270.086 347.299 273.358C347.463 275.648 347.627 277.775 347.463 280.065C347.463 282.682 347.954 285.136 347.463 287.753C348.117 291.68 347.79 295.606 347.79 299.532C347.79 303.458 347.79 307.221 347.79 311.147C347.79 315.073 347.79 318.999 347.79 322.925C347.79 326.361 347.463 329.796 347.463 333.395C347.299 337.157 347.299 340.756 347.299 344.519C347.299 345.828 347.299 347.3 346.972 348.609C346.809 349.263 346.809 350.081 346.809 350.899C346.809 353.68 346.809 356.297 346.809 359.078C346.809 361.205 346.481 363.332 346.481 365.622C346.481 366.931 346.318 368.239 346.318 369.548C346.318 373.474 346.318 377.237 345.827 381.163V381.327C345.664 384.598 345.664 388.034 345.5 391.305C345.5 395.722 345.173 400.139 345.173 404.556C345.173 405.865 345.173 407.01 345.173 408.319C345.173 408.482 345.173 408.81 345.173 408.973C344.518 411.1 344.846 413.226 344.846 415.517C344.846 420.261 344.682 425.168 344.518 429.913C344.518 430.24 344.518 430.73 344.518 431.058C344.682 432.694 344.682 434.329 344.682 435.965C344.682 437.274 344.846 438.746 344.846 440.055C344.846 440.709 344.846 441.364 344.846 441.855C344.846 444.145 344.682 446.272 344.682 448.562C344.682 448.889 344.846 449.38 344.846 449.707C344.846 450.361 345.009 451.016 345.009 451.506C345.009 454.942 345.009 458.377 345.009 461.649C345.009 464.757 345.173 468.029 345.336 471.137C345.5 473.918 345.827 476.863 345.827 479.644C345.991 481.28 345.827 483.079 345.991 484.715C346.154 487.823 346.481 490.768 346.809 493.876C346.809 494.367 346.809 494.857 346.809 495.348C346.809 496.657 346.809 497.802 347.136 499.111C347.299 499.438 347.299 499.929 347.136 500.256C347.136 500.42 346.645 500.747 346.481 500.747C346.318 500.747 345.991 500.42 345.827 500.256C345.664 499.765 345.827 499.274 345.827 498.947C345.827 496.821 345.827 494.858 345.5 492.731C345.336 491.749 345.5 490.931 345.336 489.95C345.336 488.968 345.173 487.987 345.009 487.005C345.009 486.678 344.846 486.187 344.846 485.86C345.009 483.897 344.518 481.934 344.191 479.807C343.864 478.171 343.7 476.535 343.537 475.063C342.719 470.973 341.901 466.884 341.247 462.794C340.429 458.05 339.447 453.306 338.466 448.562C338.138 447.253 338.138 445.944 337.975 444.636C337.648 442.673 337.32 440.709 337.157 438.746C337.157 438.256 337.157 437.765 336.993 437.438C336.83 436.456 336.666 435.475 336.666 434.493C336.503 432.857 336.503 431.058 336.339 429.422C336.012 425.823 336.012 422.224 336.175 418.461C336.175 417.971 336.339 417.316 336.339 416.825C336.339 416.498 336.503 416.007 336.503 415.68C336.339 413.39 336.666 411.263 336.993 408.973C337.32 406.846 337.157 404.72 337.484 402.757C337.975 399.976 337.811 397.195 338.302 394.414C338.466 392.941 338.302 391.305 338.466 389.833C338.466 388.852 338.629 388.034 338.793 387.052C338.793 386.561 338.956 385.907 338.956 385.416C338.956 383.617 338.956 381.817 338.956 380.018C338.956 379.363 339.12 378.873 339.12 378.218C339.12 377.728 339.447 377.237 339.284 376.91C338.793 375.437 339.447 373.801 339.284 372.329C339.284 370.693 339.284 369.057 339.284 367.421C339.284 365.949 339.284 364.313 339.284 362.841C339.284 361.369 339.284 359.733 339.447 358.26C339.611 355.152 339.611 352.044 339.774 349.099C339.774 348.772 339.774 348.445 339.774 348.118C339.284 346.646 339.611 345.01 339.447 343.537C339.447 342.883 339.611 342.229 339.611 341.411C339.611 341.084 339.774 340.756 339.774 340.429C339.12 334.867 339.447 329.142 339.447 323.58C339.447 322.598 339.284 321.78 339.12 320.799C339.12 320.635 338.956 320.471 339.12 320.308C339.611 318.181 338.956 316.054 338.956 313.928C338.956 311.801 338.956 309.674 338.956 307.711C338.956 306.73 338.793 305.748 338.629 304.767C338.466 303.458 338.466 302.149 338.466 300.841C338.466 298.878 338.466 296.751 338.466 294.788C338.466 293.806 338.466 292.825 338.138 291.843C337.975 291.516 337.975 291.025 337.975 290.698C338.302 286.281 337.32 281.864 337.484 277.447C337.484 276.466 337.32 275.484 337.157 274.503C336.993 270.249 336.666 265.996 336.503 261.743C336.339 258.307 336.012 254.872 335.685 251.273C335.685 250.946 335.685 250.455 335.685 250.128C335.521 245.875 335.194 241.458 335.03 237.204C334.867 233.278 334.376 229.352 334.212 225.426C334.049 223.136 334.212 220.845 334.376 218.392C334.376 216.756 334.539 214.956 334.703 213.32C335.03 207.595 335.194 201.869 335.848 196.144C336.175 193.035 336.012 189.764 336.339 186.655C336.666 181.911 336.993 177.167 337.157 172.587C337.32 167.352 337.484 162.117 337.648 156.882C337.811 151.647 338.138 146.576 338.302 141.341C338.466 138.233 338.466 135.125 338.629 132.017C338.793 128.418 338.956 124.819 339.12 121.056C339.12 118.275 339.12 115.658 339.12 112.877C339.12 109.278 339.12 105.515 339.284 101.916C339.774 94.2274 339.447 86.5387 339.774 79.0136C339.938 74.2695 339.938 69.5254 340.101 64.9449C340.101 63.6362 340.101 62.3275 340.101 61.0188C340.265 56.7655 340.429 52.5122 340.429 48.2588C340.429 44.3327 340.429 40.4065 340.592 36.4804C340.592 31.8999 340.756 27.1558 340.756 22.5753C340.756 20.1215 340.756 17.8312 340.919 15.3774C340.919 14.8866 341.083 14.5594 341.247 14.0687C341.247 13.5779 341.247 13.5779 341.41 13.5779Z" fill="black" fill-opacity="0.8"/>
<path fill-rule="evenodd" clip-rule="evenodd" d="M363.495 5.88922C360.223 7.36153 356.788 8.17947 353.516 8.83383C349.263 9.65178 344.682 10.1425 340.102 10.3061C333.395 10.3061 327.015 9.65178 322.107 7.03435C321.126 6.54358 320.798 5.88922 321.453 5.07128C322.925 4.41692 324.725 4.25333 326.851 4.25333C332.086 4.25333 337.484 4.08974 342.719 4.41692C349.263 4.7441 355.97 5.39845 363.495 5.88922Z" fill="black" fill-opacity="0.8"/>
<path fill-rule="evenodd" clip-rule="evenodd" d="M88.9926 5.88921C85.7208 10.3061 81.9582 13.0871 77.5413 13.7415C73.9423 14.3959 70.3434 13.4143 67.0716 10.1425C66.2536 9.32458 65.4357 8.50664 64.2906 8.34305C64.127 8.34305 63.9634 8.17946 63.7998 8.01587C63.7998 7.85228 63.7998 7.68869 63.7998 7.36151C63.7998 7.19793 63.9634 6.87075 63.9634 6.70716C64.127 6.54357 64.4542 6.54357 64.6178 6.37998C66.0901 6.0528 67.5624 6.54357 69.0347 7.19793C70.8341 8.01587 72.47 9.161 73.9423 10.4697C74.5967 11.2877 75.2511 11.4512 76.069 10.9605C77.5413 10.1425 79.1772 9.32459 80.6495 8.34305C82.2854 7.19793 84.0849 6.21639 85.8844 5.56203C87.0295 5.23485 87.8474 5.39844 88.9926 5.88921Z" fill="black" fill-opacity="0.8"/>
<path fill-rule="evenodd" clip-rule="evenodd" d="M83.1025 495.675C81.1395 497.148 79.0128 497.966 76.8861 498.62C74.2687 499.438 71.4877 499.929 68.5431 500.092C64.2898 500.092 60.3636 499.438 57.419 496.821C56.7646 496.33 56.6011 495.675 56.9282 494.857C57.7462 494.203 58.8913 494.039 60.2 494.039C63.4718 494.039 66.7436 493.876 70.0154 494.203C74.4323 494.53 78.522 495.185 83.1025 495.675Z" fill="black" fill-opacity="0.8"/>
<path fill-rule="evenodd" clip-rule="evenodd" d="M51.5302 492.894C51.5302 492.24 51.3666 491.749 51.3666 491.095C51.3666 484.715 51.3666 478.171 51.3666 471.791C51.3666 469.01 51.0394 466.393 51.3666 463.612C51.3666 463.121 51.203 462.63 51.203 462.14C51.0394 461.485 51.0394 460.667 51.0394 460.013C51.0394 455.923 51.0394 451.834 51.0394 447.744C51.0394 446.271 50.8758 444.799 50.7123 443.49C50.7123 443 50.7123 442.509 50.7123 442.018C50.7123 441.691 50.8758 441.2 50.7123 440.873C50.2215 437.274 50.5487 433.675 50.3851 430.076C50.2215 427.786 50.0579 425.659 50.0579 423.369C50.0579 422.551 50.0579 421.57 49.8943 420.752C49.8943 416.989 49.8943 413.39 49.5671 409.628C49.4035 407.01 49.4035 404.556 49.4035 401.939C49.4035 398.994 49.4035 396.05 48.9128 393.105C48.7492 392.287 48.9128 391.306 48.9128 390.488C48.9128 387.052 49.0764 383.78 48.7492 380.345C48.2584 375.601 48.5856 370.693 48.2584 365.949C47.9312 361.532 48.0948 356.952 48.422 352.535C48.5856 350.572 48.422 348.609 48.422 346.809C48.422 344.683 48.422 342.556 48.7492 340.266C48.9128 337.648 48.9128 335.194 48.9128 332.577C48.9128 330.123 48.9128 327.833 48.9128 325.379C48.9128 325.215 48.9128 324.888 48.9128 324.725C49.7307 319.163 49.24 313.437 49.4035 307.875C49.4035 306.73 49.5671 305.585 49.7307 304.44C49.7307 303.622 49.8943 302.804 49.8943 301.986C49.8943 300.35 49.8943 298.714 49.8943 297.242C49.8943 295.933 50.0579 294.461 50.2215 293.152C50.5487 291.025 50.3851 289.062 50.3851 286.936C50.3851 283.5 50.3851 280.065 50.3851 276.629C50.3851 276.139 50.5487 275.648 50.5487 275.157C50.7123 274.339 50.8758 273.358 50.8758 272.54C51.0394 267.796 50.8758 262.888 51.203 258.144C51.3666 254.708 51.3666 251.437 51.3666 248.001C51.3666 246.693 51.5302 245.384 51.6938 244.239C51.6938 243.257 51.6938 242.276 51.6938 241.294C51.8574 236.55 51.8574 231.806 52.021 227.062C52.1846 222.154 52.3481 217.083 52.3481 212.175C52.3481 210.376 52.5117 208.576 52.6753 206.94C52.6753 206.286 52.8389 205.632 52.6753 204.977C52.5117 201.215 52.8389 197.616 53.0025 193.853C53.1661 188.455 53.3297 183.056 53.4933 177.658C53.6569 172.259 53.8205 166.697 53.984 161.299C54.1476 155.901 54.4748 150.502 54.6384 145.104C54.802 141.178 54.802 137.251 54.9656 133.325C55.2928 123.837 55.6199 114.349 55.9471 104.861C56.1107 102.407 56.1107 100.117 56.1107 97.6628C56.1107 94.7182 55.9471 91.7736 55.7835 88.829C55.7835 86.7023 55.7835 84.5756 55.7835 82.2854C55.7835 79.9951 55.6199 77.7049 55.7835 75.5782C56.1107 70.0162 55.6199 64.4542 55.7835 58.8921C55.9471 54.966 55.9471 51.0398 55.9471 47.1137C55.9471 44.1691 55.7835 41.3881 55.9471 38.4435C56.1107 32.8814 56.2743 27.1558 56.4379 21.5938C56.4379 19.6307 56.4379 17.6676 56.4379 15.8681C56.4379 15.2138 56.6015 14.5594 56.7651 14.0687C57.7466 11.7784 58.4009 9.32457 58.2374 6.87073C58.2374 6.37997 58.401 5.8892 58.5645 5.56202C58.5645 5.56202 58.7281 5.56202 58.7281 5.39843C59.0553 5.23484 58.8917 5.72561 58.8917 6.05279C58.8917 9.32457 58.8917 12.5964 58.8917 15.8681C58.8917 20.4486 59.2189 25.0291 59.7097 29.6096C60.0368 33.2086 60.364 36.9712 60.8548 40.5701C61.182 43.8419 61.6727 47.1137 62.1635 50.3855C62.1635 50.8762 62.3271 51.367 62.3271 51.8578C62.3271 54.8024 62.8179 57.747 63.145 60.6916C63.4722 65.2721 63.963 69.8526 64.1266 74.4331C64.2902 80.1587 64.2902 85.8843 64.2902 91.61C64.2902 96.6812 64.2902 101.916 64.2902 106.987C64.2902 110.423 64.2902 113.858 64.1266 117.293C63.963 120.729 64.1266 124.001 63.7994 127.436C63.3086 132.834 63.3086 138.233 62.9815 143.631C62.6543 148.048 62.6543 152.465 62.3271 156.882C62.1635 160.972 61.8363 165.225 61.5091 169.315C61.5091 170.46 61.3456 171.769 61.3456 172.914C61.182 175.204 61.0184 177.494 61.0184 179.785C61.0184 180.603 60.8548 181.42 60.8548 182.238C60.6912 183.22 60.6912 184.201 60.6912 185.183C60.6912 186.492 60.5276 187.964 60.364 189.273C60.0368 191.236 60.2004 193.363 60.2004 195.326C60.2004 196.144 60.0368 197.125 59.8733 197.943C59.8733 198.434 59.7097 198.925 59.7097 199.415C59.5461 203.832 59.3825 208.413 59.2189 212.83C59.2189 213.484 59.0553 214.138 59.0553 214.793C59.0553 215.12 58.8917 215.447 58.8917 215.774C59.0553 219.046 58.7281 222.154 58.5645 225.426C58.401 228.207 58.5645 230.824 58.2374 233.605C57.9102 236.386 58.0738 239.004 57.9102 241.785C57.7466 244.566 57.7466 247.347 57.7466 250.292C57.7466 253.073 57.7466 255.69 57.583 258.471C57.583 261.252 57.2558 264.033 57.2558 266.814C57.2558 268.123 57.0922 269.595 57.583 270.904C57.7466 271.395 57.583 272.049 57.583 272.54C57.4194 274.012 57.2558 275.321 57.583 276.793C57.7466 277.447 57.583 278.102 57.583 278.756C57.583 282.191 57.583 285.463 57.583 288.899C57.583 289.88 57.7466 290.862 57.9102 292.007C58.2374 293.316 58.0738 294.788 58.0738 296.097C58.0738 298.55 57.9102 301.168 58.2374 303.458C58.4009 304.93 58.0738 306.403 58.401 307.875C58.7281 309.347 58.5645 310.983 58.5645 312.455C58.5645 313.928 58.5645 315.564 58.5645 317.036C58.5645 318.508 58.5645 320.144 58.5645 321.616C58.7281 323.252 58.7281 324.888 58.5645 326.688C58.5645 326.851 58.5645 327.015 58.5645 327.178C59.2189 329.469 58.7281 331.759 58.8917 334.049C59.0553 336.34 59.0553 338.466 59.0553 340.756C59.0553 342.883 59.0553 345.01 59.0553 347.3C59.2189 351.88 59.0553 356.625 59.0553 361.369C59.0553 361.859 59.0553 362.35 59.0553 362.841C58.5645 366.604 58.7281 370.53 58.5645 374.292C58.5645 378.709 58.5645 383.126 58.5645 387.543C58.5645 389.179 58.7281 390.978 58.2374 392.614C58.0738 392.941 58.2374 393.432 58.2374 393.759C58.2374 398.34 58.2374 402.92 58.2374 407.501C58.2374 408.482 58.0738 409.464 57.9102 410.282C57.9102 410.773 57.9102 411.427 57.7466 411.918C57.4194 413.063 58.401 414.044 57.9102 415.19C57.583 416.171 57.7466 417.48 57.7466 418.461C57.7466 419.606 57.7466 420.752 57.7466 421.897C57.7466 423.042 57.583 424.187 57.4194 425.168C57.4194 425.823 57.2558 426.477 57.2558 427.132C57.2558 428.604 57.2558 430.24 57.2558 431.712C57.2558 433.184 57.4194 434.82 56.9286 436.293C56.9286 436.456 56.9286 436.783 56.9286 436.947C56.7651 441.527 56.6015 446.108 56.4379 450.688C56.4379 451.833 56.4379 453.142 56.1107 454.287C55.9471 454.942 55.9471 455.76 55.9471 456.414C55.9471 458.704 55.9471 460.994 55.6199 463.448C55.4563 464.43 55.6199 465.575 55.4563 466.557C55.4563 467.702 55.4563 468.847 55.1292 469.828C54.9656 470.483 54.9656 471.301 54.9656 471.955C54.802 474.082 55.1292 476.208 54.6384 478.335C54.4748 478.989 54.6384 479.807 54.6384 480.462C54.6384 484.224 53.8205 487.66 53.0025 491.258C52.8389 491.913 52.5117 492.404 52.3481 492.894C51.8574 492.894 51.6938 492.894 51.5302 492.894Z" fill="black" fill-opacity="0.8"/>
<path fill-rule="evenodd" clip-rule="evenodd" d="M80.4853 496.821C80.4853 496.166 80.3217 495.675 80.3217 495.021C80.3217 488.641 80.3217 482.098 80.3217 475.718C80.3217 472.937 79.9945 470.319 80.3217 467.538C80.3217 467.047 80.1581 466.557 80.1581 466.066C79.9945 465.411 79.9945 464.594 79.9945 463.939C79.9945 459.849 79.9945 455.76 79.9945 451.67C79.9945 450.198 79.8309 448.725 79.6673 447.417C79.6673 446.926 79.6673 446.435 79.6673 445.944C79.6673 445.617 79.8309 445.126 79.6673 444.799C79.1766 441.2 79.5037 437.601 79.3402 434.002C79.1766 431.712 79.013 429.585 79.013 427.295C79.013 426.477 79.013 425.496 78.8494 424.678C78.8494 420.915 78.8494 417.316 78.5222 413.554C78.3586 410.936 78.3586 408.482 78.3586 405.865C78.3586 402.92 78.3586 399.976 77.8679 397.031C77.7043 396.213 77.8679 395.232 77.8679 394.414C77.8679 390.978 78.0314 387.707 77.7043 384.271C77.2135 379.527 77.5407 374.619 77.2135 369.875C76.8863 365.458 77.0499 360.878 77.3771 356.461C77.5407 354.498 77.3771 352.535 77.3771 350.735C77.3771 348.609 77.3771 346.482 77.7043 344.192C77.8679 341.574 77.8679 339.121 77.8679 336.503C77.8679 334.049 77.8679 331.759 77.8679 329.305C77.8679 329.142 77.8679 328.814 77.8679 328.651C78.6858 323.089 78.195 317.363 78.3586 311.801C78.3586 310.656 78.5222 309.511 78.6858 308.366C78.6858 307.548 78.8494 306.73 78.8494 305.912C78.8494 304.276 78.8494 302.64 78.8494 301.168C78.8494 299.859 79.013 298.387 79.1766 297.078C79.5037 294.951 79.3402 292.988 79.3402 290.862C79.3402 287.426 79.3402 283.991 79.3402 280.556C79.3402 280.065 79.5037 279.574 79.5037 279.083C79.6673 278.265 79.8309 277.284 79.8309 276.466C79.9945 271.722 79.8309 266.814 80.1581 262.07C80.3217 258.635 80.3217 255.363 80.3217 251.927C80.3217 250.619 80.4853 249.31 80.6489 248.165C80.6489 247.183 80.6489 246.202 80.6489 245.22C80.8125 240.476 80.8125 235.732 80.976 230.988C81.1396 226.08 81.3032 221.009 81.3032 216.101C81.3032 214.302 81.4668 212.502 81.6304 210.867C81.6304 210.212 81.794 209.558 81.6304 208.903C81.4668 205.141 81.794 201.542 81.9576 197.779C82.1212 192.381 82.2848 186.983 82.4484 181.584C82.6119 176.186 82.7755 170.624 82.9391 165.225C83.1027 159.827 83.4299 154.428 83.5935 149.03C83.7571 145.104 83.7571 141.178 83.9207 137.251C84.2478 127.763 84.575 118.275 84.9022 108.787C85.0658 106.333 85.0658 104.043 85.0658 101.589C85.0658 98.6443 84.9022 95.6997 84.7386 92.7551C84.7386 90.6284 84.7386 88.5018 84.7386 86.2115C84.7386 83.9213 84.575 81.631 84.7386 79.5044C85.0658 73.9423 84.575 68.3803 84.7386 62.8183C84.9022 58.8921 84.9022 54.966 84.9022 51.0398C84.9022 48.0952 84.7386 45.3142 84.9022 42.3696C85.0658 36.8076 85.2294 31.082 85.393 25.5199C85.393 23.5569 85.393 21.5938 85.393 19.7943C85.393 19.1399 85.5565 18.4856 85.7201 17.9948C86.7017 15.7046 87.356 13.2507 87.1924 10.7969C87.1924 10.3061 87.356 9.81535 87.5196 9.48817C87.5196 9.48817 87.6832 9.48817 87.6832 9.32458C88.174 9.48817 88.0104 10.1425 88.0104 10.4697C88.0104 13.7415 88.0104 17.0133 88.0104 20.2851C88.0104 24.8656 88.3376 29.4461 88.8283 34.0266C89.1555 37.6255 89.4827 41.3881 89.9735 44.987C90.3006 48.2588 90.7914 51.5306 91.2822 54.8024C91.2822 55.2932 91.4458 55.7839 91.4458 56.2747C91.4458 59.2193 91.9365 62.1639 92.2637 65.1085C92.5909 69.689 93.0816 74.2695 93.2452 78.85C93.4088 84.5756 93.4088 90.3013 93.4088 96.0269C93.4088 101.098 93.4088 106.333 93.4088 111.404C93.4088 114.84 93.4088 118.275 93.2452 121.71C93.0816 125.146 93.2452 128.418 92.9181 131.853C92.4273 137.251 92.4273 142.65 92.1001 148.048C91.7729 152.465 91.7729 156.882 91.4458 161.299C91.2822 165.389 90.955 169.642 90.6278 173.732C90.6278 174.877 90.4642 176.186 90.4642 177.331C90.3006 179.621 90.137 181.911 90.137 184.202C90.137 185.019 89.9735 185.837 89.9735 186.655C89.8099 187.637 89.8099 188.618 89.8099 189.6C89.8099 190.909 89.6463 192.381 89.4827 193.69C89.1555 195.653 89.3191 197.779 89.3191 199.742C89.3191 200.56 89.1555 201.542 88.9919 202.36C88.9919 202.851 88.8283 203.341 88.8283 203.832C88.6647 208.249 88.5012 212.83 88.3376 217.247C88.3376 217.901 88.174 218.555 88.174 219.21C88.174 219.537 88.0104 219.864 88.0104 220.191C88.174 223.463 87.8468 226.571 87.6832 229.843C87.5196 232.624 87.6832 235.241 87.356 238.022C87.0289 240.803 87.1924 243.421 87.0289 246.202C86.8653 248.983 86.8653 251.764 86.8653 254.708C86.8653 257.49 86.8653 260.107 86.7017 262.888C86.7017 265.669 86.3745 268.45 86.3745 271.231C86.3745 272.54 86.2109 274.012 86.7017 275.321C86.8653 275.811 86.7017 276.466 86.7017 276.957C86.5381 278.429 86.3745 279.738 86.7017 281.21C86.8653 281.864 86.7017 282.519 86.7017 283.173C86.7017 286.608 86.7017 289.88 86.7017 293.316C86.7017 294.297 86.8653 295.279 87.0289 296.424C87.356 297.732 87.1924 299.205 87.1924 300.513C87.1924 302.967 87.0289 305.585 87.356 307.875C87.5196 309.347 87.1924 310.82 87.5196 312.292C87.8468 313.764 87.6832 315.4 87.6832 316.872C87.6832 318.345 87.6832 319.981 87.6832 321.453C87.6832 322.925 87.6832 324.561 87.6832 326.033C87.8468 327.669 87.8468 329.305 87.6832 331.105C87.6832 331.268 87.6832 331.432 87.6832 331.595C88.3376 333.886 87.8468 336.176 88.0104 338.466C88.174 340.756 88.174 342.883 88.174 345.173C88.174 347.3 88.174 349.427 88.174 351.717C88.3376 356.297 88.174 361.042 88.174 365.786C88.174 366.276 88.174 366.767 88.174 367.258C87.6832 371.02 87.8468 374.947 87.6832 378.709C87.6832 383.126 87.6832 387.543 87.6832 391.96C87.6832 393.596 87.8468 395.395 87.356 397.031C87.1924 397.358 87.356 397.849 87.356 398.176C87.356 402.757 87.356 407.337 87.356 411.918C87.356 412.899 87.1924 413.881 87.0289 414.699C87.0289 415.19 87.0288 415.844 86.8653 416.335C86.5381 417.48 87.5196 418.461 87.0289 419.606C86.7017 420.588 86.8653 421.897 86.8653 422.878C86.8653 424.023 86.8653 425.169 86.8653 426.314C86.8653 427.459 86.7017 428.604 86.5381 429.585C86.5381 430.24 86.3745 430.894 86.3745 431.548C86.3745 433.021 86.3745 434.657 86.3745 436.129C86.3745 437.601 86.5381 439.237 86.0473 440.709C86.0473 440.873 86.0473 441.2 86.0473 441.364C85.8837 445.944 85.7201 450.525 85.5565 455.105C85.5565 456.25 85.5565 457.559 85.2294 458.704C85.0658 459.359 85.0658 460.177 85.0658 460.831C85.0658 463.121 85.0658 465.411 84.7386 467.865C84.575 468.847 84.7386 469.992 84.575 470.973C84.575 472.119 84.575 473.264 84.2478 474.245C84.0842 474.9 84.0842 475.718 84.0842 476.372C83.9207 478.499 84.2478 480.625 83.7571 482.752C83.5935 483.406 83.7571 484.224 83.7571 484.879C83.7571 488.641 82.9391 492.076 82.1212 495.675C81.9576 496.33 81.6304 496.821 81.4668 497.311C80.8125 496.821 80.6489 496.821 80.4853 496.821Z" fill="black" fill-opacity="0.8"/>
</g>
<defs>
<clipPath id="clip0_61_1649">
<rect width="363.495" height="505" fill="white"/>
</clipPath>
</defs>
</svg>
