<svg width="250" height="505" viewBox="0 0 250 505" fill="none" xmlns="http://www.w3.org/2000/svg">
<g clip-path="url(#clip0_27_3044)">
<path fill-rule="evenodd" clip-rule="evenodd" d="M133.63 2.20875C133.581 2.74867 133.565 3.3213 133.483 3.84486C132.73 8.76953 131.993 13.6942 131.19 18.6025C130.912 20.3368 130.421 22.0383 130.06 23.7726C129.847 24.787 129.569 25.8177 129.569 26.8321C129.569 32.7057 129.635 38.563 129.7 44.4366C129.733 47.2507 129.766 50.0648 129.831 52.8789C129.864 54.1551 129.978 55.4312 130.028 56.7074C130.159 59.6851 130.24 62.6465 130.421 65.6242C130.732 70.3525 131.125 75.0808 131.469 79.8092C131.731 83.4904 131.944 87.188 132.206 90.8693C132.418 93.7488 132.681 96.6283 132.91 99.5079C133.45 106.314 133.991 113.104 134.547 119.91C134.793 122.871 135.088 125.816 135.317 128.778C135.563 132.132 135.759 135.502 135.956 138.873C136.267 143.994 136.578 149.115 136.84 154.252C136.938 156.183 136.938 158.113 136.938 160.044C136.938 162.923 137.037 165.803 137.151 168.666C137.348 173.656 137.299 178.614 137.2 183.587C137.118 188.005 136.938 192.422 136.644 196.823C136.463 199.376 136.562 201.961 136.038 204.48C136.005 204.644 135.989 204.808 135.989 204.955C135.825 209.683 135.317 214.395 135.448 219.156C135.546 223.345 135.677 227.533 135.383 231.705C134.777 239.902 135.219 248.099 134.973 256.296C134.875 259.584 134.973 262.873 134.957 266.161C134.94 268.485 134.809 270.808 134.76 273.131C134.678 278.187 134.613 283.242 134.564 288.298C134.547 289.82 134.564 291.357 134.564 292.879C134.564 294.875 134.482 296.871 134.269 298.867C133.991 301.403 134.105 303.988 134.105 306.557C134.089 311.94 134.105 317.339 134.089 322.722C134.089 324.243 133.941 325.765 133.876 327.286C133.876 327.679 133.925 328.088 133.941 328.481C133.991 329.839 134.122 331.213 134.04 332.571C133.909 334.649 133.827 336.71 134.04 338.788C134.072 339.181 134.138 339.639 133.991 339.983C133.467 341.226 133.647 342.518 133.63 343.795C133.63 349.096 133.63 354.413 133.614 359.714C133.614 360.663 133.45 361.628 133.352 362.577C133.319 362.888 133.221 363.215 133.237 363.526C133.581 366.716 133.172 369.923 133.319 373.097C133.434 375.584 133.074 378.038 133.139 380.509C133.205 382.914 133.139 385.335 133.139 387.74C133.139 390.227 133.139 392.73 133.139 395.217C133.139 397.622 133.139 400.044 133.139 402.465C133.139 402.793 133.172 403.12 133.106 403.431C132.484 405.803 132.697 408.224 132.681 410.629C132.648 415.129 132.697 419.644 132.664 424.144C132.631 426.86 132.337 429.559 131.862 432.242C131.747 432.864 131.78 433.519 131.714 434.157C131.649 434.86 131.534 435.58 131.436 436.284C131.387 436.611 131.289 436.922 131.256 437.233C131.076 439.392 130.945 441.536 130.732 443.695C130.502 445.92 130.159 448.129 129.913 450.354C129.667 452.579 129.504 454.821 129.274 457.062C129.127 458.567 129.11 460.122 128.75 461.578C128.243 463.688 128.603 465.913 127.931 467.991C127.784 468.433 127.866 468.957 127.866 469.431C127.85 470.625 127.751 471.803 127.538 473.014C127.178 475.059 127.113 477.137 126.916 479.215C126.834 480.082 126.703 480.949 126.605 481.833C126.556 482.225 126.474 482.618 126.458 483.027C126.425 485.53 126.081 487.984 125.573 490.406C125.524 490.635 125.508 490.88 125.508 491.126C125.508 494.185 125.066 497.179 124.607 500.19C124.492 500.975 124.607 501.793 124.525 502.595C124.492 503.053 124.361 503.544 124.148 503.953C124.05 504.133 123.657 504.149 123.215 504.329C123.084 501.744 123.182 499.339 123.15 496.934C123.117 492.517 123.395 488.115 123.166 483.714C123.051 481.473 123.133 479.215 123.15 476.957C123.182 473.587 123.035 470.2 123.346 466.862C123.526 464.899 123.117 463.05 123.15 461.136C123.199 458.011 123.264 454.886 123.281 451.745C123.281 450.223 123.199 448.702 123.199 447.164C123.215 445.315 123.264 443.482 123.346 441.634C123.395 440.439 123.559 439.245 123.281 438.051C123.117 437.363 123.166 436.611 123.166 435.891C123.166 428.807 123.166 421.739 123.166 414.654C123.166 411.039 123.33 407.423 123.117 403.807C122.953 401.009 122.806 398.228 123.117 395.43C122.298 389.344 122.888 383.225 122.707 377.138C122.675 375.699 122.707 374.259 122.707 372.819C122.707 371.788 122.822 370.741 122.396 369.727C122.249 369.383 122.265 368.942 122.282 368.533C122.527 363.886 122.069 359.223 122.232 354.577C122.232 354.331 122.232 354.102 122.232 353.857C122.183 352.499 122.282 351.141 121.987 349.815C121.938 349.586 121.905 349.308 121.987 349.112C122.396 348.065 122.085 347.067 121.987 346.036C121.856 344.842 121.921 343.647 121.938 342.437C121.938 342.126 122.101 341.782 122.036 341.488C121.512 338.772 121.905 336.039 121.774 333.324C121.708 332.211 121.61 331.082 121.528 329.97C121.496 329.577 121.496 329.168 121.528 328.775C121.545 328.464 121.725 328.121 121.676 327.826C120.939 323.834 121.496 319.809 121.299 315.817C121.234 314.541 121.086 313.265 121.037 311.989C120.939 309.109 120.906 306.213 120.824 303.334C120.775 301.665 120.529 299.963 120.644 298.295C120.759 296.675 120.497 295.121 120.464 293.534C120.398 290.425 120.578 287.3 120.644 284.175C120.726 280.723 120.791 277.271 120.857 273.835C120.873 272.87 120.824 271.937 121.119 270.972C121.332 270.317 121.299 269.548 121.283 268.828C121.283 265.294 121.315 261.76 121.676 258.243C121.889 256.165 121.708 254.054 121.774 251.976C121.807 250.782 121.954 249.588 122.069 248.393C122.085 248.148 122.167 247.919 122.151 247.673C121.921 244.876 122.462 242.094 122.249 239.297C122.232 238.904 122.183 238.462 122.314 238.102C122.871 236.63 122.756 235.075 122.691 233.57C122.576 231.231 123.019 228.94 123.084 226.617C123.133 225.013 123.133 223.41 123.199 221.79C123.264 220.351 123.412 218.911 123.477 217.471C123.559 215.311 123.624 213.135 123.657 210.976C123.69 209.29 123.592 207.589 123.985 205.936C124.05 205.626 124.116 205.298 124.099 204.988C123.854 201.061 124.099 197.134 124.198 193.224C124.263 190.181 124.083 187.121 124.492 184.078C124.574 183.44 124.591 182.802 124.591 182.148C124.673 177.648 124.804 173.149 124.804 168.65C124.787 159.406 124.722 150.162 124.591 140.918C124.525 136.271 124.329 131.625 124.083 126.994C123.936 124.279 123.543 121.563 123.33 118.847C123.068 115.411 122.855 111.959 122.642 108.506C122.494 106.02 122.363 103.533 122.249 101.046C122.085 97.201 121.889 93.3561 121.823 89.5113C121.741 83.7195 121.708 77.9277 121.774 72.1359C121.807 68.7655 121.741 65.3951 122.167 62.0411C122.314 60.9285 122.298 59.7996 122.249 58.6707C122.118 55.1204 122.609 51.6191 122.822 48.0851C123.068 43.9131 123.346 39.7574 123.772 35.6016C124.148 31.7732 124.722 27.961 125.246 24.1489C125.688 21.0567 126.163 17.9644 126.687 14.8722C126.834 14.0214 127.047 13.1216 127.456 12.3853C129.143 9.244 130.896 6.15176 132.648 3.04316C132.828 2.71594 133.09 2.45417 133.319 2.15967C133.45 2.20875 133.598 2.25783 133.729 2.30692L133.63 2.20875Z" fill="black"/>
<path fill-rule="evenodd" clip-rule="evenodd" d="M181.089 501.286C180.155 499.372 179.762 497.588 179.369 495.854C178.649 492.598 178.125 489.293 177.535 486.005C177.453 485.53 177.404 485.056 177.388 484.565C177.355 483.518 177.47 482.454 176.995 481.489C176.962 481.424 176.962 481.342 176.946 481.26C176.766 479.035 176.602 476.81 176.422 474.585C176.356 473.783 176.274 472.981 176.209 472.196C176.111 470.904 176.045 469.627 175.93 468.351C175.865 467.566 175.717 466.781 175.619 465.979C175.554 465.423 175.472 464.866 175.455 464.31C175.423 463.263 175.455 462.232 175.128 461.218C174.948 460.711 174.997 460.105 174.964 459.549C174.931 459.075 175.046 458.551 174.915 458.109C174.227 455.917 174.571 453.643 174.489 451.418C174.424 449.585 174.588 447.72 174.08 445.92C173.998 445.626 174.014 445.282 174.063 444.971C174.522 442.255 173.9 439.556 173.998 436.824C174.096 434.091 174.031 431.359 173.998 428.627C173.998 426.156 174.227 423.702 174.407 421.248C174.538 419.497 174.342 417.714 174.424 415.947C174.588 412.658 174.358 409.386 174.735 406.098C175.079 403.087 174.915 400.011 174.997 396.952C175.013 396.085 174.899 395.201 175.292 394.35C175.455 394.007 175.406 393.565 175.423 393.156C175.439 392.6 175.423 392.027 175.423 391.471C175.521 389.393 175.308 387.331 175.799 385.237C176.16 383.732 175.881 382.047 175.914 380.443C175.947 378.611 175.799 376.746 176.323 374.93C176.504 374.341 176.389 373.654 176.389 373.015C176.389 370.921 176.504 368.843 176.716 366.766C176.929 364.606 176.831 362.43 176.88 360.254C176.913 358.978 176.766 357.685 177.257 356.442C177.421 356.016 177.355 355.493 177.355 355.018C177.47 351.403 177.535 347.803 177.683 344.204C177.797 341.161 178.043 338.117 178.158 335.074C178.223 333.405 178.141 331.72 178.158 330.051C178.158 328.301 178.223 326.566 178.256 324.816C178.289 322.885 178.321 320.971 178.321 319.04C178.321 314.705 178.305 310.385 177.896 306.066C177.699 303.906 177.863 301.73 177.83 299.554C177.814 298.524 177.683 297.477 177.584 296.446C177.535 295.808 177.437 295.17 177.404 294.532C177.224 291.488 177.126 288.445 176.847 285.402C176.635 283.013 176.487 280.625 176.045 278.269C175.701 276.469 175.636 274.637 175.439 272.804C175.161 270.334 174.899 267.879 174.62 265.409C174.571 265.016 174.473 264.607 174.489 264.215C174.538 262.693 174.194 261.188 174.145 259.683C174.096 258.145 173.818 256.656 173.67 255.15C173.638 254.823 173.572 254.512 173.539 254.202C173.359 251.24 173.196 248.262 172.999 245.301C172.737 241.456 172.426 237.611 172.18 233.767C172.066 231.918 172.098 230.069 171.984 228.22C171.738 224.065 171.411 219.909 171.214 215.737C171.067 212.53 171.181 209.307 170.985 206.1C170.674 201.274 170.706 196.463 170.592 191.653C170.543 189.33 170.379 187.007 170.297 184.683C170.264 183.718 170.297 182.753 170.297 181.788C170.264 176.323 170.248 170.858 170.182 165.394C170.182 163.954 170.019 162.514 170.002 161.074C170.002 158.424 170.215 155.757 170.019 153.123C169.707 148.624 169.92 144.124 169.871 139.625C169.838 136.255 170.019 132.868 170.051 129.498C170.15 122.348 170.051 115.182 170.33 108.032C170.543 102.486 170.575 96.9556 170.69 91.4092C170.739 88.7587 171.001 86.1245 171.116 83.4904C171.198 81.7234 171.214 79.9564 171.263 78.1894C171.378 74.0174 171.46 69.8453 171.591 65.6732C171.64 64.3153 171.787 62.9573 171.885 61.5993C171.918 61.0431 171.967 60.4868 171.984 59.9142C172.131 56.462 172.262 53.0098 172.393 49.5576C172.442 47.9542 172.442 46.3345 172.54 44.7475C172.983 36.976 173.523 29.2045 173.851 21.433C174.129 14.774 174.637 8.13145 175.144 1.48886C175.144 1.25981 175.243 1.03076 175.308 0.785339C175.455 0.899867 175.619 0.981672 175.636 1.07984C175.848 3.63216 176.045 6.20085 176.209 8.75317C176.405 11.9599 176.569 15.1667 176.733 18.3898C176.88 21.3512 176.978 24.3125 177.093 27.2902C177.24 30.9715 177.388 34.6691 177.502 38.3503C177.568 40.3463 177.535 42.3588 177.568 44.3548C177.617 47.0053 177.732 49.6558 177.781 52.3063C177.863 56.0857 177.879 59.8487 177.961 63.6281C178.01 66.115 178.141 68.6019 178.174 71.1051C178.239 76.5697 178.256 82.0343 178.338 87.4989C178.354 88.9386 178.551 90.3784 178.567 91.8182C178.567 93.8142 178.501 95.8266 178.452 97.8391C178.452 98.2317 178.338 98.6571 178.387 99.0334C178.911 102.469 178.649 105.905 178.501 109.357C178.452 110.715 178.731 112.073 178.731 113.431C178.78 120.352 178.649 127.273 178.878 134.177C178.976 137.056 178.976 139.936 179.157 142.816C179.304 145.221 179.206 147.642 179.271 150.047C179.402 155.185 179.55 160.322 179.713 165.459C179.861 170.515 180.024 175.57 180.188 180.626C180.221 181.657 180.319 182.687 180.368 183.718C180.548 187.154 180.712 190.606 180.909 194.042C181.089 197.069 181.302 200.096 181.466 203.122C181.547 204.889 181.564 206.656 181.597 208.423C181.646 210.91 181.564 213.413 181.76 215.884C182.202 221.479 181.908 227.108 182.202 232.703C182.333 235.255 182.35 237.808 182.497 240.344C182.645 242.912 182.53 245.481 182.546 248.066C182.546 248.312 182.546 248.557 182.596 248.786C183.267 252.369 182.907 255.985 183.021 259.601C183.054 260.55 183.169 261.499 183.251 262.464C183.251 262.529 183.332 262.628 183.316 262.677C182.596 264.771 183.578 266.783 183.496 268.861C183.398 270.939 183.529 273.049 183.48 275.127C183.414 277.369 183.873 279.61 183.545 281.835C184.053 285.337 183.971 288.854 183.971 292.372C183.971 295.906 183.971 299.44 184.004 302.99C184.004 304.021 183.938 305.068 184.299 306.082C184.479 306.59 184.43 307.195 184.43 307.751C184.43 318.697 184.43 329.626 184.43 340.572C184.43 342.502 184.43 344.433 184.43 346.363C184.43 347.574 184.479 348.768 184.102 349.946C183.938 350.454 184.004 351.059 184.004 351.615C183.971 354.184 183.971 356.769 183.938 359.338C183.906 361.743 184.037 364.181 183.775 366.553C183.513 369.04 183.725 371.559 183.398 373.997C183.054 376.484 183.12 378.955 182.956 381.425C182.776 384.059 182.415 386.677 182.153 389.311C182.071 390.113 182.071 390.914 182.055 391.716C182.022 392.91 182.17 394.138 181.662 395.283C181.629 395.348 181.613 395.446 181.613 395.512C181.433 397.835 181.285 400.158 181.105 402.465C181.04 403.267 180.942 404.052 180.843 404.838C180.794 405.23 180.696 405.623 180.663 406.032C180.483 408.11 180.352 410.188 180.155 412.249C180.041 413.362 179.861 414.458 179.648 415.554C179.173 417.91 179.173 420.348 178.731 422.688C177.977 426.68 178.42 430.688 178.338 434.697C178.289 437.02 178.289 439.359 178.485 441.666C178.813 445.282 178.632 448.898 178.829 452.497C179.009 456.015 179.419 459.533 179.664 463.05C179.779 464.572 179.681 466.11 179.762 467.631C179.91 470.347 180.352 473.047 180.221 475.796C180.86 477.988 180.614 480.262 180.663 482.487C180.663 482.733 180.647 482.978 180.679 483.207C181.384 487.281 181.056 491.388 181.138 495.478C181.171 497.065 181.302 498.652 181.351 500.239C181.351 500.501 181.204 500.779 181.023 501.319L181.089 501.286Z" fill="black"/>
<path fill-rule="evenodd" clip-rule="evenodd" d="M141.344 365.555C141.278 365.342 141.18 365.146 141.18 364.933C141.18 363.166 141.033 361.366 141.295 359.632C141.639 357.391 141.622 355.149 141.655 352.908C141.72 349.21 141.982 345.562 142.572 341.93C142.768 340.67 142.703 339.361 142.883 338.101C143.489 333.847 144.046 329.593 144.832 325.356C145.34 322.542 146.158 319.809 146.502 316.946C146.699 315.294 147.174 313.674 147.632 312.071C148.467 309.191 148.762 306.279 148.746 303.285C148.729 299.342 148.762 295.399 148.811 291.456C148.91 283.733 149.057 276.027 149.139 268.305C149.237 258.897 149.286 249.506 149.352 240.098C149.368 237.366 149.401 234.65 149.679 231.918C149.859 230.167 149.745 228.384 149.745 226.617C149.745 220.989 149.745 215.36 149.745 209.732C149.745 208.538 149.909 207.344 149.99 206.133C150.023 205.658 150.072 205.168 150.072 204.693C150.121 198.345 150.121 191.997 150.203 185.649C150.269 180.184 150.416 174.72 150.482 169.239C150.514 166.67 150.433 164.101 150.465 161.533C150.514 155.512 150.645 149.475 150.678 143.454C150.711 137.024 150.744 130.594 150.645 124.148C150.58 120.254 151.104 116.442 151.841 112.679C152.611 108.67 153.626 104.711 154.658 100.768C155.362 98.0681 156.361 95.4504 157.114 92.7671C158.31 88.4642 159.554 84.1612 160.488 79.7765C161.159 76.6679 161.667 73.4938 161.699 70.2543C161.732 67.522 162.06 64.8061 162.256 62.0902C162.371 60.4868 162.502 58.8834 162.6 57.28C162.764 54.4005 162.944 51.5046 163.01 48.625C163.108 45.3365 163.091 42.0479 163.124 38.7593C163.124 38.1213 163.108 37.4668 163.124 36.8287C163.239 32.5749 163.386 28.321 163.452 24.0671C163.501 21.253 163.435 18.4389 163.419 15.6248C163.419 14.8231 163.452 14.0542 163.992 13.367C165.22 11.78 165.351 9.84937 165.319 7.9024C165.286 6.05361 165.22 4.22117 165.22 2.37237C165.22 2.24148 165.531 1.99607 165.712 1.97971C165.892 1.97971 166.105 2.15968 166.252 2.30693C166.35 2.40509 166.383 2.58506 166.399 2.74867C166.432 3.14134 166.449 3.55037 166.449 3.94303C166.449 8.13146 166.449 12.3035 166.416 16.4756C166.383 23.4618 166.367 30.4479 166.252 37.4341C166.17 42.4897 165.974 47.5452 165.81 52.6008C165.662 57.1819 165.581 61.763 165.302 66.3277C164.975 71.7759 164.533 77.2078 164.025 82.656C163.632 86.8935 163.124 91.1147 162.551 95.3195C162.092 98.6408 161.437 101.946 160.93 105.267C160.75 106.445 160.782 107.672 160.7 108.866C160.422 112.777 160.111 116.687 159.865 120.597C159.783 121.873 159.849 123.166 159.767 124.458C159.489 129.023 159.177 133.588 158.883 138.153C158.866 138.562 158.866 138.954 158.866 139.363C158.834 143.454 158.752 147.544 158.408 151.618C158.31 152.812 158.326 154.023 158.277 155.234C158.162 158.768 158.048 162.302 157.9 165.819C157.851 167.095 157.704 168.388 157.654 169.664C157.54 171.987 157.442 174.327 157.376 176.65C157.229 180.986 157.114 185.322 156.967 189.657C156.803 194.14 156.639 198.623 156.41 203.09C156.082 209.421 155.82 215.769 155.476 222.085C155.182 227.844 154.903 233.619 154.609 239.378C154.314 244.99 153.953 250.602 153.724 256.214C153.511 261.597 153.102 266.963 152.692 272.33C152.447 275.455 152.349 278.579 152.087 281.704C151.694 286.498 151.235 291.292 150.809 296.086C150.613 298.245 150.449 300.389 150.236 302.532C150.105 303.808 149.843 305.068 149.81 306.328C149.778 307.539 149.712 308.733 149.368 309.895C149.303 310.124 149.319 310.369 149.319 310.614C149.319 313.183 148.779 315.686 148.5 318.222C148.287 320.284 148.107 322.362 147.878 324.423C147.747 325.699 147.583 326.959 147.403 328.219C147.141 330.199 146.83 332.162 146.584 334.142C146.355 335.958 146.191 337.806 145.978 339.623C145.847 340.735 145.7 341.831 145.52 342.928C145.11 345.529 144.652 348.114 144.242 350.699C143.866 353.071 143.538 355.444 143.145 357.816C142.703 360.401 142.212 362.986 141.737 365.571C141.622 365.571 141.508 365.571 141.377 365.571L141.344 365.555Z" fill="black"/>
<path fill-rule="evenodd" clip-rule="evenodd" d="M53.9107 493.318C53.8452 493.056 53.7469 492.827 53.7469 492.598C53.6814 486.332 52.9609 480.082 53.1738 473.816C53.1738 473.341 53.2229 472.834 53.1082 472.376C52.7152 470.724 52.748 469.038 52.7316 467.353C52.7152 465.03 52.7316 462.707 52.3386 460.383C52.0438 458.666 52.2239 456.866 52.2075 455.099C52.2075 454.624 52.3058 454.117 52.2075 453.659C51.5853 450.73 51.8145 447.736 51.6999 444.775C51.6999 444.382 51.6344 443.973 51.5853 443.581C51.487 442.468 51.3232 441.355 51.2905 440.243C51.225 438.231 51.3396 436.235 50.8647 434.255C50.6846 433.502 50.7992 432.651 50.7992 431.85C50.7992 430.655 50.8483 429.445 50.4553 428.267C50.2915 427.759 50.3243 427.154 50.3243 426.598C50.2915 424.504 50.3079 422.442 49.9149 420.364C49.6201 418.728 49.571 417.01 49.5218 415.341C49.4236 411.955 48.9323 408.633 48.8832 405.263C48.8668 403.823 48.7358 402.4 48.5229 400.977C48.179 398.522 48.1135 396.035 47.9333 393.549C47.8351 392.207 47.7368 390.865 47.6386 389.507C47.4257 386.399 47.2128 383.274 46.9671 380.165C46.8689 378.971 46.7543 377.76 46.4922 376.615C45.8044 373.637 45.6734 370.594 45.2476 367.584C44.8874 365.048 44.8382 362.479 44.6417 359.927C44.5598 358.732 44.6417 357.522 44.2978 356.344C44.1177 355.755 44.1996 355.067 44.1832 354.429C44.1177 352.417 43.9375 350.404 44.0194 348.408C44.1341 345.12 43.6264 341.864 43.6919 338.575C43.7738 335.369 43.6919 332.146 43.7083 328.922C43.7083 328.448 43.6919 327.941 43.7902 327.483C44.3306 325.012 44.1013 322.525 44.1832 320.038C44.2651 317.731 44.2159 315.425 44.5762 313.118C44.8055 311.711 44.6253 310.222 44.6417 308.782C44.6417 307.669 44.6908 306.557 44.9201 305.444C45.1658 304.283 45.0511 303.056 45.1166 301.845C45.1985 300.012 44.9856 298.164 45.526 296.348C45.6734 295.824 45.5588 295.235 45.5752 294.662C45.6079 293.386 45.4769 292.077 45.9518 290.85C46.0337 290.638 46.0501 290.376 46.0337 290.13C45.8208 287.153 46.2793 284.191 46.6069 281.263C46.918 278.481 46.6888 275.651 47.3438 272.902C47.0163 271.544 47.5239 270.219 47.4912 268.861C47.4421 267.339 47.3766 265.818 47.8842 264.329C48.048 263.822 47.9333 263.216 47.9497 262.644C48.0316 260.501 47.917 258.341 48.3428 256.198C48.5229 255.347 48.3755 254.431 48.4246 253.563C48.6211 249.473 48.8668 245.383 49.0142 241.293C49.1943 235.992 49.309 230.691 49.44 225.39C49.5055 222.592 49.5382 219.778 49.5546 216.964C49.571 215.606 49.5218 214.248 49.5546 212.89C49.6692 207.834 49.7839 202.795 49.9313 197.74C49.9968 195.662 50.226 193.568 50.3079 191.49C50.5372 186.287 50.7173 181.068 50.9466 175.865C51.0776 172.658 51.2905 169.451 51.3887 166.245C51.5689 160.306 51.6671 154.366 51.8636 148.427C51.9292 146.022 52.1257 143.617 52.2567 141.212C52.2731 140.803 52.2894 140.41 52.3058 140.001C52.4859 133.653 52.6661 127.305 52.8298 120.957C52.8954 118.225 52.7971 115.476 52.9936 112.76C53.1901 110.11 53.272 107.459 53.2884 104.809C53.2884 104.171 53.2393 103.516 53.3539 102.878C53.8779 99.9333 53.665 96.9555 53.7469 93.9778C53.8452 90.6075 54.0253 87.2534 54.1563 83.8831C54.1727 83.474 54.2055 83.0814 54.1891 82.6724C54.1399 78.2385 54.4347 73.8374 54.7131 69.4199C54.9751 65.1006 55.057 60.7649 55.2372 56.4292C55.4337 52.1099 55.6793 47.7906 55.8922 43.4549C56.0232 40.6572 56.1051 37.8431 56.2689 35.0454C56.4326 32.3294 56.6619 29.5971 56.8584 26.8812C56.9075 26.3249 56.9403 25.7523 56.973 25.196C57.1696 22.3165 57.3497 19.4369 57.5462 16.5574C57.841 12.5489 58.1521 8.55682 58.4797 4.56473C58.496 4.3684 58.6598 4.18842 58.7581 4.00845C59.3804 4.10662 59.2657 4.56473 59.2821 4.92467C59.3148 8.04963 58.9873 11.1746 59.3148 14.2996C59.5114 16.2465 59.8716 18.1117 60.5267 19.9114C61.0016 21.2039 61.2145 22.5128 61.1654 23.9035C60.9852 29.3681 61.2964 34.8163 61.8368 40.2482C62.0824 42.6369 62.4591 45.0256 62.6884 47.4143C63.0978 51.4882 63.458 55.5621 63.7856 59.636C63.9002 61.0758 64.2605 62.4665 64.1295 63.939C63.933 66.0005 63.9821 68.0947 63.933 70.1725C63.8511 74.1155 63.8183 78.0422 63.7201 81.9852C63.5727 88.0879 63.3925 94.1905 63.196 100.293C62.9995 106.314 62.7702 112.319 62.5246 118.323C62.3936 121.693 62.1807 125.064 62.0497 128.434C61.9187 131.952 61.8368 135.486 61.7058 139.003C61.673 139.952 61.4929 140.901 61.4274 141.867C61.3291 143.47 61.28 145.073 61.2145 146.677C61.0835 149.475 60.9361 152.289 60.8051 155.086C60.8051 155.25 60.7723 155.414 60.756 155.561C60.6086 158.768 60.4939 161.974 60.3302 165.165C60.2155 167.57 60.0682 169.975 59.9371 172.38C59.7406 175.979 59.7734 179.612 59.3148 183.162C58.9709 185.812 59.0856 188.43 58.8891 191.064C58.5943 194.893 58.365 198.721 58.4305 202.566C57.7263 205.315 58.0211 208.145 57.9556 210.943C57.9556 211.417 57.7919 211.876 57.6936 212.35C57.6281 212.661 57.448 213.021 57.5298 213.283C57.9229 214.641 57.4643 215.966 57.4807 217.307C57.4971 218.584 57.4807 219.843 57.1696 221.12C56.9239 222.183 57.0549 223.345 57.0222 224.474C56.973 226.322 56.9239 228.155 56.7274 230.004C56.4981 232.196 56.5145 234.437 56.449 236.679C56.4163 238.037 56.2525 239.378 56.1542 240.736C56.1051 241.456 56.0724 242.176 56.0724 242.896C56.056 244.908 56.2852 246.954 55.9905 248.917C55.5319 251.96 55.6629 254.987 55.5974 258.03C55.5974 258.357 55.6466 258.701 55.5483 258.995C54.9096 260.713 55.188 262.497 55.1225 264.247C55.0243 267.143 54.926 270.023 54.8278 272.919C54.7622 275.242 54.7295 277.565 54.6312 279.888C54.533 282.293 54.3856 284.682 54.271 287.071C54.2055 288.527 54.1727 289.967 54.1727 291.407C54.1563 293.664 54.3692 295.939 54.1072 298.147C53.8124 300.618 53.8124 303.072 53.8288 305.543C53.8288 308.029 53.7142 310.516 53.6978 313.02C53.665 315.997 53.6978 318.959 53.665 321.936C53.665 323.311 53.8124 324.669 53.3703 326.01C53.3211 326.157 53.2556 326.354 53.3048 326.485C53.9271 328.055 53.2393 329.642 53.3048 331.213C53.3866 332.816 53.272 334.42 53.2556 336.023C53.2556 336.269 53.1738 336.53 53.2556 336.743C53.9434 338.935 53.5832 341.21 53.6814 343.435C53.7305 344.629 53.6814 345.823 53.9926 347.018C54.2382 347.999 54.1072 349.096 54.1563 350.126C54.271 352.204 54.4183 354.298 54.5166 356.376C54.5821 357.652 54.6312 358.945 54.6149 360.237C54.6149 362.152 54.7786 364.033 55.0079 365.915C55.0243 366.078 55.1061 366.258 55.057 366.389C54.402 368.598 55.2535 370.807 55.1225 373.015C54.9915 375.175 55.1062 377.351 55.1062 379.511C55.1062 379.593 55.0734 379.674 55.1062 379.756C55.5974 381.261 55.3518 382.75 55.1062 384.239C55.057 384.55 55.0406 384.926 55.1553 385.188C55.7121 386.497 55.5483 387.871 55.5483 389.229C55.5483 394.612 55.5483 400.011 55.5483 405.394C55.5483 407.864 55.5483 410.335 55.5811 412.822C55.5811 413.215 55.7448 413.607 55.794 414C55.8758 414.785 56.0887 415.62 55.9741 416.372C55.4828 419.644 55.5811 422.933 55.5647 426.222C55.5319 433.06 55.5647 439.899 55.5647 446.738C55.5647 447.785 55.6302 448.816 55.2535 449.831C55.057 450.321 55.1062 450.927 55.1062 451.499C55.1062 458.649 55.1062 465.799 55.0734 472.965C55.0734 474.241 54.8769 475.501 54.795 476.794C54.7295 477.841 54.5985 478.871 54.6476 479.918C54.8278 484.271 54.2873 488.573 54.14 492.909C54.14 493.024 54.0253 493.138 53.9107 493.318Z" fill="black"/>
<path fill-rule="evenodd" clip-rule="evenodd" d="M3.16077 501.008V499.094C3.16077 491.208 3.17715 483.322 3.16077 475.452C3.16077 474.176 3.37366 472.883 2.80049 471.656C2.68586 471.411 2.76774 471.018 2.80049 470.707C2.84962 469.415 2.89875 468.139 2.94788 466.862C3.02976 464.948 3.16077 463.05 2.80049 461.12C2.50572 459.484 2.62035 457.749 2.73499 456.064C2.9315 453.414 2.70223 450.763 2.70223 448.129C2.70223 444.268 2.70223 440.407 2.70223 436.545C2.70223 431.555 2.81687 426.565 2.65311 421.591C2.5876 419.432 2.48934 417.305 2.62035 415.162C2.65311 414.523 2.5221 413.885 2.47297 413.247C2.39109 412.298 2.21095 411.333 2.2437 410.384C2.44021 405.41 2.16182 400.437 2.21095 395.446C2.26008 390.456 2.21095 385.466 2.17819 380.476C2.17819 379.118 2.17819 377.76 1.9653 376.435C1.71966 374.913 2.09631 373.441 1.85067 371.919C1.60502 370.43 1.81792 368.876 1.80154 367.338C1.80154 365.817 1.80154 364.279 1.75241 362.757C1.71966 361.726 1.52314 360.696 1.52314 359.649C1.52314 358.7 1.73603 357.734 1.73603 356.785C1.73603 355.755 1.53952 354.724 1.53952 353.677C1.53952 352.662 1.78516 351.632 1.71966 350.617C1.58865 348.556 1.17924 346.494 1.60502 344.416C0.917222 338.886 1.44126 333.34 1.2775 327.794C1.21199 325.47 0.900845 323.114 1.16287 320.824C1.37576 318.877 0.900845 317.028 0.982727 315.114C1.06461 313.281 0.851717 311.432 0.818964 309.6C0.786212 307.669 0.851717 305.739 0.786212 303.808C0.70433 301.73 0.475063 299.669 0.393181 297.607C0.3113 295.677 0.360429 293.746 0.344053 291.816C0.344053 291.178 0.344053 290.523 0.344053 289.885C0.278548 286.76 0.458686 283.619 0.0984087 280.494C-0.147235 278.334 0.147537 276.174 0.3113 274.015C0.556944 270.579 0.540568 267.11 0.917222 263.691C1.09736 262.022 0.900846 260.37 1.08098 258.717C1.24475 257.13 1.22837 255.51 1.29388 253.907C1.35938 252.549 1.44126 251.175 1.49039 249.817C1.6214 245.972 1.73603 242.111 1.86704 238.266C2.07994 231.672 2.34196 225.095 2.5221 218.502C2.62035 215.131 2.62035 211.761 2.65311 208.374C2.71861 201.699 2.78412 195.024 2.83324 188.348C2.83324 186.025 2.75136 183.685 2.75136 181.362C2.75136 177.746 2.78412 174.131 2.84962 170.498C2.9315 164.87 3.11164 159.242 3.14439 153.614C3.2099 143.732 3.16077 133.833 3.24265 123.935C3.25903 121.137 3.24265 118.323 3.60293 115.525C3.8322 113.709 3.66843 111.828 3.68481 109.979C3.68481 108.13 3.53742 106.265 3.73394 104.433C4.06146 101.471 4.06146 98.5099 4.01234 95.5485C3.97958 93.6179 4.11059 91.6873 4.19247 89.7731C4.29073 87.5316 4.45449 85.2901 4.56913 83.0487C4.76564 79.0402 4.89665 75.0318 5.1423 71.0233C5.42069 66.4586 5.78097 61.8938 6.12487 57.3291C6.28864 55.0877 6.43602 52.8462 6.61616 50.6047C6.87818 47.4961 7.15658 44.3875 7.45135 41.2789C7.63149 39.2829 7.81163 37.2868 8.04089 35.2908C8.48305 31.4623 8.95796 27.6502 9.40012 23.8381C9.7604 20.8113 10.0716 17.7845 10.481 14.7577C10.7921 12.369 11.2179 10.013 11.6273 7.64062C11.6928 7.26432 11.8566 6.92073 12.0695 6.28265C12.2168 9.4567 12.2005 12.3199 12.0203 15.1994C11.8074 18.6352 11.9057 22.1038 11.8238 25.556C11.7419 29.1718 11.5945 32.7712 11.4963 36.387C11.4635 37.7449 11.529 39.1193 11.4963 40.4772C11.398 47.627 11.2998 54.7768 11.1851 61.9266C11.0869 68.0292 10.9559 74.1483 10.8412 80.2509C10.7266 85.8791 10.5956 91.491 10.4646 97.1192C10.3336 102.42 10.1862 107.705 10.0879 113.006C9.98967 118.225 9.97329 123.444 9.89141 128.663C9.89141 129.612 9.74403 130.578 9.66214 131.526C9.62939 131.854 9.56389 132.165 9.56389 132.475C9.67852 137.531 9.48201 142.57 9.43288 147.626C9.33462 155.103 9.17086 162.58 9.03985 170.04C8.97434 173.983 8.94159 177.91 8.89246 181.853C8.85971 184.094 8.81058 186.352 8.77783 188.594C8.67957 194.533 8.58131 200.488 8.48305 206.427C8.40117 210.599 8.30292 214.788 8.22103 218.96C8.07365 225.864 8.09002 232.785 7.7625 239.689C7.4186 246.675 7.66424 253.662 7.50048 260.648C7.43497 263.118 7.50048 265.589 7.50048 268.059C7.50048 268.779 7.33672 269.499 7.30396 270.219C7.20571 272.771 7.09107 275.34 7.09107 277.892C7.09107 279.25 7.25483 280.608 7.33672 281.966C7.4186 283.406 7.4841 284.846 7.54961 286.286C7.59874 287.316 7.46773 288.38 7.87713 289.378C7.94264 289.525 7.95901 289.705 7.94264 289.852C7.77887 293.468 8.48305 297.051 8.51581 300.667C8.51581 301.632 8.67957 302.581 8.7287 303.53C8.82696 305.363 8.89246 307.211 8.97434 309.044C9.03985 310.549 8.77783 312.103 9.351 313.576C8.7942 314.999 9.59664 316.39 9.48201 317.83C9.36737 319.269 9.46563 320.726 9.51476 322.165C9.54751 323.049 9.6949 323.916 9.79315 324.783C9.80953 324.93 9.90779 325.11 9.87504 325.241C9.31824 327.155 10.0388 329.053 9.94054 330.968C9.84228 332.882 9.94054 334.829 9.95692 336.743C9.95692 338.183 9.80953 339.623 10.2844 341.03C10.481 341.602 10.3827 342.306 10.3827 342.944C10.3827 350.11 10.3827 357.26 10.3991 364.426C10.3991 365.784 10.5137 367.158 10.5792 368.516C10.5792 368.762 10.6611 368.991 10.6447 369.236C10.1698 377.744 10.4318 386.268 10.4155 394.792C10.4155 396.886 10.0552 398.915 10.1043 401.026C10.1698 404.543 9.98967 408.077 9.92416 411.595C9.89141 413.116 9.89141 414.622 9.62939 416.143C9.36737 417.616 9.48201 419.186 9.46563 420.708C9.44925 423.833 9.49838 426.958 9.0726 430.083C8.82696 431.899 9.02347 433.78 8.97434 435.629C8.94159 436.513 8.77783 437.38 8.7287 438.247C8.63044 439.85 8.56493 441.454 8.51581 443.057C8.48305 444.251 8.54856 445.446 8.18828 446.64C8.00814 447.229 8.07365 447.916 8.04089 448.554C7.95901 450.24 8.13915 451.908 7.71337 453.577C7.43497 454.624 7.59874 455.786 7.56598 456.915C7.53323 458.355 7.66424 459.811 7.1402 461.202C7.05832 461.414 7.10745 461.676 7.09107 461.921C6.87818 465.275 6.71442 468.646 6.4524 472C6.25588 474.634 5.97749 477.252 5.74822 479.869C5.68271 480.589 5.68271 481.309 5.63358 482.045C5.56808 482.847 5.46982 483.633 5.37156 484.434C5.33881 484.745 5.2078 485.056 5.19143 485.383C5.02766 488.917 4.68376 492.418 4.20885 495.92C3.99596 497.572 3.86495 499.241 3.70119 500.91C3.53742 500.942 3.39004 500.959 3.22627 500.992L3.16077 501.008Z" fill="black"/>
<path fill-rule="evenodd" clip-rule="evenodd" d="M49.604 26.3086C49.8005 27.6502 50.0625 28.9754 50.1608 30.317C50.4555 34.7181 50.7176 39.1356 50.9468 43.5531C51.0123 44.7475 50.8322 45.9582 50.8158 47.1525C50.7667 51.9627 50.7012 56.7728 50.4392 61.5993C50.1608 66.4095 49.604 71.1869 49.2437 75.9971C49.1782 76.7824 48.9817 77.5841 48.7524 78.3367C47.0329 84.243 44.9695 90.0021 42.9225 95.7939C40.335 103.091 37.8294 110.404 35.4713 117.783C33.6699 123.395 32.1305 129.105 31.1971 134.962C30.4601 139.625 29.7723 144.321 29.7068 149.065C29.7068 149.622 29.5594 150.162 29.2647 150.734C29.1992 150.358 29.0681 149.982 29.0681 149.589C29.019 145.891 28.8716 142.194 29.0026 138.496C29.1336 134.815 29.5431 131.134 29.8215 127.453C30.3291 120.646 31.5901 113.938 32.8347 107.263C33.7845 102.077 35.0291 96.9556 36.2409 91.8509C37.8131 85.241 39.5162 78.6639 41.1375 72.0704C42.3165 67.2603 43.512 62.4501 44.5765 57.6072C45.4772 53.4679 46.3287 49.3122 46.9346 45.1238C47.7862 39.1847 48.7524 33.2456 48.9489 27.2248C48.9489 26.9303 49.0963 26.6521 49.1782 26.374C49.3256 26.374 49.4893 26.3413 49.6367 26.3249L49.604 26.3086Z" fill="black"/>
<path fill-rule="evenodd" clip-rule="evenodd" d="M23.0581 162.809C22.3703 162.841 22.3212 162.482 22.2884 162.187C21.7808 157.311 21.224 152.452 20.8146 147.577C20.3069 141.49 19.8484 135.404 19.4881 129.318C19.1606 123.722 18.9149 118.11 18.7675 112.499C18.6529 108.408 18.571 104.334 18.3745 100.244C18.1616 95.9903 18.1944 91.7527 18.047 87.4989C17.8669 81.8707 17.9979 76.2425 17.9651 70.6306C17.9324 67.1785 17.8177 63.7263 17.7522 60.2741C17.7522 60.1105 17.7195 59.9469 17.7195 59.7833C17.9651 55.3658 17.5393 50.9647 17.5229 46.5472C17.5229 43.8149 17.5229 41.0826 17.5229 38.3503V35.7816C18.0634 35.5689 18.0634 35.9779 18.1125 36.2397C18.5219 38.8575 18.9313 41.4753 19.308 44.093C19.9958 48.9359 20.6836 53.7624 21.3386 58.6053C21.8627 62.4828 22.3539 66.3768 22.8452 70.2707C23.4184 74.8027 24.0735 79.3183 24.4992 83.8667C24.7449 86.5008 24.6139 89.1677 24.5647 91.8182C24.4337 99.8351 24.27 107.868 24.0898 115.902C24.0079 119.501 23.8278 123.117 23.7296 126.716C23.664 129.203 23.7132 131.69 23.664 134.193C23.6149 136.598 23.4512 139.003 23.4512 141.409C23.4348 146.366 23.2219 151.323 23.3201 156.281C23.3529 158.129 23.2874 159.978 23.2383 161.827C23.2383 162.138 23.1236 162.449 23.0745 162.776L23.0581 162.809Z" fill="black"/>
<path fill-rule="evenodd" clip-rule="evenodd" d="M107.641 1.50522C107.772 2.09422 108.002 2.69957 108.051 3.30493C108.477 7.95147 108.886 12.5816 109.279 17.2282C109.476 19.6169 109.672 22.022 109.819 24.427C110.016 27.6338 110.18 30.8406 110.327 34.0473C110.458 36.6815 110.573 39.332 110.704 41.9661C110.704 42.2115 110.737 42.4569 110.737 42.686C110.753 50.6374 110.802 58.6053 110.802 66.5567C110.802 70.5816 110.769 74.59 110.671 78.6148C110.606 81.3471 110.409 84.0631 110.311 86.779C110.278 87.6625 110.393 88.546 110.344 89.4131C110.18 93.1762 109.983 96.9392 109.803 100.719C109.721 102.567 109.721 104.416 109.656 106.265C109.443 111.484 109.214 116.687 109.001 121.906C108.886 124.868 108.804 127.829 108.722 130.807C108.722 131.052 108.722 131.297 108.69 131.526C108.149 135.028 108.411 138.562 108.215 142.079C107.985 146.251 107.805 150.423 107.609 154.579C107.609 154.906 107.527 155.234 107.576 155.544C107.953 157.72 107.543 159.864 107.51 162.023C107.461 164.118 107.412 166.195 107.363 168.29C107.281 172.396 107.199 176.487 107.117 180.577C107.117 180.904 107.003 181.231 107.068 181.542C107.494 184.111 107.003 186.68 106.855 189.232C106.741 191.228 106.397 193.208 106.151 195.187C106.135 195.351 106.069 195.498 106.053 195.662C105.873 197.985 105.693 200.292 105.513 202.615C105.234 206.051 104.956 209.487 104.694 212.923C104.645 213.479 104.661 214.052 104.628 214.608C104.333 219.336 104.006 224.048 103.744 228.776C103.613 231.182 103.597 233.587 103.498 235.992C103.416 238.151 103.253 240.311 103.154 242.471C103.056 244.958 103.187 247.444 102.745 249.915C102.516 251.158 102.679 252.484 102.679 253.776C102.679 256.181 102.794 258.603 102.63 261.008C102.499 262.84 102.696 264.656 102.679 266.489C102.663 268.256 102.679 270.023 102.679 271.79C102.63 276.125 102.548 280.461 102.532 284.78C102.532 286.711 102.663 288.642 102.679 290.556C102.696 294.81 102.679 299.08 102.679 303.35C102.679 306.164 102.712 308.962 102.679 311.776C102.679 312.807 103.072 313.756 102.958 314.836C102.876 315.572 103.171 316.39 102.876 317.175C102.827 317.322 102.794 317.502 102.827 317.65C103.466 321.167 102.974 324.701 103.138 328.235C103.187 329.348 102.958 330.493 103.416 331.573C103.449 331.638 103.515 331.737 103.482 331.802C102.614 334.109 103.646 336.399 103.531 338.706C103.4 341.357 103.531 344.007 103.597 346.658C103.646 348.425 103.908 350.175 103.875 351.942C103.809 354.511 104.153 357.047 104.088 359.599C104.006 362.25 104.088 364.9 104.088 367.551C104.088 367.96 104.039 368.369 104.104 368.762C104.628 371.625 104.481 374.521 104.53 377.4C104.612 380.934 104.579 384.468 104.595 388.002C104.595 388.166 104.595 388.329 104.612 388.493C104.71 389.376 104.776 390.244 104.939 391.111C105.103 391.994 104.71 392.796 104.792 393.712C105.021 396.248 104.972 398.817 105.005 401.386C105.038 403.872 105.103 406.376 105.103 408.862C105.103 415.456 105.054 422.049 105.021 428.643C104.17 434.157 104.923 439.719 104.464 445.233C103.99 450.943 104.17 456.62 104.088 462.33C104.088 462.739 104.153 463.181 104.006 463.525C103.482 464.85 103.646 466.208 103.629 467.566C103.629 471.264 103.662 474.961 103.597 478.642C103.564 480.966 103.318 483.289 103.269 485.612C103.187 489.064 103.187 492.533 103.138 495.985C103.122 497.032 103.007 498.063 102.892 499.094C102.892 499.274 102.647 499.437 102.401 499.764C102.106 498.505 102.237 497.392 102.205 496.312C102.155 494.954 102.303 493.58 101.828 492.255C101.68 491.829 101.746 491.306 101.73 490.815C101.73 488.492 101.861 486.136 101.68 483.829C101.484 481.375 101.828 478.904 101.32 476.466C101.14 475.534 101.255 474.552 101.255 473.587C101.255 470.445 101.255 467.32 101.255 464.179C101.255 463.132 101.107 462.118 100.944 461.087C100.78 460.105 101.124 459.042 101.238 458.011C101.255 457.847 101.271 457.684 101.238 457.537C100.698 455.557 101.156 453.544 101.058 451.548C100.567 442.239 100.911 432.913 100.763 423.587C100.731 421.919 100.436 420.233 100.338 418.565C100.239 416.879 100.698 415.211 100.338 413.525C100.223 412.986 100.305 412.396 100.305 411.84C100.305 408.552 100.305 405.247 100.305 401.942C100.305 401.533 100.354 401.124 100.272 400.731C99.6662 397.475 99.8791 394.17 99.8136 390.882C99.7808 389.278 99.961 387.659 99.4042 386.121C99.3551 385.973 99.3551 385.793 99.3551 385.646C99.5843 381.785 98.8474 377.973 98.8146 374.112C98.7983 371.952 98.438 369.792 98.2415 367.649C98.1268 366.455 97.9958 365.26 97.8812 364.066C97.7829 363.182 97.7011 362.315 97.5864 361.448C97.5373 361.056 97.4227 360.663 97.4063 360.27C97.3735 357.702 96.7185 355.215 96.5383 352.679C96.3418 349.701 95.6049 346.838 95.4248 343.86C95.2774 341.635 94.8352 339.426 94.4258 337.234C93.7216 333.487 92.9519 329.757 92.1986 326.01C91.8711 324.374 91.56 322.722 91.1014 321.118C90.4464 318.86 90.43 316.521 90.299 314.214C90.1844 312.218 90.4955 310.205 89.8896 308.242C90.2171 306.802 89.7913 305.395 89.8077 303.972C89.8405 301.158 89.8077 298.344 89.8077 295.53C89.8077 295.039 89.906 294.515 89.7749 294.09C89.3164 292.683 89.6767 291.276 89.7258 289.869C89.7586 289.067 89.7913 288.265 89.7913 287.464C89.7913 281.77 89.8077 276.06 89.8241 270.366C89.8241 269.401 89.8241 268.468 90.1352 267.519C90.3809 266.8 90.2662 265.932 90.2662 265.131C90.3154 262.153 90.1516 259.159 90.43 256.214C90.7411 252.925 90.4627 249.604 90.9049 246.381C91.2161 244.074 90.9377 241.734 91.56 239.477C91.7892 238.659 91.7073 237.71 91.6746 236.842C91.6091 234.781 91.9366 232.752 92.1004 230.707C92.2969 228.155 92.4279 225.602 92.6408 223.05C92.739 221.79 92.9847 220.531 93.083 219.254C93.1812 218.06 93.0666 216.833 93.2303 215.639C93.6234 212.792 93.869 209.929 94.0655 207.049C94.1965 205.053 94.4422 203.073 94.6551 201.077C94.7697 200.046 94.9335 199.016 94.9826 197.985C95.0481 196.791 94.9171 195.58 95.3756 194.418C95.5394 193.993 95.4575 193.469 95.4739 192.979C95.4903 191.784 95.392 190.573 95.8669 189.412C95.9979 189.068 95.9488 188.626 95.9488 188.217C95.9488 186.778 96.1126 185.354 96.3255 183.931C96.653 181.886 96.7021 179.775 96.8986 177.714C97.0296 176.29 97.2589 174.867 97.3572 173.427C97.4554 172.069 97.4882 170.727 97.7666 169.37C97.9958 168.29 97.8321 167.128 97.9467 166.016C98.1923 163.463 98.5362 160.927 98.7655 158.375C99.0112 155.495 99.1094 152.616 99.3223 149.736C99.5188 147.102 99.7972 144.484 100.043 141.85C100.076 141.458 100.108 141.049 100.125 140.656C100.37 135.682 100.731 130.725 100.894 125.751C101.042 121.334 101.418 116.932 101.631 112.515C101.746 110.273 101.746 108.016 101.795 105.774C101.828 104.253 101.746 102.747 102.024 101.226C102.254 99.9823 102.074 98.6571 102.074 97.3809C102.057 94.3214 101.943 91.2783 102.008 88.2188C102.074 85.0938 102.057 81.9688 102.516 78.8602C102.794 76.9624 102.86 75.0318 103.04 73.1012C103.351 69.8289 103.678 66.5567 103.99 63.2845C104.006 63.0391 104.039 62.8101 104.055 62.5646C104.235 59.1943 104.366 55.8239 104.595 52.4699C104.825 49.0995 105.169 45.7618 105.398 42.3915C105.627 39.1193 105.775 35.8307 105.938 32.5421C106.217 27.0939 106.511 21.6293 106.774 16.1811C106.872 13.8578 106.888 11.5182 106.954 9.19491C107.003 7.26431 107.019 5.35006 107.101 3.41946C107.117 2.8141 107.281 2.2251 107.379 1.61975C107.478 1.61975 107.576 1.61975 107.658 1.61975L107.641 1.50522Z" fill="black"/>
<path fill-rule="evenodd" clip-rule="evenodd" d="M100.534 502.251C99.2239 502.35 98.0448 502.431 96.8493 502.513C93.5086 502.742 90.2497 503.364 86.9744 504.051C84.518 504.575 82.0288 504.771 79.5396 504.967C76.6083 505.196 73.8407 504.656 71.1386 503.577C71.024 503.528 70.9421 503.348 70.7783 503.151C70.9748 502.955 71.1386 502.66 71.3842 502.546C72.6125 501.924 73.8407 501.27 75.118 500.763C76.5755 500.19 77.9184 499.454 78.9501 498.243C79.8508 497.196 81.0299 496.738 82.1762 496.738C85.0748 496.738 87.8915 495.92 90.7901 496.149C94.4911 496.443 97.6518 497.867 100.108 500.861C100.256 501.041 100.37 501.253 100.468 501.466C100.518 501.597 100.485 501.777 100.518 502.268L100.534 502.251Z" fill="black"/>
<path fill-rule="evenodd" clip-rule="evenodd" d="M101.631 3.22313C100.862 3.07588 100.518 3.0268 100.19 2.96135C98.2742 2.58505 96.4073 2.7323 94.7042 3.82849C92.6899 5.12101 90.692 6.39717 88.6777 7.68969C87.2366 8.60591 85.7464 9.37488 84.0269 9.50577C82.7823 9.60394 81.5868 9.39124 80.5387 8.63864C79.2123 7.67333 78.0823 6.49534 77.2635 5.02284C77.198 4.90832 77.2635 4.71198 77.2635 4.40112C77.5583 4.31932 77.8858 4.17207 78.2297 4.12299C81.0955 3.77941 83.8631 2.96135 86.598 1.99605C88.9561 1.16164 91.3143 0.294503 93.8526 0.032726C95.3265 -0.114523 96.7512 0.049087 98.1432 0.376308C99.5024 0.687168 100.501 1.70155 101.631 3.20677V3.22313Z" fill="black"/>
<path fill-rule="evenodd" clip-rule="evenodd" d="M68.7805 240.589C70.5819 238.184 72.7927 237.202 75.6094 237.824C77.0833 238.151 78.5572 238.511 80.031 238.855C82.4547 239.428 84.8293 239.411 87.1875 238.511C87.9571 238.217 88.7596 238.086 89.7258 237.824C89.7585 238.413 89.8732 238.822 89.7585 239.166C89.1035 241.096 88.1209 242.716 86.3359 243.763C82.7822 245.874 79.2122 245.416 75.5767 244.14C75.3147 244.041 75.0363 243.829 74.8398 243.616C73.9391 242.618 72.8091 242.291 71.5481 242.307C70.4182 242.323 69.4683 242.013 68.7642 240.589H68.7805Z" fill="black"/>
<path fill-rule="evenodd" clip-rule="evenodd" d="M234.901 498.357C234.868 497.883 234.754 497.376 234.836 496.918C235.229 494.48 235.671 492.075 236.064 489.637C236.293 488.214 236.457 486.79 236.686 485.367C236.948 483.714 237.243 482.078 237.505 480.442C237.587 479.968 237.603 479.493 237.62 479.002C237.636 477.955 237.587 476.924 237.963 475.91C238.127 475.485 238.094 474.961 238.094 474.487C238.094 469.022 238.864 463.574 238.586 458.109C238.586 457.864 238.537 457.602 238.618 457.389C239.241 455.671 239.077 453.888 239.028 452.137C238.93 448.358 239.306 444.595 239.47 440.816C239.486 440.341 239.519 439.85 239.536 439.376C239.568 436.333 239.585 433.273 239.781 430.23C240.027 426.303 239.929 422.36 240.027 418.434C240.06 417.076 240.256 415.718 240.305 414.36C240.354 413.247 240.289 412.118 240.305 411.006C240.305 410.04 240.354 409.092 240.371 408.126C240.42 404.51 240.453 400.895 240.518 397.279C240.551 395.201 240.518 393.123 240.813 391.029C241.091 389.066 240.977 387.021 240.993 385.024C241.026 381.327 240.993 377.629 241.059 373.932C241.124 370.25 241.353 366.586 241.402 362.904C241.468 356.376 241.435 349.881 241.501 343.353C241.533 339.737 241.517 336.121 241.763 332.538C242.008 328.922 241.926 325.307 241.976 321.707C242.008 318.648 241.976 315.588 242.041 312.529C242.041 311.662 242.254 310.794 242.32 309.911C242.385 309.109 242.451 308.308 242.451 307.506C242.451 302.843 242.418 298.18 242.467 293.517C242.5 290.474 242.663 287.414 242.762 284.371C242.827 282.212 242.925 280.052 242.925 277.892C242.942 271.692 242.958 265.507 242.909 259.306C242.909 257.556 242.532 255.789 242.532 254.038C242.532 250.733 242.172 247.477 242.025 244.205C241.812 239.378 241.681 234.568 241.501 229.742C241.288 223.966 241.059 218.175 240.862 212.399C240.698 207.098 240.584 201.797 240.42 196.513C240.371 194.746 240.191 192.995 240.109 191.228C240.043 189.461 240.06 187.694 240.01 185.927C239.896 182.557 239.732 179.186 239.634 175.816C239.552 173.083 239.519 170.351 239.47 167.635C239.421 165.148 239.388 162.661 239.355 160.175C239.257 154.383 239.192 148.591 239.093 142.816C239.012 138.398 238.749 133.997 238.913 129.579C238.962 128.467 238.635 127.338 238.684 126.225C238.881 122.135 238.586 118.045 238.684 113.938C238.815 107.999 238.897 102.044 238.979 96.1048C239.028 91.9327 239.028 87.7443 239.093 83.5722C239.143 81.0035 239.323 78.4349 239.372 75.8662C239.486 69.6817 239.585 63.4972 240.06 57.3291C240.24 55.0058 240.191 52.6662 240.322 50.3429C240.502 47.0544 240.764 43.7822 240.96 40.5099C241.091 38.4321 241.124 36.3379 241.271 34.26C241.599 29.548 241.959 24.8197 242.32 20.0914C242.516 17.4409 242.713 14.8067 242.942 12.1726C243.122 10.0948 243.318 8.01691 243.548 5.93906C243.597 5.41551 243.793 4.90832 244.072 4.40112C244.383 5.2519 244.317 6.08631 244.285 6.92072C244.17 9.89843 243.957 12.8598 243.974 15.8375C243.99 19.1261 244.006 22.4474 244.465 25.6868C244.94 29.0409 244.94 32.3949 245.103 35.7489C245.234 38.4648 244.94 41.1808 245.136 43.8967C245.333 46.629 245.071 49.3613 245.153 52.0608C245.234 54.8749 245.284 57.6727 245.3 60.4868C245.349 67.0803 245.366 73.6738 245.447 80.2673C245.48 83.4741 245.66 86.6645 245.759 89.8712C245.759 90.1003 245.808 90.3621 245.759 90.5911C245.3 93.3888 245.84 96.1866 245.791 98.9843C245.742 101.717 245.824 104.449 245.824 107.181C245.824 109.112 245.677 111.042 245.84 112.957C246.021 114.969 245.84 116.965 245.89 118.961C245.89 119.681 246.021 120.385 246.086 121.104C246.119 121.415 246.233 121.743 246.201 122.053C245.857 126.553 246.512 131.036 246.25 135.519C246.692 138.054 245.922 140.656 246.577 143.176C246.594 143.257 246.577 143.339 246.577 143.421C246.25 146.464 246.774 149.491 246.692 152.534C246.594 155.512 246.626 158.489 246.757 161.451C246.872 164.249 246.708 167.046 247.036 169.844C247.069 170.155 247.036 170.482 247.003 170.809C246.757 173.607 247.249 176.388 247.183 179.186C247.118 182 247.085 184.814 247.232 187.628C247.396 190.672 247.2 193.715 247.576 196.758C247.855 198.967 247.642 201.241 247.642 203.499C247.658 207.36 247.675 211.221 247.707 215.082C247.707 215.802 247.789 216.522 247.855 217.242C247.887 217.569 248.051 217.896 247.986 218.191C247.429 220.989 248.084 223.786 248.035 226.584C247.937 231.967 248.068 237.35 248.264 242.732C248.33 244.418 248.559 246.086 248.215 247.755C248.166 247.984 248.166 248.246 248.215 248.475C248.805 251.093 248.428 253.743 248.543 256.378C248.674 259.028 248.559 261.679 248.575 264.345C248.575 266.423 248.69 268.485 248.575 270.563C248.559 270.89 248.526 271.217 248.575 271.528C248.985 273.982 248.805 276.469 248.952 278.956C249.116 281.754 249.017 284.568 249.034 287.382C249.034 291.963 249.001 296.544 249.083 301.125C249.132 303.743 249.361 306.377 249.41 309.011C249.492 313.592 249.476 318.173 249.492 322.754C249.492 327.499 249.492 332.244 249.492 336.988C249.492 338.346 249.623 339.704 249.689 341.079C249.722 341.635 249.722 342.191 249.722 342.748C249.722 344.105 249.672 345.447 249.722 346.805C249.771 348.719 249.951 350.634 249.951 352.548C249.967 365.015 249.951 377.482 249.951 389.949C249.951 391.323 249.803 392.649 249.574 394.007C249.23 396.117 249.165 398.293 249.001 400.437C248.788 403.054 248.51 405.656 248.493 408.29C247.822 410.057 248.1 411.938 248.051 413.771C248.018 415.538 248.051 417.288 247.707 419.055C247.494 420.135 247.609 421.297 247.56 422.426C247.494 423.866 247.756 425.322 247.167 426.712C247.101 426.843 247.101 427.023 247.118 427.187C247.38 430.165 246.659 433.093 246.626 436.055C246.61 437.887 246.839 439.752 246.201 441.535C246.053 441.961 246.152 442.501 246.152 442.975C246.152 444.333 246.168 445.691 245.808 447.033C245.611 447.785 245.709 448.636 245.677 449.438C245.644 450.403 245.791 451.368 245.349 452.285C245.284 452.416 245.251 452.596 245.267 452.759C245.464 455.017 244.792 457.193 244.71 459.451C244.645 461.12 244.383 462.789 244.154 464.441C243.449 469.578 242.467 474.683 241.304 479.722C239.896 485.874 238.258 491.96 235.687 497.703C235.572 497.965 235.376 498.194 235.229 498.423C235.098 498.407 234.967 498.357 234.836 498.325L234.901 498.357Z" fill="black"/>
<path fill-rule="evenodd" clip-rule="evenodd" d="M233.476 489.637C232.576 491.862 231.102 493.449 228.858 494.12C227.417 494.545 226.025 494.807 224.437 494.333C222.472 493.744 220.556 493.024 218.607 492.386C217.248 491.928 215.856 491.469 214.464 491.224C212.891 490.946 211.287 490.848 209.764 491.584C209.698 491.617 209.583 491.633 209.551 491.6C209.321 491.437 208.978 491.273 208.945 491.06C208.896 490.848 209.125 490.357 209.289 490.324C210.697 490.062 212.122 489.85 213.546 489.67C215.266 489.457 217.035 489.473 218.705 489.015C220.294 488.557 221.866 488.721 223.438 488.59C224.944 488.459 226.467 488.443 227.974 488.508C229.693 488.573 231.446 488.508 233.083 489.277C233.214 489.342 233.296 489.49 233.476 489.67V489.637Z" fill="black"/>
<path fill-rule="evenodd" clip-rule="evenodd" d="M207.127 500.599C206.98 500.353 206.783 500.141 206.669 499.879C204.097 494.136 202.443 488.05 201.051 481.898C199.889 476.843 198.906 471.754 198.202 466.617C197.973 464.948 197.711 463.296 197.645 461.627C197.563 459.385 196.892 457.209 197.088 454.935C197.088 454.788 197.072 454.608 197.007 454.461C196.564 453.561 196.712 452.579 196.679 451.614C196.646 450.812 196.761 449.961 196.548 449.209C196.188 447.867 196.22 446.509 196.204 445.151C196.204 444.66 196.302 444.137 196.155 443.712C195.533 441.912 195.762 440.063 195.729 438.231C195.696 435.269 194.976 432.341 195.238 429.363C195.238 429.216 195.238 429.019 195.189 428.888C194.599 427.498 194.861 426.042 194.796 424.602C194.747 423.489 194.861 422.328 194.648 421.231C194.304 419.481 194.337 417.714 194.304 415.947C194.272 414.114 194.55 412.249 193.862 410.466C193.862 407.832 193.568 405.23 193.355 402.613C193.191 400.469 193.125 398.293 192.781 396.183C192.552 394.825 192.421 393.499 192.405 392.125C192.405 379.658 192.405 367.191 192.405 354.724C192.405 352.81 192.585 350.895 192.634 348.981C192.667 347.623 192.634 346.265 192.634 344.924C192.634 344.367 192.634 343.811 192.667 343.255C192.732 341.88 192.863 340.522 192.863 339.164C192.88 334.42 192.863 329.675 192.863 324.93C192.863 320.349 192.863 315.752 192.945 311.187C192.994 308.553 193.224 305.919 193.273 303.301C193.355 298.72 193.322 294.139 193.322 289.558C193.322 286.76 193.24 283.93 193.404 281.132C193.551 278.661 193.387 276.174 193.78 273.704C193.83 273.393 193.813 273.066 193.78 272.739C193.666 270.661 193.78 268.599 193.78 266.521C193.797 263.871 193.682 261.204 193.813 258.554C193.944 255.919 193.568 253.253 194.141 250.651C194.19 250.422 194.206 250.16 194.141 249.931C193.797 248.262 194.026 246.594 194.092 244.908C194.288 239.526 194.403 234.143 194.321 228.76C194.272 225.962 194.927 223.165 194.37 220.367C194.304 220.072 194.485 219.745 194.501 219.418C194.566 218.698 194.632 217.978 194.648 217.258C194.681 213.397 194.697 209.536 194.714 205.675C194.714 203.417 194.501 201.143 194.779 198.934C195.172 195.891 194.976 192.848 195.123 189.804C195.254 186.99 195.238 184.176 195.172 181.362C195.107 178.564 195.598 175.783 195.353 172.985C195.32 172.658 195.287 172.331 195.32 172.02C195.664 169.239 195.484 166.425 195.598 163.627C195.729 160.649 195.746 157.671 195.664 154.71C195.565 151.667 196.106 148.64 195.778 145.597C195.778 145.515 195.746 145.433 195.778 145.352C196.433 142.832 195.664 140.231 196.106 137.695C195.844 133.212 196.499 128.712 196.155 124.229C196.139 123.919 196.237 123.591 196.27 123.28C196.335 122.561 196.45 121.857 196.466 121.137C196.499 119.141 196.319 117.145 196.515 115.133C196.695 113.218 196.532 111.288 196.532 109.357C196.532 106.625 196.613 103.893 196.564 101.16C196.515 98.3626 197.056 95.5649 196.597 92.7671C196.564 92.5381 196.597 92.2763 196.597 92.0472C196.712 88.8405 196.876 85.6337 196.908 82.4433C196.99 75.8498 197.007 69.2563 197.056 62.6628C197.072 59.8487 197.121 57.051 197.203 54.2369C197.285 51.5209 197.039 48.805 197.219 46.0727C197.416 43.3731 197.121 40.6572 197.252 37.9249C197.416 34.5709 197.416 31.2169 197.891 27.8629C198.349 24.6234 198.366 21.3021 198.382 18.0135C198.398 15.0358 198.186 12.0745 198.071 9.09675C198.038 8.26234 197.956 7.41156 198.284 6.57715C198.562 7.06798 198.742 7.59153 198.808 8.11509C199.037 10.1929 199.234 12.2708 199.414 14.3486C199.643 16.9828 199.84 19.6333 200.036 22.2674C200.396 26.9957 200.757 31.7077 201.084 36.4361C201.232 38.5139 201.264 40.6081 201.395 42.686C201.592 45.9745 201.854 49.2467 202.034 52.519C202.165 54.8422 202.116 57.1819 202.296 59.5051C202.771 65.6732 202.869 71.8577 202.984 78.0422C203.033 80.6109 203.213 83.1796 203.262 85.7482C203.328 89.9203 203.328 94.1087 203.377 98.2808C203.459 104.22 203.541 110.175 203.672 116.114C203.77 120.205 203.475 124.311 203.672 128.401C203.721 129.514 203.393 130.643 203.442 131.755C203.606 136.173 203.344 140.574 203.262 144.992C203.164 150.783 203.098 156.559 203 162.351C202.967 164.838 202.918 167.324 202.886 169.811C202.836 172.544 202.804 175.276 202.722 177.992C202.624 181.362 202.46 184.733 202.345 188.103C202.296 189.87 202.312 191.637 202.247 193.404C202.181 195.171 202.001 196.922 201.936 198.689C201.772 203.99 201.674 209.29 201.494 214.575C201.313 220.351 201.068 226.142 200.855 231.918C200.675 236.744 200.544 241.554 200.331 246.381C200.184 249.653 199.823 252.925 199.823 256.214C199.823 257.965 199.463 259.732 199.447 261.482C199.397 267.683 199.414 273.867 199.43 280.068C199.43 282.228 199.528 284.388 199.594 286.547C199.692 289.607 199.856 292.65 199.889 295.693C199.938 300.356 199.889 305.019 199.905 309.682C199.905 310.484 199.971 311.285 200.036 312.087C200.118 312.954 200.315 313.821 200.315 314.705C200.364 317.764 200.347 320.824 200.38 323.883C200.413 327.499 200.347 331.098 200.593 334.714C200.839 338.314 200.822 341.929 200.855 345.529C200.904 352.041 200.871 358.552 200.953 365.08C201.002 368.762 201.215 372.426 201.297 376.108C201.363 379.805 201.33 383.503 201.363 387.2C201.363 389.213 201.248 391.242 201.543 393.205C201.838 395.299 201.788 397.377 201.838 399.455C201.887 403.071 201.936 406.686 201.985 410.302C201.985 411.268 202.034 412.216 202.05 413.182C202.05 414.294 201.985 415.407 202.05 416.536C202.1 417.894 202.296 419.252 202.329 420.61C202.427 424.536 202.329 428.479 202.574 432.406C202.771 435.466 202.787 438.509 202.82 441.552C202.82 442.026 202.869 442.517 202.886 442.992C203.049 446.771 203.41 450.518 203.328 454.313C203.279 456.064 203.131 457.848 203.737 459.565C203.819 459.778 203.786 460.04 203.77 460.285C203.475 465.766 204.261 471.198 204.261 476.663C204.261 477.137 204.228 477.661 204.392 478.086C204.769 479.1 204.703 480.148 204.736 481.178C204.736 481.653 204.769 482.144 204.851 482.618C205.113 484.271 205.408 485.907 205.67 487.543C205.899 488.966 206.063 490.39 206.292 491.813C206.685 494.234 207.143 496.656 207.52 499.094C207.602 499.552 207.471 500.043 207.455 500.533C207.324 500.566 207.193 500.599 207.062 500.632L207.127 500.599Z" fill="black"/>
</g>
<defs>
<clipPath id="clip0_27_3044">
<rect width="250" height="505" fill="white"/>
</clipPath>
</defs>
</svg>
