<svg width="404" height="494" viewBox="0 0 404 494" fill="none" xmlns="http://www.w3.org/2000/svg">
<path fill-rule="evenodd" clip-rule="evenodd" d="M36.5727 489.857C34.9624 489.983 33.5132 490.089 32.0439 490.194C27.9377 490.489 23.9323 491.289 19.9066 492.174C16.8874 492.849 13.828 493.101 10.7685 493.354C7.16559 493.649 3.76395 492.954 0.442817 491.563C0.301921 491.5 0.201281 491.268 0 491.016C0.241537 490.763 0.442817 490.384 0.744738 490.236C2.25434 489.435 3.76395 488.593 5.33393 487.94C7.12533 487.202 8.77583 486.254 10.0439 484.695C11.1509 483.347 12.6002 482.757 14.0091 482.757C17.5718 482.757 21.0338 481.703 24.5965 481.998C29.1454 482.378 33.0301 484.21 36.0493 488.066C36.2305 488.298 36.3714 488.572 36.4922 488.846C36.5525 489.014 36.5123 489.246 36.5525 489.878L36.5727 489.857Z" fill="black"/>
<path fill-rule="evenodd" clip-rule="evenodd" d="M391.248 18.1655C388.863 18.6572 386.524 19.1646 384.185 19.6087C381.776 20.0686 379.322 20.3223 376.844 20.2589C374.481 20.1955 372.096 20.1637 369.803 19.8466C367.395 19.5135 365.01 18.9743 362.74 18.3083C360.494 17.6581 358.201 16.9761 356.186 15.5489C357.691 15.0414 358.965 14.7401 360.355 14.7401C365.287 14.7242 370.22 14.5973 375.176 15.1048C379.183 15.5171 383.305 15.6123 387.358 15.5806C389.558 15.5489 391.758 14.9462 393.958 14.5973C394.467 14.518 394.954 14.4229 395.394 14.3436C396.251 14.9779 396.181 15.5806 395.51 16.0722C394.861 16.5638 394.051 16.9444 393.286 17.3885C393.541 18.2607 393.68 19.0378 394.004 19.7673C395.278 22.5901 396.158 25.4605 396.76 28.3944C397.501 32.0102 398.196 35.626 398.613 39.2735C399.516 47.5993 399.145 55.9251 399.099 64.2668C399.099 66.3601 399.192 68.4693 399.099 70.5786C399.053 72.0534 398.729 73.5124 398.636 74.9873C398.543 76.3035 398.497 77.6357 398.52 78.9519C398.59 82.2347 397.918 85.4699 397.362 88.705C396.969 91.0204 396.783 93.3516 396.505 95.6829C396.112 99.0925 396.019 102.518 395.324 105.912C395.278 106.134 395.232 106.372 395.209 106.61C394.977 111.113 394.676 115.617 394.491 120.137C394.352 123.642 394.352 127.147 394.236 130.651C394.19 132.364 393.935 134.061 393.865 135.774C393.865 136.535 394.12 137.296 394.213 138.073C394.282 138.533 394.328 138.993 394.259 139.453C393.981 141.451 393.379 143.465 394.352 145.463C394.398 145.527 394.398 145.622 394.352 145.701C393.564 147.398 394.467 149.079 394.421 150.76C394.421 152.394 394.491 154.027 394.421 155.676C394.282 157.77 394.491 159.863 394.583 161.941C394.653 163.59 394.838 165.287 395.07 166.952C395.301 168.649 394.861 170.425 395.278 172.09C395.973 174.802 395.649 177.514 395.787 180.226C395.811 180.844 395.996 181.447 396.112 182.065C396.228 182.684 396.366 183.286 396.436 183.905C396.644 186.141 396.019 188.425 396.969 190.629C396.552 192.326 396.992 194.054 397.246 195.704C397.594 198.098 397.455 200.541 397.941 202.888C398.381 205.076 398.381 207.217 398.474 209.406C398.497 210.024 398.543 210.643 398.659 211.261C398.96 213.117 398.891 215.004 399.238 216.828C399.771 219.539 399.47 222.267 399.91 224.963C400.257 227.136 400.188 229.308 400.558 231.449C401.068 234.367 400.859 237.317 401.322 240.219C401.739 242.788 401.485 245.373 401.901 247.911C402.504 251.479 402.04 255.079 402.619 258.615C403.337 262.976 402.944 267.322 403.175 271.667C403.175 272.127 403.175 272.618 403.407 273.047C403.777 273.744 403.731 274.379 403.476 275.092C402.967 276.472 403.221 277.884 403.476 279.263C403.615 279.945 403.708 280.643 403.824 281.341C404.101 283.18 403.337 285.02 403.708 286.891C404.032 288.652 403.824 290.475 403.824 292.267C403.824 294.139 403.754 296.01 403.685 297.865C403.661 298.722 403.499 299.578 403.384 300.419C403.36 300.657 403.198 300.879 403.245 301.101C403.824 303.971 402.805 306.826 403.129 309.712C403.198 310.235 402.99 310.79 402.897 311.329C402.828 311.71 402.504 312.122 402.642 312.471C403.453 314.723 402.133 316.912 402.457 319.148C402.619 320.29 402.619 321.479 401.971 322.605C401.739 323.017 401.832 323.525 401.832 324.001C401.786 325.079 402.017 326.189 401.276 327.204C401.183 327.331 401.183 327.505 401.183 327.664C401.369 330.011 400.882 332.326 400.489 334.626C400.35 335.387 400.188 336.148 400.072 336.925C399.979 337.623 399.887 338.321 399.84 339.019C399.794 339.954 399.979 340.89 399.331 341.762C399.238 341.889 399.215 342.064 399.215 342.206C398.983 344.141 399.03 346.108 398.428 347.979C397.64 350.421 398.219 352.959 397.339 355.369C397.154 355.892 397.223 356.448 397.2 357.003C397.2 357.399 397.27 357.795 397.2 358.176C396.668 360.714 396.436 363.267 396.552 365.852C395.324 368.881 396.482 372.068 395.44 375.113C395.996 376.588 395.139 378.031 395.255 379.506C395.371 380.981 395.255 382.472 395.232 383.947C395.232 385.437 395.278 386.912 395.232 388.387C395.209 389.243 394.977 390.068 394.838 390.924C394.792 391.226 394.676 391.543 394.676 391.844C394.63 395.333 394.583 398.838 394.583 402.343C394.583 413.095 394.676 423.863 394.537 434.615C394.467 439.499 394.583 444.4 394.004 449.284C393.703 451.758 393.958 454.28 393.912 456.77C393.865 458.244 393.634 459.719 393.564 461.194C393.425 463.446 393.333 465.714 393.263 467.966C393.217 469.758 393.402 471.55 392.661 473.31C392.476 473.738 392.568 474.23 392.568 474.706C392.568 476.26 392.568 477.814 392.036 479.352C391.735 480.241 391.92 481.208 391.804 482.144C391.758 482.572 391.549 482.984 391.41 483.381C390.368 483.333 390.183 482.81 389.951 482.429C388.77 480.431 387.659 478.401 386.524 476.387C385.019 473.723 384.115 470.916 383.374 468.124C382.703 465.555 381.8 463.002 381.684 460.338C381.568 458.102 380.943 455.882 380.572 453.645C380.433 452.868 380.433 452.091 380.433 451.314C380.41 449.919 380.456 448.507 380.41 447.112C380.387 446.335 380.178 445.573 380.063 444.812C379.993 444.352 379.831 443.876 379.901 443.432C380.503 439.484 380.387 435.503 380.433 431.538C380.456 430.222 380.665 428.906 380.781 427.59C380.896 426.273 380.943 424.941 381.105 423.641C381.267 422.245 381.591 420.881 381.73 419.486C381.869 418.09 381.8 416.711 382.263 415.331C382.749 413.919 382.494 412.413 382.842 410.938C383.374 408.575 383.467 406.149 383.745 403.754C383.953 402.057 384.278 400.36 384.579 398.679C385.019 396.221 385.204 393.731 385.806 391.289C386.756 387.34 386.316 383.376 386.385 379.411C386.408 377.619 386.779 375.859 386.895 374.082C387.126 370.673 387.033 367.231 387.126 363.806C387.172 361.475 387.381 359.128 387.335 356.796C387.265 354.085 388.029 351.404 387.821 348.677C387.636 345.949 387.775 343.221 387.775 340.494C387.775 338.48 387.52 336.434 387.844 334.436C388.377 331.105 388.191 327.775 388.377 324.429C388.562 321.162 388.446 317.895 388.446 314.612C388.446 311.266 388.446 307.904 388.446 304.558C388.446 297.073 388.492 289.587 388.446 282.102C388.4 276.583 388.377 271.064 388.446 265.53C388.469 262.738 388.261 259.947 388.191 257.172C388.168 256.316 388.261 255.459 388.307 254.619C388.446 252.589 388.539 250.575 388.052 248.561C387.867 247.815 388.099 247.022 388.122 246.245C388.122 245.706 388.122 245.167 388.122 244.644C388.052 243.486 387.705 242.297 387.914 241.171C388.145 239.902 388.099 238.697 387.844 237.46C387.682 236.698 387.798 235.906 387.798 235.128C387.798 231.941 387.798 228.753 387.798 225.55C387.798 225.106 387.682 224.662 387.589 224.043C387.033 224.186 386.617 224.234 386.292 224.376C385.945 224.535 385.621 224.773 385.343 225.011C382.68 227.342 379.229 227.469 375.431 227.056C372.189 226.692 369.248 225.804 366.445 224.63C363.852 223.536 361.281 222.394 358.71 221.268C358.363 221.109 357.992 220.903 357.784 220.649C357.645 220.491 357.645 220.174 357.761 219.999C357.877 219.825 358.201 219.682 358.456 219.587C358.641 219.523 358.919 219.492 359.081 219.555C361.188 220.253 363.527 219.952 365.727 220.269C367.928 220.586 370.22 220.76 372.42 220.158C372.721 220.079 373.069 220.031 373.37 220.047C376.82 220.237 380.202 219.555 383.629 219.523C384.972 219.523 386.177 219.254 387.45 218.683C387.728 217.319 387.844 215.876 387.636 214.401C387.52 213.481 387.52 212.546 387.543 211.626C387.589 210.31 387.89 208.993 387.335 207.677C387.196 207.392 387.242 207.059 387.265 206.741C387.612 201.841 387.103 196.941 387.149 192.04C387.196 186.109 387.033 180.194 387.01 174.263C387.01 168.887 387.103 163.526 387.103 158.15C387.103 155.581 386.964 153.012 386.964 150.443C386.964 147.097 387.057 143.766 387.033 140.42C387.033 137.534 386.848 134.664 386.871 131.793C386.918 126.496 387.057 121.2 387.103 115.903C387.149 110.844 387.149 105.769 387.219 100.71C387.265 98.141 387.427 95.5719 387.543 93.0028C387.636 90.4336 387.798 87.8645 387.798 85.2954C387.798 81.7114 387.983 78.1273 388.354 74.5591C388.608 72.1486 388.446 69.7222 388.539 67.3117C388.608 65.2817 388.77 63.2677 388.863 61.2378C389.095 57.1938 389.303 53.134 389.511 49.09C389.674 45.7438 389.766 42.3976 390.021 39.0515C390.368 34.389 390.808 29.7265 391.202 25.0641C391.364 23.05 391.573 21.0201 391.712 19.0061C391.712 18.7999 391.526 18.5937 391.364 18.2448L391.248 18.1655Z" fill="black"/>
<path fill-rule="evenodd" clip-rule="evenodd" d="M346.977 477.564C346.88 476.963 346.751 476.377 346.718 475.792C346.718 469.574 346.686 463.34 346.718 457.121C346.718 454.479 346.233 451.852 346.654 449.21C346.718 448.767 346.427 448.292 346.298 447.833C346.136 447.137 345.877 446.441 345.845 445.761C345.78 441.789 345.813 437.834 345.716 433.878C345.683 432.486 345.36 431.093 345.198 429.701C345.166 429.242 345.198 428.767 345.231 428.309C345.263 427.929 345.489 427.517 345.36 427.154C344.325 423.673 345.037 420.176 344.778 416.695C344.584 414.527 344.26 412.375 344.002 410.208C343.905 409.353 343.872 408.499 343.84 407.644C343.678 404.068 343.775 400.493 343.322 396.917C342.999 394.433 342.934 391.964 342.902 389.464C342.902 386.616 342.773 383.768 341.996 380.92C341.77 380.082 341.964 379.211 341.932 378.357C341.867 375.098 342.385 371.791 341.641 368.579C340.541 363.927 341.414 359.259 340.67 354.623C339.991 350.304 340.315 345.953 340.832 341.617C341.059 339.75 340.962 337.883 340.994 336.016C341.026 333.927 341.123 331.839 341.511 329.75C341.996 327.282 341.835 324.782 341.899 322.298C341.964 319.972 341.996 317.63 342.029 315.304C342.029 315.067 341.964 314.83 342.029 314.608C343.646 309.197 342.546 303.738 342.902 298.311C342.999 297.219 343.225 296.143 343.387 295.067C343.517 294.292 343.743 293.533 343.775 292.757C343.84 291.191 343.775 289.656 343.775 288.09C343.775 286.776 344.034 285.463 344.357 284.15C344.843 282.156 344.649 280.115 344.649 278.09C344.681 274.751 344.681 271.413 344.746 268.058C344.746 267.6 344.94 267.141 345.069 266.682C345.263 265.843 345.619 265.005 345.651 264.15C345.845 259.483 345.716 254.815 346.201 250.163C346.524 246.904 346.557 243.644 346.686 240.385C346.718 239.151 347.106 237.917 347.268 236.682C347.365 235.749 347.333 234.815 347.365 233.898C347.592 229.325 347.818 224.736 348.044 220.164C348.303 215.354 348.53 210.544 348.821 205.734C348.918 204.025 349.176 202.316 349.37 200.623C349.435 200.006 349.532 199.373 349.467 198.756C349.112 195.18 349.823 191.62 349.985 188.06C350.211 182.854 350.729 177.665 351.052 172.459C351.376 167.174 351.57 161.89 351.925 156.605C352.249 151.399 352.766 146.194 353.09 141.004C353.349 137.191 353.413 133.393 353.672 129.58C354.319 120.419 355.03 111.258 355.677 102.096C355.839 99.7705 356.033 97.4446 356.001 95.1187C355.968 92.2548 355.645 89.3909 355.515 86.5271C355.418 84.4227 355.418 82.3341 355.354 80.2297C355.289 78.062 355.063 75.8785 355.257 73.7108C355.742 68.347 354.933 62.999 355.16 57.6352C355.354 53.822 355.354 50.0246 355.354 46.2114C355.354 43.4266 355.192 40.6419 355.289 37.8413C355.483 32.3983 355.839 26.9712 356.098 21.5283C356.162 19.6612 356.098 17.7942 356.259 15.9271C356.292 15.3259 356.55 14.693 357.003 14.1392C358.911 11.9082 360.14 9.61397 359.882 7.14566C359.849 6.70263 360.205 6.2596 360.399 5.81657C360.399 5.78493 360.658 5.7691 360.884 5.73746C361.919 5.95897 361.628 6.46529 361.628 6.86085C361.628 10.057 361.628 13.2373 361.628 16.4335C361.66 20.8638 362.243 25.2782 363.213 29.6769C363.989 33.2211 364.604 36.7654 365.412 40.3096C366.124 43.4741 367.029 46.6069 367.87 49.7714C367.999 50.2303 368.161 50.6891 368.193 51.1638C368.258 54.0435 369.325 56.8599 369.746 59.708C370.425 64.1224 371.363 68.5369 371.686 72.9514C372.075 78.4576 372.01 83.9796 372.074 89.4859C372.107 94.47 372.074 99.4382 372.01 104.422C371.977 107.761 372.139 111.099 371.654 114.422C371.201 117.682 371.622 120.973 371.007 124.2C370.005 129.39 370.166 134.596 369.39 139.786C368.743 144.042 368.711 148.314 368.258 152.57C367.805 156.605 367.126 160.624 366.576 164.643C366.415 165.798 366.35 166.969 366.221 168.139C365.962 170.386 365.735 172.617 365.444 174.848C365.347 175.623 365.121 176.383 364.992 177.158C364.83 178.092 364.603 179.009 364.539 179.943C364.474 181.256 364.215 182.57 363.892 183.883C363.407 185.797 363.633 187.759 363.472 189.705C363.407 190.544 363.148 191.398 362.986 192.237C362.889 192.696 362.663 193.155 362.663 193.629C362.34 197.965 362.016 202.3 361.693 206.636C361.66 207.253 361.466 207.87 361.305 208.487C361.24 208.787 360.949 209.104 360.981 209.404C361.143 212.506 360.658 215.591 360.367 218.692C360.108 221.335 360.27 223.977 359.752 226.604C359.235 229.214 359.332 231.825 359.17 234.451C359.008 237.173 358.976 239.879 358.911 242.6C358.847 245.242 358.911 247.885 358.75 250.527C358.588 253.233 358.167 255.938 358.038 258.66C357.973 259.957 357.65 261.286 358.75 262.568C359.138 263.011 358.782 263.628 358.717 264.182C358.556 265.558 358.2 266.935 358.814 268.327C359.073 268.929 358.944 269.562 358.944 270.194C358.976 273.47 358.976 276.729 359.008 279.989C359.008 280.985 359.17 281.966 359.59 282.979C360.14 284.245 359.817 285.606 359.849 286.919C359.914 289.324 359.526 291.745 360.14 294.118C360.496 295.558 359.655 296.95 360.464 298.422C361.208 299.798 360.755 301.349 360.787 302.836C360.787 304.308 360.787 305.795 360.787 307.267C360.787 308.738 360.658 310.225 360.819 311.697C360.981 313.327 361.175 314.94 360.819 316.554C360.819 316.713 360.755 316.887 360.819 317.013C362.243 319.212 361.014 321.459 361.337 323.674C361.66 325.842 361.693 328.01 361.628 330.177C361.563 332.266 361.499 334.339 361.628 336.443C361.854 340.953 361.693 345.462 361.693 349.971C361.693 350.43 361.725 350.905 361.628 351.364C360.658 355.066 360.884 358.8 360.819 362.519C360.755 366.791 360.819 371.079 360.819 375.351C360.819 376.98 361.111 378.626 360.076 380.208C359.849 380.556 359.979 380.983 359.979 381.363C359.946 385.794 359.979 390.224 359.882 394.654C359.882 395.572 359.493 396.49 359.299 397.407C359.17 397.945 359.235 398.499 358.976 399.021C358.459 400.097 360.237 401.015 359.332 402.201C358.588 403.151 359.008 404.353 358.976 405.429C358.976 406.521 359.073 407.613 358.976 408.704C358.847 409.78 358.491 410.856 358.297 411.932C358.167 412.549 358.103 413.166 358.07 413.784C358.07 415.255 358.07 416.742 358.07 418.214C358.006 419.685 358.297 421.173 357.359 422.612C357.197 422.834 357.23 423.071 357.23 423.309C356.906 427.723 356.55 432.138 356.227 436.568C356.13 437.723 356.292 438.878 355.515 440.017C355.095 440.65 355.321 441.394 355.321 442.106C355.257 444.353 355.451 446.599 354.545 448.846C354.157 449.811 354.416 450.856 354.351 451.868C354.286 452.944 354.416 454.02 353.672 455.096C353.219 455.713 353.478 456.473 353.446 457.169C353.251 459.257 353.866 461.346 352.669 463.419C352.314 464.052 352.734 464.811 352.702 465.491C352.54 469.067 350.955 472.532 349.37 475.982C349.112 476.551 348.465 477.089 348.012 477.643C347.689 477.627 347.398 477.596 347.074 477.58L346.977 477.564Z" fill="black"/>
<path fill-rule="evenodd" clip-rule="evenodd" d="M167.798 2.9161C167.724 3.43736 167.699 3.9902 167.575 4.49566C166.437 9.25014 165.323 14.0046 164.111 18.7433C163.69 20.4176 162.948 22.0604 162.403 23.7347C162.082 24.7141 161.661 25.7092 161.661 26.6885C161.661 32.3591 161.76 38.014 161.859 43.6846C161.908 46.4014 161.958 49.1183 162.057 51.8351C162.106 53.0672 162.28 54.2992 162.354 55.5313C162.552 58.4061 162.676 61.2651 162.948 64.1399C163.418 68.7048 164.012 73.2698 164.532 77.8347C164.928 81.3887 165.249 84.9585 165.645 88.5126C165.967 91.2926 166.363 94.0726 166.709 96.8526C167.526 103.424 168.342 109.979 169.184 116.55C169.555 119.409 170 122.252 170.347 125.111C170.718 128.349 171.015 131.603 171.312 134.857C171.782 139.801 172.252 144.745 172.648 149.705C172.797 151.569 172.797 153.433 172.797 155.296C172.797 158.076 172.945 160.856 173.119 163.621C173.415 168.438 173.341 173.224 173.193 178.026C173.069 182.291 172.797 186.556 172.351 190.805C172.079 193.269 172.228 195.765 171.436 198.197C171.386 198.355 171.362 198.513 171.362 198.655C171.114 203.22 170.347 207.769 170.545 212.366C170.693 216.41 170.891 220.453 170.446 224.481C169.53 232.395 170.198 240.308 169.827 248.222C169.679 251.397 169.827 254.572 169.803 257.747C169.778 259.99 169.58 262.233 169.506 264.476C169.382 269.357 169.283 274.237 169.209 279.118C169.184 280.587 169.209 282.072 169.209 283.541C169.209 285.468 169.085 287.395 168.763 289.322C168.342 291.771 168.516 294.266 168.516 296.746C168.491 301.943 168.516 307.155 168.491 312.352C168.491 313.821 168.268 315.29 168.169 316.759C168.169 317.138 168.244 317.533 168.268 317.912C168.342 319.223 168.54 320.55 168.417 321.861C168.219 323.867 168.095 325.857 168.417 327.864C168.466 328.243 168.565 328.685 168.342 329.017C167.551 330.217 167.823 331.465 167.798 332.697C167.798 337.815 167.798 342.948 167.773 348.066C167.773 348.982 167.526 349.914 167.377 350.83C167.328 351.13 167.179 351.446 167.204 351.747C167.724 354.827 167.105 357.923 167.328 360.987C167.501 363.388 166.957 365.757 167.056 368.142C167.155 370.464 167.056 372.802 167.056 375.124C167.056 377.525 167.056 379.942 167.056 382.343C167.056 384.665 167.056 387.002 167.056 389.34C167.056 389.656 167.105 389.972 167.006 390.272C166.066 392.562 166.388 394.9 166.363 397.222C166.313 401.566 166.388 405.926 166.338 410.269C166.289 412.891 165.843 415.498 165.125 418.088C164.952 418.688 165.002 419.32 164.903 419.936C164.804 420.615 164.631 421.31 164.482 421.99C164.408 422.306 164.259 422.606 164.21 422.906C163.938 424.991 163.74 427.06 163.418 429.145C163.072 431.293 162.552 433.426 162.181 435.574C161.809 437.722 161.562 439.886 161.216 442.05C160.993 443.503 160.968 445.004 160.424 446.41C159.657 448.447 160.201 450.595 159.186 452.602C158.964 453.028 159.087 453.534 159.087 453.992C159.063 455.145 158.914 456.282 158.592 457.451C158.048 459.425 157.949 461.431 157.652 463.437C157.528 464.274 157.33 465.112 157.182 465.965C157.108 466.344 156.984 466.723 156.959 467.118C156.91 469.534 156.39 471.904 155.623 474.242C155.549 474.463 155.524 474.7 155.524 474.937C155.524 477.89 154.856 480.781 154.163 483.687C153.99 484.445 154.163 485.235 154.039 486.009C153.99 486.452 153.792 486.925 153.47 487.32C153.322 487.494 152.728 487.51 152.059 487.684C151.862 485.188 152.01 482.866 151.961 480.544C151.911 476.279 152.332 472.03 151.985 467.781C151.812 465.617 151.936 463.437 151.961 461.258C152.01 458.004 151.787 454.734 152.257 451.512C152.53 449.616 151.911 447.831 151.961 445.983C152.035 442.966 152.134 439.949 152.158 436.916C152.158 435.447 152.035 433.979 152.035 432.494C152.059 430.709 152.134 428.94 152.257 427.155C152.332 426.002 152.579 424.849 152.158 423.696C151.911 423.032 151.985 422.306 151.985 421.611C151.985 414.771 151.985 407.947 151.985 401.108C151.985 397.617 152.233 394.126 151.911 390.635C151.664 387.934 151.441 385.249 151.911 382.548C150.674 376.672 151.565 370.764 151.292 364.888C151.243 363.498 151.292 362.108 151.292 360.718C151.292 359.723 151.466 358.712 150.822 357.733C150.599 357.401 150.624 356.975 150.649 356.58C151.02 352.094 150.327 347.592 150.575 343.106C150.575 342.869 150.575 342.648 150.575 342.411C150.5 341.1 150.649 339.789 150.204 338.51C150.129 338.289 150.08 338.02 150.204 337.831C150.822 336.82 150.352 335.856 150.204 334.861C150.006 333.708 150.105 332.555 150.129 331.386C150.129 331.086 150.377 330.754 150.278 330.47C149.486 327.848 150.08 325.21 149.882 322.588C149.783 321.514 149.634 320.424 149.511 319.35C149.461 318.971 149.461 318.576 149.511 318.197C149.535 317.897 149.808 317.565 149.733 317.28C148.62 313.426 149.461 309.541 149.164 305.686C149.065 304.454 148.842 303.222 148.768 301.99C148.62 299.21 148.57 296.414 148.447 293.634C148.372 292.023 148.001 290.381 148.174 288.769C148.348 287.206 147.952 285.705 147.902 284.173C147.803 281.172 148.075 278.155 148.174 275.138C148.298 271.805 148.397 268.472 148.496 265.155C148.521 264.223 148.447 263.323 148.892 262.391C149.214 261.759 149.164 261.016 149.139 260.321C149.139 256.91 149.189 253.498 149.733 250.102C150.055 248.096 149.783 246.058 149.882 244.052C149.931 242.899 150.154 241.746 150.327 240.593C150.352 240.356 150.476 240.135 150.451 239.898C150.105 237.197 150.921 234.511 150.599 231.81C150.575 231.431 150.5 231.005 150.698 230.657C151.54 229.236 151.367 227.735 151.268 226.282C151.094 224.023 151.763 221.812 151.862 219.569C151.936 218.021 151.936 216.473 152.035 214.909C152.134 213.519 152.356 212.129 152.455 210.739C152.579 208.654 152.678 206.553 152.728 204.468C152.777 202.841 152.629 201.198 153.223 199.603C153.322 199.303 153.421 198.987 153.396 198.687C153.025 194.896 153.396 191.105 153.544 187.33C153.643 184.392 153.371 181.438 153.99 178.5C154.113 177.884 154.138 177.268 154.138 176.636C154.262 172.293 154.46 167.949 154.46 163.605C154.435 154.68 154.336 145.756 154.138 136.831C154.039 132.345 153.742 127.859 153.371 123.389C153.148 120.767 152.554 118.145 152.233 115.523C151.837 112.206 151.515 108.873 151.193 105.54C150.971 103.139 150.773 100.738 150.599 98.3374C150.352 94.6255 150.055 90.9135 149.956 87.2015C149.832 81.6099 149.783 76.0182 149.882 70.4266C149.931 67.1727 149.832 63.9188 150.476 60.6807C150.698 59.6066 150.674 58.5167 150.599 57.4268C150.401 53.9991 151.144 50.6189 151.466 47.207C151.837 43.1791 152.257 39.167 152.901 35.155C153.47 31.4588 154.336 27.7784 155.128 24.098C155.796 21.1126 156.514 18.1273 157.306 15.1419C157.528 14.3205 157.85 13.4518 158.469 12.741C161.018 9.70822 163.665 6.72284 166.313 3.72168C166.586 3.40576 166.981 3.15303 167.328 2.86871C167.526 2.9161 167.749 2.96349 167.947 3.01087L167.798 2.9161Z" fill="black"/>
<path fill-rule="evenodd" clip-rule="evenodd" d="M228.772 484.783C226.941 482.935 226.17 481.212 225.399 479.538C223.985 476.393 222.957 473.202 221.801 470.026C221.64 469.568 221.544 469.109 221.511 468.635C221.447 467.624 221.672 466.597 220.74 465.665C220.676 465.602 220.676 465.523 220.644 465.444C220.291 463.295 219.969 461.146 219.616 458.997C219.488 458.223 219.327 457.449 219.198 456.69C219.006 455.442 218.877 454.21 218.652 452.977C218.524 452.219 218.235 451.46 218.042 450.686C217.913 450.149 217.753 449.612 217.721 449.074C217.656 448.063 217.721 447.068 217.078 446.088C216.725 445.598 216.821 445.014 216.757 444.477C216.693 444.018 216.918 443.513 216.661 443.086C215.311 440.969 215.986 438.773 215.825 436.624C215.697 434.854 216.018 433.053 215.022 431.315C214.862 431.03 214.894 430.699 214.99 430.398C215.89 427.776 214.669 425.169 214.862 422.53C215.054 419.891 214.926 417.253 214.862 414.614C214.862 412.228 215.311 409.858 215.665 407.488C215.922 405.797 215.536 404.075 215.697 402.369C216.018 399.193 215.568 396.033 216.307 392.857C216.982 389.949 216.661 386.979 216.821 384.024C216.853 383.187 216.628 382.334 217.399 381.512C217.721 381.18 217.624 380.754 217.656 380.359C217.689 379.821 217.656 379.268 217.656 378.731C217.849 376.725 217.432 374.734 218.395 372.711C219.102 371.258 218.556 369.63 218.62 368.082C218.684 366.312 218.395 364.511 219.423 362.757C219.777 362.188 219.552 361.525 219.552 360.908C219.552 358.886 219.777 356.879 220.194 354.873C220.612 352.787 220.419 350.686 220.516 348.584C220.58 347.352 220.291 346.103 221.254 344.903C221.576 344.492 221.447 343.986 221.447 343.528C221.672 340.036 221.801 336.56 222.09 333.084C222.315 330.145 222.796 327.206 223.021 324.267C223.15 322.656 222.989 321.028 223.021 319.417C223.021 317.726 223.15 316.051 223.214 314.361C223.278 312.496 223.343 310.647 223.343 308.783C223.343 304.596 223.31 300.425 222.507 296.253C222.122 294.168 222.443 292.066 222.379 289.965C222.347 288.969 222.09 287.958 221.897 286.963C221.801 286.346 221.608 285.73 221.544 285.114C221.19 282.175 220.997 279.236 220.451 276.297C220.034 273.991 219.745 271.684 218.877 269.409C218.203 267.67 218.074 265.901 217.689 264.131C217.142 261.745 216.628 259.375 216.082 256.989C215.986 256.61 215.793 256.215 215.825 255.836C215.922 254.367 215.247 252.913 215.151 251.459C215.054 249.974 214.508 248.536 214.219 247.083C214.155 246.767 214.026 246.466 213.962 246.166C213.609 243.306 213.287 240.431 212.902 237.571C212.388 233.858 211.778 230.145 211.296 226.432C211.071 224.646 211.135 222.861 210.91 221.075C210.428 217.062 209.786 213.049 209.4 209.02C209.111 205.923 209.336 202.81 208.951 199.713C208.34 195.052 208.404 190.407 208.18 185.761C208.083 183.518 207.762 181.274 207.601 179.03C207.537 178.098 207.601 177.166 207.601 176.234C207.537 170.956 207.505 165.679 207.376 160.402C207.376 159.011 207.055 157.621 207.023 156.231C207.023 153.671 207.441 151.095 207.055 148.552C206.445 144.206 206.862 139.861 206.766 135.516C206.702 132.261 207.055 128.991 207.119 125.736C207.312 118.831 207.119 111.911 207.666 105.006C208.083 99.6494 208.147 94.3089 208.372 88.9526C208.469 86.3929 208.983 83.8491 209.208 81.3052C209.368 79.5988 209.4 77.8923 209.497 76.1859C209.722 72.1568 209.882 68.1277 210.139 64.0986C210.236 62.7872 210.525 61.4757 210.717 60.1643C210.782 59.6271 210.878 59.0899 210.91 58.5369C211.199 55.203 211.456 51.8691 211.713 48.5352C211.81 46.9868 211.81 45.4226 212.002 43.8899C212.87 36.3848 213.93 28.8796 214.572 21.3744C215.119 14.9437 216.114 8.52872 217.11 2.11377C217.11 1.89257 217.303 1.67136 217.432 1.43436C217.721 1.54496 218.042 1.62396 218.074 1.71876C218.492 4.18362 218.877 6.66428 219.198 9.12913C219.584 12.226 219.905 15.3229 220.226 18.4355C220.516 21.2954 220.708 24.1553 220.933 27.0309C221.222 30.586 221.511 34.1569 221.736 37.712C221.865 39.6396 221.801 41.5831 221.865 43.5107C221.961 46.0704 222.186 48.63 222.282 51.1897C222.443 54.8396 222.475 58.4737 222.636 62.1236C222.732 64.5252 222.989 66.9269 223.053 69.3443C223.182 74.6216 223.214 79.899 223.375 85.1763C223.407 86.5667 223.792 87.9571 223.824 89.3476C223.824 91.2752 223.696 93.2187 223.6 95.1621C223.6 95.5413 223.375 95.9521 223.471 96.3155C224.499 99.6336 223.985 102.952 223.696 106.286C223.6 107.597 224.146 108.908 224.146 110.22C224.242 116.903 223.985 123.587 224.435 130.255C224.628 133.036 224.628 135.816 224.981 138.597C225.27 140.92 225.077 143.258 225.206 145.581C225.463 150.542 225.752 155.504 226.073 160.465C226.362 165.347 226.684 170.23 227.005 175.112C227.069 176.107 227.262 177.103 227.358 178.098C227.712 181.416 228.033 184.75 228.418 188.068C228.772 190.991 229.189 193.914 229.511 196.837C229.671 198.544 229.703 200.25 229.768 201.957C229.864 204.358 229.703 206.776 230.089 209.162C230.956 214.565 230.378 220.001 230.956 225.405C231.213 227.869 231.245 230.334 231.534 232.783C231.824 235.264 231.599 237.745 231.631 240.241C231.631 240.478 231.631 240.715 231.727 240.936C233.044 244.397 232.338 247.888 232.562 251.38C232.627 252.297 232.852 253.213 233.012 254.145C233.012 254.209 233.173 254.303 233.141 254.351C231.727 256.373 233.655 258.317 233.494 260.323C233.301 262.33 233.558 264.368 233.462 266.375C233.333 268.539 234.233 270.704 233.59 272.853C234.586 276.234 234.426 279.631 234.426 283.028C234.426 286.441 234.426 289.854 234.49 293.283C234.49 294.278 234.361 295.29 235.068 296.269C235.422 296.759 235.325 297.344 235.325 297.881C235.325 308.451 235.325 319.006 235.325 329.576C235.325 331.441 235.325 333.305 235.325 335.17C235.325 336.339 235.422 337.492 234.683 338.63C234.361 339.12 234.49 339.704 234.49 340.242C234.426 342.722 234.426 345.219 234.361 347.699C234.297 350.022 234.554 352.376 234.04 354.667C233.526 357.069 233.944 359.502 233.301 361.856C232.627 364.258 232.755 366.644 232.434 369.03C232.081 371.574 231.374 374.102 230.86 376.646C230.699 377.42 230.699 378.194 230.667 378.968C230.603 380.122 230.892 381.307 229.896 382.413C229.832 382.476 229.8 382.571 229.8 382.634C229.446 384.878 229.157 387.121 228.804 389.349C228.675 390.123 228.483 390.882 228.29 391.64C228.193 392.019 228.001 392.399 227.936 392.794C227.583 394.8 227.326 396.807 226.941 398.798C226.716 399.872 226.362 400.931 225.945 401.989C225.013 404.265 225.013 406.619 224.146 408.878C222.668 412.734 223.535 416.605 223.375 420.476C223.278 422.719 223.278 424.979 223.664 427.207C224.306 430.699 223.953 434.19 224.338 437.667C224.692 441.064 225.495 444.461 225.977 447.858C226.202 449.327 226.009 450.812 226.17 452.282C226.459 454.905 227.326 457.512 227.069 460.166C228.322 462.284 227.84 464.48 227.936 466.629C227.936 466.866 227.904 467.103 227.969 467.324C229.35 471.258 228.707 475.224 228.868 479.174C228.932 480.707 229.189 482.239 229.286 483.772C229.286 484.025 228.997 484.293 228.643 484.815L228.772 484.783Z" fill="black"/>
<path fill-rule="evenodd" clip-rule="evenodd" d="M172.042 354.272C171.943 354.066 171.795 353.877 171.795 353.671C171.795 351.963 171.573 350.224 171.968 348.548C172.486 346.381 172.462 344.215 172.511 342.048C172.61 338.475 173.005 334.948 173.894 331.438C174.19 330.22 174.091 328.955 174.363 327.737C175.276 323.626 176.116 319.514 177.301 315.419C178.067 312.699 179.301 310.058 179.82 307.291C180.116 305.694 180.832 304.128 181.524 302.578C182.783 299.795 183.227 296.98 183.203 294.087C183.178 290.276 183.227 286.465 183.302 282.654C183.45 275.19 183.672 267.742 183.795 260.278C183.944 251.185 184.018 242.108 184.116 233.016C184.141 230.375 184.19 227.75 184.61 225.109C184.882 223.417 184.709 221.693 184.709 219.985C184.709 214.546 184.709 209.106 184.709 203.666C184.709 202.512 184.956 201.357 185.079 200.187C185.129 199.729 185.203 199.254 185.203 198.796C185.277 192.66 185.277 186.524 185.4 180.389C185.499 175.107 185.721 169.826 185.82 164.528C185.87 162.045 185.746 159.563 185.795 157.08C185.87 151.261 186.067 145.426 186.116 139.606C186.166 133.392 186.215 127.177 186.067 120.947C185.968 117.183 186.758 113.499 187.87 109.862C189.03 105.987 190.561 102.16 192.117 98.3495C193.179 95.7403 194.685 93.2101 195.821 90.6168C197.623 86.4578 199.5 82.299 200.907 78.061C201.92 75.0565 202.685 71.9887 202.735 68.8576C202.784 66.2168 203.278 63.5918 203.574 60.9668C203.747 59.4171 203.944 57.8674 204.093 56.3177C204.34 53.5345 204.611 50.7356 204.71 47.9525C204.858 44.774 204.833 41.5955 204.883 38.417C204.883 37.8003 204.858 37.1678 204.883 36.5511C205.056 32.4396 205.278 28.3281 205.377 24.2167C205.451 21.4968 205.352 18.7769 205.327 16.057C205.327 15.2822 205.377 14.5389 206.191 13.8748C208.043 12.3409 208.241 10.4749 208.192 8.59313C208.142 6.80623 208.043 5.03514 208.043 3.24823C208.043 3.12173 208.513 2.88453 208.784 2.86871C209.056 2.86871 209.377 3.04266 209.599 3.18498C209.747 3.27986 209.797 3.45381 209.821 3.61194C209.871 3.99146 209.895 4.38679 209.895 4.76631C209.895 8.81452 209.895 12.8469 209.846 16.8793C209.797 23.6316 209.772 30.3839 209.599 37.1362C209.476 42.0225 209.179 46.9088 208.932 51.7951C208.71 56.2228 208.587 60.6505 208.167 65.0624C207.673 70.3283 207.006 75.5783 206.241 80.8441C205.648 84.9398 204.883 89.0196 204.019 93.0836C203.327 96.2937 202.339 99.488 201.574 102.698C201.302 103.837 201.352 105.023 201.228 106.177C200.809 109.956 200.339 113.736 199.969 117.515C199.846 118.749 199.944 119.998 199.821 121.247C199.401 125.659 198.932 130.071 198.487 134.483C198.463 134.878 198.463 135.258 198.463 135.653C198.413 139.606 198.29 143.56 197.771 147.497C197.623 148.652 197.648 149.822 197.574 150.992C197.401 154.408 197.228 157.823 197.006 161.223C196.932 162.457 196.71 163.706 196.635 164.939C196.463 167.185 196.314 169.446 196.216 171.692C195.993 175.882 195.821 180.073 195.598 184.263C195.351 188.596 195.105 192.929 194.759 197.246C194.265 203.366 193.87 209.501 193.351 215.605C192.907 221.171 192.487 226.754 192.043 232.32C191.598 237.744 191.055 243.168 190.709 248.592C190.388 253.794 189.771 258.981 189.154 264.168C188.783 267.188 188.635 270.208 188.24 273.229C187.647 277.862 186.956 282.495 186.314 287.129C186.018 289.216 185.771 291.288 185.45 293.359C185.252 294.593 184.857 295.81 184.808 297.028C184.758 298.198 184.66 299.352 184.141 300.475C184.042 300.697 184.067 300.934 184.067 301.171C184.067 303.654 183.252 306.073 182.832 308.524C182.511 310.517 182.24 312.525 181.894 314.517C181.697 315.751 181.45 316.968 181.178 318.186C180.783 320.099 180.314 321.997 179.943 323.91C179.598 325.666 179.351 327.453 179.03 329.208C178.832 330.283 178.61 331.343 178.338 332.402C177.721 334.917 177.03 337.415 176.412 339.914C175.844 342.206 175.351 344.499 174.758 346.792C174.091 349.291 173.35 351.789 172.634 354.288C172.462 354.288 172.289 354.288 172.091 354.288L172.042 354.272Z" fill="black"/>
<path fill-rule="evenodd" clip-rule="evenodd" d="M258.848 477.263C258.619 473.069 257.78 468.907 258.059 464.697C258.136 463.684 257.932 462.687 257.83 461.674C257.703 460.439 257.398 459.205 257.398 457.97C257.347 451.054 257.373 444.121 257.347 437.205C257.347 436.667 257.423 436.065 257.118 435.591C256.533 434.609 256.635 433.612 256.635 432.599C256.635 425.984 256.66 419.368 256.635 412.752C256.609 409.571 256.762 406.39 255.999 403.224C255.821 402.496 256.126 401.689 256.279 400.929C256.355 400.549 256.609 400.17 256.609 399.79C256.66 397.4 256.66 395.01 256.66 392.604C256.66 387.397 256.66 382.174 256.66 376.967C256.66 375.654 256.38 374.324 257.271 373.058C257.449 372.789 257.423 372.441 257.347 372.14C256.991 370.684 256.609 369.244 257.347 367.803C257.373 367.74 257.347 367.645 257.347 367.566C257.347 365.477 257.525 363.372 257.322 361.283C257.093 359.146 258.415 357.009 257.423 354.873C257.373 354.746 257.474 354.572 257.5 354.414C257.881 352.593 258.136 350.758 258.11 348.922C258.11 347.671 258.161 346.437 258.263 345.186C258.441 343.176 258.644 341.151 258.822 339.141C258.924 338.128 258.695 337.083 259.077 336.133C259.535 334.978 259.484 333.823 259.56 332.667C259.713 330.499 259.153 328.315 260.221 326.194C260.323 325.988 260.221 325.735 260.221 325.498C260.196 323.947 260.018 322.395 260.145 320.844C260.272 319.325 259.204 317.79 260.145 316.27C260.221 316.144 260.145 315.954 260.043 315.811C259.357 314.529 259.611 313.2 259.585 311.87C259.56 308.99 259.585 306.125 259.535 303.245C259.484 300.839 259.306 298.433 259.331 296.012C259.331 293.622 259.331 291.248 258.899 288.858C258.492 286.705 258.822 284.505 258.797 282.321C258.797 280.929 258.746 279.536 258.644 278.127C258.492 275.816 258.237 273.506 258.085 271.179C257.932 268.932 257.881 266.684 257.779 264.437C257.652 261.635 257.474 258.85 257.322 256.048C257.22 254.355 257.652 252.63 256.66 250.968C256.508 250.699 256.584 250.351 256.584 250.034C256.482 247.106 256.686 244.162 255.974 241.218C255.516 239.319 255.872 237.341 255.846 235.394C255.846 234.698 255.795 234.001 255.719 233.305C255.592 231.991 255.338 230.678 255.261 229.38C255.16 227.227 255.185 225.059 254.829 222.922C254.524 221.134 254.447 219.361 254.371 217.573C254.32 216.481 254.549 215.357 254.142 214.328C253.684 213.094 253.608 211.875 253.659 210.641C253.684 209.343 252.972 208.061 253.583 206.747C253.71 206.494 253.43 206.146 253.328 205.845C253.176 205.402 252.947 204.943 252.921 204.484C252.794 201.777 253.252 199.055 252.184 196.38C252.311 192.661 251.929 188.957 251.471 185.254C251.166 182.722 251.344 180.173 250.81 177.609C250.072 174.159 250.123 170.661 249.843 167.179C249.64 164.853 249.411 162.526 249.233 160.2C249.004 157.098 248.8 153.995 248.572 150.909C248.572 150.751 248.521 150.593 248.495 150.45C248.266 147.744 248.063 145.022 247.859 142.315C247.732 140.764 247.681 139.213 247.529 137.662C247.452 136.744 247.147 135.826 247.096 134.892C246.893 131.489 246.766 128.071 246.562 124.668C246.359 121.408 246.028 118.147 245.824 114.887C245.443 109.078 245.087 103.254 244.782 97.4454C244.476 91.5419 244.222 85.6384 243.968 79.7349C243.815 75.9206 243.764 72.1221 243.637 68.3078C243.586 66.2977 243.637 64.2719 243.332 62.2777C243.128 60.8374 243.688 59.4921 243.866 58.1151C244.375 54.1742 244.96 50.2333 245.57 46.2923C245.926 43.9816 246.511 41.6708 246.893 39.3601C247.732 34.1055 248.215 28.8351 247.936 23.5488C247.859 22.2035 248.215 20.9374 248.928 19.687C249.945 17.9461 250.505 16.1418 250.81 14.2584C251.293 11.2196 250.81 8.21242 250.861 5.18945C250.861 4.84125 250.708 4.39809 251.675 4.30313C251.827 4.47723 252.082 4.65133 252.107 4.84125C252.616 8.70305 253.099 12.5807 253.557 16.4425C253.888 19.2281 254.168 22.0136 254.447 24.7992C254.498 25.3373 254.575 25.8754 254.625 26.4294C254.931 29.0567 255.287 31.684 255.541 34.3271C255.795 37.0335 255.897 39.7558 256.126 42.4622C256.457 46.6405 256.838 50.8347 257.144 55.013C257.449 59.2072 257.551 63.4014 257.958 67.5797C258.39 71.853 258.822 76.1105 258.772 80.3997C258.772 80.7953 258.797 81.1752 258.822 81.5709C259.051 84.8312 259.331 88.0758 259.458 91.3362C259.585 94.2009 259.255 97.0814 260.069 99.9461C260.247 100.548 260.171 101.181 260.171 101.814C260.196 104.378 260.323 106.942 260.628 109.506C260.934 112.133 260.781 114.792 260.883 117.435C261.137 123.576 261.417 129.717 261.697 135.858C261.697 136.253 261.722 136.633 261.773 137.029C261.976 139.355 262.282 141.682 262.383 144.009C262.663 149.754 262.816 155.499 263.121 161.244C263.274 164.346 263.579 167.449 263.808 170.551C264.139 175.584 264.444 180.632 264.8 185.665C264.927 187.675 265.283 189.701 265.385 191.711C265.639 196.602 265.792 201.493 265.97 206.367C266.021 207.681 265.919 208.995 265.97 210.308C265.995 213.015 266.046 215.737 266.148 218.459C266.326 223.587 266.504 228.715 266.809 233.843C267.038 237.8 267.42 241.757 267.725 245.713C267.801 246.568 267.572 247.454 267.852 248.261C268.514 250.335 268.336 252.408 268.463 254.497C268.488 255.035 268.31 255.637 268.564 256.128C269.328 257.568 269.226 259.04 269.175 260.512C269.124 261.825 269.913 263.107 269.404 264.421C270.421 267.08 270.065 269.818 270.549 272.509C271.057 275.342 271.795 278.206 271.439 281.087C271.413 281.324 271.439 281.577 271.566 281.783C272.304 282.986 272.1 284.236 272.151 285.471C272.151 286.009 271.973 286.595 272.227 287.101C273.067 288.842 272.761 290.646 272.863 292.419C272.939 293.59 272.787 294.777 273.168 295.901C273.525 296.993 273.575 298.053 273.601 299.13C273.601 300.538 273.346 301.963 273.703 303.324C274.262 305.555 274.186 307.787 274.313 310.019C274.44 312.424 274.084 314.846 274.924 317.22C275.076 317.663 275.051 318.154 275.051 318.613C275.051 321.731 274.949 324.833 275.076 327.951C275.203 331.132 274.415 334.282 274.567 337.463C274.669 339.394 274.415 341.34 274.313 343.287C274.288 343.904 274.415 344.569 274.135 345.139C273.575 346.278 273.728 347.45 273.601 348.605C273.296 351.074 273.219 353.575 272.66 356.012C271.973 358.924 271.795 361.868 270.727 364.749C270.32 365.872 270.116 367.028 269.989 368.183C269.607 371.19 269.277 374.213 268.946 377.22C268.793 378.518 268.641 379.832 268.488 381.13C268.208 383.52 268.107 385.941 267.572 388.315C267.242 389.708 267.064 391.085 267.013 392.462C266.937 395.722 266.173 398.951 266.021 402.211C265.945 403.81 265.868 405.488 265.41 407.07C264.825 409.08 264.825 411.09 264.774 413.1C264.774 413.639 264.825 414.224 264.571 414.715C263.986 415.854 264.062 417.01 264.037 418.181C264.037 418.956 264.215 419.779 263.935 420.507C263.197 422.423 263.35 424.369 263.274 426.3C263.223 427.376 262.968 428.453 262.816 429.529C262.765 429.909 262.663 430.304 262.638 430.684C262.46 433.549 262.816 436.445 261.849 439.278C261.697 439.722 261.849 440.212 261.849 440.671C261.824 442.38 262.104 444.121 261.646 445.783C261.01 448.031 261.061 450.262 261.035 452.526C261.035 454.156 261.035 455.786 260.45 457.385C260.272 457.828 260.323 458.318 260.349 458.777C260.654 464.855 259.535 470.885 259.458 476.947C259.458 477.168 259.306 477.39 259.204 477.643C259.051 477.469 258.848 477.358 258.848 477.247V477.263Z" fill="black"/>
<path fill-rule="evenodd" clip-rule="evenodd" d="M323.5 484.736C323.179 483.12 322.922 481.504 322.505 479.903C321.574 476.513 320.9 473.122 320.579 469.7C320.579 469.399 320.29 469.098 320.226 468.781C320.034 468.005 319.841 467.244 319.713 466.468C319.584 465.771 319.617 465.058 319.488 464.361C319.039 461.826 318.461 459.291 318.108 456.74C317.627 453.492 317.274 450.228 316.857 446.98C316.857 446.743 316.921 446.489 316.76 446.283C315.733 444.937 315.99 443.527 315.926 442.132C315.862 441.055 316.183 439.914 315.637 438.9C314.771 437.268 315.156 435.652 314.995 434.036C314.931 433.418 315.059 432.769 314.706 432.183C314 431.042 314.129 429.869 314.065 428.713C313.968 427.16 313.84 425.608 313.647 424.055C313.551 423.215 313.23 422.36 313.166 421.52C313.07 419.73 313.487 417.908 312.973 416.149C312.139 413.123 312.235 410.097 312.203 407.071C312.203 405.597 312.396 404.076 311.882 402.65C311.369 401.177 311.337 399.719 311.305 398.246C311.176 394.839 310.823 391.417 310.952 388.011C311.048 385.983 310.342 384.002 310.342 381.974C310.31 373.72 310.823 365.481 309.893 357.227C309.893 356.989 309.989 356.767 310.021 356.53C310.149 355.215 310.342 353.884 310.374 352.569C310.406 345.629 310.374 338.706 310.406 331.766C310.406 331.148 310.214 330.467 310.599 329.912C311.529 328.534 311.24 327.156 311.24 325.761C311.24 323.892 311.465 322.022 311.273 320.169C311.08 318.315 312.492 316.477 311.401 314.623C311.337 314.497 311.529 314.322 311.561 314.18C311.754 313.34 312.011 312.485 312.107 311.645C312.203 310.251 312.396 308.841 312.171 307.446C311.946 306.052 313.519 304.721 312.428 303.327C313.551 301.901 313.038 300.412 313.166 298.938C313.326 297.164 313.455 295.373 313.647 293.599C313.744 292.68 314.065 291.745 314.065 290.826C314.097 287.325 315.509 283.855 315.188 280.354C315.188 280.195 315.188 280.037 315.316 279.894C316.151 278.928 315.862 277.914 315.958 276.9C316.086 275.506 316.215 274.111 316.375 272.717C316.536 271.402 316.889 270.087 316.857 268.772C316.857 266.301 316.6 263.813 316.439 261.342C316.375 260.644 316.086 259.947 316.054 259.25C316.022 256.858 316.151 254.465 316.054 252.073C315.733 245.308 316.215 238.543 315.541 231.777C314.899 225.091 314.931 218.39 314.642 211.704C314.482 207.664 314.289 203.608 314.129 199.568C313.904 193.816 313.744 188.049 313.551 182.298C313.487 180.127 313.391 177.941 313.326 175.755C313.23 171.936 313.134 168.118 313.038 164.316C312.781 157.075 312.46 149.85 312.267 142.61C312.139 137.73 311.754 132.834 312.011 127.939C312.011 127.638 311.882 127.321 311.818 127.02C311.658 126.101 311.401 125.166 311.369 124.247C311.208 119.193 311.176 114.139 310.984 109.085C310.791 103.952 310.502 98.8342 310.246 93.7009C309.989 88.2507 309.732 82.8164 309.507 77.3662C309.283 71.4565 309.026 65.531 308.834 59.6214C308.609 52.6978 308.416 45.7741 308.224 38.8505C308.192 37.5355 308.32 36.2205 308.224 34.8896C308.063 31.3882 307.742 27.9026 307.582 24.4012C307.422 21.0582 307.614 17.6993 307.197 14.3722C306.844 11.5837 306.78 8.81111 307.101 5.73746C307.518 6.35536 307.839 6.68807 307.967 7.05247C308.737 9.34979 309.572 11.6471 310.214 13.9444C311.016 16.8596 311.626 19.8065 312.332 22.7376C313.23 26.445 314.161 30.1365 314.995 33.8281C315.445 35.761 315.798 37.6939 316.151 39.6268C316.728 42.6371 317.274 45.6474 317.787 48.6576C318.14 50.8282 318.429 53.0146 318.75 55.1693C319.392 59.5897 320.13 64.0101 320.676 68.4304C321.157 72.3121 321.414 76.1937 321.799 80.0754C322.023 82.246 322.312 84.4165 322.537 86.5871C322.697 88.4567 322.954 90.3262 322.89 92.1799C322.762 95.0634 322.794 97.9153 323.435 100.783C323.821 102.557 323.5 104.364 323.532 106.154C323.532 107.944 323.243 109.75 323.692 111.525C324.366 114.234 324.334 116.959 324.398 119.668C324.559 129.238 324.462 138.823 324.591 148.409C324.655 153.859 325.008 159.309 325.168 164.759C325.297 168.261 325.361 171.762 325.361 175.279C325.361 177.529 325.168 179.795 325.201 182.045C325.265 188.509 325.425 194.973 325.554 201.437C325.618 204.717 325.618 207.98 325.81 211.244C326.195 217.629 326.677 223.998 327.094 230.383C327.351 234.106 327.575 237.846 327.832 241.569C327.928 242.884 328.089 244.215 328.217 245.53C328.346 247.082 328.314 248.651 328.634 250.188C328.987 251.788 328.602 253.388 328.955 255.004C329.693 258.315 329.661 261.674 330.143 265.001C330.464 267.093 331.041 269.2 330.56 271.275C329.854 274.302 330.207 277.344 330.079 280.37C330.079 280.988 330.079 281.621 330.079 282.239C330.079 284.109 330.143 285.978 329.982 287.848C329.822 289.844 329.34 291.856 329.212 293.853C329.084 295.722 329.212 297.592 329.148 299.461C329.084 301.236 328.634 303.026 328.827 304.8C328.987 306.654 328.057 308.444 328.474 310.33C328.987 312.548 328.378 314.829 328.249 317.079C327.928 322.45 328.955 327.821 327.607 333.176C328.474 335.188 327.607 337.185 327.383 339.181C327.254 340.163 327.736 341.146 327.736 342.144C327.736 343.142 327.351 344.14 327.351 345.154C327.351 346.073 327.768 347.008 327.768 347.927C327.768 348.925 327.383 349.923 327.319 350.937C327.222 352.41 327.254 353.9 327.222 355.373C327.222 356.846 327.607 358.367 327.126 359.809C326.645 361.283 327.351 362.709 326.901 364.182C326.484 365.465 326.484 366.796 326.484 368.095C326.42 372.928 326.292 377.76 326.42 382.592C326.516 387.409 325.971 392.225 326.356 397.057C326.42 397.976 326.067 398.911 325.907 399.83C325.81 400.448 325.521 401.082 325.618 401.684C325.874 403.759 325.682 405.835 325.554 407.91C325.265 412.727 325.457 417.559 325.457 422.391C325.457 426.13 325.457 429.869 325.457 433.608C325.457 436.175 325.008 438.726 325.393 441.293C325.618 442.909 325.842 444.604 325.265 446.188C324.591 448.058 324.848 449.896 324.976 451.749C325.072 453.001 325.168 454.237 325.265 455.473C325.265 455.774 325.457 456.138 325.265 456.392C324.142 457.58 324.559 458.847 324.559 460.067C324.559 467.704 324.559 475.34 324.559 482.961V484.815C324.238 484.783 323.949 484.767 323.628 484.736H323.5Z" fill="black"/>
<path fill-rule="evenodd" clip-rule="evenodd" d="M261.758 25.8819C261.876 26.1671 262.065 26.4364 262.089 26.7058C262.373 32.536 263.769 38.287 265 44.0381C265.876 48.0939 267.107 52.118 268.409 56.1263C269.924 60.8159 271.675 65.4737 273.38 70.1316C275.723 76.5164 278.161 82.8853 280.457 89.2859C282.208 94.2448 284.007 99.2036 285.38 104.21C287.155 110.69 289.002 117.17 289.735 123.76C290.138 127.325 290.73 130.89 290.919 134.454C291.108 138.035 290.872 141.616 290.824 145.196C290.824 145.56 290.635 145.941 290.54 146.305C290.114 145.751 289.925 145.228 289.901 144.689C289.806 140.095 288.812 135.548 287.747 131.032C286.398 125.361 284.173 119.831 281.569 114.397C278.161 107.252 274.539 100.17 270.799 93.1041C267.841 87.5115 264.858 81.9189 262.373 76.1995C262.042 75.4549 261.758 74.6944 261.663 73.9339C261.118 69.2919 260.314 64.6499 259.935 59.992C259.533 55.3342 259.438 50.6763 259.391 46.0026C259.391 44.8302 259.13 43.6737 259.201 42.5171C259.509 38.2395 259.888 33.9777 260.337 29.7001C260.479 28.401 260.858 27.1177 261.142 25.8185C261.355 25.8344 261.592 25.8502 261.805 25.8661L261.758 25.8819Z" fill="black"/>
<path fill-rule="evenodd" clip-rule="evenodd" d="M293.493 156.825C293.405 155.031 293.288 153.236 293.346 151.442C293.493 146.63 293.141 141.818 293.112 137.006C293.112 134.672 292.819 132.337 292.731 130.003C292.643 127.589 292.731 125.159 292.614 122.746C292.438 119.236 292.116 115.742 291.97 112.249C291.648 104.451 291.355 96.67 291.121 88.8727C291.033 86.3 290.828 83.7115 291.238 81.1548C291.97 76.74 293.171 72.357 294.195 67.9581C295.074 64.1786 295.952 60.399 296.889 56.6354C298.061 51.9348 299.291 47.25 300.52 42.5494C301.194 40.0085 301.926 37.4677 302.658 34.9268C302.746 34.6727 302.746 34.2757 303.712 34.4821V36.9754C303.712 39.6274 303.712 42.2794 303.712 44.9315C303.712 49.2192 302.951 53.491 303.361 57.7788C303.361 57.9376 303.332 58.0964 303.302 58.2552C303.156 61.6059 302.98 64.9567 302.922 68.3075C302.834 73.7704 303.097 79.2332 302.775 84.6802C302.512 88.7933 302.57 92.9222 302.19 97.0511C301.838 101.005 301.692 104.975 301.487 108.946C301.223 114.393 300.784 119.84 300.198 125.271C299.554 131.178 298.763 137.086 297.826 142.993C297.094 147.726 296.099 152.442 295.191 157.174C295.132 157.46 295.074 157.81 293.815 157.778C293.698 157.46 293.522 157.159 293.522 156.857L293.493 156.825Z" fill="black"/>
<path fill-rule="evenodd" clip-rule="evenodd" d="M49.3354 2.86871C49.5314 3.43843 49.8744 4.02397 49.9479 4.60951C50.5849 9.10391 51.1974 13.5825 51.7854 18.0769C52.0794 20.3874 52.3734 22.7137 52.5939 25.0401C52.8879 28.1418 53.1329 31.2436 53.3534 34.3454C53.5494 36.8933 53.7209 39.457 53.9169 42.0049C53.9169 42.2423 53.9659 42.4796 53.9659 42.7012C53.9904 50.3923 54.0639 58.0993 54.0639 65.7904C54.0639 69.6835 54.0149 73.5607 53.8679 77.4537C53.7699 80.0966 53.4759 82.7236 53.3289 85.3506C53.2799 86.2052 53.4514 87.0598 53.3779 87.8985C53.1329 91.5383 52.8389 95.1782 52.5694 98.8338C52.4469 100.622 52.4469 102.41 52.3489 104.199C52.0304 109.247 51.6874 114.279 51.3689 119.328C51.1974 122.192 51.0749 125.056 50.9524 127.937C50.9524 128.174 50.9524 128.411 50.9034 128.633C50.0949 132.02 50.4869 135.438 50.1929 138.84C49.8499 142.876 49.5804 146.911 49.2864 150.931C49.2864 151.247 49.1639 151.564 49.2374 151.865C49.8009 153.969 49.1884 156.043 49.1394 158.132C49.0659 160.157 48.9924 162.167 48.9189 164.193C48.7964 168.165 48.6739 172.121 48.5514 176.078C48.5514 176.394 48.3799 176.711 48.4779 177.011C49.1149 179.496 48.3799 181.98 48.1594 184.449C47.9879 186.38 47.4734 188.295 47.1059 190.21C47.0814 190.368 46.9834 190.51 46.9589 190.669C46.6894 192.916 46.4199 195.147 46.1504 197.394C45.7339 200.718 45.3174 204.041 44.9254 207.364C44.8519 207.902 44.8764 208.456 44.8274 208.994C44.3864 213.568 43.8964 218.126 43.5044 222.699C43.3084 225.025 43.2839 227.352 43.1369 229.678C43.0144 231.767 42.7694 233.856 42.6224 235.945C42.4754 238.35 42.6714 240.756 42.0099 243.145C41.6669 244.348 41.9119 245.63 41.9119 246.88C41.9119 249.207 42.0834 251.549 41.8384 253.875C41.6424 255.648 41.9364 257.404 41.9119 259.177C41.8874 260.886 41.9119 262.595 41.9119 264.304C41.8384 268.498 41.7159 272.691 41.6914 276.869C41.6914 278.737 41.8874 280.604 41.9119 282.456C41.9364 286.57 41.9119 290.701 41.9119 294.831C41.9119 297.553 41.9609 300.259 41.9119 302.981C41.9119 303.978 42.4999 304.896 42.3284 305.941C42.2059 306.653 42.6469 307.444 42.2059 308.204C42.1324 308.346 42.0834 308.52 42.1324 308.663C43.0879 312.065 42.3529 315.483 42.5979 318.902C42.6714 319.978 42.3284 321.086 43.0144 322.13C43.0634 322.193 43.1614 322.288 43.1124 322.352C41.8139 324.583 43.3574 326.798 43.1859 329.03C42.9899 331.594 43.1859 334.157 43.2839 336.721C43.3574 338.43 43.7494 340.123 43.7004 341.833C43.6024 344.317 44.1169 346.77 44.0189 349.239C43.8964 351.803 44.0189 354.366 44.0189 356.93C44.0189 357.326 43.9454 357.721 44.0434 358.101C44.8274 360.871 44.6069 363.672 44.6804 366.457C44.8029 369.875 44.7539 373.293 44.7784 376.712C44.7784 376.87 44.7784 377.028 44.8029 377.186C44.9499 378.041 45.0479 378.88 45.2929 379.719C45.5379 380.573 44.9499 381.349 45.0724 382.235C45.4154 384.688 45.3419 387.172 45.3909 389.657C45.4399 392.062 45.5379 394.484 45.5379 396.889C45.5379 403.267 45.4644 409.644 45.4154 416.022C44.1414 421.355 45.2684 426.736 44.5824 432.069C43.8719 437.592 44.1414 443.083 44.0189 448.606C44.0189 449.002 44.1169 449.429 43.8964 449.762C43.1124 451.044 43.3574 452.357 43.3329 453.671C43.3329 457.247 43.3819 460.824 43.2839 464.384C43.2349 466.632 42.8674 468.879 42.7939 471.126C42.6714 474.465 42.6714 477.82 42.5979 481.159C42.5734 482.172 42.4019 483.169 42.2304 484.166C42.2304 484.34 41.8629 484.498 41.4954 484.815C41.0544 483.596 41.2504 482.52 41.2014 481.476C41.1279 480.162 41.3484 478.833 40.6379 477.551C40.4174 477.14 40.5154 476.633 40.4909 476.158C40.4909 473.911 40.6869 471.632 40.4174 469.401C40.1234 467.027 40.6379 464.638 39.8784 462.28C39.6089 461.378 39.7804 460.428 39.7804 459.494C39.7804 456.456 39.7804 453.433 39.7804 450.395C39.7804 449.382 39.5599 448.401 39.3149 447.404C39.0699 446.454 39.5844 445.426 39.7559 444.429C39.7804 444.27 39.8049 444.112 39.7559 443.97C38.9474 442.055 39.6334 440.108 39.4864 438.177C38.7514 429.173 39.2659 420.152 39.0454 411.132C38.9963 409.518 38.5553 407.888 38.4083 406.274C38.2613 404.644 38.9473 403.029 38.4083 401.399C38.2368 400.877 38.3594 400.307 38.3594 399.769C38.3594 396.588 38.3594 393.392 38.3594 390.195C38.3594 389.799 38.4328 389.404 38.3103 389.024C37.4038 385.875 37.7223 382.678 37.6243 379.497C37.5753 377.946 37.8448 376.379 37.0118 374.892C36.9383 374.749 36.9383 374.575 36.9383 374.433C37.2813 370.698 36.1788 367.011 36.1298 363.276C36.1053 361.187 35.5663 359.098 35.2723 357.025C35.1008 355.87 34.9048 354.714 34.7333 353.559C34.5863 352.705 34.4638 351.866 34.2923 351.027C34.2188 350.647 34.0473 350.268 34.0228 349.888C33.9738 347.403 32.9938 344.998 32.7243 342.545C32.4303 339.665 31.3278 336.895 31.0583 334.015C30.8378 331.863 30.1763 329.726 29.5638 327.606C28.5103 323.982 27.3588 320.373 26.2318 316.749C25.7418 315.167 25.2763 313.568 24.5903 312.018C23.6103 309.834 23.5858 307.571 23.3898 305.339C23.2183 303.409 23.6838 301.462 22.7773 299.563C23.2673 298.17 22.6303 296.809 22.6548 295.433C22.7038 292.711 22.6548 289.989 22.6548 287.267C22.6548 286.792 22.8018 286.285 22.6058 285.874C21.9198 284.513 22.4588 283.152 22.5323 281.791C22.5813 281.016 22.6303 280.24 22.6303 279.465C22.6303 273.958 22.6548 268.434 22.6793 262.927C22.6793 261.994 22.6793 261.092 23.1448 260.174C23.5123 259.477 23.3408 258.639 23.3408 257.863C23.4143 254.983 23.1693 252.087 23.5858 249.238C24.0513 246.057 23.6348 242.845 24.2963 239.727C24.7618 237.496 24.3453 235.233 25.2763 233.049C25.6193 232.258 25.4968 231.34 25.4478 230.501C25.3498 228.507 25.8398 226.545 26.0848 224.567C26.3788 222.098 26.5748 219.629 26.8933 217.16C27.0403 215.942 27.4078 214.723 27.5548 213.489C27.7018 212.333 27.5303 211.147 27.7753 209.991C28.3633 207.238 28.7308 204.468 29.0248 201.683C29.2208 199.752 29.5883 197.837 29.9068 195.907C30.0783 194.91 30.3233 193.913 30.3968 192.916C30.4948 191.76 30.2988 190.589 30.9848 189.466C31.2298 189.054 31.1073 188.548 31.1318 188.073C31.1563 186.918 31.0093 185.747 31.7198 184.623C31.9158 184.291 31.8423 183.864 31.8423 183.468C31.8423 182.075 32.0873 180.699 32.4058 179.322C32.8958 177.344 32.9693 175.302 33.2633 173.308C33.4593 171.931 33.8023 170.554 33.9493 169.162C34.0963 167.848 34.1453 166.551 34.5618 165.237C34.9048 164.193 34.6598 163.069 34.8313 161.993C35.1988 159.524 35.7133 157.071 36.0563 154.602C36.4238 151.817 36.5708 149.032 36.8893 146.247C37.1833 143.699 37.5998 141.167 37.9673 138.619C38.0163 138.239 38.0653 137.843 38.0898 137.464C38.4573 132.653 38.9964 127.858 39.2414 123.047C39.4619 118.774 40.0254 114.517 40.3439 110.244C40.5154 108.076 40.5154 105.892 40.5889 103.724C40.6379 102.252 40.5154 100.796 40.9319 99.3244C41.2749 98.1217 41.0054 96.8398 41.0054 95.6055C40.9809 92.6461 40.8094 89.7026 40.9074 86.7432C41.0054 83.7206 40.9809 80.6979 41.6669 77.6911C42.0834 75.8554 42.1814 73.988 42.4509 72.1206C42.9164 68.9555 43.4064 65.7904 43.8719 62.6254C43.8964 62.388 43.9454 62.1664 43.9699 61.929C44.2394 58.669 44.4354 55.409 44.7784 52.1648C45.1214 48.9048 45.6359 45.6764 45.9789 42.4163C46.3219 39.2513 46.5424 36.0704 46.7874 32.8895C47.2039 27.6196 47.6449 22.3339 48.0369 17.0641C48.1839 14.8169 48.2084 12.5538 48.3064 10.3066C48.3799 8.43925 48.4044 6.58768 48.5269 4.72028C48.5514 4.13474 48.7964 3.56503 48.9434 2.97949C49.0904 2.97949 49.2374 2.97949 49.3599 2.97949L49.3354 2.86871Z" fill="black"/>
<path fill-rule="evenodd" clip-rule="evenodd" d="M38.1628 5.33328C37.2096 5.15635 36.7838 5.09738 36.3782 5.01874C34.0055 4.56659 31.6936 4.74352 29.5845 6.06067C27.0901 7.61373 24.616 9.14712 22.1216 10.7002C20.337 11.8011 18.4915 12.7251 16.3621 12.8823C14.8209 13.0003 13.3405 12.7447 12.0426 11.8404C10.3999 10.6805 9.00061 9.26508 7.98663 7.49577C7.90551 7.35816 7.98663 7.12225 7.98663 6.74873C8.35166 6.65044 8.75726 6.47351 9.18313 6.41453C12.7321 6.00169 16.1593 5.01874 19.546 3.85886C22.4663 2.85626 25.3866 1.81433 28.5299 1.49979C30.3551 1.32286 32.1194 1.51945 33.8432 1.91263C35.5264 2.28615 36.7635 3.505 38.1628 5.31363V5.33328Z" fill="black"/>
<path fill-rule="evenodd" clip-rule="evenodd" d="M78.3818 0.0316622C78.6559 0.85488 79.0124 1.6781 79.2317 2.50132C80.0817 5.9525 80.9865 9.40368 81.672 12.8707C82.6317 17.81 83.372 22.7651 84.2494 27.7044C84.4413 28.8601 84.7978 30.0158 84.9623 31.1715C85.8397 37.5989 86.7171 44.0263 87.5122 50.4537C88.1977 55.868 88.7735 61.298 89.3493 66.7281C89.5138 68.3429 89.3219 69.9893 89.5138 71.6041C89.9799 75.3244 89.459 79.0606 90.2541 82.7809C90.2815 82.9392 90.3364 83.0975 90.3364 83.24C90.3364 86.1054 90.3364 88.9867 90.3364 91.8521C90.3364 93.641 90.3912 95.4299 90.4186 97.2188C90.446 101.652 90.9122 106.1 90.3912 110.501C89.7606 115.71 90.1444 120.902 89.5412 126.095C89.1574 129.198 89.2945 132.301 89.0203 135.403C88.6912 138.886 88.1429 142.338 87.7042 145.82C87.6219 146.596 87.6219 147.372 87.5122 148.148C86.9913 152.327 86.2784 156.491 85.9219 160.67C85.5381 165.182 84.4413 169.63 83.5091 174.095C82.9881 176.549 82.3849 179.002 82.0833 181.472C81.9736 182.359 82.4672 183.324 82.9333 184.179C83.8381 185.81 84.4413 187.504 84.3865 189.198C84.2494 193.171 83.8929 197.129 83.6462 201.087C83.5639 202.717 83.2075 204.364 83.5365 205.979C83.8929 207.799 83.4542 209.541 83.0704 211.314C82.5768 213.53 82.2204 215.778 81.8365 218.01C81.7817 218.311 81.7817 218.643 81.8365 218.944C82.6591 222.554 82.7414 226.211 83.8655 229.804C85.1268 233.762 86.1687 237.752 87.1284 241.757C87.8138 244.67 88.3074 247.614 88.2251 250.591C88.1154 254.01 88.3896 257.414 88.8558 260.833C89.1574 263.081 89.2945 265.345 89.1848 267.593C89.0477 270.158 89.8702 272.707 89.2122 275.271C90.2267 279.197 89.6783 283.155 89.788 287.097C89.8977 290.992 89.788 294.886 89.788 298.781C89.788 302.675 89.8703 306.712 89.788 310.686C89.7057 314.168 89.3767 317.651 89.2396 321.118C89.1025 324.854 89.1025 328.59 88.9928 332.327C88.9654 333.72 89.0751 335.097 88.3896 336.474C88.0332 337.187 88.2251 338.026 88.2251 338.802C88.2251 341.509 88.3074 344.232 88.1977 346.955C88.1154 349.123 87.759 351.292 87.5945 353.461C87.4848 354.775 87.43 356.105 87.43 357.419C87.43 361.313 87.2929 365.176 86.6348 369.055C86.6348 369.134 86.6348 369.213 86.6348 369.292C86.4977 372.633 86.251 375.957 86.1961 379.298C86.1139 383.714 85.5381 388.131 85.7848 392.548C85.8397 393.783 85.7848 395.034 85.7574 396.269C85.7574 396.506 85.7848 396.743 85.6752 396.965C84.6333 399.102 84.9897 401.287 85.0171 403.456C85.0445 408.268 84.7978 413.081 84.3316 417.894C84.3042 418.274 84.2494 418.685 84.3316 419.049C84.6881 420.68 84.6881 422.295 84.5784 423.925C84.4962 425.303 84.7703 426.712 84.8526 428.089C84.88 428.706 84.9074 429.34 84.8526 429.957C84.7429 432.205 84.5784 434.453 84.4687 436.701C84.4687 437.081 84.6332 437.461 84.6881 437.841C84.7978 438.458 84.9349 439.076 84.9349 439.693C84.9623 443.113 84.9349 446.532 84.9623 449.952C84.9897 453.134 85.3187 456.3 85.5929 459.466C85.8671 462.316 86.3332 465.181 86.5526 468.031C86.6897 469.741 86.58 471.466 86.7719 473.16C87.1284 476.247 87.6493 479.319 88.088 482.39C88.1429 482.849 88.1703 483.324 88.1703 483.783C88.1977 485.018 88.088 486.268 88.8009 487.487C88.9928 487.82 88.938 488.279 88.7461 488.627C88.609 488.849 88.0332 489.118 87.6493 489.118C87.3203 489.118 86.7445 488.817 86.6622 488.596C86.4977 488.152 86.5252 487.677 86.5526 487.202C86.6074 485.097 86.4977 483.007 85.9219 480.917C85.6752 479.999 85.8397 479.049 85.73 478.115C85.6203 477.118 85.3736 476.121 85.1816 475.123C85.0994 474.727 84.9349 474.348 84.9623 473.968C85.0994 471.925 84.3316 469.947 83.7284 467.968C83.2349 466.369 83.0155 464.738 82.522 463.155C81.2881 459.055 79.8898 454.986 78.6833 450.886C77.2576 446.105 75.585 441.355 74.0222 436.606C73.6109 435.34 73.4464 434.01 73.0899 432.712C72.5141 430.733 72.0754 428.738 71.6093 426.743C71.4996 426.284 71.527 425.809 71.4448 425.35C71.2803 424.353 71.0335 423.356 70.8964 422.358C70.677 420.648 70.5948 418.939 70.3206 417.245C69.69 413.604 69.8819 409.947 69.9367 406.29C69.9367 405.751 70.1287 405.213 70.2658 404.691C70.348 404.311 70.677 403.931 70.6222 403.551C70.348 401.287 70.9512 399.055 71.527 396.838C72.048 394.749 71.8561 392.627 72.4044 390.585C73.1722 387.815 72.9254 385.028 73.6657 382.274C74.077 380.754 73.748 379.171 73.885 377.619C73.9399 376.701 74.2415 375.783 74.406 374.865C74.4883 374.327 74.6254 373.788 74.6254 373.25C74.6528 371.461 74.6254 369.672 74.6802 367.883C74.6802 367.282 74.927 366.664 75.0641 366.047C75.1737 365.588 75.5302 365.097 75.3383 364.685C74.6254 363.134 75.4753 361.63 75.4479 360.094C75.4479 358.464 75.4479 356.817 75.4479 355.187C75.4479 353.556 75.4479 352.068 75.4479 350.517C75.4753 348.965 75.5576 347.414 75.6399 345.862C75.8044 342.775 75.9689 339.672 76.1334 336.585C76.1334 336.269 76.2157 335.936 76.0511 335.651C75.1463 334.131 75.6673 332.564 75.6124 331.028C75.6124 330.348 75.8044 329.651 75.914 328.955C75.9689 328.654 76.1334 328.337 76.0786 328.036C75.1189 322.385 75.5576 316.717 75.4205 311.065C75.4205 310.131 75.1463 309.229 74.9818 308.311C74.9818 308.153 74.8173 307.994 74.8721 307.852C75.6947 305.683 74.6254 303.562 74.6528 301.409C74.6802 299.303 74.7076 297.213 74.6528 295.108C74.6254 294.11 74.3238 293.097 74.2415 292.1C74.1044 290.786 73.9399 289.472 73.9125 288.142C73.8576 286.116 73.8576 284.089 73.8576 282.079C73.8576 281.065 73.9399 280.068 73.3367 279.087C73.1173 278.738 73.0899 278.311 73.1173 277.931C73.5286 273.498 71.9657 269.097 72.2673 264.664C72.3222 263.667 71.8835 262.67 71.8012 261.657C71.4174 257.382 71.1157 253.124 70.677 248.849C70.3206 245.366 69.8545 241.883 69.4432 238.416C69.3884 238.021 69.3884 237.641 69.3609 237.245C68.9771 232.891 68.648 228.554 68.2093 224.2C67.7981 220.258 67.1674 216.316 66.8658 212.359C66.6739 210.031 66.8658 207.688 67.0029 205.361C67.0852 203.651 67.3868 201.957 67.5513 200.248C68.1545 194.517 68.511 188.77 69.4158 183.055C69.9367 179.873 69.7722 176.691 70.1835 173.509C70.8141 168.791 71.1706 164.042 71.4722 159.308C71.8286 154.037 72.0206 148.749 72.3222 143.462C72.6238 138.253 73.0077 133.045 73.3367 127.836C73.5286 124.733 73.6657 121.63 73.8576 118.528C74.077 114.871 74.3786 111.229 74.5431 107.572C74.6528 104.849 74.5979 102.126 74.6254 99.4035C74.6802 95.7466 74.5157 92.0896 74.8721 88.4326C75.6673 80.7545 75.2012 73.0606 75.6673 65.3666C75.9415 60.6331 76.0511 55.8996 76.2157 51.1661C76.2705 49.8522 76.1882 48.5223 76.2157 47.1925C76.3802 42.9181 76.6269 38.6437 76.7366 34.3693C76.8463 30.4116 76.8189 26.438 76.8737 22.4802C76.956 17.81 77.0656 13.1557 77.1753 8.48547C77.2302 6.07915 77.2576 3.67282 77.3398 1.25066C77.3398 0.823218 77.6414 0.411609 77.8059 0C77.9705 0 78.135 0 78.2995 0.0158311L78.3818 0.0316622Z" fill="black"/>
<path fill-rule="evenodd" clip-rule="evenodd" d="M124.142 0C124.306 0.42744 124.608 0.839049 124.608 1.25066C124.69 3.65699 124.718 6.07915 124.772 8.48548C124.882 13.1557 124.992 17.81 125.074 22.4802C125.129 26.438 125.101 30.4116 125.211 34.3693C125.321 38.6437 125.567 42.9181 125.732 47.1925C125.787 48.5224 125.704 49.8363 125.732 51.1661C125.896 55.8997 126.006 60.6332 126.28 65.3667C126.746 73.0606 126.28 80.7387 127.075 88.4326C127.459 92.0737 127.267 95.7466 127.322 99.4035C127.349 102.126 127.294 104.849 127.404 107.572C127.568 111.229 127.87 114.871 128.089 118.528C128.281 121.63 128.418 124.733 128.61 127.836C128.939 133.045 129.323 138.253 129.624 143.462C129.926 148.749 130.118 154.037 130.474 159.308C130.803 164.042 131.132 168.791 131.762 173.509C132.173 176.691 132.036 179.873 132.53 183.055C133.434 188.77 133.791 194.517 134.394 200.248C134.558 201.957 134.832 203.651 134.942 205.361C135.079 207.688 135.271 210.031 135.079 212.359C134.777 216.3 134.12 220.242 133.736 224.2C133.297 228.554 132.968 232.891 132.585 237.245C132.557 237.641 132.557 238.021 132.502 238.417C132.091 241.899 131.625 245.366 131.269 248.849C130.858 253.124 130.529 257.382 130.145 261.657C130.063 262.67 129.624 263.667 129.679 264.665C129.981 269.097 128.418 273.498 128.829 277.931C128.857 278.311 128.829 278.738 128.61 279.087C127.98 280.068 128.062 281.066 128.089 282.079C128.089 284.105 128.089 286.132 128.034 288.142C128.007 289.472 127.842 290.786 127.705 292.1C127.596 293.113 127.322 294.11 127.294 295.108C127.239 297.213 127.239 299.303 127.294 301.409C127.322 303.562 126.253 305.699 127.075 307.852C127.13 307.994 126.993 308.153 126.965 308.311C126.801 309.229 126.527 310.147 126.527 311.065C126.39 316.733 126.828 322.385 125.869 328.036C125.814 328.337 125.978 328.654 126.033 328.955C126.143 329.651 126.362 330.332 126.335 331.029C126.28 332.564 126.801 334.131 125.896 335.651C125.732 335.936 125.814 336.269 125.814 336.585C125.978 339.672 126.143 342.775 126.307 345.862C126.39 347.414 126.444 348.965 126.499 350.517C126.527 352.068 126.499 353.635 126.499 355.187C126.499 356.738 126.499 358.448 126.499 360.094C126.499 361.614 127.349 363.134 126.609 364.685C126.417 365.097 126.773 365.588 126.883 366.047C127.02 366.664 127.239 367.266 127.267 367.883C127.322 369.672 127.267 371.461 127.322 373.25C127.322 373.788 127.431 374.327 127.541 374.865C127.705 375.783 127.98 376.701 128.062 377.62C128.171 379.171 127.87 380.77 128.281 382.274C129.021 385.028 128.774 387.831 129.542 390.585C130.09 392.627 129.898 394.749 130.419 396.838C130.967 399.055 131.598 401.271 131.324 403.551C131.296 403.931 131.598 404.311 131.68 404.691C131.817 405.229 132.009 405.767 132.009 406.29C132.064 409.947 132.228 413.604 131.625 417.245C131.324 418.939 131.269 420.648 131.05 422.358C130.912 423.356 130.666 424.353 130.501 425.35C130.419 425.809 130.446 426.284 130.337 426.743C129.871 428.738 129.432 430.733 128.857 432.712C128.473 434.01 128.336 435.34 127.925 436.606C126.362 441.371 124.69 446.105 123.265 450.886C122.059 454.986 120.661 459.055 119.427 463.155C118.934 464.754 118.715 466.385 118.221 467.968C117.618 469.962 116.851 471.925 116.988 473.968C116.988 474.348 116.851 474.728 116.768 475.123C116.577 476.121 116.33 477.118 116.22 478.115C116.111 479.049 116.275 479.999 116.028 480.918C115.453 483.007 115.343 485.097 115.398 487.202C115.398 487.662 115.453 488.152 115.288 488.596C115.206 488.817 114.63 489.118 114.301 489.118C113.918 489.118 113.342 488.849 113.205 488.627C113.013 488.279 112.958 487.836 113.15 487.487C113.835 486.284 113.753 485.034 113.781 483.783C113.781 483.324 113.781 482.849 113.863 482.39C114.301 479.319 114.822 476.247 115.179 473.16C115.37 471.466 115.261 469.741 115.398 468.031C115.617 465.181 116.083 462.316 116.357 459.466C116.659 456.284 116.96 453.118 116.988 449.952C116.988 446.532 116.988 443.113 117.015 439.693C117.015 439.076 117.152 438.458 117.262 437.841C117.317 437.461 117.508 437.081 117.481 436.701C117.371 434.453 117.207 432.205 117.097 429.957C117.07 429.34 117.097 428.706 117.097 428.089C117.18 426.696 117.481 425.303 117.371 423.925C117.262 422.279 117.234 420.664 117.618 419.05C117.7 418.67 117.673 418.274 117.618 417.894C117.18 413.081 116.905 408.269 116.933 403.456C116.933 401.287 117.344 399.086 116.275 396.965C116.165 396.743 116.193 396.49 116.193 396.269C116.165 395.034 116.083 393.799 116.165 392.548C116.412 388.116 115.809 383.714 115.754 379.298C115.699 375.957 115.48 372.633 115.316 369.292C115.316 369.213 115.316 369.134 115.316 369.055C114.63 365.192 114.521 361.313 114.521 357.419C114.521 356.089 114.466 354.775 114.356 353.461C114.164 351.292 113.835 349.124 113.753 346.955C113.644 344.232 113.753 341.525 113.726 338.802C113.726 338.026 113.918 337.203 113.561 336.474C112.876 335.097 112.986 333.72 112.958 332.327C112.849 328.591 112.849 324.854 112.712 321.118C112.574 317.635 112.246 314.153 112.163 310.686C112.054 306.712 112.163 302.754 112.163 298.781C112.163 294.807 112.081 290.992 112.163 287.097C112.273 283.155 111.725 279.197 112.739 275.271C112.081 272.707 112.903 270.158 112.766 267.593C112.657 265.345 112.794 263.081 113.095 260.833C113.561 257.43 113.835 254.026 113.726 250.591C113.644 247.63 114.137 244.686 114.822 241.757C115.782 237.767 116.823 233.778 118.084 229.804C119.235 226.211 119.318 222.554 120.113 218.944C120.195 218.643 120.195 218.311 120.113 218.01C119.729 215.778 119.345 213.546 118.879 211.314C118.495 209.541 118.057 207.799 118.413 205.979C118.715 204.38 118.413 202.717 118.303 201.087C118.057 197.129 117.7 193.171 117.563 189.198C117.508 187.488 118.112 185.81 119.016 184.179C119.509 183.308 120.003 182.359 119.866 181.472C119.564 179.002 118.961 176.549 118.44 174.095C117.508 169.63 116.412 165.166 116.028 160.67C115.672 156.491 114.959 152.327 114.438 148.148C114.329 147.372 114.356 146.596 114.247 145.82C113.808 142.353 113.26 138.886 112.931 135.403C112.657 132.301 112.794 129.198 112.41 126.095C111.78 120.902 112.163 115.694 111.56 110.501C111.039 106.1 111.478 101.652 111.533 97.2189C111.533 95.4299 111.615 93.641 111.615 91.8521C111.615 88.9867 111.615 86.1054 111.615 83.24C111.615 83.0817 111.67 82.9234 111.697 82.7809C112.492 79.0764 111.971 75.3244 112.437 71.6041C112.629 69.9893 112.437 68.3587 112.602 66.7281C113.178 61.2981 113.781 55.868 114.438 50.4538C115.233 44.0263 116.111 37.5989 116.988 31.1715C117.152 30.0158 117.508 28.8601 117.7 27.7044C118.578 22.7651 119.318 17.81 120.277 12.8707C120.962 9.40368 121.867 5.9525 122.717 2.50132C122.908 1.66227 123.265 0.85488 123.566 0.0316622C123.813 0 123.977 0 124.142 0Z" fill="black"/>
<path fill-rule="evenodd" clip-rule="evenodd" d="M116.056 6.67879C113.509 8.91886 110.826 9.88563 108.188 10.8996C104.852 12.1729 101.222 12.8331 97.6827 12.9038C92.3849 12.9982 87.3351 11.8899 83.5026 8.28221C82.691 7.52766 82.4205 6.72595 82.9841 5.57054C84.0888 4.74525 85.5767 4.3444 87.2224 4.3444C91.3479 4.3444 95.5185 4.17934 99.6215 4.50945C104.919 4.95747 110.127 5.8535 116.079 6.65521L116.056 6.67879Z" fill="black"/>
<path fill-rule="evenodd" clip-rule="evenodd" d="M114.488 186.674C113.263 189.806 111.257 192.039 108.204 192.983C106.243 193.582 104.349 193.95 102.187 193.282C99.5127 192.454 96.9053 191.44 94.2534 190.542C92.4037 189.898 90.5095 189.253 88.6152 188.908C86.4758 188.516 84.2919 188.378 82.2194 189.414C82.1302 189.46 81.9742 189.483 81.9297 189.437C81.6177 189.207 81.1497 188.977 81.1051 188.677C81.0383 188.378 81.3503 187.687 81.5731 187.641C83.4896 187.273 85.4285 186.974 87.3673 186.72C89.7072 186.421 92.114 186.444 94.3871 185.799C96.5488 185.155 98.6882 185.385 100.828 185.201C102.878 185.016 104.95 184.993 107.001 185.086C109.34 185.178 111.725 185.086 113.954 186.168C114.132 186.26 114.243 186.467 114.488 186.72V186.674Z" fill="black"/>
</svg>
