<svg width="135" height="209" viewBox="0 0 135 209" fill="none" xmlns="http://www.w3.org/2000/svg">
<g clip-path="url(#clip0_26_2414)">
<path fill-rule="evenodd" clip-rule="evenodd" d="M131.299 7.99703C130.602 8.20605 129.918 8.42182 129.235 8.61061C128.531 8.80615 127.814 8.91403 127.09 8.88706C126.399 8.86009 125.702 8.8466 125.032 8.71175C124.329 8.57015 123.632 8.34091 122.969 8.05772C122.312 7.78127 121.642 7.49134 121.053 6.88451C121.493 6.66874 121.865 6.54064 122.272 6.54064C123.713 6.53389 125.154 6.47995 126.602 6.69571C127.773 6.87102 128.978 6.91148 130.162 6.89799C130.805 6.88451 131.447 6.62829 132.09 6.47995C132.239 6.44624 132.381 6.40578 132.51 6.37207C132.76 6.64177 132.74 6.89799 132.544 7.10701C132.354 7.31603 132.117 7.47785 131.894 7.66665C131.969 8.03749 132.009 8.36788 132.104 8.67804C132.476 9.87822 132.733 11.0986 132.909 12.346C133.126 13.8833 133.329 15.4206 133.45 16.9714C133.714 20.5113 133.606 24.0511 133.593 27.5977C133.593 28.4878 133.62 29.3845 133.593 30.2813C133.579 30.9083 133.484 31.5287 133.457 32.1557C133.43 32.7154 133.417 33.2817 133.423 33.8414C133.444 35.2371 133.247 36.6126 133.085 37.9881C132.97 38.9725 132.916 39.9636 132.835 40.9548C132.72 42.4045 132.693 43.8609 132.49 45.3038C132.476 45.3982 132.462 45.4993 132.456 45.6004C132.388 47.5153 132.3 49.4302 132.246 51.3519C132.205 52.842 132.205 54.3321 132.172 55.8222C132.158 56.5504 132.084 57.2719 132.063 58.0001C132.063 58.3237 132.138 58.6474 132.165 58.9778C132.185 59.1733 132.199 59.3688 132.178 59.5644C132.097 60.4139 131.921 61.2702 132.205 62.1198C132.219 62.1468 132.219 62.1872 132.205 62.2209C131.975 62.9424 132.239 63.6571 132.226 64.3718C132.226 65.0663 132.246 65.7608 132.226 66.462C132.185 67.352 132.246 68.2421 132.273 69.1253C132.293 69.8266 132.347 70.548 132.415 71.256C132.483 71.9775 132.354 72.7326 132.476 73.4406C132.679 74.5936 132.584 75.7466 132.625 76.8996C132.632 77.1625 132.686 77.4187 132.72 77.6817C132.753 77.9447 132.794 78.2009 132.814 78.4638C132.875 79.4145 132.693 80.3855 132.97 81.3227C132.848 82.0442 132.977 82.7791 133.051 83.4803C133.153 84.4985 133.112 85.5368 133.254 86.5347C133.383 87.4652 133.383 88.3754 133.41 89.3059C133.417 89.5689 133.43 89.8318 133.464 90.0948C133.552 90.8837 133.532 91.6861 133.633 92.4614C133.789 93.6144 133.701 94.7742 133.829 95.9204C133.931 96.8441 133.911 97.7679 134.019 98.6781C134.168 99.9188 134.107 101.173 134.242 102.407C134.364 103.499 134.29 104.598 134.411 105.677C134.587 107.194 134.452 108.725 134.621 110.228C134.831 112.082 134.716 113.93 134.784 115.777C134.784 115.973 134.784 116.182 134.851 116.364C134.959 116.661 134.946 116.93 134.872 117.234C134.723 117.82 134.797 118.42 134.872 119.007C134.912 119.297 134.939 119.594 134.973 119.89C135.054 120.672 134.831 121.455 134.939 122.25C135.034 122.999 134.973 123.774 134.973 124.536C134.973 125.332 134.953 126.127 134.932 126.916C134.926 127.28 134.878 127.644 134.844 128.002C134.838 128.103 134.79 128.197 134.804 128.292C134.973 129.512 134.675 130.726 134.77 131.953C134.79 132.175 134.729 132.411 134.702 132.641C134.682 132.802 134.587 132.978 134.628 133.126C134.865 134.083 134.479 135.014 134.574 135.965C134.621 136.45 134.621 136.956 134.432 137.435C134.364 137.61 134.391 137.826 134.391 138.028C134.378 138.486 134.445 138.958 134.229 139.39C134.202 139.444 134.202 139.518 134.202 139.585C134.256 140.583 134.114 141.568 133.999 142.545C133.958 142.869 133.911 143.193 133.877 143.523C133.85 143.82 133.823 144.116 133.809 144.413C133.796 144.811 133.85 145.209 133.66 145.58C133.633 145.633 133.626 145.708 133.626 145.768C133.559 146.591 133.572 147.427 133.396 148.223C133.166 149.261 133.335 150.34 133.078 151.365C133.024 151.587 133.044 151.823 133.038 152.059C133.038 152.228 133.058 152.396 133.038 152.558C132.882 153.637 132.814 154.723 132.848 155.822C132.49 157.109 132.828 158.465 132.523 159.759C132.686 160.386 132.435 161 132.469 161.627C132.503 162.254 132.469 162.888 132.462 163.515C132.462 164.149 132.476 164.776 132.462 165.403C132.456 165.767 132.388 166.117 132.347 166.482C132.334 166.61 132.3 166.745 132.3 166.873C132.287 168.356 132.273 169.846 132.273 171.336C132.273 175.908 132.3 180.486 132.259 185.057C132.239 187.134 132.273 189.218 132.104 191.294C132.016 192.346 132.09 193.418 132.077 194.477C132.063 195.104 131.996 195.731 131.975 196.358C131.935 197.315 131.908 198.28 131.887 199.237C131.874 199.999 131.928 200.761 131.711 201.509C131.657 201.691 131.684 201.9 131.684 202.103C131.684 202.763 131.684 203.424 131.529 204.078C131.441 204.456 131.495 204.867 131.461 205.265C131.447 205.447 131.387 205.622 131.346 205.791C131.041 205.771 130.987 205.548 130.92 205.386C130.575 204.537 130.25 203.674 129.918 202.817C129.478 201.685 129.214 200.491 128.998 199.305C128.802 198.212 128.538 197.127 128.504 195.994C128.47 195.043 128.287 194.099 128.179 193.149C128.138 192.818 128.138 192.488 128.138 192.157C128.132 191.564 128.145 190.964 128.132 190.371C128.125 190.04 128.064 189.717 128.03 189.393C128.01 189.197 127.962 188.995 127.983 188.806C128.159 187.127 128.125 185.435 128.138 183.749C128.145 183.19 128.206 182.63 128.24 182.07C128.274 181.511 128.287 180.944 128.335 180.392C128.382 179.798 128.477 179.218 128.517 178.625C128.558 178.032 128.538 177.445 128.673 176.858C128.815 176.258 128.741 175.618 128.842 174.991C128.998 173.986 129.025 172.954 129.106 171.936C129.167 171.215 129.262 170.493 129.35 169.779C129.478 168.734 129.532 167.675 129.708 166.637C129.986 164.958 129.857 163.272 129.878 161.586C129.884 160.825 129.993 160.076 130.026 159.321C130.094 157.871 130.067 156.408 130.094 154.952C130.108 153.961 130.169 152.963 130.155 151.972C130.135 150.819 130.358 149.679 130.297 148.519C130.243 147.36 130.284 146.2 130.284 145.04C130.284 144.184 130.209 143.314 130.304 142.464C130.459 141.049 130.405 139.633 130.459 138.21C130.514 136.821 130.48 135.432 130.48 134.036C130.48 132.614 130.48 131.184 130.48 129.761C130.48 126.579 130.493 123.396 130.48 120.214C130.466 117.868 130.459 115.521 130.48 113.168C130.487 111.981 130.426 110.795 130.405 109.615C130.399 109.25 130.426 108.886 130.439 108.529C130.48 107.666 130.507 106.81 130.365 105.953C130.311 105.636 130.378 105.299 130.385 104.969C130.385 104.74 130.385 104.51 130.385 104.288C130.365 103.796 130.263 103.29 130.324 102.811C130.392 102.272 130.378 101.759 130.304 101.234C130.256 100.91 130.29 100.573 130.29 100.242C130.29 98.8871 130.29 97.5319 130.29 96.1699C130.29 95.9811 130.256 95.7923 130.229 95.5293C130.067 95.59 129.945 95.6102 129.85 95.6709C129.749 95.7383 129.654 95.8395 129.573 95.9406C128.795 96.9318 127.787 96.9857 126.677 96.8104C125.729 96.6553 124.87 96.2778 124.051 95.7788C123.293 95.3136 122.542 94.8281 121.791 94.3494C121.69 94.2819 121.581 94.1943 121.52 94.0864C121.48 94.019 121.48 93.8841 121.514 93.81C121.547 93.7358 121.642 93.6751 121.717 93.6347C121.771 93.6077 121.852 93.5942 121.899 93.6212C122.515 93.9178 123.199 93.7897 123.841 93.9246C124.484 94.0594 125.154 94.1336 125.797 93.8774C125.885 93.8437 125.987 93.8235 126.075 93.8302C127.083 93.9111 128.071 93.6212 129.072 93.6077C129.465 93.6077 129.817 93.4931 130.189 93.2503C130.27 92.6705 130.304 92.0569 130.243 91.4298C130.209 91.0388 130.209 90.641 130.216 90.2499C130.229 89.6902 130.317 89.1306 130.155 88.571C130.114 88.4496 130.128 88.308 130.135 88.1732C130.236 86.0897 130.087 84.0062 130.101 81.9228C130.114 79.4011 130.067 76.8861 130.06 74.3643C130.06 72.0786 130.087 69.7996 130.087 67.5139C130.087 66.4216 130.047 65.3293 130.047 64.237C130.047 62.8143 130.074 61.3983 130.067 59.9757C130.067 58.7485 130.013 57.5281 130.02 56.3077C130.033 54.0557 130.074 51.8036 130.087 49.5516C130.101 47.4007 130.101 45.2431 130.121 43.0922C130.135 41.9999 130.182 40.9076 130.216 39.8153C130.243 38.723 130.29 37.6307 130.29 36.5384C130.29 35.0146 130.344 33.4908 130.453 31.9737C130.527 30.9488 130.48 29.9172 130.507 28.8923C130.527 28.0293 130.575 27.173 130.602 26.3099C130.669 24.5905 130.73 22.8644 130.791 21.1451C130.838 19.7224 130.865 18.2997 130.94 16.877C131.041 14.8947 131.17 12.9124 131.285 10.9301C131.332 10.0738 131.393 9.2107 131.434 8.35439C131.434 8.26674 131.38 8.17908 131.332 8.03075L131.299 7.99703Z" fill="#F8F8F8"/>
<path fill-rule="evenodd" clip-rule="evenodd" d="M116.946 203.647C116.926 203.39 116.899 203.141 116.892 202.891C116.892 200.242 116.885 197.585 116.892 194.935C116.892 193.809 116.79 192.69 116.878 191.564C116.892 191.375 116.831 191.173 116.804 190.977C116.77 190.681 116.716 190.384 116.709 190.094C116.696 188.402 116.702 186.716 116.682 185.03C116.675 184.437 116.608 183.844 116.574 183.25C116.567 183.055 116.574 182.852 116.58 182.657C116.587 182.495 116.635 182.32 116.608 182.165C116.391 180.681 116.54 179.191 116.486 177.708C116.445 176.784 116.377 175.867 116.323 174.943C116.303 174.579 116.296 174.215 116.289 173.851C116.256 172.327 116.276 170.803 116.181 169.28C116.114 168.221 116.1 167.169 116.093 166.104C116.093 164.89 116.066 163.676 115.904 162.463C115.856 162.105 115.897 161.735 115.89 161.37C115.877 159.982 115.985 158.572 115.829 157.204C115.599 155.221 115.782 153.232 115.626 151.257C115.484 149.416 115.552 147.562 115.66 145.714C115.708 144.919 115.687 144.123 115.694 143.327C115.701 142.437 115.721 141.547 115.802 140.657C115.904 139.605 115.87 138.54 115.883 137.481C115.897 136.49 115.904 135.492 115.911 134.501C115.911 134.4 115.897 134.299 115.911 134.205C116.249 131.899 116.019 129.572 116.093 127.26C116.114 126.794 116.161 126.336 116.195 125.877C116.222 125.547 116.269 125.223 116.276 124.893C116.289 124.226 116.276 123.572 116.276 122.904C116.276 122.344 116.33 121.785 116.398 121.225C116.499 120.376 116.459 119.506 116.459 118.643C116.465 117.22 116.465 115.797 116.479 114.368C116.479 114.172 116.52 113.977 116.547 113.781C116.587 113.424 116.662 113.067 116.668 112.702C116.709 110.713 116.682 108.724 116.783 106.742C116.851 105.353 116.858 103.964 116.885 102.575C116.892 102.049 116.973 101.523 117.007 100.997C117.027 100.6 117.02 100.202 117.027 99.8106C117.074 97.862 117.122 95.9067 117.169 93.9581C117.223 91.9083 117.271 89.8586 117.332 87.8088C117.352 87.0806 117.406 86.3524 117.447 85.631C117.46 85.368 117.48 85.0983 117.467 84.8354C117.392 83.3115 117.541 81.7944 117.575 80.2774C117.623 78.0591 117.731 75.8475 117.799 73.6292C117.866 71.3771 117.907 69.1251 117.981 66.8731C118.049 64.6548 118.157 62.4365 118.225 60.2249C118.279 58.5999 118.292 56.9817 118.347 55.3568C118.482 51.4528 118.631 47.5488 118.766 43.6449C118.8 42.6537 118.841 41.6626 118.834 40.6714C118.827 39.451 118.759 38.2306 118.732 37.0102C118.712 36.1134 118.712 35.2234 118.699 34.3266C118.685 33.4029 118.638 32.4724 118.678 31.5487C118.78 29.2629 118.611 26.9839 118.658 24.6982C118.699 23.0732 118.699 21.455 118.699 19.8301C118.699 18.6434 118.665 17.4567 118.685 16.2632C118.726 13.9438 118.8 11.6311 118.854 9.31162C118.868 8.516 118.854 7.72037 118.888 6.92475C118.895 6.66853 118.949 6.39882 119.044 6.16283C119.443 5.21213 119.7 4.23445 119.646 3.18261C119.639 2.99382 119.714 2.80503 119.754 2.61623C119.754 2.60275 119.808 2.596 119.856 2.58252C120.072 2.67692 120.011 2.89268 120.011 3.06124C120.011 4.42325 120.011 5.77851 120.011 7.14051C120.018 9.02843 120.14 10.9096 120.343 12.7841C120.505 14.2944 120.634 15.8047 120.803 17.3151C120.952 18.6636 121.141 19.9986 121.317 21.3471C121.344 21.5427 121.378 21.7382 121.385 21.9405C121.399 23.1676 121.622 24.3678 121.71 25.5815C121.852 27.4627 122.048 29.3439 122.116 31.225C122.197 33.5715 122.183 35.9246 122.197 38.271C122.204 40.395 122.197 42.5121 122.183 44.636C122.177 46.0587 122.211 47.4814 122.109 48.8974C122.014 50.2863 122.102 51.6888 121.974 53.0643C121.764 55.2758 121.798 57.4942 121.635 59.7057C121.5 61.5195 121.493 63.34 121.399 65.1537C121.304 66.8731 121.162 68.5857 121.047 70.2983C121.013 70.7905 120.999 71.2895 120.972 71.7884C120.918 72.7459 120.871 73.6966 120.81 74.6473C120.789 74.9777 120.742 75.3013 120.715 75.6317C120.681 76.0295 120.634 76.4206 120.62 76.8184C120.607 77.3781 120.553 77.9377 120.485 78.4973C120.383 79.3132 120.431 80.1493 120.397 80.9786C120.383 81.3359 120.329 81.7001 120.296 82.0574C120.275 82.2529 120.228 82.4485 120.228 82.6508C120.16 84.4982 120.092 86.3457 120.025 88.1932C120.018 88.4561 119.977 88.7191 119.944 88.982C119.93 89.1102 119.869 89.245 119.876 89.3731C119.91 90.6947 119.808 92.0095 119.747 93.331C119.693 94.457 119.727 95.583 119.619 96.7023C119.511 97.8148 119.531 98.9274 119.497 100.047C119.463 101.206 119.456 102.359 119.443 103.519C119.429 104.645 119.443 105.771 119.409 106.897C119.375 108.05 119.287 109.203 119.26 110.363C119.247 110.916 119.179 111.482 119.409 112.028C119.49 112.217 119.416 112.48 119.402 112.716C119.368 113.303 119.294 113.889 119.423 114.483C119.477 114.739 119.45 115.008 119.45 115.278C119.456 116.674 119.456 118.063 119.463 119.452C119.463 119.877 119.497 120.295 119.585 120.726C119.7 121.266 119.632 121.845 119.639 122.405C119.653 123.43 119.571 124.462 119.7 125.473C119.774 126.087 119.599 126.68 119.768 127.307C119.923 127.894 119.829 128.554 119.835 129.188C119.835 129.815 119.835 130.449 119.835 131.076C119.835 131.703 119.808 132.337 119.842 132.964C119.876 133.658 119.917 134.346 119.842 135.034C119.842 135.101 119.829 135.176 119.842 135.229C120.14 136.167 119.883 137.124 119.95 138.068C120.018 138.992 120.025 139.916 120.011 140.839C119.998 141.729 119.984 142.613 120.011 143.509C120.059 145.431 120.025 147.353 120.025 149.274C120.025 149.47 120.032 149.672 120.011 149.868C119.808 151.445 119.856 153.037 119.842 154.621C119.829 156.442 119.842 158.269 119.842 160.089C119.842 160.784 119.903 161.485 119.686 162.159C119.639 162.308 119.666 162.49 119.666 162.652C119.659 164.539 119.666 166.427 119.646 168.315C119.646 168.706 119.565 169.097 119.524 169.489C119.497 169.718 119.511 169.954 119.456 170.176C119.348 170.635 119.72 171.026 119.531 171.532C119.375 171.936 119.463 172.449 119.456 172.907C119.456 173.372 119.477 173.838 119.456 174.303C119.429 174.761 119.355 175.22 119.314 175.678C119.287 175.941 119.274 176.204 119.267 176.467C119.267 177.094 119.267 177.728 119.267 178.355C119.253 178.982 119.314 179.616 119.118 180.229C119.084 180.324 119.091 180.425 119.091 180.526C119.023 182.407 118.949 184.289 118.881 186.176C118.861 186.669 118.895 187.161 118.732 187.646C118.644 187.916 118.692 188.233 118.692 188.536C118.678 189.494 118.719 190.451 118.529 191.409C118.448 191.82 118.502 192.265 118.489 192.697C118.475 193.155 118.502 193.614 118.347 194.072C118.252 194.335 118.306 194.659 118.299 194.955C118.259 195.845 118.387 196.735 118.137 197.619C118.062 197.888 118.15 198.212 118.144 198.502C118.11 200.026 117.778 201.502 117.447 202.972C117.392 203.215 117.257 203.444 117.162 203.68C117.095 203.673 117.034 203.66 116.966 203.653L116.946 203.647Z" fill="#F8F8F8"/>
<path fill-rule="evenodd" clip-rule="evenodd" d="M55.4076 1.01144C55.3873 1.23394 55.3806 1.46993 55.3467 1.6857C55.0354 3.71522 54.7309 5.74474 54.3993 7.76751C54.2843 8.48223 54.0813 9.18346 53.9324 9.89817C53.8445 10.3162 53.7294 10.741 53.7294 11.159C53.7294 13.5796 53.7565 15.9935 53.7836 18.4141C53.7971 19.5738 53.8106 20.7335 53.8377 21.8932C53.8512 22.4192 53.8986 22.9451 53.9189 23.471C53.973 24.6982 54.0069 25.9186 54.0813 27.1457C54.2099 29.0943 54.3723 31.0429 54.5144 32.9915C54.6227 34.5086 54.7106 36.0324 54.8189 37.5495C54.9069 38.7362 55.0151 39.9229 55.1099 41.1096C55.3332 43.9145 55.5565 46.7127 55.7866 49.5176C55.8881 50.738 56.0099 51.9517 56.1046 53.1721C56.2061 54.5543 56.2873 55.9433 56.3685 57.3323C56.4971 59.4427 56.6257 61.5531 56.7339 63.6703C56.7745 64.4659 56.7745 65.2616 56.7745 66.0572C56.7745 67.2439 56.8151 68.4306 56.8625 69.6105C56.9437 71.667 56.9234 73.71 56.8828 75.7598C56.849 77.5803 56.7745 79.4008 56.6527 81.2145C56.5783 82.2664 56.6189 83.3317 56.4024 84.3701C56.3888 84.4375 56.3821 84.5049 56.3821 84.5656C56.3144 86.5142 56.1046 88.4561 56.1587 90.4182C56.1993 92.1443 56.2535 93.8704 56.1317 95.5897C55.8813 98.9678 56.064 102.346 55.9625 105.724C55.9219 107.079 55.9625 108.434 55.9557 109.79C55.949 110.747 55.8948 111.705 55.8745 112.662C55.8407 114.745 55.8136 116.829 55.7933 118.912C55.7866 119.539 55.7933 120.173 55.7933 120.8C55.7933 121.623 55.7595 122.445 55.6715 123.268C55.5565 124.313 55.6039 125.378 55.6039 126.437C55.5971 128.655 55.6039 130.88 55.5971 133.099C55.5971 133.726 55.5362 134.353 55.5091 134.98C55.5091 135.142 55.5294 135.31 55.5362 135.472C55.5565 136.032 55.6106 136.598 55.5768 137.158C55.5227 138.014 55.4888 138.864 55.5768 139.72C55.5903 139.882 55.6174 140.071 55.5565 140.212C55.3399 140.725 55.4144 141.257 55.4076 141.783C55.4076 143.968 55.4076 146.159 55.4009 148.344C55.4009 148.735 55.3332 149.133 55.2926 149.524C55.279 149.652 55.2384 149.787 55.2452 149.915C55.3873 151.23 55.2181 152.551 55.279 153.859C55.3264 154.884 55.1775 155.895 55.2046 156.914C55.2317 157.905 55.2046 158.903 55.2046 159.894C55.2046 160.919 55.2046 161.95 55.2046 162.975C55.2046 163.966 55.2046 164.964 55.2046 165.962C55.2046 166.097 55.2181 166.232 55.1911 166.36C54.9339 167.338 55.0219 168.336 55.0151 169.327C55.0016 171.181 55.0219 173.042 55.0084 174.896C54.9948 176.015 54.873 177.128 54.6768 178.234C54.6294 178.49 54.643 178.76 54.6159 179.023C54.5888 179.312 54.5415 179.609 54.5009 179.899C54.4806 180.034 54.4399 180.162 54.4264 180.29C54.352 181.18 54.2978 182.063 54.2099 182.953C54.1151 183.87 53.973 184.781 53.8715 185.698C53.77 186.615 53.7024 187.538 53.6076 188.462C53.5467 189.082 53.5399 189.723 53.3911 190.323C53.1813 191.193 53.3302 192.11 53.0527 192.966C52.9918 193.148 53.0257 193.364 53.0257 193.56C53.0189 194.052 52.9783 194.537 52.8903 195.036C52.7415 195.879 52.7144 196.735 52.6332 197.592C52.5993 197.949 52.5452 198.306 52.5046 198.67C52.4843 198.832 52.4505 198.994 52.4437 199.163C52.4302 200.194 52.2881 201.206 52.0783 202.204C52.058 202.298 52.0512 202.399 52.0512 202.5C52.0512 203.761 51.8685 204.995 51.679 206.236C51.6317 206.559 51.679 206.896 51.6452 207.227C51.6317 207.416 51.5775 207.618 51.4896 207.786C51.449 207.861 51.2866 207.867 51.1039 207.941C51.0497 206.876 51.0903 205.885 51.0768 204.894C51.0633 203.073 51.1783 201.26 51.0836 199.446C51.0362 198.522 51.07 197.592 51.0768 196.661C51.0903 195.272 51.0294 193.876 51.158 192.501C51.2324 191.692 51.0633 190.93 51.0768 190.141C51.0971 188.853 51.1242 187.565 51.1309 186.271C51.1309 185.644 51.0971 185.017 51.0971 184.383C51.1039 183.621 51.1242 182.866 51.158 182.104C51.1783 181.612 51.246 181.119 51.1309 180.627C51.0633 180.344 51.0836 180.034 51.0836 179.737C51.0836 176.818 51.0836 173.905 51.0836 170.985C51.0836 169.495 51.1512 168.005 51.0633 166.515C50.9956 165.362 50.9347 164.216 51.0633 163.063C50.7249 160.555 50.9685 158.033 50.8941 155.525C50.8805 154.931 50.8941 154.338 50.8941 153.745C50.8941 153.32 50.9414 152.888 50.7655 152.47C50.7046 152.329 50.7114 152.147 50.7181 151.978C50.8196 150.063 50.6302 148.141 50.6978 146.227C50.6978 146.125 50.6978 146.031 50.6978 145.93C50.6775 145.37 50.7181 144.811 50.5963 144.264C50.576 144.17 50.5625 144.055 50.5963 143.975C50.7655 143.543 50.6369 143.132 50.5963 142.707C50.5422 142.215 50.5693 141.723 50.576 141.224C50.576 141.095 50.6437 140.954 50.6166 140.833C50.4001 139.713 50.5625 138.587 50.5084 137.468C50.4813 137.009 50.4407 136.544 50.4069 136.086C50.3933 135.924 50.3933 135.755 50.4069 135.594C50.4136 135.465 50.4881 135.324 50.4678 135.202C50.1633 133.557 50.3933 131.899 50.3121 130.253C50.2851 129.727 50.2242 129.202 50.2039 128.676C50.1633 127.489 50.1497 126.295 50.1159 125.109C50.0956 124.421 49.9941 123.72 50.0414 123.032C50.0888 122.365 49.9805 121.724 49.967 121.07C49.9399 119.789 50.0144 118.501 50.0414 117.213C50.0753 115.791 50.1024 114.368 50.1294 112.952C50.1362 112.554 50.1159 112.17 50.2377 111.772C50.3257 111.502 50.3121 111.185 50.3054 110.889C50.3054 109.432 50.3189 107.976 50.4678 106.526C50.5557 105.67 50.4813 104.8 50.5084 103.944C50.5219 103.452 50.5828 102.959 50.6302 102.467C50.6369 102.366 50.6708 102.272 50.664 102.171C50.5693 101.018 50.7926 99.8713 50.7046 98.7183C50.6978 98.5565 50.6775 98.3744 50.7317 98.2261C50.9618 97.6192 50.9144 96.9787 50.8873 96.3584C50.8399 95.3942 51.0227 94.4502 51.0497 93.4928C51.07 92.832 51.07 92.1712 51.0971 91.5037C51.1242 90.9104 51.1851 90.317 51.2121 89.7237C51.246 88.8337 51.273 87.9369 51.2866 87.0469C51.3001 86.3524 51.2595 85.6512 51.4219 84.9702C51.449 84.842 51.476 84.7072 51.4693 84.5791C51.3678 82.9609 51.4693 81.3426 51.5099 79.7312C51.5369 78.477 51.4625 77.2162 51.6317 75.9621C51.6655 75.6991 51.6723 75.4361 51.6723 75.1664C51.7061 73.3122 51.7602 71.458 51.7602 69.6038C51.7535 65.7942 51.7264 61.9847 51.6723 58.1751C51.6452 56.2602 51.564 54.3453 51.4625 52.4372C51.4016 51.3179 51.2392 50.1986 51.1512 49.0794C51.043 47.6634 50.955 46.2407 50.867 44.818C50.8061 43.7932 50.752 42.7683 50.7046 41.7434C50.6369 40.1589 50.5557 38.5744 50.5287 36.9899C50.4948 34.603 50.4813 32.2161 50.5084 29.8293C50.5219 28.4403 50.4948 27.0513 50.6708 25.6691C50.7317 25.2106 50.7249 24.7453 50.7046 24.2801C50.6505 22.817 50.8535 21.3741 50.9415 19.9177C51.043 18.1983 51.158 16.4857 51.3339 14.7731C51.4896 13.1953 51.7264 11.6243 51.943 10.0533C52.1257 8.7789 52.3219 7.50455 52.5384 6.2302C52.5993 5.87959 52.6873 5.50875 52.8565 5.20533C53.5535 3.91075 54.2775 2.6364 55.0016 1.35531C55.076 1.22046 55.1843 1.11258 55.279 0.991211C55.3332 1.01144 55.3941 1.03167 55.4482 1.05189L55.4076 1.01144Z" fill="#F8F8F8"/>
<path fill-rule="evenodd" clip-rule="evenodd" d="M75.0181 206.687C74.6324 205.898 74.47 205.164 74.3076 204.449C74.0099 203.107 73.7933 201.745 73.5497 200.39C73.5159 200.194 73.4956 199.999 73.4888 199.796C73.4753 199.365 73.5226 198.927 73.3264 198.529C73.3129 198.502 73.3129 198.468 73.3061 198.434C73.2317 197.517 73.164 196.6 73.0896 195.683C73.0625 195.353 73.0287 195.023 73.0016 194.699C72.961 194.166 72.9339 193.64 72.8866 193.115C72.8595 192.791 72.7986 192.467 72.758 192.137C72.7309 191.908 72.6971 191.678 72.6903 191.449C72.6768 191.018 72.6903 190.593 72.555 190.175C72.4805 189.966 72.5008 189.716 72.4873 189.487C72.4738 189.291 72.5211 189.076 72.467 188.894C72.1828 187.99 72.3249 187.053 72.2911 186.136C72.264 185.381 72.3317 184.612 72.1219 183.87C72.0881 183.749 72.0948 183.607 72.1151 183.479C72.3046 182.36 72.0475 181.248 72.0881 180.122C72.1287 178.996 72.1016 177.87 72.0881 176.743C72.0881 175.725 72.1828 174.714 72.2572 173.703C72.3114 172.981 72.2302 172.246 72.264 171.518C72.3317 170.163 72.2369 168.814 72.3926 167.459C72.5347 166.218 72.467 164.951 72.5008 163.69C72.5076 163.332 72.4602 162.968 72.6226 162.618C72.6903 162.476 72.67 162.294 72.6768 162.126C72.6835 161.896 72.6768 161.66 72.6768 161.431C72.7174 160.575 72.6294 159.725 72.8324 158.862C72.9813 158.242 72.8662 157.547 72.8798 156.887C72.8933 156.131 72.8324 155.363 73.049 154.614C73.1234 154.372 73.076 154.088 73.076 153.825C73.076 152.962 73.1234 152.106 73.2114 151.25C73.2993 150.36 73.2587 149.463 73.279 148.566C73.2926 148.04 73.2317 147.508 73.4347 146.995C73.5023 146.82 73.4753 146.604 73.4753 146.409C73.5226 144.918 73.5497 143.435 73.6106 141.952C73.658 140.698 73.7595 139.443 73.8069 138.189C73.8339 137.502 73.8001 136.807 73.8069 136.119C73.8069 135.398 73.8339 134.683 73.8475 133.962C73.861 133.166 73.8745 132.377 73.8745 131.582C73.8745 129.795 73.8678 128.015 73.6986 126.235C73.6174 125.345 73.685 124.448 73.6715 123.551C73.6647 123.126 73.6106 122.695 73.57 122.27C73.5497 122.007 73.5091 121.744 73.4956 121.481C73.4211 120.227 73.3805 118.973 73.2655 117.719C73.1775 116.734 73.1166 115.75 72.9339 114.779C72.7918 114.037 72.7647 113.282 72.6835 112.527C72.5685 111.509 72.4602 110.498 72.3452 109.479C72.3249 109.318 72.2843 109.149 72.2911 108.987C72.3114 108.36 72.1693 107.74 72.149 107.12C72.1287 106.486 72.0136 105.872 71.9527 105.252C71.9392 105.117 71.9121 104.989 71.8986 104.861C71.8241 103.64 71.7565 102.413 71.6753 101.193C71.567 99.6083 71.4384 98.0238 71.3369 96.4393C71.2896 95.6774 71.3031 94.9154 71.2557 94.1535C71.1542 92.4409 71.0189 90.7283 70.9377 89.0089C70.8768 87.6874 70.9241 86.3591 70.8429 85.0376C70.7144 83.0485 70.7279 81.0662 70.6805 79.0838C70.6602 78.1264 70.5926 77.169 70.5587 76.2115C70.5452 75.8137 70.5587 75.4159 70.5587 75.0181C70.5452 72.766 70.5384 70.514 70.5114 68.262C70.5114 67.6686 70.4437 67.0753 70.4369 66.4819C70.4369 65.3896 70.5249 64.2906 70.4437 63.2051C70.3151 61.3508 70.4031 59.4966 70.3828 57.6424C70.3693 56.2534 70.4437 54.8577 70.4572 53.4688C70.4978 50.5222 70.4572 47.569 70.5723 44.6225C70.6602 42.3367 70.6738 40.0577 70.7211 37.772C70.7414 36.6797 70.8497 35.5941 70.8971 34.5086C70.9309 33.7804 70.9377 33.0522 70.958 32.324C71.0053 30.6046 71.0392 28.8853 71.0933 27.1659C71.1136 26.6063 71.1745 26.0466 71.2151 25.487C71.2287 25.2578 71.249 25.0285 71.2557 24.7925C71.3166 23.3698 71.3708 21.9471 71.4249 20.5245C71.4452 19.8637 71.4452 19.1962 71.4858 18.5421C71.6685 15.3394 71.8918 12.1367 72.0272 8.93395C72.1422 6.18972 72.352 3.45223 72.5617 0.714736C72.5617 0.62034 72.6023 0.525944 72.6294 0.424805C72.6903 0.472003 72.758 0.505716 72.7647 0.546171C72.8527 1.59802 72.9339 2.6566 73.0016 3.70845C73.0828 5.02999 73.1505 6.35154 73.2181 7.67983C73.279 8.90024 73.3196 10.1206 73.367 11.3478C73.4279 12.8649 73.4888 14.3887 73.5362 15.9058C73.5632 16.7284 73.5497 17.5577 73.5632 18.3803C73.5835 19.4726 73.6309 20.5649 73.6512 21.6572C73.685 23.2148 73.6918 24.7656 73.7256 26.3231C73.7459 27.348 73.8001 28.3728 73.8136 29.4045C73.8407 31.6565 73.8475 33.9085 73.8813 36.1605C73.8881 36.7539 73.9693 37.3472 73.976 37.9406C73.976 38.7632 73.949 39.5925 73.9287 40.4218C73.9287 40.5837 73.8813 40.759 73.9016 40.9141C74.1181 42.33 74.0099 43.7459 73.949 45.1686C73.9287 45.7283 74.0437 46.2879 74.0437 46.8475C74.064 49.6996 74.0099 52.5518 74.1046 55.3971C74.1452 56.5838 74.1452 57.7705 74.2196 58.9572C74.2805 59.9484 74.2399 60.9463 74.267 61.9374C74.3211 64.0546 74.382 66.1718 74.4497 68.289C74.5106 70.3724 74.5783 72.4559 74.6459 74.5393C74.6595 74.9641 74.7001 75.3889 74.7204 75.8137C74.7948 77.2296 74.8625 78.6523 74.9437 80.0683C75.0181 81.3156 75.1061 82.563 75.1738 83.8104C75.2076 84.5386 75.2144 85.2668 75.2279 85.995C75.2482 87.0199 75.2144 88.0515 75.2956 89.0696C75.4783 91.3756 75.3565 93.695 75.4783 96.001C75.5324 97.0528 75.5392 98.1047 75.6001 99.1498C75.661 100.208 75.6136 101.267 75.6204 102.332C75.6204 102.433 75.6204 102.535 75.6407 102.629C75.9181 104.106 75.7693 105.596 75.8166 107.086C75.8302 107.477 75.8775 107.868 75.9114 108.266C75.9114 108.293 75.9452 108.333 75.9384 108.353C75.6407 109.216 76.0467 110.046 76.0129 110.902C75.9723 111.758 76.0264 112.628 76.0061 113.485C75.979 114.408 76.1685 115.332 76.0332 116.249C76.2429 117.692 76.2091 119.142 76.2091 120.591C76.2091 122.048 76.2091 123.504 76.2226 124.967C76.2226 125.392 76.1956 125.823 76.3444 126.242C76.4189 126.451 76.3986 126.7 76.3986 126.929C76.3986 131.44 76.3986 135.944 76.3986 140.455C76.3986 141.251 76.3986 142.046 76.3986 142.842C76.3986 143.341 76.4189 143.833 76.2632 144.318C76.1956 144.527 76.2226 144.777 76.2226 145.006C76.2091 146.065 76.2091 147.13 76.1956 148.189C76.182 149.18 76.2362 150.184 76.1279 151.162C76.0196 152.187 76.1076 153.225 75.9723 154.23C75.8302 155.255 75.8572 156.273 75.7896 157.291C75.7151 158.377 75.5663 159.456 75.458 160.541C75.4241 160.871 75.4241 161.202 75.4174 161.532C75.4038 162.024 75.4647 162.53 75.255 163.002C75.2414 163.029 75.2347 163.07 75.2347 163.096C75.1602 164.054 75.0993 165.011 75.0249 165.962C74.9978 166.292 74.9572 166.616 74.9166 166.94C74.8963 167.102 74.8557 167.263 74.8422 167.432C74.7678 168.288 74.7136 169.145 74.6324 169.994C74.585 170.453 74.5106 170.904 74.4226 171.356C74.2264 172.327 74.2264 173.332 74.0437 174.296C73.7324 175.941 73.9151 177.593 73.8813 179.245C73.861 180.202 73.861 181.167 73.9422 182.117C74.0775 183.607 74.0031 185.098 74.0843 186.581C74.1587 188.031 74.3279 189.48 74.4294 190.93C74.4768 191.557 74.4362 192.191 74.47 192.818C74.5309 193.937 74.7136 195.05 74.6595 196.182C74.9234 197.086 74.8219 198.023 74.8422 198.94C74.8422 199.041 74.8354 199.142 74.849 199.237C75.1399 200.916 75.0046 202.608 75.0384 204.294C75.052 204.948 75.1061 205.602 75.1264 206.256C75.1264 206.364 75.0655 206.478 74.9911 206.701L75.0181 206.687Z" fill="#F8F8F8"/>
<path fill-rule="evenodd" clip-rule="evenodd" d="M58.5947 150.751C58.5677 150.663 58.5271 150.582 58.5271 150.495C58.5271 149.766 58.4662 149.025 58.5744 148.31C58.7166 147.386 58.7098 146.462 58.7233 145.539C58.7504 144.015 58.8587 142.511 59.1023 141.014C59.1835 140.495 59.1564 139.956 59.2308 139.437C59.4812 137.684 59.7113 135.931 60.0361 134.184C60.2459 133.024 60.5842 131.898 60.7263 130.719C60.8075 130.038 61.0038 129.37 61.1932 128.709C61.5384 127.523 61.6602 126.322 61.6534 125.088C61.6466 123.464 61.6602 121.839 61.6805 120.214C61.7211 117.031 61.782 113.855 61.8158 110.673C61.8564 106.796 61.8767 102.926 61.9038 99.0486C61.9105 97.9226 61.9241 96.8033 62.0391 95.6773C62.1135 94.9558 62.0662 94.2209 62.0662 93.4927C62.0662 91.1733 62.0662 88.8538 62.0662 86.5344C62.0662 86.0422 62.1338 85.5499 62.1677 85.051C62.1812 84.8555 62.2015 84.6532 62.2015 84.4576C62.2218 81.8415 62.2218 79.2254 62.2557 76.6093C62.2827 74.3573 62.3436 72.1052 62.3707 69.8465C62.3842 68.7879 62.3504 67.7293 62.3639 66.6707C62.3842 64.1894 62.4384 61.7014 62.4519 59.2201C62.4654 56.5703 62.479 53.9205 62.4384 51.2639C62.4113 49.6592 62.6278 48.0881 62.9323 46.5373C63.2504 44.8854 63.6699 43.2537 64.0963 41.6287C64.3872 40.5162 64.8 39.4374 65.1113 38.3316C65.6053 36.5583 66.1196 34.785 66.5053 32.978C66.7827 31.6969 66.9925 30.3888 67.006 29.0538C67.0196 27.9278 67.1549 26.8085 67.2361 25.6893C67.2835 25.0285 67.3376 24.3677 67.3782 23.7069C67.4459 22.5202 67.5203 21.3268 67.5474 20.1401C67.588 18.7848 67.5812 17.4296 67.5947 16.0743C67.5947 15.8114 67.588 15.5417 67.5947 15.2787C67.6421 13.5256 67.703 11.7726 67.7301 10.0195C67.7504 8.85976 67.7233 7.70004 67.7166 6.54031C67.7166 6.20992 67.7301 5.89302 67.9534 5.60983C68.4609 4.9558 68.5151 4.16018 68.5015 3.35781C68.488 2.5959 68.4609 1.84073 68.4609 1.07881C68.4609 1.02487 68.5895 0.923735 68.6639 0.916992C68.7384 0.916992 68.8263 0.991161 68.8872 1.05184C68.9278 1.0923 68.9414 1.16647 68.9481 1.23389C68.9617 1.39572 68.9684 1.56428 68.9684 1.7261C68.9684 3.4522 68.9684 5.17157 68.9549 6.89092C68.9414 9.77001 68.9346 12.6491 68.8872 15.5282C68.8534 17.6116 68.7722 19.6951 68.7045 21.7786C68.6436 23.6665 68.6098 25.5544 68.4948 27.4356C68.3594 29.6809 68.1767 31.9194 67.9669 34.1647C67.8045 35.911 67.5948 37.6506 67.3579 39.3834C67.1684 40.7522 66.8978 42.1142 66.688 43.4829C66.6135 43.9684 66.6271 44.4741 66.5932 44.9663C66.4782 46.5778 66.3496 48.1893 66.2481 49.8007C66.2143 50.3267 66.2414 50.8593 66.2075 51.392C66.0925 53.2732 65.9639 55.1544 65.8421 57.0355C65.8354 57.2041 65.8354 57.3659 65.8354 57.5345C65.8218 59.2201 65.788 60.9058 65.6459 62.5847C65.6053 63.0769 65.612 63.5759 65.5917 64.0748C65.5444 65.5312 65.497 66.9876 65.4361 68.4373C65.4158 68.9632 65.3549 69.4958 65.3346 70.0218C65.2872 70.9792 65.2466 71.9434 65.2196 72.9009C65.1587 74.6876 65.1113 76.4744 65.0504 78.2612C64.9827 80.1087 64.9151 81.9561 64.8203 83.7969C64.685 86.4062 64.5767 89.0224 64.4346 91.625C64.3128 93.9984 64.1978 96.3785 64.076 98.7519C63.9542 101.065 63.8053 103.377 63.7105 105.69C63.6226 107.908 63.4534 110.12 63.2842 112.332C63.1827 113.619 63.1421 114.907 63.0338 116.195C62.8714 118.171 62.682 120.146 62.506 122.122C62.4248 123.012 62.3572 123.895 62.2692 124.778C62.215 125.304 62.1068 125.823 62.0932 126.343C62.0797 126.842 62.0526 127.334 61.9105 127.812C61.8835 127.907 61.8902 128.008 61.8902 128.109C61.8902 129.168 61.6669 130.199 61.5519 131.244C61.4639 132.094 61.3895 132.95 61.2948 133.8C61.2406 134.326 61.1729 134.845 61.0985 135.364C60.9902 136.18 60.8617 136.989 60.7602 137.805C60.6654 138.553 60.5978 139.315 60.5098 140.064C60.4557 140.522 60.3947 140.974 60.3203 141.426C60.1511 142.498 59.9617 143.563 59.7925 144.628C59.6369 145.606 59.5015 146.584 59.3391 147.562C59.1564 148.627 58.9534 149.692 58.7572 150.758C58.7098 150.758 58.6624 150.758 58.6083 150.758L58.5947 150.751Z" fill="#F8F8F8"/>
<path fill-rule="evenodd" clip-rule="evenodd" d="M86.8602 203.229C86.7993 201.442 86.576 199.668 86.6504 197.875C86.6707 197.443 86.6166 197.019 86.5895 196.587C86.5557 196.061 86.4745 195.535 86.4745 195.009C86.461 192.063 86.4677 189.11 86.461 186.163C86.461 185.934 86.4813 185.678 86.4001 185.475C86.2444 185.057 86.2715 184.632 86.2715 184.201C86.2715 181.383 86.2783 178.564 86.2715 175.746C86.2647 174.39 86.3053 173.035 86.1023 171.687C86.0549 171.377 86.1361 171.033 86.1767 170.709C86.197 170.547 86.2647 170.385 86.2647 170.224C86.2783 169.205 86.2783 168.187 86.2783 167.162C86.2783 164.944 86.2783 162.719 86.2783 160.501C86.2783 159.941 86.2038 159.375 86.4407 158.835C86.488 158.721 86.4813 158.572 86.461 158.444C86.3662 157.824 86.2647 157.21 86.461 156.597C86.4677 156.57 86.461 156.529 86.461 156.496C86.461 155.606 86.5083 154.709 86.4542 153.819C86.3933 152.909 86.7452 151.998 86.4813 151.088C86.4677 151.034 86.4948 150.96 86.5016 150.893C86.6031 150.117 86.6707 149.335 86.664 148.553C86.664 148.02 86.6775 147.494 86.7046 146.962C86.7519 146.105 86.8061 145.242 86.8534 144.386C86.8805 143.954 86.8196 143.509 86.9211 143.105C87.0429 142.613 87.0294 142.12 87.0497 141.628C87.0903 140.704 86.9414 139.774 87.2256 138.871C87.2527 138.783 87.2256 138.675 87.2256 138.574C87.2188 137.913 87.1715 137.252 87.2053 136.592C87.2392 135.944 86.9549 135.29 87.2053 134.643C87.2256 134.589 87.2053 134.508 87.1783 134.447C86.9955 133.901 87.0632 133.335 87.0564 132.768C87.0497 131.541 87.0565 130.321 87.0429 129.094C87.0294 128.069 86.982 127.044 86.9888 126.012C86.9888 124.994 86.9888 123.983 86.8737 122.965C86.7655 122.048 86.8534 121.111 86.8467 120.18C86.8467 119.587 86.8331 118.993 86.8061 118.393C86.7655 117.409 86.6978 116.424 86.6572 115.433C86.6166 114.476 86.6031 113.518 86.576 112.561C86.5422 111.367 86.4948 110.181 86.4542 108.987C86.4271 108.266 86.5422 107.531 86.2783 106.823C86.2377 106.708 86.258 106.56 86.258 106.425C86.2309 105.178 86.285 103.924 86.0955 102.67C85.9737 101.86 86.0685 101.018 86.0617 100.188C86.0617 99.8916 86.0482 99.5949 86.0279 99.2983C85.994 98.7386 85.9264 98.179 85.9061 97.6261C85.879 96.7091 85.8858 95.7854 85.791 94.8751C85.7098 94.1132 85.6895 93.358 85.6692 92.5961C85.6557 92.1309 85.7166 91.6522 85.6083 91.2139C85.4865 90.688 85.4662 90.1688 85.4798 89.6429C85.4865 89.09 85.297 88.5438 85.4595 87.9842C85.4933 87.8763 85.4189 87.728 85.3918 87.5999C85.3512 87.4111 85.2903 87.2155 85.2835 87.02C85.2497 85.867 85.3715 84.7073 85.0873 83.5678C85.1211 81.9833 85.0196 80.4055 84.8978 78.8278C84.8166 77.7489 84.864 76.6634 84.7219 75.5711C84.5256 74.1012 84.5392 72.6111 84.4647 71.1277C84.4106 70.1366 84.3497 69.1454 84.3023 68.1542C84.2414 66.8327 84.1873 65.5111 84.1264 64.1963C84.1264 64.1289 84.1128 64.0615 84.1061 64.0008C84.0452 62.8478 83.991 61.6881 83.9369 60.5351C83.9031 59.8743 83.8895 59.2136 83.8489 58.5528C83.8286 58.1617 83.7474 57.7707 83.7339 57.3728C83.6798 55.9232 83.6459 54.4668 83.5918 53.0171C83.5376 51.6282 83.4497 50.2392 83.3955 48.8502C83.294 46.3757 83.1993 43.8944 83.1181 41.4199C83.0369 38.9049 82.9692 36.3899 82.9016 33.8749C82.861 32.25 82.8474 30.6317 82.8136 29.0068C82.8001 28.1505 82.8136 27.2874 82.7324 26.4378C82.6783 25.8243 82.8271 25.2512 82.8745 24.6645C83.0098 22.9856 83.1655 21.3067 83.3279 19.6278C83.4226 18.6434 83.5783 17.659 83.6798 16.6746C83.9031 14.436 84.0316 12.1908 83.9572 9.93873C83.9369 9.36561 84.0316 8.82621 84.2211 8.29354C84.4918 7.55186 84.6407 6.7832 84.7219 5.98083C84.8504 4.68626 84.7219 3.40517 84.7354 2.11733C84.7354 1.96899 84.6948 1.7802 84.9519 1.73975C84.9925 1.81391 85.0602 1.88808 85.067 1.96899C85.2023 3.61419 85.3309 5.26612 85.4527 6.91131C85.5407 8.09801 85.6151 9.2847 85.6895 10.4714C85.7031 10.7006 85.7234 10.9299 85.7369 11.1659C85.8181 12.2852 85.9128 13.4044 85.9805 14.5304C86.0482 15.6834 86.0752 16.8431 86.1361 17.9961C86.2241 19.7762 86.3256 21.563 86.4068 23.343C86.488 25.1298 86.5151 26.9166 86.6234 28.6966C86.7384 30.5171 86.8534 32.3309 86.8399 34.1581C86.8399 34.3267 86.8467 34.4885 86.8534 34.6571C86.9143 36.046 86.9888 37.4283 87.0226 38.8172C87.0565 40.0376 86.9685 41.2648 87.185 42.4852C87.2324 42.7414 87.2121 43.0111 87.2121 43.2808C87.2189 44.3731 87.2527 45.4654 87.3339 46.5577C87.4151 47.677 87.3745 48.8098 87.4016 49.9358C87.4692 52.5519 87.5437 55.168 87.6181 57.7841C87.6181 57.9527 87.6249 58.1145 87.6384 58.2831C87.6925 59.2743 87.7737 60.2654 87.8008 61.2566C87.8752 63.7041 87.9158 66.1517 87.997 68.5993C88.0376 69.9208 88.1189 71.2423 88.1798 72.5639C88.2677 74.708 88.3489 76.8589 88.4437 79.0031C88.4775 79.8594 88.5722 80.7224 88.5993 81.5787C88.667 83.6622 88.7076 85.7457 88.7549 87.8224C88.7685 88.382 88.7414 88.9416 88.7549 89.5013C88.7617 90.6543 88.7752 91.814 88.8023 92.9737C88.8497 95.1583 88.8971 97.3429 88.9783 99.5275C89.0392 101.213 89.1407 102.899 89.2219 104.584C89.2422 104.949 89.1813 105.326 89.2557 105.67C89.4316 106.553 89.3843 107.437 89.4181 108.327C89.4249 108.556 89.3775 108.812 89.4452 109.021C89.6482 109.635 89.6211 110.262 89.6076 110.889C89.594 111.448 89.8038 111.995 89.6685 112.554C89.9392 113.687 89.8444 114.853 89.973 116C90.1083 117.207 90.3046 118.427 90.2098 119.654C90.2031 119.755 90.2098 119.863 90.2437 119.951C90.4399 120.463 90.3858 120.996 90.3993 121.522C90.3993 121.751 90.3519 122.001 90.4196 122.216C90.6429 122.958 90.5617 123.727 90.5888 124.482C90.6091 124.981 90.5685 125.486 90.67 125.965C90.7647 126.43 90.7783 126.882 90.785 127.341C90.785 127.941 90.7173 128.548 90.8121 129.127C90.961 130.078 90.9407 131.029 90.9745 131.98C91.0083 133.004 90.9136 134.036 91.1369 135.047C91.1775 135.236 91.1707 135.445 91.1707 135.641C91.1707 136.969 91.1437 138.291 91.1775 139.619C91.2113 140.974 91.0016 142.316 91.0422 143.671C91.0692 144.494 91.0016 145.323 90.9745 146.152C90.9677 146.415 91.0016 146.699 90.9271 146.941C90.7782 147.427 90.8189 147.926 90.785 148.418C90.7038 149.47 90.6835 150.535 90.5346 151.574C90.3519 152.814 90.3046 154.068 90.0204 155.295C89.9121 155.774 89.858 156.266 89.8241 156.759C89.7226 158.04 89.6346 159.328 89.5467 160.609C89.5061 161.161 89.4655 161.721 89.4249 162.274C89.3504 163.292 89.3234 164.324 89.1813 165.335C89.0933 165.929 89.0459 166.515 89.0324 167.102C89.0121 168.491 88.8091 169.866 88.7685 171.255C88.7482 171.936 88.7279 172.651 88.6061 173.325C88.4504 174.181 88.4504 175.038 88.4369 175.894C88.4369 176.123 88.4504 176.373 88.3828 176.582C88.2271 177.067 88.2474 177.559 88.2407 178.058C88.2407 178.389 88.288 178.739 88.2136 179.05C88.0174 179.865 88.058 180.695 88.0377 181.517C88.0241 181.976 87.9564 182.434 87.9158 182.893C87.9023 183.055 87.8752 183.223 87.8685 183.385C87.8211 184.605 87.9158 185.839 87.6587 187.046C87.6181 187.235 87.6587 187.444 87.6587 187.64C87.6519 188.368 87.7264 189.11 87.6046 189.818C87.4354 190.775 87.4489 191.726 87.4422 192.69C87.4422 193.384 87.4422 194.079 87.2865 194.76C87.2392 194.949 87.2527 195.158 87.2595 195.353C87.3407 197.942 87.0429 200.511 87.0226 203.094C87.0226 203.188 86.982 203.282 86.9549 203.39C86.9143 203.316 86.8602 203.269 86.8602 203.222V203.229Z" fill="#F8F8F8"/>
<path fill-rule="evenodd" clip-rule="evenodd" d="M107.729 206.539C107.662 205.851 107.608 205.164 107.52 204.483C107.323 203.04 107.181 201.597 107.114 200.14C107.114 200.012 107.053 199.884 107.039 199.749C106.998 199.419 106.958 199.095 106.931 198.765C106.904 198.468 106.911 198.165 106.883 197.868C106.789 196.789 106.667 195.711 106.592 194.625C106.491 193.243 106.417 191.854 106.329 190.472C106.329 190.37 106.342 190.262 106.308 190.175C106.092 189.602 106.146 189.002 106.132 188.408C106.119 187.95 106.186 187.464 106.071 187.033C105.889 186.338 105.97 185.651 105.936 184.963C105.923 184.7 105.95 184.423 105.875 184.174C105.726 183.688 105.753 183.19 105.74 182.697C105.72 182.037 105.692 181.376 105.652 180.715C105.632 180.358 105.564 179.994 105.55 179.636C105.53 178.874 105.618 178.099 105.51 177.35C105.334 176.063 105.354 174.775 105.347 173.487C105.347 172.86 105.388 172.213 105.28 171.606C105.171 170.979 105.165 170.358 105.158 169.731C105.131 168.282 105.056 166.825 105.083 165.376C105.104 164.513 104.955 163.67 104.955 162.807C104.948 159.294 105.056 155.788 104.86 152.275C104.86 152.174 104.88 152.079 104.887 151.978C104.914 151.418 104.955 150.852 104.962 150.292C104.968 147.339 104.962 144.393 104.968 141.439C104.968 141.176 104.928 140.887 105.009 140.651C105.205 140.064 105.144 139.477 105.144 138.884C105.144 138.088 105.192 137.293 105.151 136.504C105.111 135.715 105.408 134.933 105.178 134.144C105.165 134.09 105.205 134.016 105.212 133.955C105.253 133.598 105.307 133.234 105.327 132.876C105.347 132.283 105.388 131.683 105.341 131.09C105.293 130.496 105.625 129.93 105.395 129.336C105.632 128.73 105.523 128.096 105.55 127.469C105.584 126.714 105.611 125.952 105.652 125.197C105.672 124.805 105.74 124.408 105.74 124.017C105.747 122.526 106.044 121.05 105.977 119.56C105.977 119.492 105.977 119.425 106.004 119.364C106.18 118.953 106.119 118.521 106.139 118.09C106.166 117.496 106.193 116.903 106.227 116.31C106.261 115.75 106.335 115.191 106.329 114.631C106.329 113.579 106.274 112.52 106.241 111.469C106.227 111.172 106.166 110.875 106.159 110.579C106.153 109.56 106.18 108.542 106.159 107.524C106.092 104.645 106.193 101.766 106.051 98.8869C105.916 96.0416 105.923 93.1895 105.862 90.3441C105.828 88.6247 105.787 86.8986 105.753 85.1793C105.706 82.7317 105.672 80.2774 105.632 77.8298C105.618 76.9061 105.598 75.9756 105.584 75.0452C105.564 73.4202 105.544 71.7952 105.523 70.177C105.469 67.0956 105.402 64.021 105.361 60.9396C105.334 58.8629 105.253 56.7795 105.307 54.696C105.307 54.5679 105.28 54.4331 105.266 54.3049C105.232 53.9139 105.178 53.5161 105.171 53.125C105.138 50.9741 105.131 48.8232 105.09 46.6723C105.05 44.4877 104.989 42.3099 104.935 40.1253C104.88 37.8058 104.826 35.4931 104.779 33.1737C104.732 30.6587 104.677 28.137 104.637 25.622C104.589 22.6755 104.549 19.729 104.508 16.7824C104.502 16.2228 104.529 15.6632 104.508 15.0968C104.474 13.6067 104.407 12.1233 104.373 10.6332C104.339 9.21051 104.38 7.78108 104.292 6.36514C104.217 5.17844 104.204 3.99849 104.271 2.69043C104.359 2.95339 104.427 3.09499 104.454 3.25006C104.617 4.22774 104.792 5.20542 104.928 6.18309C105.097 7.42373 105.226 8.67785 105.374 9.92523C105.564 11.503 105.76 13.074 105.936 14.645C106.031 15.4676 106.105 16.2902 106.18 17.1128C106.302 18.3939 106.417 19.675 106.525 20.9561C106.599 21.8798 106.66 22.8103 106.728 23.7273C106.863 25.6085 107.019 27.4897 107.134 29.3709C107.235 31.0228 107.289 32.6747 107.371 34.3267C107.418 35.2504 107.479 36.1741 107.526 37.0979C107.56 37.8935 107.614 38.6891 107.601 39.478C107.574 40.7051 107.58 41.9188 107.716 43.1392C107.797 43.8944 107.729 44.663 107.736 45.425C107.736 46.1869 107.675 46.9555 107.77 47.7107C107.912 48.8637 107.905 50.0234 107.919 51.1764C107.953 55.2489 107.932 59.3282 107.959 63.4074C107.973 65.7269 108.047 68.0463 108.081 70.3658C108.108 71.8559 108.122 73.346 108.122 74.8429C108.122 75.8003 108.081 76.7645 108.088 77.722C108.102 80.4729 108.135 83.2239 108.162 85.9749C108.176 87.3706 108.176 88.7596 108.217 90.1485C108.298 92.8658 108.399 95.5763 108.487 98.2936C108.541 99.8781 108.589 101.469 108.643 103.054C108.663 103.613 108.697 104.18 108.724 104.739C108.751 105.4 108.744 106.068 108.812 106.722C108.886 107.403 108.805 108.084 108.88 108.772C109.035 110.181 109.029 111.61 109.13 113.026C109.198 113.916 109.32 114.813 109.218 115.696C109.069 116.984 109.144 118.279 109.117 119.566C109.117 119.829 109.117 120.099 109.117 120.362C109.117 121.158 109.13 121.953 109.096 122.749C109.062 123.599 108.961 124.455 108.934 125.304C108.907 126.1 108.934 126.896 108.92 127.691C108.907 128.446 108.812 129.208 108.853 129.964C108.886 130.752 108.69 131.514 108.778 132.317C108.886 133.261 108.758 134.232 108.731 135.189C108.663 137.475 108.88 139.76 108.595 142.04C108.778 142.896 108.595 143.745 108.548 144.595C108.521 145.013 108.623 145.431 108.623 145.856C108.623 146.281 108.541 146.705 108.541 147.137C108.541 147.528 108.629 147.926 108.629 148.317C108.629 148.742 108.548 149.166 108.535 149.598C108.514 150.225 108.521 150.859 108.514 151.486C108.514 152.113 108.595 152.76 108.494 153.374C108.392 154.001 108.541 154.608 108.447 155.235C108.359 155.781 108.359 156.347 108.359 156.9C108.345 158.957 108.318 161.013 108.345 163.07C108.365 165.119 108.25 167.169 108.332 169.226C108.345 169.617 108.271 170.014 108.237 170.406C108.217 170.669 108.156 170.938 108.176 171.194C108.23 172.078 108.189 172.961 108.162 173.844C108.102 175.894 108.142 177.951 108.142 180.007C108.142 181.598 108.142 183.19 108.142 184.781C108.142 185.873 108.047 186.959 108.129 188.051C108.176 188.739 108.223 189.46 108.102 190.134C107.959 190.93 108.014 191.712 108.041 192.501C108.061 193.034 108.081 193.56 108.102 194.086C108.102 194.214 108.142 194.369 108.102 194.477C107.865 194.982 107.953 195.522 107.953 196.041C107.953 199.291 107.953 202.541 107.953 205.784V206.573C107.885 206.559 107.824 206.553 107.756 206.539H107.729Z" fill="#F8F8F8"/>
<path fill-rule="evenodd" clip-rule="evenodd" d="M88.924 10.9635C88.9579 11.0849 89.012 11.1995 89.0188 11.3141C89.1 13.7954 89.4992 16.2429 89.8511 18.6905C90.1015 20.4166 90.4534 22.1292 90.8255 23.8351C91.2586 25.8309 91.7594 27.8132 92.2466 29.7955C92.9165 32.5128 93.6135 35.2233 94.2699 37.9473C94.7706 40.0578 95.2849 42.1682 95.6774 44.2988C96.1849 47.0566 96.7128 49.8143 96.9225 52.6192C97.0376 54.1363 97.2067 55.6534 97.2609 57.1704C97.315 58.6943 97.2473 60.2181 97.2338 61.7419C97.2338 61.897 97.1797 62.0588 97.1526 62.2139C97.0308 61.9779 96.9767 61.7554 96.9699 61.5262C96.9428 59.5708 96.6586 57.6357 96.3541 55.714C95.9684 53.3002 95.3323 50.947 94.5879 48.6343C93.6135 45.5934 92.5782 42.5795 91.509 39.5723C90.6631 37.1922 89.8105 34.812 89.1 32.378C89.0052 32.0611 88.924 31.7374 88.897 31.4138C88.7413 29.4382 88.5112 27.4626 88.403 25.4803C88.2879 23.498 88.2609 21.5156 88.2473 19.5266C88.2473 19.0276 88.1729 18.5354 88.1932 18.0432C88.2812 16.2227 88.3894 14.409 88.518 12.5885C88.5586 12.0356 88.6669 11.4894 88.7481 10.9365C88.809 10.9433 88.8767 10.95 88.9376 10.9568L88.924 10.9635Z" fill="#F8F8F8"/>
<path fill-rule="evenodd" clip-rule="evenodd" d="M99.6362 66.8057C99.6159 66.0438 99.5888 65.2819 99.6023 64.52C99.6362 62.477 99.555 60.434 99.5482 58.391C99.5482 57.3998 99.4805 56.4087 99.4602 55.4175C99.4399 54.3926 99.4602 53.361 99.4331 52.3361C99.3925 50.846 99.3181 49.3627 99.2843 47.8793C99.2098 44.5687 99.1422 41.2648 99.088 37.9542C99.0677 36.8619 99.0204 35.7628 99.1151 34.6773C99.2843 32.8029 99.5617 30.9419 99.7986 29.0742C100.002 27.4695 100.205 25.8647 100.421 24.2667C100.692 22.2709 100.976 20.2819 101.26 18.2861C101.416 17.2072 101.585 16.1284 101.754 15.0496C101.774 14.9417 101.774 14.7732 101.998 14.8608V15.9194C101.998 17.0454 101.998 18.1714 101.998 19.2974C101.998 21.1179 101.822 22.9317 101.917 24.7522C101.917 24.8196 101.91 24.8871 101.903 24.9545C101.869 26.3772 101.829 27.7999 101.815 29.2225C101.795 31.542 101.856 33.8614 101.781 36.1741C101.72 37.9205 101.734 39.6735 101.646 41.4266C101.565 43.1055 101.531 44.7912 101.484 46.4768C101.423 48.7895 101.321 51.1022 101.186 53.4082C101.037 55.9164 100.854 58.4247 100.638 60.9329C100.468 62.9422 100.238 64.9448 100.029 66.9541C100.015 67.0754 100.002 67.2238 99.7106 67.2103C99.6835 67.0754 99.6429 66.9473 99.6429 66.8192L99.6362 66.8057Z" fill="#F8F8F8"/>
<path fill-rule="evenodd" clip-rule="evenodd" d="M15.2324 1.50391C15.2865 1.74664 15.3813 1.99612 15.4016 2.24559C15.5775 4.16049 15.7467 6.06864 15.9091 7.98353C15.9903 8.96795 16.0715 9.95911 16.1324 10.9503C16.2136 12.2718 16.2813 13.5934 16.3422 14.9149C16.3963 16.0005 16.4437 17.0928 16.4978 18.1783C16.4978 18.2795 16.5113 18.3806 16.5113 18.475C16.5181 21.7519 16.5384 25.0355 16.5384 28.3124C16.5384 29.9711 16.5249 31.623 16.4843 33.2817C16.4572 34.4077 16.376 35.527 16.3354 36.6463C16.3219 37.0104 16.3692 37.3745 16.3489 37.7318C16.2813 39.2826 16.2001 40.8334 16.1256 42.391C16.0918 43.1529 16.0918 43.9148 16.0647 44.6767C15.9768 46.8276 15.882 48.9717 15.794 51.1226C15.7467 52.343 15.7128 53.5634 15.679 54.7906C15.679 54.8917 15.679 54.9929 15.6655 55.0872C15.4422 56.5302 15.5504 57.9866 15.4692 59.4362C15.3745 61.1556 15.3001 62.8749 15.2189 64.5876C15.2189 64.7224 15.185 64.8573 15.2053 64.9854C15.361 65.8821 15.1918 66.7654 15.1783 67.6554C15.158 68.5185 15.1377 69.3748 15.1174 70.2378C15.0835 71.9302 15.0497 73.6159 15.0159 75.3015C15.0159 75.4364 14.9685 75.5712 14.9956 75.6993C15.1715 76.7579 14.9685 77.8165 14.9076 78.8684C14.8602 79.691 14.7181 80.5068 14.6166 81.3227C14.6098 81.3901 14.5828 81.4508 14.576 81.5182C14.5016 82.4756 14.4271 83.4264 14.3527 84.3838C14.2377 85.7997 14.1226 87.2157 14.0143 88.6316C13.994 88.8609 14.0008 89.0969 13.9873 89.3261C13.8655 91.2747 13.7301 93.2166 13.6219 95.1652C13.5677 96.1564 13.561 97.1475 13.5204 98.1387C13.4865 99.0287 13.4189 99.9187 13.3783 100.809C13.3377 101.834 13.3918 102.858 13.2091 103.877C13.1143 104.389 13.182 104.935 13.182 105.468C13.182 106.459 13.2294 107.457 13.1617 108.448C13.1076 109.203 13.1888 109.952 13.182 110.707C13.1753 111.435 13.182 112.163 13.182 112.891C13.1617 114.678 13.1279 116.465 13.1211 118.245C13.1211 119.041 13.1753 119.836 13.182 120.625C13.1888 122.378 13.182 124.138 13.182 125.898C13.182 127.058 13.1956 128.211 13.182 129.37C13.182 129.795 13.3444 130.186 13.2971 130.631C13.2632 130.935 13.385 131.272 13.2632 131.595C13.2429 131.656 13.2294 131.73 13.2429 131.791C13.5068 133.241 13.3038 134.697 13.3715 136.153C13.3918 136.612 13.2971 137.084 13.4865 137.529C13.5001 137.556 13.5271 137.596 13.5136 137.623C13.155 138.574 13.5813 139.518 13.5339 140.469C13.4798 141.561 13.5339 142.653 13.561 143.746C13.5813 144.474 13.6895 145.195 13.676 145.923C13.6489 146.982 13.791 148.027 13.764 149.079C13.7301 150.171 13.764 151.264 13.764 152.356C13.764 152.524 13.7437 152.693 13.7707 152.855C13.9873 154.035 13.9264 155.228 13.9467 156.415C13.9805 157.871 13.967 159.328 13.9737 160.784C13.9737 160.852 13.9737 160.919 13.9805 160.986C14.0211 161.35 14.0482 161.708 14.1159 162.065C14.1835 162.429 14.0211 162.76 14.055 163.137C14.1497 164.182 14.1294 165.241 14.1429 166.3C14.1565 167.324 14.1835 168.356 14.1835 169.381C14.1835 172.098 14.1632 174.815 14.1497 177.533C13.7978 179.805 14.1091 182.097 13.9196 184.37C13.7234 186.723 13.7978 189.062 13.764 191.416C13.764 191.584 13.791 191.766 13.7301 191.908C13.5136 192.454 13.5813 193.014 13.5745 193.573C13.5745 195.097 13.588 196.621 13.561 198.138C13.5474 199.095 13.4459 200.053 13.4256 201.01C13.3918 202.433 13.3918 203.862 13.3715 205.285C13.3647 205.717 13.3174 206.141 13.27 206.566C13.27 206.64 13.1685 206.708 13.067 206.843C12.9452 206.324 12.9993 205.865 12.9858 205.42C12.9655 204.86 13.0264 204.294 12.8301 203.748C12.7692 203.573 12.7963 203.357 12.7895 203.154C12.7895 202.197 12.8437 201.226 12.7692 200.275C12.688 199.264 12.8301 198.246 12.6204 197.241C12.5459 196.857 12.5933 196.452 12.5933 196.055C12.5933 194.76 12.5933 193.472 12.5933 192.178C12.5933 191.746 12.5324 191.328 12.4647 190.903C12.3971 190.499 12.5392 190.06 12.5865 189.636C12.5933 189.568 12.6001 189.501 12.5865 189.44C12.3632 188.624 12.5527 187.795 12.5121 186.972C12.3091 183.136 12.4512 179.292 12.3903 175.449C12.3768 174.761 12.255 174.067 12.2143 173.379C12.1737 172.685 12.3632 171.997 12.2143 171.303C12.167 171.08 12.2008 170.837 12.2008 170.608C12.2008 169.253 12.2008 167.891 12.2008 166.529C12.2008 166.36 12.2211 166.192 12.1873 166.03C11.9369 164.688 12.0249 163.326 11.9978 161.971C11.9843 161.31 12.0587 160.642 11.8286 160.009C11.8083 159.948 11.8083 159.874 11.8083 159.813C11.9031 158.222 11.5986 156.651 11.585 155.06C11.5783 154.17 11.4294 153.28 11.3482 152.396C11.3008 151.904 11.2467 151.412 11.1993 150.92C11.1587 150.556 11.1249 150.198 11.0775 149.841C11.0572 149.679 11.0098 149.517 11.0031 149.355C10.9895 148.297 10.7189 147.272 10.6444 146.227C10.5632 145 10.2587 143.82 10.1843 142.593C10.1234 141.676 9.94067 140.765 9.77149 139.862C9.48051 138.318 9.16247 136.78 8.85119 135.236C8.71585 134.562 8.58728 133.881 8.39781 133.22C8.12713 132.29 8.12036 131.326 8.06623 130.375C8.01886 129.552 8.14743 128.723 7.89706 127.914C8.03239 127.321 7.85645 126.741 7.86322 126.154C7.87676 124.994 7.86322 123.835 7.86322 122.675C7.86322 122.473 7.90382 122.257 7.84969 122.082C7.66021 121.502 7.80909 120.922 7.82939 120.342C7.84292 120.012 7.85645 119.681 7.85645 119.351C7.85645 117.004 7.86322 114.651 7.86999 112.305C7.86999 111.907 7.86999 111.523 7.99856 111.132C8.10006 110.835 8.0527 110.478 8.0527 110.147C8.073 108.92 8.00533 107.686 8.12036 106.473C8.24894 105.117 8.1339 103.749 8.31661 102.42C8.44518 101.47 8.33014 100.505 8.58728 99.5749C8.68202 99.2377 8.64818 98.8467 8.63465 98.4893C8.60758 97.6397 8.74292 96.8037 8.81059 95.9608C8.89179 94.909 8.94593 93.8571 9.0339 92.8053C9.0745 92.2861 9.176 91.7669 9.21661 91.241C9.25721 90.7488 9.20984 90.2431 9.27751 89.7509C9.43991 88.5777 9.54142 87.3977 9.62262 86.211C9.67676 85.3884 9.77826 84.5726 9.86623 83.75C9.9136 83.3252 9.98127 82.9004 10.0016 82.4756C10.0286 81.9834 9.9745 81.4845 10.164 81.0058C10.2316 80.8305 10.1978 80.6147 10.2046 80.4124C10.2113 79.9202 10.1707 79.4213 10.367 78.9425C10.4211 78.8009 10.4008 78.6189 10.4008 78.4503C10.4008 77.857 10.4685 77.2704 10.5565 76.6838C10.6918 75.8409 10.7121 74.9711 10.7933 74.1216C10.8474 73.535 10.9422 72.9484 10.9828 72.355C11.0234 71.7954 11.0369 71.2425 11.1519 70.6829C11.2467 70.2378 11.179 69.7591 11.2264 69.3006C11.3279 68.2488 11.47 67.2037 11.5647 66.1518C11.6662 64.9651 11.7068 63.7785 11.7948 62.5918C11.876 61.5062 11.991 60.4274 12.0925 59.3418C12.1061 59.18 12.1196 59.0114 12.1264 58.8496C12.2279 56.7999 12.3768 54.7569 12.4444 52.7071C12.5053 50.8866 12.661 49.0729 12.7489 47.2524C12.7963 46.3286 12.7963 45.3982 12.8166 44.4744C12.8301 43.8474 12.7963 43.227 12.9113 42.6C13.0061 42.0875 12.9316 41.5414 12.9316 41.0155C12.9249 39.7546 12.8775 38.5005 12.9046 37.2396C12.9316 35.9518 12.9249 34.664 13.1143 33.3829C13.2294 32.6007 13.2565 31.8051 13.3309 31.0095C13.4595 29.661 13.5948 28.3124 13.7234 26.9639C13.7301 26.8628 13.7437 26.7684 13.7504 26.6672C13.8249 25.2783 13.879 23.8893 13.9737 22.5071C14.0685 21.1181 14.2106 19.7426 14.3053 18.3536C14.4001 17.0051 14.461 15.6499 14.5286 14.2946C14.6437 12.0493 14.7655 9.79729 14.8737 7.55201C14.9143 6.59456 14.9211 5.63037 14.9482 4.67292C14.9685 3.8773 14.9753 3.08841 15.0091 2.29279C15.0159 2.04331 15.0835 1.80058 15.1241 1.5511C15.1647 1.5511 15.2053 1.5511 15.2392 1.5511L15.2324 1.50391Z" fill="#F8F8F8"/>
<path fill-rule="evenodd" clip-rule="evenodd" d="M12.2955 207.861C11.7541 207.901 11.2669 207.935 10.7729 207.969C9.39248 208.063 8.04587 208.319 6.69248 208.602C5.67744 208.818 4.64887 208.899 3.6203 208.98C2.40902 209.074 1.26541 208.852 0.148872 208.407C0.101504 208.387 0.0676692 208.313 0 208.232C0.081203 208.151 0.148872 208.029 0.250376 207.982C0.757895 207.726 1.26541 207.456 1.79323 207.247C2.39549 207.011 2.95038 206.708 3.37669 206.209C3.74887 205.777 4.23609 205.589 4.70977 205.589C5.90752 205.589 7.07143 205.251 8.26917 205.346C9.7985 205.467 11.1045 206.054 12.1195 207.288C12.1805 207.362 12.2278 207.449 12.2684 207.537C12.2887 207.591 12.2752 207.665 12.2887 207.868L12.2955 207.861Z" fill="#F8F8F8"/>
<path fill-rule="evenodd" clip-rule="evenodd" d="M12.7489 2.20492C12.4309 2.14424 12.2888 2.12401 12.1534 2.09704C11.3617 1.94196 10.5903 2.00264 9.88652 2.4544C9.05419 2.98706 8.22863 3.51298 7.3963 4.04565C6.80081 4.42323 6.18502 4.74014 5.47449 4.79408C4.96021 4.83453 4.46622 4.74688 4.03314 4.43672C3.48502 4.03891 3.0181 3.55344 2.67975 2.94661C2.65269 2.89941 2.67975 2.8185 2.67975 2.69039C2.80156 2.65668 2.9369 2.59599 3.079 2.57576C4.26321 2.43417 5.40682 2.09704 6.5369 1.69923C7.51133 1.35536 8.48577 0.997999 9.53464 0.890117C10.1437 0.829434 10.7324 0.89686 11.3076 1.03171C11.8692 1.15982 12.282 1.57786 12.7489 2.19818V2.20492Z" fill="#F8F8F8"/>
<path fill-rule="evenodd" clip-rule="evenodd" d="M25.7075 0.00664924C25.7752 0.357264 25.8632 0.707878 25.9173 1.05849C26.1271 2.52838 26.3504 3.99826 26.5196 5.47489C26.7564 7.57858 26.9391 9.689 27.1557 11.7927C27.203 12.2849 27.291 12.7771 27.3316 13.2693C27.5481 16.0068 27.7647 18.7443 27.9609 21.4818C28.1301 23.7878 28.2722 26.1005 28.4143 28.4132C28.4549 29.1009 28.4075 29.8021 28.4549 30.4899C28.5699 32.0744 28.4414 33.6656 28.6376 35.2502C28.6444 35.3176 28.6579 35.385 28.6579 35.4457C28.6579 36.6661 28.6579 37.8932 28.6579 39.1137C28.6579 39.8756 28.6715 40.6375 28.6782 41.3994C28.685 43.2873 28.8 45.182 28.6714 47.0564C28.5158 49.2747 28.6105 51.4863 28.4617 53.6979C28.3669 55.0194 28.4008 56.341 28.3331 57.6625C28.2519 59.1459 28.1166 60.6158 28.0083 62.0991C27.988 62.4295 27.988 62.7599 27.9609 63.0903C27.8324 64.8703 27.6564 66.6436 27.5684 68.4237C27.4737 70.3453 27.203 72.24 26.973 74.1414C26.8444 75.1865 26.6955 76.2316 26.6211 77.2834C26.594 77.661 26.7158 78.0723 26.8308 78.4364C27.0542 79.1309 27.203 79.8524 27.1895 80.5738C27.1557 82.2662 27.0677 83.9519 27.0068 85.6375C26.9865 86.332 26.8985 87.0332 26.9797 87.721C27.0677 88.4964 26.9594 89.2381 26.8647 89.9932C26.7429 90.9372 26.6549 91.8946 26.5602 92.8453C26.5466 92.9734 26.5466 93.115 26.5602 93.2431C26.7632 94.7805 26.7835 96.338 27.0609 97.8686C27.3722 99.5542 27.6293 101.253 27.8662 102.959C28.0354 104.2 28.1572 105.454 28.1369 106.722C28.1098 108.178 28.1775 109.628 28.2925 111.084C28.3669 112.041 28.4008 113.006 28.3737 113.963C28.3399 115.055 28.5429 116.141 28.3805 117.233C28.6308 118.905 28.4955 120.591 28.5226 122.27C28.5496 123.929 28.5226 125.587 28.5226 127.246C28.5226 128.905 28.5429 130.624 28.5226 132.316C28.5023 133.8 28.4211 135.283 28.3872 136.76C28.3534 138.351 28.3534 139.942 28.3263 141.534C28.3196 142.127 28.3466 142.714 28.1775 143.3C28.0895 143.604 28.1369 143.961 28.1369 144.291C28.1369 145.444 28.1572 146.604 28.1301 147.764C28.1098 148.687 28.0218 149.611 27.9812 150.535C27.9542 151.095 27.9406 151.661 27.9406 152.221C27.9406 153.879 27.9068 155.524 27.7444 157.176C27.7444 157.21 27.7444 157.244 27.7444 157.277C27.7105 158.7 27.6496 160.116 27.6361 161.539C27.6158 163.42 27.4737 165.301 27.5346 167.182C27.5481 167.708 27.5346 168.241 27.5278 168.767C27.5278 168.868 27.5346 168.969 27.5075 169.064C27.2504 169.974 27.3384 170.904 27.3451 171.828C27.3519 173.878 27.291 175.928 27.176 177.977C27.1692 178.139 27.1557 178.314 27.176 178.469C27.2639 179.164 27.2639 179.852 27.2369 180.546C27.2166 181.133 27.2842 181.733 27.3045 182.319C27.3113 182.582 27.3181 182.852 27.3045 183.115C27.2775 184.073 27.2369 185.03 27.2098 185.987C27.2098 186.149 27.2504 186.311 27.2639 186.473C27.291 186.736 27.3248 186.999 27.3248 187.262C27.3316 188.718 27.3248 190.175 27.3316 191.631C27.3384 192.986 27.4196 194.335 27.4872 195.683C27.5549 196.897 27.6699 198.117 27.7241 199.331C27.7579 200.059 27.7308 200.794 27.7782 201.516C27.8662 202.83 27.9948 204.139 28.103 205.447C28.1166 205.642 28.1233 205.844 28.1233 206.04C28.1301 206.566 28.103 207.098 28.279 207.618C28.3263 207.759 28.3128 207.955 28.2654 208.103C28.2316 208.198 28.0895 208.312 27.9948 208.312C27.9136 208.312 27.7714 208.184 27.7511 208.09C27.7105 207.901 27.7173 207.699 27.7241 207.496C27.7376 206.6 27.7105 205.71 27.5684 204.819C27.5075 204.428 27.5481 204.024 27.5211 203.626C27.494 203.201 27.4331 202.776 27.3857 202.352C27.3654 202.183 27.3248 202.021 27.3316 201.86C27.3654 200.99 27.176 200.147 27.0271 199.304C26.9053 198.623 26.8511 197.929 26.7293 197.254C26.4248 195.508 26.0797 193.775 25.782 192.029C25.4301 189.993 25.0173 187.97 24.6316 185.947C24.5301 185.408 24.4895 184.841 24.4015 184.288C24.2594 183.445 24.1511 182.596 24.0361 181.746C24.009 181.551 24.0158 181.349 23.9955 181.153C23.9549 180.728 23.894 180.303 23.8602 179.879C23.806 179.15 23.7857 178.422 23.7181 177.701C23.5624 176.15 23.6098 174.592 23.6233 173.035C23.6233 172.806 23.6707 172.576 23.7045 172.354C23.7248 172.192 23.806 172.03 23.7925 171.868C23.7248 170.904 23.8737 169.954 24.0158 169.01C24.1444 168.12 24.097 167.216 24.2324 166.346C24.4218 165.166 24.3609 163.98 24.5436 162.806C24.6451 162.159 24.5639 161.485 24.5978 160.824C24.6113 160.433 24.6857 160.042 24.7263 159.651C24.7466 159.422 24.7805 159.192 24.7805 158.963C24.7872 158.201 24.7805 157.439 24.794 156.677C24.794 156.421 24.8549 156.158 24.8887 155.895C24.9158 155.7 25.0038 155.491 24.9564 155.315C24.7805 154.655 24.9902 154.014 24.9835 153.36C24.9835 152.666 24.9835 151.964 24.9835 151.27C24.9835 150.575 24.9835 149.942 24.9835 149.281C24.9902 148.62 25.0105 147.959 25.0308 147.298C25.0715 145.984 25.1121 144.662 25.1527 143.347C25.1527 143.212 25.173 143.071 25.1324 142.949C24.909 142.302 25.0376 141.635 25.0241 140.981C25.0241 140.691 25.0715 140.394 25.0985 140.097C25.1121 139.969 25.1527 139.834 25.1391 139.706C24.9023 137.299 25.0105 134.885 24.9767 132.478C24.9767 132.08 24.909 131.696 24.8684 131.305C24.8684 131.238 24.8278 131.17 24.8414 131.11C25.0444 130.186 24.7805 129.282 24.7872 128.365C24.794 127.469 24.8008 126.578 24.7872 125.682C24.7805 125.257 24.706 124.825 24.6857 124.401C24.6519 123.841 24.6113 123.281 24.6045 122.715C24.591 121.852 24.591 120.989 24.591 120.133C24.591 119.701 24.6113 119.276 24.4624 118.858C24.4083 118.71 24.4015 118.528 24.4083 118.366C24.5098 116.478 24.1241 114.604 24.1985 112.716C24.2121 112.291 24.1038 111.866 24.0835 111.435C23.9887 109.614 23.9143 107.8 23.806 105.98C23.7181 104.497 23.603 103.013 23.5015 101.537C23.488 101.368 23.488 101.206 23.4812 101.038C23.3865 99.1834 23.3053 97.3359 23.197 95.4817C23.0955 93.8028 22.9399 92.1239 22.8654 90.4382C22.8181 89.4471 22.8654 88.4492 22.8993 87.458C22.9196 86.7298 22.994 86.0084 23.0346 85.2802C23.1835 82.8393 23.2715 80.3918 23.4948 77.9577C23.6233 76.6024 23.5827 75.2472 23.6842 73.8919C23.8399 71.8826 23.9278 69.8599 24.0023 67.8438C24.0902 65.5985 24.1376 63.3465 24.2121 61.0945C24.2865 58.8762 24.3812 56.6579 24.4624 54.4396C24.5098 53.118 24.5436 51.7965 24.591 50.4749C24.6451 48.9174 24.7196 47.3666 24.7602 45.8091C24.7872 44.6493 24.7737 43.4896 24.7805 42.3299C24.794 40.7723 24.7534 39.2148 24.8414 37.6573C25.0376 34.3871 24.9226 31.1102 25.0376 27.8333C25.1053 25.8173 25.1324 23.8012 25.173 21.7852C25.1865 21.2256 25.1662 20.6592 25.173 20.0928C25.2136 18.2723 25.2745 16.4518 25.3015 14.6313C25.3286 12.9457 25.3218 11.2533 25.3354 9.56764C25.3557 7.57858 25.3827 5.59625 25.4098 3.60719C25.4233 2.58232 25.4301 1.55744 25.4504 0.525828C25.4504 0.343779 25.5248 0.168471 25.5654 -0.00683594C25.606 -0.00683594 25.6466 -0.00683594 25.6872 -9.33502e-05L25.7075 0.00664924Z" fill="#F8F8F8"/>
<path fill-rule="evenodd" clip-rule="evenodd" d="M40.8721 0C40.9127 0.18205 40.9872 0.357357 40.9872 0.532664C41.0075 1.55754 41.0142 2.58915 41.0278 3.61403C41.0548 5.60309 41.0819 7.58541 41.1022 9.57447C41.1157 11.2601 41.109 12.9525 41.136 14.6382C41.1631 16.4587 41.224 18.2792 41.2646 20.0997C41.2781 20.666 41.2578 21.2257 41.2646 21.792C41.3052 23.8081 41.3323 25.8241 41.3999 27.8401C41.515 31.117 41.3999 34.3872 41.5962 37.6641C41.6909 39.2149 41.6436 40.7792 41.6571 42.3367C41.6639 43.4964 41.6503 44.6562 41.6774 45.8159C41.718 47.3734 41.7924 48.9242 41.8466 50.4818C41.8939 51.8033 41.9278 53.1248 41.9751 54.4464C42.0563 56.6647 42.1511 58.883 42.2255 61.1013C42.2999 63.3534 42.3473 65.6054 42.4353 67.8507C42.5165 69.8667 42.5977 71.8895 42.7533 73.8988C42.8548 75.254 42.821 76.6093 42.9428 77.9645C43.1661 80.3986 43.2541 82.8462 43.4029 85.287C43.4436 86.0152 43.5112 86.7366 43.5383 87.4648C43.5721 88.456 43.6195 89.4539 43.5721 90.4451C43.4977 92.124 43.3353 93.8029 43.2405 95.4885C43.1323 97.3427 43.0511 99.1902 42.9563 101.044C42.9496 101.213 42.9496 101.375 42.936 101.543C42.8345 103.027 42.7195 104.503 42.6315 105.987C42.53 107.807 42.4488 109.621 42.3541 111.441C42.3338 111.873 42.2255 112.298 42.239 112.723C42.3135 114.61 41.9278 116.485 42.0293 118.373C42.036 118.535 42.0293 118.717 41.9751 118.865C41.8195 119.283 41.8398 119.708 41.8466 120.139C41.8466 121.002 41.8466 121.866 41.833 122.722C41.8263 123.288 41.7857 123.848 41.7518 124.407C41.7248 124.839 41.6571 125.264 41.6503 125.689C41.6368 126.585 41.6368 127.475 41.6503 128.372C41.6571 129.289 41.3932 130.199 41.5962 131.116C41.6097 131.177 41.5759 131.244 41.5691 131.312C41.5285 131.703 41.4608 132.094 41.4608 132.485C41.427 134.899 41.5353 137.306 41.2984 139.713C41.2849 139.841 41.3255 139.976 41.339 140.104C41.3661 140.401 41.4202 140.691 41.4135 140.988C41.3999 141.642 41.5285 142.309 41.3052 142.956C41.2646 143.078 41.2849 143.219 41.2849 143.354C41.3255 144.669 41.3661 145.99 41.4067 147.305C41.427 147.966 41.4405 148.627 41.4541 149.288C41.4608 149.948 41.4541 150.616 41.4541 151.277C41.4541 151.937 41.4541 152.666 41.4541 153.367C41.4541 154.014 41.6639 154.661 41.4811 155.322C41.4338 155.498 41.5217 155.707 41.5488 155.902C41.5826 156.165 41.6368 156.421 41.6436 156.684C41.6571 157.446 41.6436 158.208 41.6571 158.97C41.6571 159.199 41.6842 159.428 41.7112 159.658C41.7518 160.049 41.8195 160.44 41.8398 160.831C41.8669 161.492 41.7924 162.173 41.8939 162.813C42.0766 163.986 42.0157 165.18 42.2052 166.353C42.3405 167.223 42.2932 168.126 42.4217 169.016C42.5571 169.96 42.7127 170.904 42.6451 171.875C42.6383 172.037 42.7127 172.199 42.733 172.361C42.7669 172.59 42.8142 172.819 42.8142 173.042C42.8278 174.599 42.8684 176.157 42.7195 177.708C42.6451 178.429 42.6315 179.157 42.5774 179.885C42.5435 180.31 42.4826 180.735 42.442 181.16C42.4217 181.355 42.4285 181.558 42.4014 181.753C42.2864 182.603 42.1781 183.452 42.036 184.295C41.9413 184.848 41.9075 185.414 41.806 185.954C41.4202 187.983 41.0075 189.999 40.6556 192.036C40.3578 193.782 40.0127 195.515 39.7082 197.261C39.5864 197.942 39.5323 198.637 39.4105 199.311C39.2616 200.16 39.0721 200.997 39.106 201.866C39.106 202.028 39.0721 202.19 39.0518 202.359C39.0045 202.783 38.9435 203.208 38.9165 203.633C38.8894 204.031 38.93 204.435 38.8691 204.826C38.727 205.716 38.6999 206.606 38.7135 207.503C38.7135 207.699 38.727 207.908 38.6864 208.096C38.6661 208.191 38.524 208.319 38.4428 208.319C38.3481 208.319 38.206 208.204 38.1721 208.11C38.1248 207.962 38.1112 207.773 38.1586 207.624C38.3278 207.112 38.3075 206.579 38.3142 206.047C38.3142 205.851 38.3142 205.649 38.3345 205.453C38.4428 204.145 38.5714 202.837 38.6593 201.522C38.7067 200.801 38.6796 200.066 38.7135 199.338C38.7676 198.124 38.8826 196.904 38.9503 195.69C39.0248 194.335 39.0992 192.986 39.106 191.638C39.106 190.181 39.106 188.725 39.1127 187.269C39.1127 187.006 39.1466 186.743 39.1736 186.48C39.1872 186.318 39.2345 186.156 39.2278 185.994C39.2007 185.037 39.1601 184.079 39.133 183.122C39.1263 182.859 39.133 182.589 39.133 182.326C39.1533 181.733 39.2278 181.14 39.2007 180.553C39.1736 179.852 39.1669 179.164 39.2616 178.476C39.2819 178.314 39.2751 178.146 39.2616 177.984C39.1533 175.934 39.0857 173.885 39.0924 171.835C39.0924 170.911 39.1939 169.974 38.93 169.07C38.9029 168.976 38.9097 168.868 38.9097 168.774C38.9029 168.248 38.8826 167.722 38.9029 167.189C38.9639 165.301 38.815 163.427 38.8014 161.546C38.7879 160.123 38.7338 158.707 38.6932 157.284C38.6932 157.251 38.6932 157.217 38.6932 157.183C38.524 155.538 38.4969 153.886 38.4969 152.227C38.4969 151.661 38.4834 151.101 38.4563 150.542C38.409 149.618 38.3278 148.694 38.3075 147.771C38.2804 146.611 38.3075 145.458 38.3007 144.298C38.3007 143.968 38.3481 143.617 38.2601 143.307C38.0909 142.72 38.118 142.134 38.1112 141.54C38.0842 139.949 38.0842 138.358 38.0503 136.767C38.0165 135.283 37.9353 133.8 37.915 132.323C37.8879 130.631 37.915 128.945 37.915 127.253C37.915 125.56 37.8947 123.936 37.915 122.277C37.942 120.598 37.8067 118.912 38.0571 117.24C37.8947 116.148 38.0977 115.062 38.0639 113.97C38.0368 113.013 38.0706 112.048 38.1451 111.091C38.2601 109.641 38.3278 108.192 38.3007 106.728C38.2804 105.468 38.4022 104.213 38.5714 102.966C38.8082 101.267 39.0654 99.5678 39.3766 97.8754C39.6608 96.3448 39.6811 94.7873 39.8774 93.25C39.8977 93.1219 39.8977 92.9803 39.8774 92.8522C39.7826 91.9015 39.6879 90.9508 39.5729 90C39.4781 89.2449 39.3699 88.5032 39.4578 87.7278C39.5323 87.0468 39.4578 86.3388 39.4308 85.6443C39.3699 83.9587 39.2819 82.273 39.2481 80.5807C39.2345 79.8525 39.3834 79.1377 39.6067 78.4433C39.7285 78.0724 39.8503 77.6679 39.8165 77.2903C39.742 76.2384 39.5932 75.1933 39.4646 74.1482C39.2345 72.2468 38.9639 70.3454 38.8691 68.4305C38.7811 66.6505 38.6052 64.8772 38.4766 63.0971C38.4496 62.7667 38.4563 62.4364 38.4293 62.106C38.321 60.6293 38.1857 59.1527 38.1045 57.6693C38.0368 56.3478 38.0706 55.0263 37.9759 53.7047C37.8202 51.4931 37.915 49.2748 37.7661 47.0633C37.6375 45.1888 37.7458 43.2942 37.7593 41.4062C37.7593 40.6443 37.7796 39.8824 37.7796 39.1205C37.7796 37.9001 37.7796 36.6729 37.7796 35.4525C37.7796 35.3851 37.7932 35.3177 37.7999 35.257C37.9962 33.6792 37.8676 32.0812 37.9826 30.4967C38.03 29.809 37.9826 29.1145 38.0232 28.42C38.1654 26.1073 38.3142 23.7946 38.4766 21.4886C38.6729 18.7511 38.8894 16.0136 39.106 13.2762C39.1466 12.7839 39.2345 12.2917 39.2819 11.7995C39.4984 9.69584 39.6811 7.58541 39.918 5.48172C40.0872 4.0051 40.3105 2.53521 40.5202 1.06533C40.5676 0.707972 40.6556 0.3641 40.73 0.0134852C40.7909 0 40.8315 0 40.8721 0Z" fill="#F8F8F8"/>
<path fill-rule="evenodd" clip-rule="evenodd" d="M38.1789 2.59582C37.4142 3.23637 36.609 3.51281 35.8172 3.80274C34.8157 4.16684 33.7263 4.35564 32.6638 4.37586C31.0736 4.40283 29.5578 4.08593 28.4075 3.05432C28.1638 2.83855 28.0826 2.6093 28.2518 2.27892C28.5834 2.04293 29.03 1.9283 29.524 1.9283C30.7623 1.9283 32.0142 1.88111 33.2458 1.9755C34.836 2.10361 36.3992 2.35983 38.1857 2.58908L38.1789 2.59582Z" fill="#F8F8F8"/>
<path fill-rule="evenodd" clip-rule="evenodd" d="M37.8069 79.4411C37.4347 80.3581 36.8257 81.0121 35.8986 81.2886C35.3031 81.4639 34.7279 81.5718 34.0715 81.3762C33.2595 81.1335 32.4678 80.8368 31.6625 80.5739C31.1009 80.3851 30.5257 80.1963 29.9505 80.0951C29.3009 79.9805 28.6377 79.9401 28.0084 80.2435C27.9813 80.257 27.9339 80.2637 27.9204 80.2502C27.8257 80.1828 27.6836 80.1154 27.67 80.0277C27.6497 79.9401 27.7445 79.7378 27.8121 79.7243C28.3941 79.6164 28.9828 79.5287 29.5715 79.4546C30.2821 79.3669 31.0129 79.3737 31.7031 79.1849C32.3595 78.9961 33.0091 79.0635 33.6588 79.0096C34.2813 78.9556 34.9106 78.9489 35.5332 78.9759C36.2437 79.0028 36.9678 78.9759 37.6445 79.2928C37.6986 79.3197 37.7324 79.3804 37.8069 79.4546V79.4411Z" fill="#F8F8F8"/>
</g>
<defs>
<clipPath id="clip0_26_2414">
<rect width="135" height="209" fill="white"/>
</clipPath>
</defs>
</svg>
