<svg width="215" height="505" viewBox="0 0 215 505" fill="none" xmlns="http://www.w3.org/2000/svg">
<g clip-path="url(#clip0_26_2335)">
<path fill-rule="evenodd" clip-rule="evenodd" d="M137.62 15.9029C135.931 16.4101 134.275 16.9337 132.618 17.3918C130.912 17.8663 129.174 18.128 127.419 18.0626C125.746 17.9972 124.057 17.9644 122.433 17.6372C120.727 17.2936 119.038 16.7374 117.431 16.0502C115.84 15.3794 114.216 14.6759 112.789 13.2034C113.855 12.6798 114.757 12.369 115.741 12.369C119.235 12.3526 122.728 12.2217 126.238 12.7453C129.075 13.1706 131.995 13.2688 134.865 13.2361C136.423 13.2034 137.981 12.5816 139.539 12.2217C139.9 12.1399 140.244 12.0417 140.556 11.9599C141.163 12.6144 141.114 13.2361 140.638 13.7433C140.179 14.2505 139.605 14.6431 139.064 15.1013C139.244 16.0011 139.342 16.8028 139.572 17.5554C140.474 20.4677 141.097 23.429 141.524 26.4558C142.049 30.1861 142.541 33.9165 142.836 37.6795C143.475 46.269 143.213 54.8586 143.18 63.4645C143.18 65.6242 143.246 67.8002 143.18 69.9762C143.147 71.4978 142.918 73.003 142.852 74.5246C142.787 75.8825 142.754 77.2569 142.77 78.6148C142.819 82.0016 142.344 85.3392 141.95 88.6769C141.671 91.0656 141.54 93.4706 141.343 95.8757C141.065 99.3933 140.999 102.927 140.507 106.429C140.474 106.658 140.441 106.903 140.425 107.148C140.261 111.795 140.048 116.442 139.916 121.104C139.818 124.72 139.818 128.336 139.736 131.952C139.703 133.719 139.523 135.469 139.474 137.236C139.474 138.022 139.654 138.807 139.72 139.609C139.769 140.083 139.802 140.558 139.752 141.032C139.556 143.094 139.129 145.172 139.818 147.233C139.851 147.298 139.851 147.397 139.818 147.478C139.26 149.229 139.9 150.963 139.867 152.698C139.867 154.383 139.916 156.068 139.867 157.77C139.769 159.929 139.916 162.089 139.982 164.232C140.031 165.934 140.162 167.684 140.326 169.402C140.491 171.153 140.179 172.985 140.474 174.703C140.966 177.501 140.737 180.299 140.835 183.096C140.851 183.735 140.983 184.356 141.065 184.994C141.147 185.632 141.245 186.254 141.294 186.892C141.442 189.199 140.999 191.555 141.671 193.829C141.376 195.58 141.688 197.363 141.868 199.065C142.114 201.535 142.016 204.055 142.36 206.476C142.672 208.734 142.672 210.943 142.737 213.201C142.754 213.839 142.787 214.477 142.869 215.115C143.082 217.029 143.033 218.976 143.279 220.858C143.656 223.655 143.443 226.47 143.754 229.251C144 231.492 143.951 233.734 144.214 235.943C144.574 238.953 144.427 241.996 144.755 244.99C145.05 247.641 144.87 250.308 145.165 252.925C145.591 256.607 145.263 260.321 145.673 263.969C146.182 268.468 145.903 272.951 146.067 277.434C146.067 277.909 146.067 278.416 146.231 278.858C146.493 279.578 146.46 280.232 146.28 280.968C145.919 282.392 146.1 283.848 146.28 285.271C146.378 285.975 146.444 286.695 146.526 287.414C146.723 289.312 146.182 291.21 146.444 293.141C146.674 294.957 146.526 296.838 146.526 298.687C146.526 300.618 146.477 302.548 146.428 304.463C146.411 305.346 146.296 306.23 146.214 307.097C146.198 307.342 146.083 307.571 146.116 307.8C146.526 310.762 145.804 313.707 146.034 316.684C146.083 317.224 145.936 317.797 145.87 318.353C145.821 318.746 145.591 319.171 145.69 319.531C146.264 321.854 145.329 324.112 145.558 326.419C145.673 327.597 145.673 328.824 145.214 329.986C145.05 330.411 145.116 330.935 145.116 331.426C145.083 332.538 145.247 333.683 144.722 334.731C144.656 334.861 144.656 335.041 144.656 335.205C144.788 337.627 144.443 340.015 144.164 342.388C144.066 343.173 143.951 343.958 143.869 344.76C143.804 345.48 143.738 346.2 143.705 346.92C143.672 347.885 143.804 348.85 143.344 349.75C143.279 349.881 143.262 350.061 143.262 350.208C143.098 352.204 143.131 354.233 142.705 356.164C142.147 358.683 142.557 361.301 141.934 363.788C141.803 364.328 141.852 364.9 141.835 365.473C141.835 365.882 141.885 366.291 141.835 366.684C141.458 369.301 141.294 371.936 141.376 374.602C140.507 377.727 141.327 381.016 140.589 384.157C140.983 385.679 140.376 387.168 140.458 388.689C140.54 390.211 140.458 391.749 140.441 393.27C140.441 394.808 140.474 396.33 140.441 397.852C140.425 398.735 140.261 399.586 140.162 400.469C140.13 400.78 140.048 401.107 140.048 401.418C140.015 405.018 139.982 408.633 139.982 412.249C139.982 423.342 140.048 434.451 139.949 445.544C139.9 450.583 139.982 455.639 139.572 460.678C139.359 463.23 139.539 465.832 139.506 468.4C139.474 469.922 139.31 471.443 139.26 472.965C139.162 475.288 139.096 477.628 139.047 479.951C139.014 481.8 139.146 483.649 138.621 485.465C138.49 485.907 138.555 486.414 138.555 486.905C138.555 488.508 138.555 490.111 138.178 491.698C137.965 492.615 138.096 493.613 138.014 494.578C137.981 495.02 137.834 495.445 137.735 495.854C136.997 495.805 136.866 495.265 136.702 494.872C135.865 492.811 135.078 490.717 134.275 488.639C133.208 485.89 132.569 482.994 132.044 480.115C131.568 477.464 130.929 474.83 130.847 472.082C130.765 469.775 130.322 467.484 130.06 465.177C129.961 464.376 129.961 463.574 129.961 462.772C129.945 461.332 129.978 459.876 129.945 458.436C129.928 457.635 129.781 456.849 129.699 456.064C129.649 455.59 129.535 455.099 129.584 454.641C130.01 450.567 129.928 446.46 129.961 442.37C129.978 441.012 130.125 439.654 130.207 438.296C130.289 436.938 130.322 435.564 130.437 434.222C130.552 432.782 130.781 431.375 130.88 429.936C130.978 428.496 130.929 427.072 131.257 425.649C131.601 424.193 131.421 422.639 131.667 421.117C132.044 418.679 132.11 416.176 132.306 413.705C132.454 411.955 132.684 410.204 132.897 408.47C133.208 405.934 133.34 403.365 133.766 400.846C134.439 396.772 134.127 392.681 134.176 388.591C134.193 386.742 134.455 384.926 134.537 383.094C134.701 379.576 134.635 376.026 134.701 372.492C134.734 370.087 134.881 367.665 134.849 365.26C134.799 362.463 135.341 359.698 135.193 356.883C135.062 354.069 135.16 351.255 135.16 348.441C135.16 346.363 134.98 344.253 135.209 342.191C135.587 338.755 135.455 335.32 135.587 331.867C135.718 328.497 135.636 325.127 135.636 321.74C135.636 318.288 135.636 314.819 135.636 311.367C135.636 303.645 135.669 295.922 135.636 288.2C135.603 282.506 135.587 276.812 135.636 271.103C135.652 268.223 135.505 265.343 135.455 262.48C135.439 261.597 135.505 260.713 135.537 259.846C135.636 257.752 135.701 255.674 135.357 253.596C135.226 252.827 135.39 252.009 135.406 251.207C135.406 250.651 135.406 250.095 135.406 249.555C135.357 248.361 135.111 247.134 135.259 245.972C135.423 244.663 135.39 243.42 135.209 242.143C135.095 241.358 135.177 240.54 135.177 239.738C135.177 236.45 135.177 233.161 135.177 229.856C135.177 229.398 135.095 228.94 135.029 228.302C134.635 228.449 134.34 228.498 134.111 228.646C133.865 228.809 133.635 229.055 133.438 229.3C131.552 231.705 129.108 231.836 126.419 231.411C124.122 231.034 122.039 230.118 120.055 228.907C118.218 227.778 116.398 226.6 114.577 225.439C114.331 225.275 114.069 225.063 113.921 224.801C113.823 224.637 113.823 224.31 113.905 224.13C113.987 223.95 114.216 223.803 114.397 223.705C114.528 223.639 114.725 223.606 114.839 223.672C116.332 224.392 117.988 224.081 119.547 224.408C121.105 224.735 122.728 224.915 124.286 224.294C124.5 224.212 124.746 224.163 124.959 224.179C127.403 224.375 129.797 223.672 132.224 223.639C133.176 223.639 134.029 223.361 134.931 222.772C135.127 221.365 135.209 219.876 135.062 218.355C134.98 217.406 134.98 216.44 134.996 215.491C135.029 214.133 135.242 212.775 134.849 211.417C134.75 211.123 134.783 210.779 134.799 210.452C135.045 205.397 134.685 200.341 134.717 195.285C134.75 189.166 134.635 183.064 134.619 176.945C134.619 171.398 134.685 165.868 134.685 160.322C134.685 157.671 134.586 155.021 134.586 152.37C134.586 148.918 134.652 145.482 134.635 142.03C134.635 139.053 134.504 136.091 134.521 133.13C134.553 127.665 134.652 122.201 134.685 116.736C134.717 111.517 134.717 106.281 134.767 101.062C134.799 98.4117 134.914 95.7612 134.996 93.1107C135.062 90.4602 135.177 87.8097 135.177 85.1592C135.177 81.4616 135.308 77.764 135.57 74.0828C135.751 71.5959 135.636 69.0927 135.701 66.6058C135.751 64.5116 135.865 62.4338 135.931 60.3395C136.095 56.1675 136.243 51.979 136.39 47.807C136.505 44.3548 136.571 40.9026 136.751 37.4504C136.997 32.6403 137.309 27.8301 137.588 23.02C137.702 20.9421 137.85 18.8479 137.948 16.7701C137.948 16.5574 137.817 16.3447 137.702 15.9847L137.62 15.9029Z" fill="black"/>
<path fill-rule="evenodd" clip-rule="evenodd" d="M102.834 490.635C102.785 490.013 102.719 489.408 102.703 488.803C102.703 482.373 102.686 475.926 102.703 469.497C102.703 466.764 102.457 464.048 102.67 461.316C102.703 460.858 102.555 460.367 102.489 459.893C102.407 459.173 102.276 458.453 102.26 457.749C102.227 453.643 102.243 449.552 102.194 445.462C102.178 444.022 102.014 442.583 101.932 441.143C101.915 440.668 101.932 440.178 101.948 439.703C101.965 439.31 102.079 438.885 102.014 438.509C101.489 434.909 101.85 431.294 101.719 427.694C101.62 425.453 101.456 423.228 101.325 420.986C101.276 420.103 101.259 419.219 101.243 418.336C101.161 414.638 101.21 410.94 100.981 407.243C100.817 404.674 100.784 402.122 100.767 399.537C100.767 396.592 100.702 393.647 100.308 390.702C100.193 389.835 100.292 388.935 100.275 388.051C100.243 384.681 100.505 381.261 100.128 377.94C99.5701 373.13 100.013 368.303 99.6357 363.51C99.2913 359.043 99.4553 354.544 99.7177 350.061C99.8325 348.13 99.7833 346.2 99.7997 344.269C99.8161 342.109 99.8653 339.95 100.062 337.79C100.308 335.238 100.226 332.653 100.259 330.084C100.292 327.679 100.308 325.258 100.325 322.853C100.325 322.607 100.292 322.362 100.325 322.133C101.145 316.537 100.587 310.893 100.767 305.281C100.817 304.152 100.931 303.039 101.013 301.927C101.079 301.125 101.194 300.34 101.21 299.538C101.243 297.918 101.21 296.331 101.21 294.712C101.21 293.354 101.341 291.996 101.505 290.638C101.751 288.576 101.653 286.466 101.653 284.371C101.669 280.919 101.669 277.467 101.702 273.998C101.702 273.524 101.801 273.049 101.866 272.575C101.965 271.708 102.145 270.841 102.161 269.957C102.26 265.131 102.194 260.304 102.44 255.494C102.604 252.124 102.621 248.753 102.686 245.383C102.703 244.107 102.899 242.831 102.982 241.554C103.031 240.589 103.014 239.624 103.031 238.675C103.146 233.947 103.26 229.202 103.375 224.474C103.506 219.5 103.621 214.526 103.769 209.552C103.818 207.785 103.949 206.018 104.048 204.268C104.08 203.63 104.13 202.975 104.097 202.337C103.916 198.639 104.277 194.958 104.359 191.277C104.474 185.894 104.736 180.528 104.9 175.145C105.064 169.68 105.163 164.216 105.343 158.751C105.507 153.368 105.77 147.986 105.934 142.619C106.065 138.676 106.098 134.75 106.229 130.807C106.557 121.334 106.918 111.86 107.246 102.387C107.328 99.9823 107.426 97.5773 107.41 95.1722C107.393 92.2108 107.229 89.2495 107.164 86.2882C107.115 84.1121 107.115 81.9525 107.082 79.7765C107.049 77.535 106.934 75.2772 107.033 73.0357C107.279 67.4893 106.869 61.9593 106.983 56.4129C107.082 52.4699 107.082 48.5432 107.082 44.6002C107.082 41.7207 107 38.8411 107.049 35.9452C107.147 30.317 107.328 24.7052 107.459 19.077C107.492 17.1464 107.459 15.2158 107.541 13.2852C107.557 12.6635 107.689 12.009 107.918 11.4364C108.886 9.12946 109.509 6.75711 109.378 4.20479C109.361 3.74668 109.542 3.28857 109.64 2.83046C109.64 2.79774 109.771 2.78138 109.886 2.74866C110.411 2.97771 110.264 3.50127 110.264 3.91029C110.264 7.21522 110.264 10.5038 110.264 13.8087C110.28 18.3898 110.575 22.9545 111.067 27.5029C111.461 31.1678 111.772 34.8327 112.182 38.4975C112.543 41.7697 113.002 45.0092 113.429 48.2814C113.495 48.7559 113.577 49.2304 113.593 49.7212C113.626 52.6989 114.167 55.6112 114.38 58.5562C114.725 63.1209 115.2 67.6856 115.364 72.2504C115.561 77.944 115.528 83.654 115.561 89.3477C115.577 94.5014 115.561 99.6388 115.528 104.792C115.512 108.245 115.594 111.697 115.348 115.133C115.118 118.503 115.331 121.906 115.02 125.244C114.511 130.61 114.593 135.993 114.2 141.359C113.872 145.761 113.855 150.178 113.626 154.579C113.396 158.751 113.052 162.907 112.773 167.063C112.691 168.257 112.658 169.468 112.592 170.678C112.461 173.002 112.346 175.309 112.199 177.615C112.15 178.417 112.035 179.203 111.969 180.004C111.887 180.97 111.772 181.918 111.74 182.884C111.707 184.242 111.576 185.6 111.412 186.958C111.166 188.937 111.28 190.966 111.198 192.979C111.166 193.846 111.034 194.729 110.952 195.596C110.903 196.071 110.788 196.545 110.788 197.036C110.624 201.519 110.46 206.002 110.296 210.485C110.28 211.123 110.182 211.761 110.1 212.399C110.067 212.71 109.919 213.037 109.936 213.348C110.018 216.555 109.771 219.745 109.624 222.952C109.493 225.684 109.575 228.417 109.312 231.132C109.05 233.832 109.099 236.532 109.017 239.248C108.935 242.062 108.919 244.859 108.886 247.674C108.853 250.406 108.886 253.138 108.804 255.87C108.722 258.668 108.509 261.466 108.443 264.28C108.41 265.622 108.246 266.996 108.804 268.321C109.001 268.779 108.82 269.417 108.787 269.99C108.705 271.413 108.525 272.837 108.837 274.277C108.968 274.898 108.902 275.553 108.902 276.207C108.919 279.594 108.919 282.964 108.935 286.335C108.935 287.365 109.017 288.38 109.23 289.427C109.509 290.736 109.345 292.143 109.361 293.501C109.394 295.988 109.197 298.491 109.509 300.945C109.689 302.434 109.263 303.874 109.673 305.395C110.05 306.819 109.821 308.422 109.837 309.96C109.837 311.482 109.837 313.02 109.837 314.541C109.837 316.063 109.771 317.601 109.854 319.122C109.936 320.807 110.034 322.476 109.854 324.145C109.854 324.309 109.821 324.489 109.854 324.62C110.575 326.894 109.952 329.217 110.116 331.508C110.28 333.749 110.296 335.99 110.264 338.232C110.231 340.392 110.198 342.535 110.264 344.711C110.378 349.374 110.296 354.037 110.296 358.7C110.296 359.174 110.313 359.665 110.264 360.139C109.771 363.968 109.886 367.829 109.854 371.674C109.821 376.091 109.854 380.525 109.854 384.943C109.854 386.628 110.001 388.329 109.476 389.966C109.361 390.325 109.427 390.767 109.427 391.16C109.411 395.741 109.427 400.322 109.378 404.903C109.378 405.852 109.181 406.801 109.083 407.75C109.017 408.306 109.05 408.879 108.919 409.419C108.656 410.531 109.558 411.48 109.099 412.707C108.722 413.689 108.935 414.932 108.919 416.045C108.919 417.174 108.968 418.303 108.919 419.432C108.853 420.544 108.673 421.657 108.574 422.769C108.509 423.407 108.476 424.046 108.459 424.684C108.459 426.205 108.459 427.743 108.459 429.265C108.427 430.786 108.574 432.324 108.099 433.813C108.017 434.042 108.033 434.288 108.033 434.533C107.869 439.098 107.689 443.662 107.525 448.244C107.475 449.438 107.557 450.632 107.164 451.81C106.951 452.465 107.065 453.234 107.065 453.97C107.033 456.293 107.131 458.616 106.672 460.94C106.475 461.938 106.606 463.018 106.573 464.065C106.541 465.177 106.606 466.29 106.229 467.402C105.999 468.04 106.13 468.826 106.114 469.546C106.016 471.705 106.327 473.865 105.72 476.008C105.54 476.663 105.753 477.448 105.737 478.152C105.655 481.849 104.851 485.432 104.048 488.999C103.916 489.588 103.588 490.144 103.359 490.717C103.195 490.7 103.047 490.668 102.883 490.651L102.834 490.635Z" fill="black"/>
<path fill-rule="evenodd" clip-rule="evenodd" d="M204.782 491.093C204.716 490.831 204.618 490.602 204.618 490.373C204.552 484.107 203.831 477.857 204.044 471.591C204.044 471.116 204.093 470.609 203.978 470.151C203.585 468.498 203.618 466.813 203.601 465.128C203.585 462.805 203.601 460.482 203.208 458.158C202.912 456.44 203.093 454.641 203.076 452.874C203.076 452.399 203.175 451.892 203.076 451.434C202.453 448.505 202.683 445.511 202.568 442.55C202.568 442.157 202.502 441.748 202.453 441.356C202.355 440.243 202.191 439.13 202.158 438.018C202.092 436.005 202.207 434.009 201.731 432.03C201.551 431.277 201.666 430.426 201.666 429.625C201.666 428.43 201.715 427.22 201.321 426.042C201.157 425.534 201.19 424.929 201.19 424.373C201.157 422.279 201.174 420.217 200.78 418.139C200.485 416.503 200.436 414.785 200.387 413.116C200.288 409.73 199.796 406.408 199.747 403.038C199.731 401.598 199.599 400.175 199.386 398.751C199.042 396.297 198.976 393.81 198.796 391.323C198.697 389.982 198.599 388.64 198.5 387.282C198.287 384.174 198.074 381.049 197.828 377.94C197.73 376.746 197.615 375.535 197.352 374.39C196.664 371.412 196.532 368.369 196.106 365.358C195.745 362.823 195.696 360.254 195.499 357.702C195.417 356.507 195.499 355.296 195.155 354.118C194.974 353.529 195.056 352.842 195.04 352.204C194.974 350.192 194.794 348.179 194.876 346.183C194.991 342.895 194.482 339.639 194.548 336.35C194.63 333.144 194.548 329.92 194.564 326.697C194.564 326.223 194.548 325.716 194.646 325.258C195.187 322.787 194.958 320.3 195.04 317.813C195.122 315.506 195.073 313.199 195.434 310.893C195.663 309.486 195.483 307.997 195.499 306.557C195.499 305.444 195.548 304.332 195.778 303.219C196.024 302.058 195.909 300.831 195.975 299.62C196.057 297.787 195.844 295.939 196.385 294.122C196.532 293.599 196.418 293.01 196.434 292.437C196.467 291.161 196.336 289.852 196.811 288.625C196.893 288.412 196.91 288.151 196.893 287.905C196.68 284.928 197.139 281.966 197.467 279.038C197.779 276.256 197.549 273.426 198.205 270.677C197.877 269.319 198.386 267.994 198.353 266.636C198.304 265.114 198.238 263.593 198.747 262.104C198.911 261.597 198.796 260.991 198.812 260.419C198.894 258.275 198.779 256.116 199.206 253.972C199.386 253.122 199.239 252.205 199.288 251.338C199.485 247.248 199.731 243.158 199.878 239.068C200.059 233.767 200.173 228.466 200.305 223.165C200.37 220.367 200.403 217.553 200.419 214.739C200.436 213.381 200.387 212.023 200.419 210.665C200.534 205.609 200.649 200.57 200.797 195.514C200.862 193.437 201.092 191.342 201.174 189.265C201.403 184.062 201.584 178.843 201.813 173.64C201.945 170.433 202.158 167.226 202.256 164.019C202.437 158.08 202.535 152.141 202.732 146.202C202.798 143.797 202.994 141.392 203.126 138.987C203.142 138.578 203.158 138.185 203.175 137.776C203.355 131.428 203.536 125.08 203.7 118.732C203.765 116 203.667 113.251 203.864 110.535C204.06 107.885 204.142 105.234 204.159 102.584C204.159 101.946 204.11 101.291 204.224 100.653C204.749 97.7082 204.536 94.7304 204.618 91.7527C204.716 88.3824 204.897 85.0283 205.028 81.658C205.044 81.2489 205.077 80.8563 205.061 80.4473C205.012 76.0134 205.307 71.6123 205.586 67.1948C205.848 62.8755 205.93 58.5398 206.111 54.2041C206.307 49.8848 206.553 45.5655 206.767 41.2298C206.898 38.4321 206.98 35.618 207.144 32.8203C207.308 30.1043 207.537 27.372 207.734 24.6561C207.783 24.0998 207.816 23.5272 207.849 22.9709C208.046 20.0914 208.226 17.2118 208.423 14.3323C208.718 10.3238 209.03 6.33173 209.358 2.33963C209.374 2.1433 209.538 1.96333 209.637 1.78336C210.26 1.88152 210.145 2.33963 210.162 2.69957C210.194 5.82453 209.866 8.94949 210.194 12.0745C210.391 14.0214 210.752 15.8866 211.408 17.6863C211.884 18.9788 212.097 20.2877 212.048 21.6784C211.867 27.143 212.179 32.5912 212.72 38.0231C212.966 40.4118 213.343 42.8005 213.573 45.1892C213.983 49.2631 214.344 53.337 214.672 57.4109C214.787 58.8507 215.147 60.2414 215.016 61.7139C214.819 63.7754 214.869 65.8696 214.819 67.9474C214.737 71.8904 214.705 75.8171 214.606 79.7601C214.459 85.8628 214.278 91.9654 214.081 98.0681C213.885 104.089 213.655 110.093 213.409 116.098C213.278 119.468 213.065 122.839 212.933 126.209C212.802 129.727 212.72 133.261 212.589 136.778C212.556 137.727 212.376 138.676 212.31 139.642C212.212 141.245 212.162 142.848 212.097 144.452C211.966 147.249 211.818 150.063 211.687 152.861C211.687 153.025 211.654 153.188 211.638 153.336C211.49 156.542 211.375 159.749 211.211 162.94C211.096 165.345 210.949 167.75 210.818 170.155C210.621 173.754 210.654 177.386 210.194 180.937C209.85 183.587 209.965 186.205 209.768 188.839C209.473 192.668 209.243 196.496 209.309 200.341C208.603 203.09 208.899 205.92 208.833 208.718C208.833 209.192 208.669 209.65 208.571 210.125C208.505 210.436 208.325 210.796 208.407 211.057C208.8 212.415 208.341 213.741 208.357 215.082C208.374 216.358 208.357 217.618 208.046 218.894C207.8 219.958 207.931 221.12 207.898 222.248C207.849 224.097 207.8 225.93 207.603 227.778C207.373 229.971 207.39 232.212 207.324 234.454C207.291 235.812 207.127 237.153 207.029 238.511C206.98 239.231 206.947 239.951 206.947 240.671C206.931 242.683 207.16 244.729 206.865 246.692C206.406 249.735 206.537 252.762 206.471 255.805C206.471 256.132 206.521 256.476 206.422 256.77C205.783 258.488 206.061 260.271 205.996 262.022C205.897 264.918 205.799 267.798 205.7 270.693C205.635 273.017 205.602 275.34 205.504 277.663C205.405 280.068 205.258 282.457 205.143 284.846C205.077 286.302 205.044 287.742 205.044 289.181C205.028 291.439 205.241 293.713 204.979 295.922C204.684 298.393 204.684 300.847 204.7 303.317C204.7 305.804 204.585 308.291 204.569 310.794C204.536 313.772 204.569 316.733 204.536 319.711C204.536 321.085 204.684 322.443 204.241 323.785C204.192 323.932 204.126 324.129 204.175 324.26C204.798 325.83 204.11 327.417 204.175 328.988C204.257 330.591 204.142 332.195 204.126 333.798C204.126 334.043 204.044 334.305 204.126 334.518C204.815 336.71 204.454 338.984 204.552 341.21C204.602 342.404 204.552 343.598 204.864 344.793C205.11 345.774 204.979 346.87 205.028 347.901C205.143 349.979 205.29 352.073 205.389 354.151C205.454 355.427 205.504 356.72 205.487 358.012C205.487 359.927 205.651 361.808 205.881 363.69C205.897 363.853 205.979 364.033 205.93 364.164C205.274 366.373 206.127 368.582 205.996 370.79C205.865 372.95 205.979 375.126 205.979 377.286C205.979 377.367 205.947 377.449 205.979 377.531C206.471 379.036 206.225 380.525 205.979 382.014C205.93 382.325 205.914 382.701 206.029 382.963C206.586 384.272 206.422 385.646 206.422 387.004C206.422 392.387 206.422 397.786 206.422 403.169C206.422 405.639 206.422 408.11 206.455 410.597C206.455 410.989 206.619 411.382 206.668 411.775C206.75 412.56 206.963 413.395 206.849 414.147C206.357 417.419 206.455 420.708 206.439 423.996C206.406 430.835 206.439 437.674 206.439 444.513C206.439 445.56 206.504 446.591 206.127 447.605C205.93 448.096 205.979 448.702 205.979 449.274C205.979 456.424 205.979 463.574 205.947 470.74C205.947 472.016 205.75 473.276 205.668 474.568C205.602 475.616 205.471 476.646 205.52 477.693C205.7 482.045 205.159 486.348 205.012 490.684C205.012 490.799 204.897 490.913 204.782 491.093Z" fill="black"/>
<path fill-rule="evenodd" clip-rule="evenodd" d="M153.956 498.799V496.885C153.956 488.999 153.972 481.113 153.956 473.243C153.956 471.967 154.169 470.675 153.595 469.447C153.48 469.202 153.562 468.809 153.595 468.499C153.644 467.206 153.693 465.93 153.742 464.654C153.824 462.739 153.956 460.842 153.595 458.911C153.3 457.275 153.414 455.541 153.529 453.855C153.726 451.205 153.496 448.554 153.496 445.92C153.496 442.059 153.496 438.198 153.496 434.337C153.496 429.347 153.611 424.356 153.447 419.383C153.382 417.223 153.283 415.096 153.414 412.953C153.447 412.315 153.316 411.677 153.267 411.039C153.185 410.09 153.004 409.124 153.037 408.175C153.234 403.202 152.955 398.228 153.004 393.238C153.054 388.248 153.004 383.257 152.972 378.267C152.972 376.909 152.972 375.551 152.758 374.226C152.512 372.705 152.89 371.232 152.643 369.711C152.397 368.222 152.611 366.667 152.594 365.129C152.594 363.608 152.594 362.07 152.545 360.548C152.512 359.518 152.315 358.487 152.315 357.44C152.315 356.491 152.529 355.526 152.529 354.577C152.529 353.546 152.332 352.515 152.332 351.468C152.332 350.454 152.578 349.423 152.512 348.408C152.381 346.347 151.971 344.285 152.397 342.208C151.709 336.678 152.233 331.131 152.069 325.585C152.004 323.262 151.692 320.906 151.955 318.615C152.168 316.668 151.692 314.819 151.774 312.905C151.856 311.073 151.643 309.224 151.61 307.391C151.577 305.461 151.643 303.53 151.577 301.599C151.495 299.522 151.266 297.46 151.184 295.399C151.102 293.468 151.151 291.537 151.135 289.607C151.135 288.969 151.135 288.314 151.135 287.676C151.069 284.551 151.249 281.41 150.889 278.285C150.643 276.125 150.938 273.966 151.102 271.806C151.348 268.37 151.331 264.902 151.709 261.482C151.889 259.813 151.692 258.161 151.873 256.508C152.037 254.921 152.02 253.302 152.086 251.698C152.151 250.34 152.233 248.966 152.283 247.608C152.414 243.763 152.529 239.902 152.66 236.057C152.873 229.464 153.136 222.887 153.316 216.293C153.414 212.923 153.414 209.552 153.447 206.166C153.513 199.49 153.578 192.815 153.628 186.14C153.628 183.816 153.546 181.477 153.546 179.153C153.546 175.538 153.578 171.922 153.644 168.29C153.726 162.662 153.906 157.033 153.939 151.405C154.005 141.523 153.956 131.625 154.038 121.726C154.054 118.928 154.038 116.114 154.398 113.317C154.628 111.501 154.464 109.619 154.48 107.77C154.48 105.921 154.333 104.056 154.53 102.224C154.858 99.2625 154.858 96.3011 154.808 93.3398C154.776 91.4092 154.907 89.4786 154.989 87.5643C155.087 85.3229 155.251 83.0814 155.366 80.8399C155.563 76.8315 155.694 72.823 155.94 68.8146C156.219 64.2498 156.58 59.6851 156.924 55.1204C157.088 52.8789 157.236 50.6374 157.416 48.396C157.679 45.2874 157.957 42.1788 158.253 39.0702C158.433 37.0741 158.613 35.0781 158.843 33.082C159.286 29.2536 159.762 25.4414 160.204 21.6293C160.565 18.6025 160.877 15.5757 161.287 12.5489C161.598 10.1602 162.025 7.80423 162.435 5.43188C162.5 5.05558 162.664 4.71199 162.878 4.07391C163.025 7.24796 163.009 10.1111 162.828 12.9907C162.615 16.4265 162.714 19.895 162.632 23.3472C162.55 26.963 162.402 30.5624 162.304 34.1782C162.271 35.5362 162.336 36.9105 162.304 38.2685C162.205 45.4183 162.107 52.568 161.992 59.7178C161.894 65.8205 161.762 71.9395 161.648 78.0422C161.533 83.6704 161.402 89.2822 161.27 94.9104C161.139 100.211 160.992 105.496 160.893 110.797C160.795 116.016 160.778 121.235 160.696 126.455C160.696 127.403 160.549 128.369 160.467 129.318C160.434 129.645 160.368 129.956 160.368 130.267C160.483 135.322 160.286 140.361 160.237 145.417C160.139 152.894 159.975 160.371 159.844 167.832C159.778 171.775 159.745 175.701 159.696 179.644C159.663 181.886 159.614 184.144 159.581 186.385C159.483 192.324 159.384 198.28 159.286 204.219C159.204 208.391 159.105 212.579 159.023 216.751C158.876 223.655 158.892 230.576 158.564 237.481C158.22 244.467 158.466 251.453 158.302 258.439C158.236 260.91 158.302 263.38 158.302 265.851C158.302 266.571 158.138 267.29 158.105 268.01C158.007 270.563 157.892 273.131 157.892 275.684C157.892 277.042 158.056 278.4 158.138 279.758C158.22 281.197 158.285 282.637 158.351 284.077C158.4 285.108 158.269 286.171 158.679 287.169C158.745 287.316 158.761 287.496 158.745 287.644C158.581 291.259 159.286 294.842 159.319 298.458C159.319 299.423 159.483 300.372 159.532 301.321C159.63 303.154 159.696 305.003 159.778 306.835C159.844 308.34 159.581 309.895 160.155 311.367C159.597 312.79 160.401 314.181 160.286 315.621C160.172 317.061 160.27 318.517 160.319 319.957C160.352 320.84 160.5 321.707 160.598 322.574C160.614 322.722 160.713 322.902 160.68 323.032C160.122 324.947 160.844 326.845 160.746 328.759C160.647 330.673 160.746 332.62 160.762 334.534C160.762 335.974 160.614 337.414 161.09 338.821C161.287 339.393 161.188 340.097 161.188 340.735C161.188 347.901 161.188 355.051 161.205 362.217C161.205 363.575 161.32 364.949 161.385 366.307C161.385 366.553 161.467 366.782 161.451 367.027C160.975 375.535 161.238 384.059 161.221 392.583C161.221 394.677 160.86 396.706 160.91 398.817C160.975 402.334 160.795 405.868 160.729 409.386C160.696 410.908 160.696 412.413 160.434 413.934C160.172 415.407 160.286 416.978 160.27 418.499C160.254 421.624 160.303 424.749 159.876 427.874C159.63 429.69 159.827 431.572 159.778 433.42C159.745 434.304 159.581 435.171 159.532 436.038C159.433 437.642 159.368 439.245 159.319 440.848C159.286 442.043 159.351 443.237 158.991 444.431C158.81 445.02 158.876 445.708 158.843 446.346C158.761 448.031 158.941 449.7 158.515 451.369C158.236 452.416 158.4 453.577 158.367 454.706C158.335 456.146 158.466 457.602 157.941 458.993C157.859 459.205 157.908 459.467 157.892 459.713C157.679 463.067 157.515 466.437 157.252 469.791C157.055 472.425 156.777 475.043 156.547 477.661C156.481 478.381 156.481 479.1 156.432 479.837C156.367 480.638 156.268 481.424 156.17 482.225C156.137 482.536 156.006 482.847 155.989 483.174C155.825 486.708 155.481 490.21 155.005 493.711C154.792 495.363 154.661 497.032 154.497 498.701C154.333 498.734 154.185 498.75 154.021 498.783L153.956 498.799Z" fill="black"/>
<path fill-rule="evenodd" clip-rule="evenodd" d="M200.452 24.0998C200.649 25.4414 200.911 26.7667 201.01 28.1083C201.305 32.5094 201.568 36.9269 201.797 41.3444C201.863 42.5387 201.682 43.7494 201.666 44.9438C201.617 49.7539 201.551 54.5641 201.289 59.3906C201.01 64.2007 200.452 68.9782 200.091 73.7883C200.026 74.5736 199.829 75.3753 199.599 76.1279C197.877 82.0343 195.811 87.7934 193.761 93.5852C191.169 100.882 188.66 108.196 186.298 115.574C184.494 121.186 182.952 126.896 182.018 132.754C181.28 137.416 180.591 142.112 180.525 146.857C180.525 147.413 180.377 147.953 180.082 148.526C180.017 148.149 179.885 147.773 179.885 147.38C179.836 143.683 179.689 139.985 179.82 136.288C179.951 132.606 180.361 128.925 180.64 125.244C181.148 118.438 182.411 111.73 183.658 105.054C184.609 99.8678 185.855 94.7468 187.069 89.6422C188.644 83.0323 190.349 76.4552 191.973 69.8617C193.154 65.0515 194.351 60.2414 195.417 55.3985C196.319 51.2592 197.172 47.1035 197.779 42.915C198.632 36.976 199.599 31.0369 199.796 25.016C199.796 24.7215 199.944 24.4434 200.026 24.1653C200.173 24.1653 200.337 24.1325 200.485 24.1162L200.452 24.0998Z" fill="black"/>
<path fill-rule="evenodd" clip-rule="evenodd" d="M173.883 160.6C173.194 160.633 173.145 160.273 173.112 159.978C172.603 155.103 172.046 150.243 171.636 145.368C171.127 139.282 170.668 133.195 170.307 127.109C169.979 121.513 169.733 115.902 169.586 110.29C169.471 106.2 169.389 102.126 169.192 98.0354C168.979 93.7815 169.012 89.544 168.864 85.2901C168.684 79.6619 168.815 74.0337 168.782 68.4219C168.749 64.9697 168.634 61.5175 168.569 58.0654C168.569 57.9018 168.536 57.7381 168.536 57.5745C168.782 53.157 168.356 48.7559 168.339 44.3384C168.339 41.6061 168.339 38.8739 168.339 36.1416V33.5729C168.88 33.3602 168.88 33.7692 168.93 34.031C169.34 36.6488 169.75 39.2665 170.127 41.8843C170.816 46.7272 171.504 51.5537 172.161 56.3965C172.685 60.2741 173.177 64.168 173.669 68.062C174.243 72.594 174.899 77.1096 175.326 81.658C175.572 84.2921 175.441 86.959 175.392 89.6095C175.26 97.6264 175.096 105.66 174.916 113.693C174.834 117.292 174.653 120.908 174.555 124.508C174.489 126.994 174.539 129.481 174.489 131.985C174.44 134.39 174.276 136.795 174.276 139.2C174.26 144.157 174.047 149.115 174.145 154.072C174.178 155.921 174.112 157.77 174.063 159.618C174.063 159.929 173.948 160.24 173.899 160.567L173.883 160.6Z" fill="black"/>
<path fill-rule="evenodd" clip-rule="evenodd" d="M92.0913 1.50522C92.2225 2.09422 92.4522 2.69957 92.5014 3.30493C92.9278 7.95147 93.3378 12.5816 93.7314 17.2282C93.9282 19.6169 94.125 22.022 94.2727 24.427C94.4695 27.6338 94.6335 30.8406 94.7811 34.0473C94.9123 36.6815 95.0271 39.3319 95.1583 41.9661C95.1583 42.2115 95.1911 42.4569 95.1911 42.686C95.2075 50.6374 95.2567 58.6053 95.2567 66.5567C95.2567 70.5815 95.2239 74.59 95.1255 78.6148C95.0599 81.3471 94.8631 84.063 94.7647 86.779C94.7319 87.6625 94.8467 88.546 94.7975 89.4131C94.6335 93.1761 94.4367 96.9392 94.2563 100.719C94.1743 102.567 94.1743 104.416 94.1087 106.265C93.8954 111.484 93.6658 116.687 93.4526 121.906C93.3378 124.867 93.2558 127.829 93.1738 130.807C93.1738 131.052 93.1738 131.297 93.141 131.526C92.5998 135.028 92.8622 138.562 92.6654 142.079C92.4358 146.251 92.2553 150.423 92.0585 154.579C92.0585 154.906 91.9765 155.234 92.0257 155.544C92.403 157.72 91.9929 159.864 91.9601 162.023C91.9109 164.118 91.8617 166.195 91.8125 168.29C91.7305 172.396 91.6485 176.487 91.5665 180.577C91.5665 180.904 91.4517 181.231 91.5173 181.542C91.9437 184.111 91.4517 186.68 91.3041 189.232C91.1893 191.228 90.8449 193.208 90.5988 195.187C90.5824 195.351 90.5168 195.498 90.5004 195.662C90.32 197.985 90.1396 200.292 89.9592 202.615C89.6804 206.051 89.4016 209.487 89.1392 212.923C89.09 213.479 89.1064 214.052 89.0736 214.608C88.7783 219.336 88.4503 224.048 88.1879 228.776C88.0567 231.182 88.0403 233.587 87.9419 235.992C87.8599 238.151 87.6959 240.311 87.5975 242.471C87.4991 244.958 87.6303 247.444 87.1874 249.915C86.9578 251.158 87.1218 252.484 87.1218 253.776C87.1218 256.181 87.2367 258.603 87.0726 261.008C86.9414 262.84 87.1382 264.656 87.1218 266.489C87.1054 268.256 87.1218 270.023 87.1218 271.79C87.0726 276.125 86.9906 280.461 86.9742 284.78C86.9742 286.711 87.1054 288.642 87.1218 290.556C87.1382 294.81 87.1218 299.08 87.1218 303.35C87.1218 306.164 87.1546 308.962 87.1218 311.776C87.1218 312.807 87.5155 313.756 87.4007 314.836C87.3187 315.572 87.6139 316.39 87.3187 317.175C87.2695 317.322 87.2366 317.502 87.2695 317.65C87.9091 321.167 87.4171 324.701 87.5811 328.235C87.6303 329.348 87.4007 330.493 87.8599 331.573C87.8927 331.638 87.9583 331.737 87.9255 331.802C87.0562 334.109 88.0895 336.399 87.9747 338.706C87.8435 341.357 87.9747 344.007 88.0403 346.658C88.0895 348.425 88.3519 350.175 88.3191 351.942C88.2535 354.511 88.5979 357.047 88.5323 359.599C88.4503 362.25 88.5323 364.9 88.5323 367.551C88.5323 367.96 88.4831 368.369 88.5487 368.762C89.0736 371.625 88.9259 374.521 88.9752 377.4C89.0572 380.934 89.0244 384.468 89.0408 388.002C89.0408 388.166 89.0408 388.329 89.0572 388.493C89.1556 389.376 89.2212 390.244 89.3852 391.111C89.5492 391.994 89.1556 392.796 89.2376 393.712C89.4672 396.248 89.418 398.817 89.4508 401.385C89.4836 403.872 89.5492 406.376 89.5492 408.862C89.5492 415.456 89.5 422.049 89.4672 428.643C88.6143 434.157 89.3688 439.719 88.9095 445.233C88.4339 450.943 88.6143 456.62 88.5323 462.33C88.5323 462.739 88.5979 463.181 88.4503 463.525C87.9255 464.85 88.0895 466.208 88.0731 467.566C88.0731 471.263 88.1059 474.961 88.0403 478.642C88.0075 480.966 87.7615 483.289 87.7123 485.612C87.6303 489.064 87.6303 492.533 87.5811 495.985C87.5647 497.032 87.4499 498.063 87.3351 499.094C87.3351 499.274 87.089 499.437 86.843 499.764C86.5478 498.505 86.679 497.392 86.6462 496.312C86.597 494.954 86.7446 493.58 86.269 492.255C86.1214 491.829 86.187 491.306 86.1706 490.815C86.1706 488.492 86.3018 486.136 86.1214 483.829C85.9246 481.375 86.269 478.904 85.7606 476.466C85.5802 475.534 85.695 474.552 85.695 473.587C85.695 470.445 85.695 467.32 85.695 464.179C85.695 463.132 85.5474 462.118 85.3833 461.087C85.2193 460.105 85.5638 459.042 85.6786 458.011C85.695 457.847 85.7114 457.684 85.6786 457.537C85.1373 455.557 85.5966 453.544 85.4982 451.548C85.0061 442.239 85.3505 432.913 85.2029 423.587C85.1701 421.919 84.8749 420.233 84.7765 418.565C84.6781 416.879 85.1373 415.211 84.7765 413.525C84.6617 412.985 84.7437 412.396 84.7437 411.84C84.7437 408.552 84.7437 405.247 84.7437 401.942C84.7437 401.533 84.7929 401.124 84.7109 400.731C84.1041 397.475 84.3173 394.17 84.2517 390.882C84.2189 389.278 84.3993 387.659 83.8417 386.121C83.7925 385.973 83.7925 385.793 83.7925 385.646C84.0221 381.785 83.284 377.973 83.2512 374.112C83.2348 371.952 82.874 369.792 82.6772 367.649C82.5624 366.455 82.4312 365.26 82.3164 364.066C82.218 363.182 82.136 362.315 82.0211 361.448C81.9719 361.055 81.8571 360.663 81.8407 360.27C81.8079 357.701 81.1519 355.215 80.9715 352.679C80.7747 349.701 80.0366 346.838 79.8562 343.86C79.7086 341.635 79.2658 339.426 78.8558 337.234C78.1505 333.487 77.3797 329.757 76.6252 326.01C76.2972 324.374 75.9856 322.722 75.5264 321.118C74.8703 318.86 74.8539 316.521 74.7227 314.214C74.6079 312.218 74.9195 310.205 74.3127 308.242C74.6407 306.802 74.2143 305.395 74.2307 303.972C74.2635 301.158 74.2307 298.344 74.2307 295.53C74.2307 295.039 74.3291 294.515 74.1979 294.09C73.7387 292.683 74.0995 291.276 74.1487 289.869C74.1815 289.067 74.2143 288.265 74.2143 287.464C74.2143 281.77 74.2307 276.06 74.2471 270.366C74.2471 269.401 74.2471 268.468 74.5587 267.519C74.8047 266.799 74.6899 265.932 74.6899 265.131C74.7391 262.153 74.5751 259.159 74.8539 256.214C75.1656 252.925 74.8867 249.604 75.3296 246.381C75.6412 244.074 75.3624 241.734 75.9856 239.477C76.2152 238.659 76.1332 237.71 76.1004 236.842C76.0348 234.781 76.3628 232.752 76.5268 230.707C76.7236 228.155 76.8549 225.602 77.0681 223.05C77.1665 221.79 77.4125 220.53 77.5109 219.254C77.6093 218.06 77.4945 216.833 77.6585 215.639C78.0521 212.792 78.2981 209.929 78.4949 207.049C78.6262 205.053 78.8722 203.073 79.0854 201.077C79.2002 200.046 79.3642 199.016 79.4134 197.985C79.479 196.791 79.3478 195.58 79.807 194.418C79.971 193.993 79.889 193.469 79.9054 192.979C79.9218 191.784 79.8234 190.573 80.299 189.412C80.4303 189.068 80.3811 188.626 80.3811 188.217C80.3811 186.778 80.5451 185.354 80.7583 183.931C81.0863 181.886 81.1355 179.775 81.3323 177.714C81.4635 176.29 81.6931 174.867 81.7915 173.427C81.8899 172.069 81.9227 170.727 82.2016 169.37C82.4312 168.29 82.2672 167.128 82.382 166.016C82.628 163.463 82.9724 160.927 83.202 158.375C83.448 155.495 83.5464 152.616 83.7597 149.736C83.9565 147.102 84.2353 144.484 84.4813 141.85C84.5141 141.458 84.5469 141.049 84.5633 140.656C84.8093 135.682 85.1701 130.725 85.3341 125.751C85.4817 121.333 85.859 116.932 86.0722 112.515C86.187 110.273 86.187 108.016 86.2362 105.774C86.269 104.253 86.187 102.747 86.4658 101.226C86.6954 99.9823 86.515 98.6571 86.515 97.3809C86.4986 94.3214 86.3838 91.2783 86.4494 88.2187C86.515 85.0938 86.4986 81.9688 86.9578 78.8602C87.2367 76.9623 87.3023 75.0317 87.4827 73.1011C87.7943 69.8289 88.1223 66.5567 88.4339 63.2845C88.4503 63.0391 88.4831 62.8101 88.4995 62.5646C88.6799 59.1943 88.8111 55.8239 89.0408 52.4699C89.2704 49.0995 89.6148 45.7618 89.8444 42.3915C90.074 39.1193 90.2216 35.8307 90.3856 32.5421C90.6644 27.0939 90.9597 21.6293 91.2221 16.1811C91.3205 13.8578 91.3369 11.5182 91.4025 9.19491C91.4517 7.26431 91.4681 5.35006 91.5501 3.41946C91.5665 2.8141 91.7305 2.2251 91.8289 1.61975C91.9273 1.61975 92.0257 1.61975 92.1077 1.61975L92.0913 1.50522Z" fill="black"/>
<path fill-rule="evenodd" clip-rule="evenodd" d="M84.9734 502.251C83.6613 502.35 82.4804 502.431 81.2832 502.513C77.9374 502.742 74.6736 503.364 71.3934 504.051C68.9332 504.575 66.4403 504.771 63.9474 504.967C61.0116 505.196 58.2398 504.657 55.5337 503.577C55.4189 503.528 55.3369 503.348 55.1729 503.151C55.3697 502.955 55.5337 502.66 55.7797 502.546C57.0098 501.924 58.2398 501.27 59.5191 500.763C60.9788 500.19 62.3237 499.454 63.3569 498.243C64.259 497.196 65.4398 496.738 66.5879 496.738C69.4909 496.738 72.3118 495.92 75.2148 496.149C78.9214 496.443 82.0868 497.867 84.5469 500.861C84.6946 501.041 84.8094 501.253 84.9078 501.466C84.957 501.597 84.9242 501.777 84.957 502.268L84.9734 502.251Z" fill="black"/>
<path fill-rule="evenodd" clip-rule="evenodd" d="M86.0722 3.22313C85.3013 3.07588 84.9569 3.0268 84.6289 2.96135C82.71 2.58505 80.8403 2.7323 79.1346 3.82849C77.1173 5.12101 75.1164 6.39717 73.099 7.68969C71.6558 8.60591 70.1633 9.37488 68.4412 9.50577C67.1947 9.60394 65.9974 9.39124 64.9478 8.63864C63.6193 7.67333 62.4876 6.49534 61.6676 5.02284C61.602 4.90832 61.6676 4.71198 61.6676 4.40112C61.9628 4.31932 62.2908 4.17207 62.6352 4.12299C65.5054 3.77941 68.2772 2.96135 71.0161 1.99605C73.3779 1.16164 75.7396 0.294503 78.2817 0.032726C79.7578 -0.114523 81.1847 0.049087 82.5788 0.376308C83.9401 0.687168 84.9405 1.70155 86.0722 3.20677V3.22313Z" fill="black"/>
<path fill-rule="evenodd" clip-rule="evenodd" d="M53.1719 240.589C54.976 238.184 57.1902 237.202 60.0111 237.824C61.4872 238.151 62.9633 238.511 64.4394 238.855C66.8667 239.428 69.2448 239.411 71.6066 238.511C72.3774 238.217 73.1811 238.086 74.1487 237.824C74.1815 238.413 74.2963 238.822 74.1815 239.166C73.5255 241.096 72.5414 242.716 70.7537 243.763C67.1947 245.874 63.6193 245.416 59.9783 244.14C59.7159 244.041 59.4371 243.829 59.2403 243.616C58.3382 242.618 57.2066 242.291 55.9437 242.307C54.812 242.323 53.8608 242.013 53.1555 240.589H53.1719Z" fill="black"/>
<path fill-rule="evenodd" clip-rule="evenodd" d="M24.2405 14.8067C24.4045 15.6248 24.6177 16.4428 24.749 17.2773C25.2574 20.7294 25.7986 24.1653 26.2086 27.6338C26.7827 32.5585 27.2255 37.4995 27.7503 42.4405C27.8651 43.6022 28.0783 44.7475 28.1768 45.9091C28.7016 52.3226 29.2264 58.7361 29.702 65.1497C30.1121 70.5652 30.4565 75.9807 30.8009 81.3962C30.8993 83.0159 30.7845 84.6357 30.8993 86.2554C31.1781 89.9694 30.8665 93.6997 31.3421 97.3973C31.3585 97.5446 31.3913 97.7082 31.3913 97.8554C31.3913 100.719 31.3913 103.582 31.3913 106.445C31.3913 108.228 31.4241 110.012 31.4405 111.795C31.4569 116.213 31.7358 120.646 31.4241 125.047C31.0469 130.234 31.2765 135.437 30.9157 140.607C30.6861 143.699 30.7681 146.808 30.6041 149.9C30.4073 153.368 30.0793 156.821 29.8168 160.289C29.7676 161.058 29.7676 161.843 29.702 162.612C29.3904 166.785 28.964 170.94 28.7508 175.112C28.5212 179.612 27.8651 184.062 27.3075 188.512C26.9959 190.966 26.6351 193.42 26.4547 195.874C26.389 196.758 26.6843 197.707 26.9631 198.59C27.5043 200.226 27.8651 201.895 27.8323 203.597C27.7503 207.556 27.5371 211.499 27.3895 215.459C27.3403 217.078 27.1271 218.731 27.3239 220.334C27.5371 222.15 27.2747 223.885 27.0451 225.652C26.7499 227.877 26.5367 230.102 26.307 232.327C26.2742 232.638 26.2742 232.949 26.307 233.259C26.7991 236.859 26.8483 240.507 27.5207 244.107C28.2752 248.066 28.8984 252.042 29.4724 256.034C29.8825 258.946 30.1777 261.891 30.1285 264.836C30.0629 268.256 30.2269 271.659 30.5057 275.046C30.6861 277.287 30.7681 279.545 30.7025 281.786C30.6205 284.339 31.1125 286.891 30.7189 289.443C31.3257 293.354 30.9977 297.313 31.0633 301.256C31.1289 305.134 31.0633 309.027 31.0633 312.905C31.0633 316.783 31.1125 320.824 31.0633 324.783C31.0141 328.252 30.8173 331.737 30.7353 335.205C30.6533 338.935 30.6533 342.666 30.5877 346.38C30.5713 347.77 30.6369 349.145 30.2269 350.519C30.0137 351.239 30.1285 352.057 30.1285 352.842C30.1285 355.558 30.1777 358.258 30.1121 360.974C30.0629 363.133 29.8496 365.293 29.7512 367.469C29.6856 368.794 29.6528 370.103 29.6528 371.429C29.6528 375.306 29.5708 379.184 29.1772 383.029C29.1772 383.11 29.1772 383.192 29.1772 383.258C29.0952 386.579 28.9476 389.917 28.9148 393.238C28.8656 397.655 28.5212 402.056 28.6688 406.474C28.7016 407.717 28.6688 408.944 28.6524 410.188C28.6524 410.417 28.6688 410.662 28.6032 410.891C27.9799 413.018 28.1932 415.211 28.2096 417.37C28.226 422.181 28.0783 426.974 27.7995 431.768C27.7831 432.144 27.7503 432.553 27.7995 432.93C28.0127 434.549 28.0127 436.169 27.9471 437.805C27.8979 439.18 28.0619 440.57 28.1111 441.961C28.1276 442.583 28.144 443.204 28.1111 443.826C28.0455 446.068 27.9471 448.325 27.8815 450.567C27.8815 450.943 27.9799 451.336 28.0127 451.712C28.0783 452.334 28.1604 452.939 28.1604 453.561C28.1768 456.98 28.1604 460.384 28.1768 463.803C28.1932 466.977 28.39 470.135 28.554 473.309C28.718 476.156 28.9968 479.002 29.128 481.849C29.21 483.551 29.1444 485.269 29.2592 486.97C29.4724 490.046 29.784 493.106 30.0465 496.181C30.0793 496.64 30.0957 497.114 30.0957 497.572C30.1121 498.816 30.0465 500.059 30.4729 501.27C30.5877 501.613 30.5549 502.055 30.4401 502.399C30.3581 502.628 30.0137 502.889 29.784 502.889C29.5872 502.889 29.2428 502.595 29.1936 502.366C29.0952 501.924 29.1116 501.45 29.128 500.975C29.1608 498.881 29.0952 496.803 28.7508 494.709C28.6032 493.793 28.7016 492.844 28.636 491.911C28.5704 490.913 28.4228 489.932 28.308 488.934C28.2588 488.541 28.1604 488.165 28.1768 487.788C28.2588 485.743 27.7995 483.78 27.4387 481.8C27.1435 480.213 27.0123 478.577 26.7171 476.99C25.979 472.9 25.1426 468.842 24.4209 464.752C23.5681 459.991 22.5676 455.246 21.6328 450.501C21.3868 449.225 21.2884 447.916 21.0751 446.608C20.7307 444.628 20.4683 442.648 20.1895 440.652C20.1239 440.194 20.1403 439.72 20.0911 439.261C19.9927 438.263 19.8451 437.265 19.7631 436.267C19.6319 434.566 19.5827 432.864 19.4186 431.163C19.0414 427.531 19.1562 423.866 19.189 420.234C19.189 419.694 19.3038 419.17 19.3858 418.63C19.435 418.254 19.6319 417.878 19.5991 417.501C19.435 415.243 19.7959 413.018 20.1403 410.81C20.4519 408.732 20.3371 406.605 20.6651 404.56C21.1243 401.795 20.9767 399.013 21.4196 396.265C21.6656 394.743 21.4688 393.172 21.5508 391.618C21.5836 390.702 21.764 389.786 21.8624 388.869C21.9116 388.329 21.9936 387.79 21.9936 387.25C22.01 385.466 21.9936 383.683 22.0264 381.9C22.0264 381.294 22.174 380.689 22.256 380.067C22.3216 379.609 22.5348 379.118 22.42 378.709C21.9936 377.155 22.502 375.65 22.4856 374.128C22.4856 372.492 22.4856 370.872 22.4856 369.236C22.4856 367.6 22.4856 366.128 22.4856 364.573C22.502 363.019 22.5512 361.481 22.6004 359.927C22.6988 356.834 22.7972 353.759 22.8956 350.666C22.8956 350.355 22.9449 350.012 22.8464 349.734C22.3052 348.212 22.6168 346.658 22.584 345.12C22.584 344.433 22.6988 343.746 22.7644 343.058C22.7972 342.748 22.8956 342.437 22.8628 342.142C22.2888 336.498 22.5512 330.853 22.4692 325.209C22.4692 324.292 22.3052 323.376 22.2068 322.46C22.2068 322.313 22.1084 322.133 22.1412 322.002C22.6332 319.842 21.9936 317.715 22.01 315.572C22.0264 313.478 22.0428 311.383 22.01 309.289C21.9936 308.291 21.8132 307.293 21.764 306.279C21.682 304.97 21.5836 303.645 21.5672 302.336C21.5344 300.323 21.5344 298.295 21.5344 296.282C21.5344 295.268 21.5836 294.27 21.2228 293.305C21.0915 292.961 21.0751 292.536 21.0915 292.159C21.3376 287.725 20.4027 283.341 20.5831 278.923C20.6159 277.925 20.3535 276.927 20.3043 275.929C20.0747 271.675 19.8943 267.405 19.6319 263.151C19.4186 259.683 19.1398 256.214 18.8938 252.729C18.861 252.336 18.861 251.944 18.8446 251.567C18.615 247.232 18.4182 242.896 18.1558 238.544C17.9098 234.601 17.5325 230.674 17.3521 226.731C17.2373 224.408 17.3521 222.068 17.4341 219.745C17.4833 218.044 17.6637 216.342 17.7622 214.641C18.123 208.914 18.3362 203.188 18.8774 197.478C19.189 194.304 19.0906 191.13 19.3366 187.956C19.7139 183.244 19.9271 178.515 20.1075 173.787C20.3207 168.519 20.4355 163.251 20.6159 157.966C20.7963 152.763 21.0259 147.577 21.2228 142.374C21.3376 139.282 21.4196 136.189 21.5344 133.081C21.6656 129.432 21.846 125.784 21.9444 122.152C22.01 119.436 21.9772 116.72 21.9936 114.004C22.0264 110.355 21.928 106.69 22.1412 103.058C22.6168 95.3849 22.338 87.7116 22.6168 80.0382C22.7808 75.3099 22.8464 70.5815 22.9449 65.8696C22.9777 64.5443 22.9285 63.2354 22.9449 61.9102C23.0433 57.64 23.1909 53.3697 23.2565 49.1159C23.3221 45.1565 23.3057 41.1971 23.3385 37.2377C23.3877 32.5748 23.4533 27.9283 23.5189 23.2654C23.5517 20.8603 23.5681 18.4553 23.6173 16.0502C23.6173 15.6248 23.7977 15.2158 23.8961 14.7904C23.9945 14.7904 24.0929 14.7904 24.1913 14.8067H24.2405Z" fill="black"/>
<path fill-rule="evenodd" clip-rule="evenodd" d="M48.9732 1.81607C45.2338 3.37037 41.3139 4.04117 37.4269 4.7447C32.523 5.62819 27.2091 6.0863 21.9936 6.13539C14.2032 6.20083 6.82275 5.43186 1.19723 2.92862C-4.11313e-05 2.40507 -0.377263 1.86515 0.426383 1.0471C2.03368 0.474464 4.2314 0.196326 6.62594 0.196326C12.6943 0.196326 18.8118 0.0817986 24.831 0.310853C32.5886 0.621713 40.2643 1.24343 48.9732 1.79971V1.81607Z" fill="black"/>
</g>
<defs>
<clipPath id="clip0_26_2335">
<rect width="215" height="505" fill="white"/>
</clipPath>
</defs>
</svg>
